<?xml version="1.0" encoding="UTF-8"?>
<svg xmlns="http://www.w3.org/2000/svg" width="547" height="69">
   <defs>
      <style type="text/css">
    @namespace "http://www.w3.org/2000/svg";
    .line                 {fill: none; stroke: #332900; stroke-width: 1;}
    .bold-line            {stroke: #141000; shape-rendering: crispEdges; stroke-width: 2;}
    .thin-line            {stroke: #1F1800; shape-rendering: crispEdges}
    .filled               {fill: #332900; stroke: none;}
    text.terminal         {font-family: Verdana, Sans-serif;
                            font-size: 12px;
                            fill: #141000;
                            font-weight: bold;
                          }
    text.nonterminal      {font-family: Verdana, Sans-serif;
                            font-size: 12px;
                            fill: #1A1400;
                            font-weight: normal;
                          }
    text.regexp           {font-family: Verdana, Sans-serif;
                            font-size: 12px;
                            fill: #1F1800;
                            font-weight: normal;
                          }
    rect, circle, polygon {fill: #332900; stroke: #332900;}
    rect.terminal         {fill: #FFDB4D; stroke: #332900; stroke-width: 1;}
    rect.nonterminal      {fill: #FFEC9E; stroke: #332900; stroke-width: 1;}
    rect.text             {fill: none; stroke: none;}
    polygon.regexp        {fill: #FFF4C7; stroke: #332900; stroke-width: 1;}
  </style>
   </defs>
   <polygon points="9 17 1 13 1 21"/>
   <polygon points="17 17 9 13 9 21"/>
   <rect x="31" y="3" width="28" height="32" rx="10"/>
   <rect x="29"
         y="1"
         width="28"
         height="32"
         class="terminal"
         rx="10"/>
   <text class="terminal" x="39" y="21">if</text>
   <rect x="79" y="3" width="26" height="32" rx="10"/>
   <rect x="77"
         y="1"
         width="26"
         height="32"
         class="terminal"
         rx="10"/>
   <text class="terminal" x="87" y="21">(</text>
   <a xmlns:xlink="http://www.w3.org/1999/xlink"
      xlink:href="#Path"
      xlink:title="Path">
      <rect x="125" y="3" width="48" height="32"/>
      <rect x="123" y="1" width="48" height="32" class="nonterminal"/>
      <text class="nonterminal" x="133" y="21">Path</text>
   </a>
   <rect x="193" y="3" width="26" height="32" rx="10"/>
   <rect x="191"
         y="1"
         width="26"
         height="32"
         class="terminal"
         rx="10"/>
   <text class="terminal" x="201" y="21">)</text>
   <a xmlns:xlink="http://www.w3.org/1999/xlink"
      xlink:href="#SubSelection"
      xlink:title="SubSelection">
      <rect x="239" y="3" width="102" height="32"/>
      <rect x="237" y="1" width="102" height="32" class="nonterminal"/>
      <text class="nonterminal" x="247" y="21">SubSelection</text>
   </a>
   <a xmlns:xlink="http://www.w3.org/1999/xlink"
      xlink:href="#ConditionalElse"
      xlink:title="ConditionalElse">
      <rect x="381" y="35" width="118" height="32"/>
      <rect x="379" y="33" width="118" height="32" class="nonterminal"/>
      <text class="nonterminal" x="389" y="53">ConditionalElse</text>
   </a>
   <path class="line"
         d="m17 17 h2 m0 0 h10 m28 0 h10 m0 0 h10 m26 0 h10 m0 0 h10 m48 0 h10 m0 0 h10 m26 0 h10 m0 0 h10 m102 0 h10 m20 0 h10 m0 0 h128 m-158 0 h20 m138 0 h20 m-178 0 q10 0 10 10 m158 0 q0 -10 10 -10 m-168 10 v12 m158 0 v-12 m-158 12 q0 10 10 10 m138 0 q10 0 10 -10 m-148 10 h10 m118 0 h10 m23 -32 h-3"/>
   <polygon points="537 17 545 13 545 21"/>
   <polygon points="537 17 529 13 529 21"/>
</svg>
