<?xml version="1.0" encoding="UTF-8"?>
<svg xmlns="http://www.w3.org/2000/svg" width="391" height="291">
   <defs>
      <style type="text/css">
    @namespace "http://www.w3.org/2000/svg";
    .line                 {fill: none; stroke: #332200; stroke-width: 1;}
    .bold-line            {stroke: #140E00; shape-rendering: crispEdges; stroke-width: 2;}
    .thin-line            {stroke: #1F1400; shape-rendering: crispEdges}
    .filled               {fill: #332200; stroke: none;}
    text.terminal         {font-family: Verdana, Sans-serif;
                            font-size: 12px;
                            fill: #140E00;
                            font-weight: bold;
                          }
    text.nonterminal      {font-family: Verdana, Sans-serif;
                            font-size: 12px;
                            fill: #1A1100;
                            font-weight: normal;
                          }
    text.regexp           {font-family: Verdana, Sans-serif;
                            font-size: 12px;
                            fill: #1F1400;
                            font-weight: normal;
                          }
    rect, circle, polygon {fill: #332200; stroke: #332200;}
    rect.terminal         {fill: #FFC34D; stroke: #332200; stroke-width: 1;}
    rect.nonterminal      {fill: #FFDF9E; stroke: #332200; stroke-width: 1;}
    rect.text             {fill: none; stroke: none;}
    polygon.regexp        {fill: #FFECC7; stroke: #332200; stroke-width: 1;}
  </style>
   </defs>
   <polygon points="9 183 1 179 1 187"/>
   <polygon points="17 183 9 179 9 187"/>
   <polygon points="51 185 58 169 104 169 111 185 104 201 58 201"/>
   <polygon points="49 183 56 167 102 167 109 183 102 199 56 199" class="regexp"/>
   <text class="regexp" x="64" y="187">[a-z]</text>
   <polygon points="51 229 58 213 106 213 113 229 106 245 58 245"/>
   <polygon points="49 227 56 211 104 211 111 227 104 243 56 243" class="regexp"/>
   <text class="regexp" x="64" y="231">[A-Z]</text>
   <rect x="51" y="257" width="28" height="32" rx="10"/>
   <rect x="49"
         y="255"
         width="28"
         height="32"
         class="terminal"
         rx="10"/>
   <text class="terminal" x="59" y="275">_</text>
   <a xmlns:xlink="http://www.w3.org/1999/xlink"
      xlink:href="#NO_SPACE"
      xlink:title="NO_SPACE">
      <rect x="153" y="169" width="88" height="32"/>
      <rect x="151" y="167" width="88" height="32" class="nonterminal"/>
      <text class="nonterminal" x="161" y="187">NO_SPACE</text>
   </a>
   <polygon points="281 151 288 135 336 135 343 151 336 167 288 167"/>
   <polygon points="279 149 286 133 334 133 341 149 334 165 286 165" class="regexp"/>
   <text class="regexp" x="294" y="153">[0-9]</text>
   <polygon points="281 107 288 91 334 91 341 107 334 123 288 123"/>
   <polygon points="279 105 286 89 332 89 339 105 332 121 286 121" class="regexp"/>
   <text class="regexp" x="294" y="109">[a-z]</text>
   <polygon points="281 63 288 47 336 47 343 63 336 79 288 79"/>
   <polygon points="279 61 286 45 334 45 341 61 334 77 286 77" class="regexp"/>
   <text class="regexp" x="294" y="65">[A-Z]</text>
   <rect x="281" y="3" width="28" height="32" rx="10"/>
   <rect x="279"
         y="1"
         width="28"
         height="32"
         class="terminal"
         rx="10"/>
   <text class="terminal" x="289" y="21">_</text>
   <path class="line"
         d="m17 183 h2 m20 0 h10 m60 0 h10 m0 0 h2 m-102 0 h20 m82 0 h20 m-122 0 q10 0 10 10 m102 0 q0 -10 10 -10 m-112 10 v24 m102 0 v-24 m-102 24 q0 10 10 10 m82 0 q10 0 10 -10 m-92 10 h10 m62 0 h10 m-92 -10 v20 m102 0 v-20 m-102 20 v24 m102 0 v-24 m-102 24 q0 10 10 10 m82 0 q10 0 10 -10 m-92 10 h10 m28 0 h10 m0 0 h34 m20 -88 h10 m88 0 h10 m20 0 h10 m0 0 h72 m-102 0 l20 0 m-1 0 q-9 0 -9 -10 l0 -14 q0 -10 10 -10 m82 34 l20 0 m-20 0 q10 0 10 -10 l0 -14 q0 -10 -10 -10 m-82 0 h10 m62 0 h10 m-92 10 l0 -44 q0 -10 10 -10 m92 54 l0 -44 q0 -10 -10 -10 m-82 0 h10 m60 0 h10 m0 0 h2 m-92 10 l0 -44 q0 -10 10 -10 m92 54 l0 -44 q0 -10 -10 -10 m-82 0 h10 m62 0 h10 m-92 10 l0 -44 q0 -10 10 -10 m92 54 l0 -44 q0 -10 -10 -10 m-82 0 h10 m28 0 h10 m0 0 h34 m23 166 h-3"/>
   <polygon points="381 183 389 179 389 187"/>
   <polygon points="381 183 373 179 373 187"/>
</svg>
