<?xml version="1.0" encoding="UTF-8"?>
<svg xmlns="http://www.w3.org/2000/svg" width="487" height="135">
   <defs>
      <style type="text/css">
    @namespace "http://www.w3.org/2000/svg";
    .line                 {fill: none; stroke: #332200; stroke-width: 1;}
    .bold-line            {stroke: #140E00; shape-rendering: crispEdges; stroke-width: 2;}
    .thin-line            {stroke: #1F1400; shape-rendering: crispEdges}
    .filled               {fill: #332200; stroke: none;}
    text.terminal         {font-family: Verdana, Sans-serif;
                            font-size: 12px;
                            fill: #140E00;
                            font-weight: bold;
                          }
    text.nonterminal      {font-family: Verdana, Sans-serif;
                            font-size: 12px;
                            fill: #1A1100;
                            font-weight: normal;
                          }
    text.regexp           {font-family: Verdana, Sans-serif;
                            font-size: 12px;
                            fill: #1F1400;
                            font-weight: normal;
                          }
    rect, circle, polygon {fill: #332200; stroke: #332200;}
    rect.terminal         {fill: #FFC34D; stroke: #332200; stroke-width: 1;}
    rect.nonterminal      {fill: #FFDF9E; stroke: #332200; stroke-width: 1;}
    rect.text             {fill: none; stroke: none;}
    polygon.regexp        {fill: #FFECC7; stroke: #332200; stroke-width: 1;}
  </style>
   </defs>
   <polygon points="9 33 1 29 1 37"/>
   <polygon points="17 33 9 29 9 37"/>
   <rect x="51" y="51" width="26" height="32" rx="10"/>
   <rect x="49"
         y="49"
         width="26"
         height="32"
         class="terminal"
         rx="10"/>
   <text class="terminal" x="59" y="69">-</text>
   <a xmlns:xlink="http://www.w3.org/1999/xlink"
      xlink:href="#UnsignedInt"
      xlink:title="UnsignedInt">
      <rect x="137" y="19" width="96" height="32"/>
      <rect x="135" y="17" width="96" height="32" class="nonterminal"/>
      <text class="nonterminal" x="145" y="37">UnsignedInt</text>
   </a>
   <rect x="273" y="19" width="24" height="32" rx="10"/>
   <rect x="271"
         y="17"
         width="24"
         height="32"
         class="terminal"
         rx="10"/>
   <text class="terminal" x="281" y="37">.</text>
   <polygon points="337 35 344 19 392 19 399 35 392 51 344 51"/>
   <polygon points="335 33 342 17 390 17 397 33 390 49 342 49" class="regexp"/>
   <text class="regexp" x="350" y="37">[0-9]</text>
   <rect x="137" y="101" width="24" height="32" rx="10"/>
   <rect x="135"
         y="99"
         width="24"
         height="32"
         class="terminal"
         rx="10"/>
   <text class="terminal" x="145" y="119">.</text>
   <polygon points="201 117 208 101 256 101 263 117 256 133 208 133"/>
   <polygon points="199 115 206 99 254 99 261 115 254 131 206 131" class="regexp"/>
   <text class="regexp" x="214" y="119">[0-9]</text>
   <path class="line"
         d="m17 33 h2 m20 0 h10 m0 0 h36 m-66 0 h20 m46 0 h20 m-86 0 q10 0 10 10 m66 0 q0 -10 10 -10 m-76 10 v12 m66 0 v-12 m-66 12 q0 10 10 10 m46 0 q10 0 10 -10 m-56 10 h10 m26 0 h10 m40 -32 h10 m96 0 h10 m20 0 h10 m24 0 h10 m20 0 h10 m62 0 h10 m-102 0 l20 0 m-1 0 q-9 0 -9 -10 l0 -12 q0 -10 10 -10 m82 32 l20 0 m-20 0 q10 0 10 -10 l0 -12 q0 -10 -10 -10 m-82 0 h10 m0 0 h72 m-166 32 h20 m166 0 h20 m-206 0 q10 0 10 10 m186 0 q0 -10 10 -10 m-196 10 v14 m186 0 v-14 m-186 14 q0 10 10 10 m166 0 q10 0 10 -10 m-176 10 h10 m0 0 h156 m-322 -34 h20 m322 0 h20 m-362 0 q10 0 10 10 m342 0 q0 -10 10 -10 m-352 10 v62 m342 0 v-62 m-342 62 q0 10 10 10 m322 0 q10 0 10 -10 m-332 10 h10 m24 0 h10 m20 0 h10 m62 0 h10 m-102 0 l20 0 m-1 0 q-9 0 -9 -10 l0 -12 q0 -10 10 -10 m82 32 l20 0 m-20 0 q10 0 10 -10 l0 -12 q0 -10 -10 -10 m-82 0 h10 m0 0 h72 m20 32 h156 m23 -82 h-3"/>
   <polygon points="477 33 485 29 485 37"/>
   <polygon points="477 33 469 29 469 37"/>
</svg>
