<?xml version="1.0" encoding="UTF-8"?>
<svg xmlns="http://www.w3.org/2000/svg" width="493" height="153">
   <defs>
      <style type="text/css">
    @namespace "http://www.w3.org/2000/svg";
    .line                 {fill: none; stroke: #332900; stroke-width: 1;}
    .bold-line            {stroke: #141000; shape-rendering: crispEdges; stroke-width: 2;}
    .thin-line            {stroke: #1F1800; shape-rendering: crispEdges}
    .filled               {fill: #332900; stroke: none;}
    text.terminal         {font-family: Verdana, Sans-serif;
                            font-size: 12px;
                            fill: #141000;
                            font-weight: bold;
                          }
    text.nonterminal      {font-family: Verdana, Sans-serif;
                            font-size: 12px;
                            fill: #1A1400;
                            font-weight: normal;
                          }
    text.regexp           {font-family: Verdana, Sans-serif;
                            font-size: 12px;
                            fill: #1F1800;
                            font-weight: normal;
                          }
    rect, circle, polygon {fill: #332900; stroke: #332900;}
    rect.terminal         {fill: #FFDB4D; stroke: #332900; stroke-width: 1;}
    rect.nonterminal      {fill: #FFEC9E; stroke: #332900; stroke-width: 1;}
    rect.text             {fill: none; stroke: none;}
    polygon.regexp        {fill: #FFF4C7; stroke: #332900; stroke-width: 1;}
  </style>
   </defs>
   <polygon points="9 51 1 47 1 55"/>
   <polygon points="17 51 9 47 9 55"/>
   <rect x="51" y="69" width="26" height="32" rx="10"/>
   <rect x="49"
         y="67"
         width="26"
         height="32"
         class="terminal"
         rx="10"/>
   <text class="terminal" x="59" y="87">-</text>
   <polygon points="157 53 164 37 212 37 219 53 212 69 164 69"/>
   <polygon points="155 51 162 35 210 35 217 51 210 67 162 67" class="regexp"/>
   <text class="regexp" x="170" y="55">[0-9]</text>
   <rect x="279" y="37" width="24" height="32" rx="10"/>
   <rect x="277"
         y="35"
         width="24"
         height="32"
         class="terminal"
         rx="10"/>
   <text class="terminal" x="287" y="55">.</text>
   <polygon points="343 19 350 3 398 3 405 19 398 35 350 35"/>
   <polygon points="341 17 348 1 396 1 403 17 396 33 348 33" class="regexp"/>
   <text class="regexp" x="356" y="21">[0-9]</text>
   <rect x="137" y="119" width="24" height="32" rx="10"/>
   <rect x="135"
         y="117"
         width="24"
         height="32"
         class="terminal"
         rx="10"/>
   <text class="terminal" x="145" y="137">.</text>
   <polygon points="201 135 208 119 256 119 263 135 256 151 208 151"/>
   <polygon points="199 133 206 117 254 117 261 133 254 149 206 149" class="regexp"/>
   <text class="regexp" x="214" y="137">[0-9]</text>
   <path class="line"
         d="m17 51 h2 m20 0 h10 m0 0 h36 m-66 0 h20 m46 0 h20 m-86 0 q10 0 10 10 m66 0 q0 -10 10 -10 m-76 10 v12 m66 0 v-12 m-66 12 q0 10 10 10 m46 0 q10 0 10 -10 m-56 10 h10 m26 0 h10 m60 -32 h10 m62 0 h10 m-102 0 l20 0 m-1 0 q-9 0 -9 -10 l0 -12 q0 -10 10 -10 m82 32 l20 0 m-20 0 q10 0 10 -10 l0 -12 q0 -10 -10 -10 m-82 0 h10 m0 0 h72 m40 32 h10 m24 0 h10 m20 0 h10 m0 0 h72 m-102 0 l20 0 m-1 0 q-9 0 -9 -10 l0 -14 q0 -10 10 -10 m82 34 l20 0 m-20 0 q10 0 10 -10 l0 -14 q0 -10 -10 -10 m-82 0 h10 m62 0 h10 m-166 34 h20 m166 0 h20 m-206 0 q10 0 10 10 m186 0 q0 -10 10 -10 m-196 10 v14 m186 0 v-14 m-186 14 q0 10 10 10 m166 0 q10 0 10 -10 m-176 10 h10 m0 0 h156 m-328 -34 h20 m328 0 h20 m-368 0 q10 0 10 10 m348 0 q0 -10 10 -10 m-358 10 v62 m348 0 v-62 m-348 62 q0 10 10 10 m328 0 q10 0 10 -10 m-338 10 h10 m24 0 h10 m20 0 h10 m62 0 h10 m-102 0 l20 0 m-1 0 q-9 0 -9 -10 l0 -12 q0 -10 10 -10 m82 32 l20 0 m-20 0 q10 0 10 -10 l0 -12 q0 -10 -10 -10 m-82 0 h10 m0 0 h72 m20 32 h162 m23 -82 h-3"/>
   <polygon points="483 51 491 47 491 55"/>
   <polygon points="483 51 475 47 475 55"/>
</svg>
