<?xml version="1.0" encoding="UTF-8"?>
<svg xmlns="http://www.w3.org/2000/svg" width="327" height="141">
   <defs>
      <style type="text/css">
    @namespace "http://www.w3.org/2000/svg";
    .line                 {fill: none; stroke: #332900; stroke-width: 1;}
    .bold-line            {stroke: #141000; shape-rendering: crispEdges; stroke-width: 2;}
    .thin-line            {stroke: #1F1800; shape-rendering: crispEdges}
    .filled               {fill: #332900; stroke: none;}
    text.terminal         {font-family: Verdana, Sans-serif;
                            font-size: 12px;
                            fill: #141000;
                            font-weight: bold;
                          }
    text.nonterminal      {font-family: Verdana, Sans-serif;
                            font-size: 12px;
                            fill: #1A1400;
                            font-weight: normal;
                          }
    text.regexp           {font-family: Verdana, Sans-serif;
                            font-size: 12px;
                            fill: #1F1800;
                            font-weight: normal;
                          }
    rect, circle, polygon {fill: #332900; stroke: #332900;}
    rect.terminal         {fill: #FFDB4D; stroke: #332900; stroke-width: 1;}
    rect.nonterminal      {fill: #FFEC9E; stroke: #332900; stroke-width: 1;}
    rect.text             {fill: none; stroke: none;}
    polygon.regexp        {fill: #FFF4C7; stroke: #332900; stroke-width: 1;}
  </style>
   </defs>
   <polygon points="9 33 1 29 1 37"/>
   <polygon points="17 33 9 29 9 37"/>
   <a xmlns:xlink="http://www.w3.org/1999/xlink"
      xlink:href="#LitPrimitive"
      xlink:title="LitPrimitive">
      <rect x="51" y="19" width="90" height="32"/>
      <rect x="49" y="17" width="90" height="32" class="nonterminal"/>
      <text class="nonterminal" x="59" y="37">LitPrimitive</text>
   </a>
   <a xmlns:xlink="http://www.w3.org/1999/xlink"
      xlink:href="#LitObject"
      xlink:title="LitObject">
      <rect x="51" y="63" width="76" height="32"/>
      <rect x="49" y="61" width="76" height="32" class="nonterminal"/>
      <text class="nonterminal" x="59" y="81">LitObject</text>
   </a>
   <a xmlns:xlink="http://www.w3.org/1999/xlink"
      xlink:href="#LitArray"
      xlink:title="LitArray">
      <rect x="51" y="107" width="68" height="32"/>
      <rect x="49" y="105" width="68" height="32" class="nonterminal"/>
      <text class="nonterminal" x="59" y="125">LitArray</text>
   </a>
   <a xmlns:xlink="http://www.w3.org/1999/xlink"
      xlink:href="#PathStep"
      xlink:title="PathStep">
      <rect x="201" y="19" width="78" height="32"/>
      <rect x="199" y="17" width="78" height="32" class="nonterminal"/>
      <text class="nonterminal" x="209" y="37">PathStep</text>
   </a>
   <path class="line"
         d="m17 33 h2 m20 0 h10 m90 0 h10 m-130 0 h20 m110 0 h20 m-150 0 q10 0 10 10 m130 0 q0 -10 10 -10 m-140 10 v24 m130 0 v-24 m-130 24 q0 10 10 10 m110 0 q10 0 10 -10 m-120 10 h10 m76 0 h10 m0 0 h14 m-120 -10 v20 m130 0 v-20 m-130 20 v24 m130 0 v-24 m-130 24 q0 10 10 10 m110 0 q10 0 10 -10 m-120 10 h10 m68 0 h10 m0 0 h22 m40 -88 h10 m78 0 h10 m-118 0 l20 0 m-1 0 q-9 0 -9 -10 l0 -12 q0 -10 10 -10 m98 32 l20 0 m-20 0 q10 0 10 -10 l0 -12 q0 -10 -10 -10 m-98 0 h10 m0 0 h88 m23 32 h-3"/>
   <polygon points="317 33 325 29 325 37"/>
   <polygon points="317 33 309 29 309 37"/>
</svg>
