<?xml version="1.0" encoding="UTF-8"?>
<svg xmlns="http://www.w3.org/2000/svg" width="385" height="103">
   <defs>
      <style type="text/css">
    @namespace "http://www.w3.org/2000/svg";
    .line                 {fill: none; stroke: #332200; stroke-width: 1;}
    .bold-line            {stroke: #140E00; shape-rendering: crispEdges; stroke-width: 2;}
    .thin-line            {stroke: #1F1400; shape-rendering: crispEdges}
    .filled               {fill: #332200; stroke: none;}
    text.terminal         {font-family: Verdana, Sans-serif;
                            font-size: 12px;
                            fill: #140E00;
                            font-weight: bold;
                          }
    text.nonterminal      {font-family: Verdana, Sans-serif;
                            font-size: 12px;
                            fill: #1A1100;
                            font-weight: normal;
                          }
    text.regexp           {font-family: Verdana, Sans-serif;
                            font-size: 12px;
                            fill: #1F1400;
                            font-weight: normal;
                          }
    rect, circle, polygon {fill: #332200; stroke: #332200;}
    rect.terminal         {fill: #FFC34D; stroke: #332200; stroke-width: 1;}
    rect.nonterminal      {fill: #FFDF9E; stroke: #332200; stroke-width: 1;}
    rect.text             {fill: none; stroke: none;}
    polygon.regexp        {fill: #FFECC7; stroke: #332200; stroke-width: 1;}
  </style>
   </defs>
   <polygon points="9 51 1 47 1 55"/>
   <polygon points="17 51 9 47 9 55"/>
   <a xmlns:xlink="http://www.w3.org/1999/xlink"
      xlink:href="#NamedSelection"
      xlink:title="NamedSelection">
      <rect x="51" y="3" width="122" height="32"/>
      <rect x="49" y="1" width="122" height="32" class="nonterminal"/>
      <text class="nonterminal" x="59" y="21">NamedSelection</text>
   </a>
   <a xmlns:xlink="http://www.w3.org/1999/xlink"
      xlink:href="#StarSelection"
      xlink:title="StarSelection">
      <rect x="233" y="69" width="104" height="32"/>
      <rect x="231" y="67" width="104" height="32" class="nonterminal"/>
      <text class="nonterminal" x="241" y="87">StarSelection</text>
   </a>
   <path class="line"
         d="m17 51 h2 m20 0 h10 m0 0 h132 m-162 0 l20 0 m-1 0 q-9 0 -9 -10 l0 -14 q0 -10 10 -10 m142 34 l20 0 m-20 0 q10 0 10 -10 l0 -14 q0 -10 -10 -10 m-142 0 h10 m122 0 h10 m40 34 h10 m0 0 h114 m-144 0 h20 m124 0 h20 m-164 0 q10 0 10 10 m144 0 q0 -10 10 -10 m-154 10 v12 m144 0 v-12 m-144 12 q0 10 10 10 m124 0 q10 0 10 -10 m-134 10 h10 m104 0 h10 m23 -32 h-3"/>
   <polygon points="375 51 383 47 383 55"/>
   <polygon points="375 51 367 47 367 55"/>
</svg>
