<?xml version="1.0" encoding="UTF-8"?>
<svg xmlns="http://www.w3.org/2000/svg" width="275" height="81">
   <defs>
      <style type="text/css">
    @namespace "http://www.w3.org/2000/svg";
    .line                 {fill: none; stroke: #332900; stroke-width: 1;}
    .bold-line            {stroke: #141000; shape-rendering: crispEdges; stroke-width: 2;}
    .thin-line            {stroke: #1F1800; shape-rendering: crispEdges}
    .filled               {fill: #332900; stroke: none;}
    text.terminal         {font-family: Verdana, Sans-serif;
                            font-size: 12px;
                            fill: #141000;
                            font-weight: bold;
                          }
    text.nonterminal      {font-family: Verdana, Sans-serif;
                            font-size: 12px;
                            fill: #1A1400;
                            font-weight: normal;
                          }
    text.regexp           {font-family: Verdana, Sans-serif;
                            font-size: 12px;
                            fill: #1F1800;
                            font-weight: normal;
                          }
    rect, circle, polygon {fill: #332900; stroke: #332900;}
    rect.terminal         {fill: #FFDB4D; stroke: #332900; stroke-width: 1;}
    rect.nonterminal      {fill: #FFEC9E; stroke: #332900; stroke-width: 1;}
    rect.text             {fill: none; stroke: none;}
    polygon.regexp        {fill: #FFF4C7; stroke: #332900; stroke-width: 1;}
  </style>
   </defs>
   <polygon points="9 17 1 13 1 21"/>
   <polygon points="17 17 9 13 9 21"/>
   <a xmlns:xlink="http://www.w3.org/1999/xlink"
      xlink:href="#Alias"
      xlink:title="Alias">
      <rect x="51" y="3" width="50" height="32"/>
      <rect x="49" y="1" width="50" height="32" class="nonterminal"/>
      <text class="nonterminal" x="59" y="21">Alias</text>
   </a>
   <rect x="51" y="47" width="32" height="32" rx="10"/>
   <rect x="49"
         y="45"
         width="32"
         height="32"
         class="terminal"
         rx="10"/>
   <text class="terminal" x="59" y="65">...</text>
   <a xmlns:xlink="http://www.w3.org/1999/xlink"
      xlink:href="#PathSelection"
      xlink:title="PathSelection">
      <rect x="141" y="3" width="106" height="32"/>
      <rect x="139" y="1" width="106" height="32" class="nonterminal"/>
      <text class="nonterminal" x="149" y="21">PathSelection</text>
   </a>
   <path class="line"
         d="m17 17 h2 m20 0 h10 m50 0 h10 m-90 0 h20 m70 0 h20 m-110 0 q10 0 10 10 m90 0 q0 -10 10 -10 m-100 10 v24 m90 0 v-24 m-90 24 q0 10 10 10 m70 0 q10 0 10 -10 m-80 10 h10 m32 0 h10 m0 0 h18 m20 -44 h10 m106 0 h10 m3 0 h-3"/>
   <polygon points="265 17 273 13 273 21"/>
   <polygon points="265 17 257 13 257 21"/>
</svg>
