<?xml version="1.0" encoding="UTF-8"?>
<svg xmlns="http://www.w3.org/2000/svg" width="267" height="169">
   <defs>
      <style type="text/css">
    @namespace "http://www.w3.org/2000/svg";
    .line                 {fill: none; stroke: #332900; stroke-width: 1;}
    .bold-line            {stroke: #141000; shape-rendering: crispEdges; stroke-width: 2;}
    .thin-line            {stroke: #1F1800; shape-rendering: crispEdges}
    .filled               {fill: #332900; stroke: none;}
    text.terminal         {font-family: Verdana, Sans-serif;
                            font-size: 12px;
                            fill: #141000;
                            font-weight: bold;
                          }
    text.nonterminal      {font-family: Verdana, Sans-serif;
                            font-size: 12px;
                            fill: #1A1400;
                            font-weight: normal;
                          }
    text.regexp           {font-family: Verdana, Sans-serif;
                            font-size: 12px;
                            fill: #1F1800;
                            font-weight: normal;
                          }
    rect, circle, polygon {fill: #332900; stroke: #332900;}
    rect.terminal         {fill: #FFDB4D; stroke: #332900; stroke-width: 1;}
    rect.nonterminal      {fill: #FFEC9E; stroke: #332900; stroke-width: 1;}
    rect.text             {fill: none; stroke: none;}
    polygon.regexp        {fill: #FFF4C7; stroke: #332900; stroke-width: 1;}
  </style>
   </defs>
   <polygon points="9 17 1 13 1 21"/>
   <polygon points="17 17 9 13 9 21"/>
   <a xmlns:xlink="http://www.w3.org/1999/xlink"
      xlink:href="#NamedPathSelection"
      xlink:title="NamedPathSelection">
      <rect x="51" y="3" width="152" height="32"/>
      <rect x="49" y="1" width="152" height="32" class="nonterminal"/>
      <text class="nonterminal" x="59" y="21">NamedPathSelection</text>
   </a>
   <a xmlns:xlink="http://www.w3.org/1999/xlink"
      xlink:href="#NamedFieldSelection"
      xlink:title="NamedFieldSelection">
      <rect x="51" y="47" width="152" height="32"/>
      <rect x="49" y="45" width="152" height="32" class="nonterminal"/>
      <text class="nonterminal" x="59" y="65">NamedFieldSelection</text>
   </a>
   <a xmlns:xlink="http://www.w3.org/1999/xlink"
      xlink:href="#NamedQuotedSelection"
      xlink:title="NamedQuotedSelection">
      <rect x="51" y="91" width="168" height="32"/>
      <rect x="49" y="89" width="168" height="32" class="nonterminal"/>
      <text class="nonterminal" x="59" y="109">NamedQuotedSelection</text>
   </a>
   <a xmlns:xlink="http://www.w3.org/1999/xlink"
      xlink:href="#NamedGroupSelection"
      xlink:title="NamedGroupSelection">
      <rect x="51" y="135" width="160" height="32"/>
      <rect x="49" y="133" width="160" height="32" class="nonterminal"/>
      <text class="nonterminal" x="59" y="153">NamedGroupSelection</text>
   </a>
   <path class="line"
         d="m17 17 h2 m20 0 h10 m152 0 h10 m0 0 h16 m-208 0 h20 m188 0 h20 m-228 0 q10 0 10 10 m208 0 q0 -10 10 -10 m-218 10 v24 m208 0 v-24 m-208 24 q0 10 10 10 m188 0 q10 0 10 -10 m-198 10 h10 m152 0 h10 m0 0 h16 m-198 -10 v20 m208 0 v-20 m-208 20 v24 m208 0 v-24 m-208 24 q0 10 10 10 m188 0 q10 0 10 -10 m-198 10 h10 m168 0 h10 m-198 -10 v20 m208 0 v-20 m-208 20 v24 m208 0 v-24 m-208 24 q0 10 10 10 m188 0 q10 0 10 -10 m-198 10 h10 m160 0 h10 m0 0 h8 m23 -132 h-3"/>
   <polygon points="257 17 265 13 265 21"/>
   <polygon points="257 17 249 13 249 21"/>
</svg>
