<?xml version="1.0" encoding="UTF-8"?>
<svg xmlns="http://www.w3.org/2000/svg" width="229" height="37">
   <defs>
      <style type="text/css">
    @namespace "http://www.w3.org/2000/svg";
    .line                 {fill: none; stroke: #332200; stroke-width: 1;}
    .bold-line            {stroke: #140E00; shape-rendering: crispEdges; stroke-width: 2;}
    .thin-line            {stroke: #1F1400; shape-rendering: crispEdges}
    .filled               {fill: #332200; stroke: none;}
    text.terminal         {font-family: Verdana, Sans-serif;
                            font-size: 12px;
                            fill: #140E00;
                            font-weight: bold;
                          }
    text.nonterminal      {font-family: Verdana, Sans-serif;
                            font-size: 12px;
                            fill: #1A1100;
                            font-weight: normal;
                          }
    text.regexp           {font-family: Verdana, Sans-serif;
                            font-size: 12px;
                            fill: #1F1400;
                            font-weight: normal;
                          }
    rect, circle, polygon {fill: #332200; stroke: #332200;}
    rect.terminal         {fill: #FFC34D; stroke: #332200; stroke-width: 1;}
    rect.nonterminal      {fill: #FFDF9E; stroke: #332200; stroke-width: 1;}
    rect.text             {fill: none; stroke: none;}
    polygon.regexp        {fill: #FFECC7; stroke: #332200; stroke-width: 1;}
  </style>
   </defs>
   <polygon points="9 17 1 13 1 21"/>
   <polygon points="17 17 9 13 9 21"/>
   <a xmlns:xlink="http://www.w3.org/1999/xlink"
      xlink:href="#Alias"
      xlink:title="Alias">
      <rect x="31" y="3" width="50" height="32"/>
      <rect x="29" y="1" width="50" height="32" class="nonterminal"/>
      <text class="nonterminal" x="39" y="21">Alias</text>
   </a>
   <a xmlns:xlink="http://www.w3.org/1999/xlink"
      xlink:href="#Subselection"
      xlink:title="Subselection">
      <rect x="101" y="3" width="100" height="32"/>
      <rect x="99" y="1" width="100" height="32" class="nonterminal"/>
      <text class="nonterminal" x="109" y="21">Subselection</text>
   </a>
   <path class="line"
         d="m17 17 h2 m0 0 h10 m50 0 h10 m0 0 h10 m100 0 h10 m3 0 h-3"/>
   <polygon points="219 17 227 13 227 21"/>
   <polygon points="219 17 211 13 211 21"/>
</svg>
