<?xml version="1.0" encoding="UTF-8"?>
<svg xmlns="http://www.w3.org/2000/svg" width="379" height="169">
   <defs>
      <style type="text/css">
    @namespace "http://www.w3.org/2000/svg";
    .line                 {fill: none; stroke: #332900; stroke-width: 1;}
    .bold-line            {stroke: #141000; shape-rendering: crispEdges; stroke-width: 2;}
    .thin-line            {stroke: #1F1800; shape-rendering: crispEdges}
    .filled               {fill: #332900; stroke: none;}
    text.terminal         {font-family: Verdana, Sans-serif;
                            font-size: 12px;
                            fill: #141000;
                            font-weight: bold;
                          }
    text.nonterminal      {font-family: Verdana, Sans-serif;
                            font-size: 12px;
                            fill: #1A1400;
                            font-weight: normal;
                          }
    text.regexp           {font-family: Verdana, Sans-serif;
                            font-size: 12px;
                            fill: #1F1800;
                            font-weight: normal;
                          }
    rect, circle, polygon {fill: #332900; stroke: #332900;}
    rect.terminal         {fill: #FFDB4D; stroke: #332900; stroke-width: 1;}
    rect.nonterminal      {fill: #FFEC9E; stroke: #332900; stroke-width: 1;}
    rect.text             {fill: none; stroke: none;}
    polygon.regexp        {fill: #FFF4C7; stroke: #332900; stroke-width: 1;}
  </style>
   </defs>
   <polygon points="9 17 1 13 1 21"/>
   <polygon points="17 17 9 13 9 21"/>
   <a xmlns:xlink="http://www.w3.org/1999/xlink"
      xlink:href="#VarPath"
      xlink:title="VarPath">
      <rect x="51" y="3" width="70" height="32"/>
      <rect x="49" y="1" width="70" height="32" class="nonterminal"/>
      <text class="nonterminal" x="59" y="21">VarPath</text>
   </a>
   <a xmlns:xlink="http://www.w3.org/1999/xlink"
      xlink:href="#KeyPath"
      xlink:title="KeyPath">
      <rect x="51" y="47" width="72" height="32"/>
      <rect x="49" y="45" width="72" height="32" class="nonterminal"/>
      <text class="nonterminal" x="59" y="65">KeyPath</text>
   </a>
   <a xmlns:xlink="http://www.w3.org/1999/xlink"
      xlink:href="#AtPath"
      xlink:title="AtPath">
      <rect x="51" y="91" width="62" height="32"/>
      <rect x="49" y="89" width="62" height="32" class="nonterminal"/>
      <text class="nonterminal" x="59" y="109">AtPath</text>
   </a>
   <a xmlns:xlink="http://www.w3.org/1999/xlink"
      xlink:href="#ExprPathInExpr"
      xlink:title="ExprPathInExpr">
      <rect x="51" y="135" width="118" height="32"/>
      <rect x="49" y="133" width="118" height="32" class="nonterminal"/>
      <text class="nonterminal" x="59" y="153">ExprPathInExpr</text>
   </a>
   <a xmlns:xlink="http://www.w3.org/1999/xlink"
      xlink:href="#SubSelection"
      xlink:title="SubSelection">
      <rect x="229" y="35" width="102" height="32"/>
      <rect x="227" y="33" width="102" height="32" class="nonterminal"/>
      <text class="nonterminal" x="237" y="53">SubSelection</text>
   </a>
   <path class="line"
         d="m17 17 h2 m20 0 h10 m70 0 h10 m0 0 h48 m-158 0 h20 m138 0 h20 m-178 0 q10 0 10 10 m158 0 q0 -10 10 -10 m-168 10 v24 m158 0 v-24 m-158 24 q0 10 10 10 m138 0 q10 0 10 -10 m-148 10 h10 m72 0 h10 m0 0 h46 m-148 -10 v20 m158 0 v-20 m-158 20 v24 m158 0 v-24 m-158 24 q0 10 10 10 m138 0 q10 0 10 -10 m-148 10 h10 m62 0 h10 m0 0 h56 m-148 -10 v20 m158 0 v-20 m-158 20 v24 m158 0 v-24 m-158 24 q0 10 10 10 m138 0 q10 0 10 -10 m-148 10 h10 m118 0 h10 m40 -132 h10 m0 0 h112 m-142 0 h20 m122 0 h20 m-162 0 q10 0 10 10 m142 0 q0 -10 10 -10 m-152 10 v12 m142 0 v-12 m-142 12 q0 10 10 10 m122 0 q10 0 10 -10 m-132 10 h10 m102 0 h10 m23 -32 h-3"/>
   <polygon points="369 17 377 13 377 21"/>
   <polygon points="369 17 361 13 361 21"/>
</svg>
