<?xml version="1.0" encoding="UTF-8"?>
<svg xmlns="http://www.w3.org/2000/svg" width="175" height="185">
   <defs>
      <style type="text/css">
    @namespace "http://www.w3.org/2000/svg";
    .line                 {fill: none; stroke: #332200; stroke-width: 1;}
    .bold-line            {stroke: #140E00; shape-rendering: crispEdges; stroke-width: 2;}
    .thin-line            {stroke: #1F1400; shape-rendering: crispEdges}
    .filled               {fill: #332200; stroke: none;}
    text.terminal         {font-family: Verdana, Sans-serif;
                            font-size: 12px;
                            fill: #140E00;
                            font-weight: bold;
                          }
    text.nonterminal      {font-family: Verdana, Sans-serif;
                            font-size: 12px;
                            fill: #1A1100;
                            font-weight: normal;
                          }
    text.regexp           {font-family: Verdana, Sans-serif;
                            font-size: 12px;
                            fill: #1F1400;
                            font-weight: normal;
                          }
    rect, circle, polygon {fill: #332200; stroke: #332200;}
    rect.terminal         {fill: #FFC34D; stroke: #332200; stroke-width: 1;}
    rect.nonterminal      {fill: #FFDF9E; stroke: #332200; stroke-width: 1;}
    rect.text             {fill: none; stroke: none;}
    polygon.regexp        {fill: #FFECC7; stroke: #332200; stroke-width: 1;}
  </style>
   </defs>
   <polygon points="9 33 1 29 1 37"/>
   <polygon points="17 33 9 29 9 37"/>
   <rect x="71" y="19" width="28" height="32" rx="10"/>
   <rect x="69"
         y="17"
         width="28"
         height="32"
         class="terminal"
         rx="10"/>
   <text class="terminal" x="79" y="37">⎵</text>
   <rect x="71" y="63" width="34" height="32" rx="10"/>
   <rect x="69"
         y="61"
         width="34"
         height="32"
         class="terminal"
         rx="10"/>
   <text class="terminal" x="79" y="81">\t</text>
   <rect x="71" y="107" width="34" height="32" rx="10"/>
   <rect x="69"
         y="105"
         width="34"
         height="32"
         class="terminal"
         rx="10"/>
   <text class="terminal" x="79" y="125">\r</text>
   <rect x="71" y="151" width="36" height="32" rx="10"/>
   <rect x="69"
         y="149"
         width="36"
         height="32"
         class="terminal"
         rx="10"/>
   <text class="terminal" x="79" y="169">\n</text>
   <path class="line"
         d="m17 33 h2 m40 0 h10 m28 0 h10 m0 0 h8 m-76 0 h20 m56 0 h20 m-96 0 q10 0 10 10 m76 0 q0 -10 10 -10 m-86 10 v24 m76 0 v-24 m-76 24 q0 10 10 10 m56 0 q10 0 10 -10 m-66 10 h10 m34 0 h10 m0 0 h2 m-66 -10 v20 m76 0 v-20 m-76 20 v24 m76 0 v-24 m-76 24 q0 10 10 10 m56 0 q10 0 10 -10 m-66 10 h10 m34 0 h10 m0 0 h2 m-66 -10 v20 m76 0 v-20 m-76 20 v24 m76 0 v-24 m-76 24 q0 10 10 10 m56 0 q10 0 10 -10 m-66 10 h10 m36 0 h10 m-96 -132 l20 0 m-1 0 q-9 0 -9 -10 l0 -12 q0 -10 10 -10 m96 32 l20 0 m-20 0 q10 0 10 -10 l0 -12 q0 -10 -10 -10 m-96 0 h10 m0 0 h86 m23 32 h-3"/>
   <polygon points="165 33 173 29 173 37"/>
   <polygon points="165 33 157 29 157 37"/>
</svg>
