<?xml version="1.0" encoding="UTF-8"?>
<svg xmlns="http://www.w3.org/2000/svg" width="357" height="69">
   <defs>
      <style type="text/css">
    @namespace "http://www.w3.org/2000/svg";
    .line                 {fill: none; stroke: #332200; stroke-width: 1;}
    .bold-line            {stroke: #140E00; shape-rendering: crispEdges; stroke-width: 2;}
    .thin-line            {stroke: #1F1400; shape-rendering: crispEdges}
    .filled               {fill: #332200; stroke: none;}
    text.terminal         {font-family: Verdana, Sans-serif;
                            font-size: 12px;
                            fill: #140E00;
                            font-weight: bold;
                          }
    text.nonterminal      {font-family: Verdana, Sans-serif;
                            font-size: 12px;
                            fill: #1A1100;
                            font-weight: normal;
                          }
    text.regexp           {font-family: Verdana, Sans-serif;
                            font-size: 12px;
                            fill: #1F1400;
                            font-weight: normal;
                          }
    rect, circle, polygon {fill: #332200; stroke: #332200;}
    rect.terminal         {fill: #FFC34D; stroke: #332200; stroke-width: 1;}
    rect.nonterminal      {fill: #FFDF9E; stroke: #332200; stroke-width: 1;}
    rect.text             {fill: none; stroke: none;}
    polygon.regexp        {fill: #FFECC7; stroke: #332200; stroke-width: 1;}
  </style>
   </defs>
   <polygon points="9 17 1 13 1 21"/>
   <polygon points="17 17 9 13 9 21"/>
   <a xmlns:xlink="http://www.w3.org/1999/xlink"
      xlink:href="#Alias"
      xlink:title="Alias">
      <rect x="51" y="35" width="50" height="32"/>
      <rect x="49" y="33" width="50" height="32" class="nonterminal"/>
      <text class="nonterminal" x="59" y="53">Alias</text>
   </a>
   <rect x="141" y="3" width="28" height="32" rx="10"/>
   <rect x="139"
         y="1"
         width="28"
         height="32"
         class="terminal"
         rx="10"/>
   <text class="terminal" x="149" y="21">*</text>
   <a xmlns:xlink="http://www.w3.org/1999/xlink"
      xlink:href="#SubSelection"
      xlink:title="SubSelection">
      <rect x="209" y="35" width="100" height="32"/>
      <rect x="207" y="33" width="100" height="32" class="nonterminal"/>
      <text class="nonterminal" x="217" y="53">SubSelection</text>
   </a>
   <path class="line"
         d="m17 17 h2 m20 0 h10 m0 0 h60 m-90 0 h20 m70 0 h20 m-110 0 q10 0 10 10 m90 0 q0 -10 10 -10 m-100 10 v12 m90 0 v-12 m-90 12 q0 10 10 10 m70 0 q10 0 10 -10 m-80 10 h10 m50 0 h10 m20 -32 h10 m28 0 h10 m20 0 h10 m0 0 h110 m-140 0 h20 m120 0 h20 m-160 0 q10 0 10 10 m140 0 q0 -10 10 -10 m-150 10 v12 m140 0 v-12 m-140 12 q0 10 10 10 m120 0 q10 0 10 -10 m-130 10 h10 m100 0 h10 m23 -32 h-3"/>
   <polygon points="347 17 355 13 355 21"/>
   <polygon points="347 17 339 13 339 21"/>
</svg>
