<?xml version="1.0" encoding="UTF-8"?>
<svg xmlns="http://www.w3.org/2000/svg" width="367" height="239">
   <defs>
      <style type="text/css">
    @namespace "http://www.w3.org/2000/svg";
    .line                 {fill: none; stroke: #332200; stroke-width: 1;}
    .bold-line            {stroke: #140E00; shape-rendering: crispEdges; stroke-width: 2;}
    .thin-line            {stroke: #1F1400; shape-rendering: crispEdges}
    .filled               {fill: #332200; stroke: none;}
    text.terminal         {font-family: Verdana, Sans-serif;
                            font-size: 12px;
                            fill: #140E00;
                            font-weight: bold;
                          }
    text.nonterminal      {font-family: Verdana, Sans-serif;
                            font-size: 12px;
                            fill: #1A1100;
                            font-weight: normal;
                          }
    text.regexp           {font-family: Verdana, Sans-serif;
                            font-size: 12px;
                            fill: #1F1400;
                            font-weight: normal;
                          }
    rect, circle, polygon {fill: #332200; stroke: #332200;}
    rect.terminal         {fill: #FFC34D; stroke: #332200; stroke-width: 1;}
    rect.nonterminal      {fill: #FFDF9E; stroke: #332200; stroke-width: 1;}
    rect.text             {fill: none; stroke: none;}
    polygon.regexp        {fill: #FFECC7; stroke: #332200; stroke-width: 1;}
  </style>
   </defs>
   <polygon points="9 33 1 29 1 37"/>
   <polygon points="17 33 9 29 9 37"/>
   <rect x="51" y="19" width="24" height="32" rx="10"/>
   <rect x="49"
         y="17"
         width="24"
         height="32"
         class="terminal"
         rx="10"/>
   <text class="terminal" x="59" y="37">'</text>
   <rect x="155" y="19" width="40" height="32" rx="10"/>
   <rect x="153"
         y="17"
         width="40"
         height="32"
         class="terminal"
         rx="10"/>
   <text class="terminal" x="163" y="37">\\'</text>
   <polygon points="155 79 162 63 202 63 209 79 202 95 162 95"/>
   <polygon points="153 77 160 61 200 61 207 77 200 93 160 93" class="regexp"/>
   <text class="regexp" x="168" y="81">[^']</text>
   <rect x="289" y="19" width="24" height="32" rx="10"/>
   <rect x="287"
         y="17"
         width="24"
         height="32"
         class="terminal"
         rx="10"/>
   <text class="terminal" x="297" y="37">'</text>
   <rect x="51" y="145" width="26" height="32" rx="10"/>
   <rect x="49"
         y="143"
         width="26"
         height="32"
         class="terminal"
         rx="10"/>
   <text class="terminal" x="59" y="163">"</text>
   <rect x="157" y="145" width="44" height="32" rx="10"/>
   <rect x="155"
         y="143"
         width="44"
         height="32"
         class="terminal"
         rx="10"/>
   <text class="terminal" x="165" y="163">\\"</text>
   <polygon points="157 205 164 189 206 189 213 205 206 221 164 221"/>
   <polygon points="155 203 162 187 204 187 211 203 204 219 162 219" class="regexp"/>
   <text class="regexp" x="170" y="207">[^"]</text>
   <rect x="293" y="145" width="26" height="32" rx="10"/>
   <rect x="291"
         y="143"
         width="26"
         height="32"
         class="terminal"
         rx="10"/>
   <text class="terminal" x="301" y="163">"</text>
   <path class="line"
         d="m17 33 h2 m20 0 h10 m24 0 h10 m60 0 h10 m40 0 h10 m0 0 h14 m-94 0 h20 m74 0 h20 m-114 0 q10 0 10 10 m94 0 q0 -10 10 -10 m-104 10 v24 m94 0 v-24 m-94 24 q0 10 10 10 m74 0 q10 0 10 -10 m-84 10 h10 m54 0 h10 m-114 -44 l20 0 m-1 0 q-9 0 -9 -10 l0 -12 q0 -10 10 -10 m114 32 l20 0 m-20 0 q10 0 10 -10 l0 -12 q0 -10 -10 -10 m-114 0 h10 m0 0 h104 m-154 32 h20 m154 0 h20 m-194 0 q10 0 10 10 m174 0 q0 -10 10 -10 m-184 10 v58 m174 0 v-58 m-174 58 q0 10 10 10 m154 0 q10 0 10 -10 m-164 10 h10 m0 0 h144 m20 -78 h10 m24 0 h10 m0 0 h6 m-308 0 h20 m288 0 h20 m-328 0 q10 0 10 10 m308 0 q0 -10 10 -10 m-318 10 v106 m308 0 v-106 m-308 106 q0 10 10 10 m288 0 q10 0 10 -10 m-298 10 h10 m26 0 h10 m60 0 h10 m44 0 h10 m0 0 h12 m-96 0 h20 m76 0 h20 m-116 0 q10 0 10 10 m96 0 q0 -10 10 -10 m-106 10 v24 m96 0 v-24 m-96 24 q0 10 10 10 m76 0 q10 0 10 -10 m-86 10 h10 m56 0 h10 m-116 -44 l20 0 m-1 0 q-9 0 -9 -10 l0 -12 q0 -10 10 -10 m116 32 l20 0 m-20 0 q10 0 10 -10 l0 -12 q0 -10 -10 -10 m-116 0 h10 m0 0 h106 m-156 32 h20 m156 0 h20 m-196 0 q10 0 10 10 m176 0 q0 -10 10 -10 m-186 10 v58 m176 0 v-58 m-176 58 q0 10 10 10 m156 0 q10 0 10 -10 m-166 10 h10 m0 0 h146 m20 -78 h10 m26 0 h10 m23 -126 h-3"/>
   <polygon points="357 33 365 29 365 37"/>
   <polygon points="357 33 349 29 349 37"/>
</svg>
