<?xml version="1.0" encoding="UTF-8"?>
<svg xmlns="http://www.w3.org/2000/svg" width="391" height="115">
   <defs>
      <style type="text/css">
    @namespace "http://www.w3.org/2000/svg";
    .line                 {fill: none; stroke: #332200; stroke-width: 1;}
    .bold-line            {stroke: #140E00; shape-rendering: crispEdges; stroke-width: 2;}
    .thin-line            {stroke: #1F1400; shape-rendering: crispEdges}
    .filled               {fill: #332200; stroke: none;}
    text.terminal         {font-family: Verdana, Sans-serif;
                            font-size: 12px;
                            fill: #140E00;
                            font-weight: bold;
                          }
    text.nonterminal      {font-family: Verdana, Sans-serif;
                            font-size: 12px;
                            fill: #1A1100;
                            font-weight: normal;
                          }
    text.regexp           {font-family: Verdana, Sans-serif;
                            font-size: 12px;
                            fill: #1F1400;
                            font-weight: normal;
                          }
    rect, circle, polygon {fill: #332200; stroke: #332200;}
    rect.terminal         {fill: #FFC34D; stroke: #332200; stroke-width: 1;}
    rect.nonterminal      {fill: #FFDF9E; stroke: #332200; stroke-width: 1;}
    rect.text             {fill: none; stroke: none;}
    polygon.regexp        {fill: #FFECC7; stroke: #332200; stroke-width: 1;}
  </style>
   </defs>
   <polygon points="9 51 1 47 1 55"/>
   <polygon points="17 51 9 47 9 55"/>
   <polygon points="51 53 58 37 106 37 113 53 106 69 58 69"/>
   <polygon points="49 51 56 35 104 35 111 51 104 67 56 67" class="regexp"/>
   <text class="regexp" x="64" y="55">[1-9]</text>
   <a xmlns:xlink="http://www.w3.org/1999/xlink"
      xlink:href="#NO_SPACE"
      xlink:title="NO_SPACE">
      <rect x="133" y="37" width="88" height="32"/>
      <rect x="131" y="35" width="88" height="32" class="nonterminal"/>
      <text class="nonterminal" x="141" y="55">NO_SPACE</text>
   </a>
   <polygon points="261 19 268 3 316 3 323 19 316 35 268 35"/>
   <polygon points="259 17 266 1 314 1 321 17 314 33 266 33" class="regexp"/>
   <text class="regexp" x="274" y="21">[0-9]</text>
   <rect x="51" y="81" width="28" height="32" rx="10"/>
   <rect x="49"
         y="79"
         width="28"
         height="32"
         class="terminal"
         rx="10"/>
   <text class="terminal" x="59" y="99">0</text>
   <path class="line"
         d="m17 51 h2 m20 0 h10 m62 0 h10 m0 0 h10 m88 0 h10 m20 0 h10 m0 0 h72 m-102 0 l20 0 m-1 0 q-9 0 -9 -10 l0 -14 q0 -10 10 -10 m82 34 l20 0 m-20 0 q10 0 10 -10 l0 -14 q0 -10 -10 -10 m-82 0 h10 m62 0 h10 m-312 34 h20 m312 0 h20 m-352 0 q10 0 10 10 m332 0 q0 -10 10 -10 m-342 10 v24 m332 0 v-24 m-332 24 q0 10 10 10 m312 0 q10 0 10 -10 m-322 10 h10 m28 0 h10 m0 0 h264 m23 -44 h-3"/>
   <polygon points="381 51 389 47 389 55"/>
   <polygon points="381 51 373 47 373 55"/>
</svg>
