<svg version="1.1" viewBox="0.0 0.0 600.0 371.0" fill="none" stroke="none" stroke-linecap="square" stroke-miterlimit="10" width="600" height="371" xmlns:xlink="http://www.w3.org/1999/xlink" xmlns="http://www.w3.org/2000/svg"><path fill="#ffffff" d="M0 0L600.0 0L600.0 371.0L0 371.0L0 0Z" fill-rule="nonzero"/><path stroke="#333333" stroke-width="1.0" stroke-linecap="butt" d="M45.5 332.5L581.5 332.5" fill-rule="nonzero"/><path stroke="#cccccc" stroke-width="1.0" stroke-linecap="butt" d="M45.5 287.5L581.5 287.5" fill-rule="nonzero"/><path stroke="#cccccc" stroke-width="1.0" stroke-linecap="butt" d="M45.5 242.5L581.5 242.5" fill-rule="nonzero"/><path stroke="#cccccc" stroke-width="1.0" stroke-linecap="butt" d="M45.5 197.5L581.5 197.5" fill-rule="nonzero"/><path stroke="#cccccc" stroke-width="1.0" stroke-linecap="butt" d="M45.5 152.5L581.5 152.5" fill-rule="nonzero"/><path stroke="#cccccc" stroke-width="1.0" stroke-linecap="butt" d="M45.5 107.5L581.5 107.5" fill-rule="nonzero"/><path stroke="#cccccc" stroke-width="1.0" stroke-linecap="butt" d="M45.5 61.5L581.5 61.5" fill-rule="nonzero"/><clipPath id="id_0"><path d="M45.55 61.916668L581.45 61.916668L581.45 332.45L45.55 332.45L45.55 61.916668Z" clip-rule="nonzero"/></clipPath><path stroke="#000000" stroke-width="2.0" stroke-linecap="butt" stroke-opacity="0.0" clip-path="url(#id_0)" d="M169.0 332.0L89.0 332.0L89.0 332.0L169.0 332.0Z" fill-rule="nonzero"/><path fill="#5891ad" clip-path="url(#id_0)" d="M169.0 332.0L89.0 332.0L89.0 332.0L169.0 332.0Z" fill-rule="nonzero"/><path stroke="#000000" stroke-width="2.0" stroke-linecap="butt" stroke-opacity="0.0" clip-path="url(#id_0)" d="M292.0 332.0L212.0 332.0L212.0 132.0C212.0 130.89543 212.89543 130.0 214.0 130.0L290.0 130.0C291.10458 130.0 292.0 130.89543 292.0 132.0Z" fill-rule="nonzero"/><path fill="#5891ad" clip-path="url(#id_0)" d="M292.0 332.0L212.0 332.0L212.0 132.0C212.0 130.89543 212.89543 130.0 214.0 130.0L290.0 130.0C291.10458 130.0 292.0 130.89543 292.0 132.0Z" fill-rule="nonzero"/><path stroke="#000000" stroke-width="2.0" stroke-linecap="butt" stroke-opacity="0.0" clip-path="url(#id_0)" d="M415.0 332.0L335.0 332.0L335.0 86.0C335.0 84.89543 335.89542 84.0 337.0 84.0L413.0 84.0C414.10458 84.0 415.0 84.89543 415.0 86.0Z" fill-rule="nonzero"/><path fill="#5891ad" clip-path="url(#id_0)" d="M415.0 332.0L335.0 332.0L335.0 86.0C335.0 84.89543 335.89542 84.0 337.0 84.0L413.0 84.0C414.10458 84.0 415.0 84.89543 415.0 86.0Z" fill-rule="nonzero"/><path stroke="#000000" stroke-width="2.0" stroke-linecap="butt" stroke-opacity="0.0" clip-path="url(#id_0)" d="M538.0 332.0L458.0 332.0L458.0 332.0L538.0 332.0Z" fill-rule="nonzero"/><path fill="#5891ad" clip-path="url(#id_0)" d="M538.0 332.0L458.0 332.0L458.0 332.0L538.0 332.0Z" fill-rule="nonzero"/><path fill="#000000" d="M33.05 332.21564Q33.05 330.6844 33.3625 329.7625Q33.675 328.825 34.284374 328.325Q34.909374 327.825 35.846874 327.825Q36.534374 327.825 37.05 328.10626Q37.58125 328.3875 37.925 328.91876Q38.26875 329.4344 38.45625 330.1844Q38.64375 330.9344 38.64375 332.21564Q38.64375 333.73126 38.33125 334.65314Q38.034374 335.575 37.409374 336.09064Q36.8 336.59064 35.846874 336.59064Q34.6125 336.59064 33.89375 335.7Q33.05 334.6375 33.05 332.21564ZM34.128124 332.21564Q34.128124 334.325 34.628124 335.02814Q35.128124 335.73126 35.846874 335.73126Q36.58125 335.73126 37.065624 335.02814Q37.565624 334.325 37.565624 332.21564Q37.565624 330.09064 37.065624 329.40314Q36.58125 328.7 35.83125 328.7Q35.1125 328.7 34.675 329.3094Q34.128124 330.09064 34.128124 332.21564Z" fill-rule="nonzero"/><path fill="#000000" d="M38.596874 290.3455L38.596874 291.3611L32.909374 291.3611Q32.909374 290.9861 33.034374 290.62674Q33.253124 290.0486 33.721874 289.4861Q34.20625 288.9236 35.1125 288.18924Q36.51875 287.033 37.003124 286.3611Q37.503124 285.68924 37.503124 285.0955Q37.503124 284.4705 37.05 284.0486Q36.596874 283.6111 35.878124 283.6111Q35.1125 283.6111 34.659374 284.06424Q34.20625 284.51736 34.190624 285.32986L33.1125 285.2205Q33.221874 284.00174 33.940624 283.37674Q34.675 282.7361 35.909374 282.7361Q37.14375 282.7361 37.8625 283.4236Q38.58125 284.1111 38.58125 285.12674Q38.58125 285.64236 38.3625 286.14236Q38.159374 286.62674 37.659374 287.18924Q37.175 287.7361 36.05 288.68924Q35.096874 289.4861 34.815624 289.783Q34.55 290.06424 34.378124 290.3455L38.596874 290.3455Z" fill-rule="nonzero"/><path fill="#000000" d="M36.425 246.27222L36.425 244.20972L32.70625 244.20972L32.70625 243.24097L36.628124 237.67847L37.4875 237.67847L37.4875 243.24097L38.64375 243.24097L38.64375 244.20972L37.4875 244.20972L37.4875 246.27222L36.425 246.27222ZM36.425 243.24097L36.425 239.38159L33.7375 243.24097L36.425 243.24097Z" fill-rule="nonzero"/><path fill="#000000" d="M38.51875 194.69896L37.471874 194.77708Q37.33125 194.15208 37.08125 193.87083Q36.64375 193.41771 36.01875 193.41771Q35.51875 193.41771 35.128124 193.69896Q34.64375 194.07396 34.346874 194.77708Q34.065624 195.46458 34.05 196.74583Q34.425 196.16771 34.971874 195.88646Q35.534374 195.60521 36.14375 195.60521Q37.190624 195.60521 37.925 196.38646Q38.675 197.16771 38.675 198.38646Q38.675 199.19896 38.315624 199.90208Q37.971874 200.58958 37.3625 200.96458Q36.753124 201.32396 35.9875 201.32396Q34.659374 201.32396 33.83125 200.35521Q33.003124 199.38646 33.003124 197.16771Q33.003124 194.66771 33.925 193.54271Q34.721874 192.55833 36.08125 192.55833Q37.096874 192.55833 37.7375 193.13646Q38.39375 193.69896 38.51875 194.69896ZM34.221874 198.40208Q34.221874 198.94896 34.440624 199.44896Q34.675 199.93333 35.08125 200.19896Q35.503124 200.46458 35.971874 200.46458Q36.628124 200.46458 37.1125 199.93333Q37.596874 199.38646 37.596874 198.46458Q37.596874 197.57396 37.1125 197.05833Q36.64375 196.54271 35.925 196.54271Q35.20625 196.54271 34.70625 197.05833Q34.221874 197.57396 34.221874 198.40208Z" fill-rule="nonzero"/><path fill="#000000" d="M34.675 151.4382Q34.01875 151.1882 33.690624 150.7507Q33.378124 150.29758 33.378124 149.6882Q33.378124 148.7507 34.05 148.11008Q34.7375 147.46945 35.846874 147.46945Q36.971874 147.46945 37.659374 148.1257Q38.346874 148.78195 38.346874 149.71945Q38.346874 150.3132 38.034374 150.7507Q37.721874 151.1882 37.08125 151.4382Q37.878124 151.6882 38.284374 152.26633Q38.690624 152.84445 38.690624 153.64133Q38.690624 154.73508 37.909374 155.48508Q37.14375 156.23508 35.8625 156.23508Q34.596874 156.23508 33.815624 155.48508Q33.034374 154.73508 33.034374 153.61008Q33.034374 152.76633 33.45625 152.20383Q33.89375 151.64133 34.675 151.4382ZM34.45625 149.64133Q34.45625 150.2507 34.846874 150.64133Q35.253124 151.03195 35.878124 151.03195Q36.4875 151.03195 36.878124 150.65695Q37.26875 150.26633 37.26875 149.70383Q37.26875 149.1257 36.8625 148.73508Q36.45625 148.32883 35.8625 148.32883Q35.253124 148.32883 34.846874 148.71945Q34.45625 149.11008 34.45625 149.64133ZM34.128124 153.61008Q34.128124 154.0632 34.33125 154.48508Q34.55 154.90695 34.971874 155.14133Q35.39375 155.3757 35.878124 155.3757Q36.628124 155.3757 37.1125 154.89133Q37.6125 154.40695 37.6125 153.65695Q37.6125 152.89133 37.1125 152.39133Q36.6125 151.89133 35.846874 151.89133Q35.096874 151.89133 34.6125 152.39133Q34.128124 152.8757 34.128124 153.61008Z" fill-rule="nonzero"/><path fill="#000000" d="M30.01875 111.005554L28.971874 111.005554L28.971874 104.286804Q28.58125 104.64618 27.95625 105.02118Q27.346874 105.380554 26.8625 105.55243L26.8625 104.536804Q27.7375 104.11493 28.39375 103.536804Q29.065624 102.943054 29.346874 102.380554L30.01875 102.380554L30.01875 111.005554ZM33.05 106.77118Q33.05 105.23993 33.3625 104.318054Q33.675 103.380554 34.284374 102.880554Q34.909374 102.380554 35.846874 102.380554Q36.534374 102.380554 37.05 102.661804Q37.58125 102.943054 37.925 103.474304Q38.26875 103.98993 38.45625 104.73993Q38.64375 105.48993 38.64375 106.77118Q38.64375 108.286804 38.33125 109.20868Q38.034374 110.130554 37.409374 110.64618Q36.8 111.14618 35.846874 111.14618Q34.6125 111.14618 33.89375 110.255554Q33.05 109.193054 33.05 106.77118ZM34.128124 106.77118Q34.128124 108.880554 34.628124 109.58368Q35.128124 110.286804 35.846874 110.286804Q36.58125 110.286804 37.065624 109.58368Q37.565624 108.880554 37.565624 106.77118Q37.565624 104.64618 37.065624 103.95868Q36.58125 103.255554 35.83125 103.255554Q35.1125 103.255554 34.675 103.86493Q34.128124 104.64618 34.128124 106.77118Z" fill-rule="nonzero"/><path fill="#000000" d="M30.01875 65.916664L28.971874 65.916664L28.971874 59.197914Q28.58125 59.55729 27.95625 59.93229Q27.346874 60.291664 26.8625 60.46354L26.8625 59.447914Q27.7375 59.02604 28.39375 58.447914Q29.065624 57.854164 29.346874 57.291664L30.01875 57.291664L30.01875 65.916664ZM38.596874 64.90104L38.596874 65.916664L32.909374 65.916664Q32.909374 65.541664 33.034374 65.18229Q33.253124 64.604164 33.721874 64.041664Q34.20625 63.479164 35.1125 62.74479Q36.51875 61.58854 37.003124 60.916664Q37.503124 60.24479 37.503124 59.65104Q37.503124 59.02604 37.05 58.604164Q36.596874 58.166664 35.878124 58.166664Q35.1125 58.166664 34.659374 58.61979Q34.20625 59.072914 34.190624 59.885414L33.1125 59.77604Q33.221874 58.55729 33.940624 57.93229Q34.675 57.291664 35.909374 57.291664Q37.14375 57.291664 37.8625 57.979164Q38.58125 58.666664 38.58125 59.68229Q38.58125 60.197914 38.3625 60.697914Q38.159374 61.18229 37.659374 61.74479Q37.175 62.291664 36.05 63.24479Q35.096874 64.041664 34.815624 64.33854Q34.55 64.61979 34.378124 64.90104L38.596874 64.90104Z" fill-rule="nonzero"/><path fill="#000000" d="M125.706894 345.21564Q125.706894 343.6844 126.019394 342.7625Q126.331894 341.825 126.94127 341.325Q127.56627 340.825 128.50377 340.825Q129.19127 340.825 129.7069 341.10626Q130.23814 341.3875 130.5819 341.91876Q130.92564 342.4344 131.11314 343.1844Q131.30064 343.9344 131.30064 345.21564Q131.30064 346.73126 130.98814 347.65314Q130.69127 348.575 130.06627 349.09064Q129.4569 349.59064 128.50377 349.59064Q127.269394 349.59064 126.550644 348.7Q125.706894 347.6375 125.706894 345.21564ZM126.78502 345.21564Q126.78502 347.325 127.28502 348.02814Q127.78502 348.73126 128.50377 348.73126Q129.23814 348.73126 129.72252 348.02814Q130.22252 347.325 130.22252 345.21564Q130.22252 343.09064 129.72252 342.40314Q129.23814 341.7 128.48814 341.7Q127.769394 341.7 127.331894 342.3094Q126.78502 343.09064 126.78502 345.21564Z" fill-rule="nonzero"/><path fill="#000000" d="M239.9023 345.21564Q239.9023 343.6844 240.2148 342.7625Q240.5273 341.825 241.13667 341.325Q241.76167 340.825 242.69917 340.825Q243.38667 340.825 243.9023 341.10626Q244.43355 341.3875 244.7773 341.91876Q245.12105 342.4344 245.30855 343.1844Q245.49605 343.9344 245.49605 345.21564Q245.49605 346.73126 245.18355 347.65314Q244.88667 348.575 244.26167 349.09064Q243.6523 349.59064 242.69917 349.59064Q241.4648 349.59064 240.74605 348.7Q239.9023 347.6375 239.9023 345.21564ZM240.98042 345.21564Q240.98042 347.325 241.48042 348.02814Q241.98042 348.73126 242.69917 348.73126Q243.43355 348.73126 243.91792 348.02814Q244.41792 347.325 244.41792 345.21564Q244.41792 343.09064 243.91792 342.40314Q243.43355 341.7 242.68355 341.7Q241.9648 341.7 241.5273 342.3094Q240.98042 343.09064 240.98042 345.21564ZM246.7773 346.8719L246.7773 345.8094L250.0273 345.8094L250.0273 346.8719L246.7773 346.8719ZM254.87105 349.45L253.82417 349.45L253.82417 342.73126Q253.43355 343.09064 252.80855 343.46564Q252.19917 343.825 251.7148 343.9969L251.7148 342.98126Q252.5898 342.5594 253.24605 341.98126Q253.91792 341.3875 254.19917 340.825L254.87105 340.825L254.87105 349.45ZM257.90228 345.21564Q257.90228 343.6844 258.21478 342.7625Q258.52728 341.825 259.13666 341.325Q259.76166 340.825 260.69916 340.825Q261.38666 340.825 261.90228 341.10626Q262.43353 341.3875 262.77728 341.91876Q263.12103 342.4344 263.30853 343.1844Q263.49603 343.9344 263.49603 345.21564Q263.49603 346.73126 263.18353 347.65314Q262.88666 348.575 262.26166 349.09064Q261.65228 349.59064 260.69916 349.59064Q259.46478 349.59064 258.74603 348.7Q257.90228 347.6375 257.90228 345.21564ZM258.9804 345.21564Q258.9804 347.325 259.4804 348.02814Q259.9804 348.73126 260.69916 348.73126Q261.43353 348.73126 261.9179 348.02814Q262.4179 347.325 262.4179 345.21564Q262.4179 343.09064 261.9179 342.40314Q261.43353 341.7 260.68353 341.7Q259.96478 341.7 259.52728 342.3094Q258.9804 343.09064 258.9804 345.21564Z" fill-rule="nonzero"/><path fill="#000000" d="M360.06644 349.45L359.01956 349.45L359.01956 342.73126Q358.62894 343.09064 358.00394 343.46564Q357.39456 343.825 356.9102 343.9969L356.9102 342.98126Q357.7852 342.5594 358.44144 341.98126Q359.1133 341.3875 359.39456 340.825L360.06644 340.825L360.06644 349.45ZM363.0977 345.21564Q363.0977 343.6844 363.4102 342.7625Q363.7227 341.825 364.33206 341.325Q364.95706 340.825 365.89456 340.825Q366.58206 340.825 367.0977 341.10626Q367.62894 341.3875 367.9727 341.91876Q368.31644 342.4344 368.50394 343.1844Q368.69144 343.9344 368.69144 345.21564Q368.69144 346.73126 368.37894 347.65314Q368.08206 348.575 367.45706 349.09064Q366.8477 349.59064 365.89456 349.59064Q364.6602 349.59064 363.94144 348.7Q363.0977 347.6375 363.0977 345.21564ZM364.1758 345.21564Q364.1758 347.325 364.6758 348.02814Q365.1758 348.73126 365.89456 348.73126Q366.62894 348.73126 367.1133 348.02814Q367.6133 347.325 367.6133 345.21564Q367.6133 343.09064 367.1133 342.40314Q366.62894 341.7 365.87894 341.7Q365.1602 341.7 364.7227 342.3094Q364.1758 343.09064 364.1758 345.21564ZM369.9727 346.8719L369.9727 345.8094L373.2227 345.8094L373.2227 346.8719L369.9727 346.8719ZM378.06644 349.45L377.01956 349.45L377.01956 342.73126Q376.62894 343.09064 376.00394 343.46564Q375.39456 343.825 374.9102 343.9969L374.9102 342.98126Q375.7852 342.5594 376.44144 341.98126Q377.1133 341.3875 377.39456 340.825L378.06644 340.825L378.06644 349.45ZM381.0977 345.21564Q381.0977 343.6844 381.4102 342.7625Q381.7227 341.825 382.33206 341.325Q382.95706 340.825 383.89456 340.825Q384.58206 340.825 385.0977 341.10626Q385.62894 341.3875 385.9727 341.91876Q386.31644 342.4344 386.50394 343.1844Q386.69144 343.9344 386.69144 345.21564Q386.69144 346.73126 386.37894 347.65314Q386.08206 348.575 385.45706 349.09064Q384.8477 349.59064 383.89456 349.59064Q382.6602 349.59064 381.94144 348.7Q381.0977 347.6375 381.0977 345.21564ZM382.1758 345.21564Q382.1758 347.325 382.6758 348.02814Q383.1758 348.73126 383.89456 348.73126Q384.62894 348.73126 385.1133 348.02814Q385.6133 347.325 385.6133 345.21564Q385.6133 343.09064 385.1133 342.40314Q384.62894 341.7 383.87894 341.7Q383.1602 341.7 382.7227 342.3094Q382.1758 343.09064 382.1758 345.21564ZM388.0977 345.21564Q388.0977 343.6844 388.4102 342.7625Q388.7227 341.825 389.33206 341.325Q389.95706 340.825 390.89456 340.825Q391.58206 340.825 392.0977 341.10626Q392.62894 341.3875 392.9727 341.91876Q393.31644 342.4344 393.50394 343.1844Q393.69144 343.9344 393.69144 345.21564Q393.69144 346.73126 393.37894 347.65314Q393.08206 348.575 392.45706 349.09064Q391.8477 349.59064 390.89456 349.59064Q389.6602 349.59064 388.94144 348.7Q388.0977 347.6375 388.0977 345.21564ZM389.1758 345.21564Q389.1758 347.325 389.6758 348.02814Q390.1758 348.73126 390.89456 348.73126Q391.62894 348.73126 392.1133 348.02814Q392.6133 347.325 392.6133 345.21564Q392.6133 343.09064 392.1133 342.40314Q391.62894 341.7 390.87894 341.7Q390.1602 341.7 389.7227 342.3094Q389.1758 343.09064 389.1758 345.21564Z" fill-rule="nonzero"/><path fill="#000000" d="M476.26184 349.45L475.21497 349.45L475.21497 342.73126Q474.82434 343.09064 474.19934 343.46564Q473.58997 343.825 473.1056 343.9969L473.1056 342.98126Q473.9806 342.5594 474.63684 341.98126Q475.30872 341.3875 475.58997 340.825L476.26184 340.825L476.26184 349.45ZM479.2931 345.21564Q479.2931 343.6844 479.6056 342.7625Q479.9181 341.825 480.52747 341.325Q481.15247 340.825 482.08997 340.825Q482.77747 340.825 483.2931 341.10626Q483.82434 341.3875 484.1681 341.91876Q484.51184 342.4344 484.69934 343.1844Q484.88684 343.9344 484.88684 345.21564Q484.88684 346.73126 484.57434 347.65314Q484.27747 348.575 483.65247 349.09064Q483.0431 349.59064 482.08997 349.59064Q480.8556 349.59064 480.13684 348.7Q479.2931 347.6375 479.2931 345.21564ZM480.37122 345.21564Q480.37122 347.325 480.87122 348.02814Q481.37122 348.73126 482.08997 348.73126Q482.82434 348.73126 483.30872 348.02814Q483.80872 347.325 483.80872 345.21564Q483.80872 343.09064 483.30872 342.40314Q482.82434 341.7 482.07434 341.7Q481.3556 341.7 480.9181 342.3094Q480.37122 343.09064 480.37122 345.21564ZM486.2931 345.21564Q486.2931 343.6844 486.6056 342.7625Q486.9181 341.825 487.52747 341.325Q488.15247 340.825 489.08997 340.825Q489.77747 340.825 490.2931 341.10626Q490.82434 341.3875 491.1681 341.91876Q491.51184 342.4344 491.69934 343.1844Q491.88684 343.9344 491.88684 345.21564Q491.88684 346.73126 491.57434 347.65314Q491.27747 348.575 490.65247 349.09064Q490.0431 349.59064 489.08997 349.59064Q487.8556 349.59064 487.13684 348.7Q486.2931 347.6375 486.2931 345.21564ZM487.37122 345.21564Q487.37122 347.325 487.87122 348.02814Q488.37122 348.73126 489.08997 348.73126Q489.82434 348.73126 490.30872 348.02814Q490.80872 347.325 490.80872 345.21564Q490.80872 343.09064 490.30872 342.40314Q489.82434 341.7 489.07434 341.7Q488.3556 341.7 487.9181 342.3094Q487.37122 343.09064 487.37122 345.21564ZM493.1681 346.8719L493.1681 345.8094L496.4181 345.8094L496.4181 346.8719L493.1681 346.8719ZM501.26184 349.45L500.21497 349.45L500.21497 342.73126Q499.82434 343.09064 499.19934 343.46564Q498.58997 343.825 498.1056 343.9969L498.1056 342.98126Q498.9806 342.5594 499.63684 341.98126Q500.30872 341.3875 500.58997 340.825L501.26184 340.825L501.26184 349.45ZM504.2931 345.21564Q504.2931 343.6844 504.6056 342.7625Q504.9181 341.825 505.52747 341.325Q506.15247 340.825 507.08997 340.825Q507.77747 340.825 508.2931 341.10626Q508.82434 341.3875 509.1681 341.91876Q509.51184 342.4344 509.69934 343.1844Q509.88684 343.9344 509.88684 345.21564Q509.88684 346.73126 509.57434 347.65314Q509.27747 348.575 508.65247 349.09064Q508.0431 349.59064 507.08997 349.59064Q505.8556 349.59064 505.13684 348.7Q504.2931 347.6375 504.2931 345.21564ZM505.37122 345.21564Q505.37122 347.325 505.87122 348.02814Q506.37122 348.73126 507.08997 348.73126Q507.82434 348.73126 508.30872 348.02814Q508.80872 347.325 508.80872 345.21564Q508.80872 343.09064 508.30872 342.40314Q507.82434 341.7 507.07434 341.7Q506.3556 341.7 505.9181 342.3094Q505.37122 343.09064 505.37122 345.21564ZM511.2931 345.21564Q511.2931 343.6844 511.6056 342.7625Q511.9181 341.825 512.52747 341.325Q513.15247 340.825 514.08997 340.825Q514.77747 340.825 515.2931 341.10626Q515.82434 341.3875 516.1681 341.91876Q516.51184 342.4344 516.69934 343.1844Q516.88684 343.9344 516.88684 345.21564Q516.88684 346.73126 516.57434 347.65314Q516.27747 348.575 515.65247 349.09064Q515.0431 349.59064 514.08997 349.59064Q512.8556 349.59064 512.13684 348.7Q511.2931 347.6375 511.2931 345.21564ZM512.3712 345.21564Q512.3712 347.325 512.8712 348.02814Q513.3712 348.73126 514.08997 348.73126Q514.82434 348.73126 515.3087 348.02814Q515.8087 347.325 515.8087 345.21564Q515.8087 343.09064 515.3087 342.40314Q514.82434 341.7 514.07434 341.7Q513.3556 341.7 512.9181 342.3094Q512.3712 343.09064 512.3712 345.21564ZM518.2931 345.21564Q518.2931 343.6844 518.6056 342.7625Q518.9181 341.825 519.52747 341.325Q520.15247 340.825 521.08997 340.825Q521.77747 340.825 522.2931 341.10626Q522.82434 341.3875 523.1681 341.91876Q523.51184 342.4344 523.69934 343.1844Q523.88684 343.9344 523.88684 345.21564Q523.88684 346.73126 523.57434 347.65314Q523.27747 348.575 522.65247 349.09064Q522.0431 349.59064 521.08997 349.59064Q519.8556 349.59064 519.13684 348.7Q518.2931 347.6375 518.2931 345.21564ZM519.3712 345.21564Q519.3712 347.325 519.8712 348.02814Q520.3712 348.73126 521.08997 348.73126Q521.82434 348.73126 522.3087 348.02814Q522.8087 347.325 522.8087 345.21564Q522.8087 343.09064 522.3087 342.40314Q521.82434 341.7 521.07434 341.7Q520.3556 341.7 519.9181 342.3094Q519.3712 343.09064 519.3712 345.21564Z" fill-rule="nonzero"/><path fill="#757575" d="M20.159374 37.55L20.159374 23.2375L22.05 23.2375L22.05 29.1125L29.4875 29.1125L29.4875 23.2375L31.378124 23.2375L31.378124 37.55L29.4875 37.55L29.4875 30.8L22.05 30.8L22.05 37.55L20.159374 37.55ZM32.878124 25.253124L32.878124 23.2375L34.64375 23.2375L34.64375 25.253124L32.878124 25.253124ZM32.878124 37.55L32.878124 27.175L34.64375 27.175L34.64375 37.55L32.878124 37.55ZM36.159374 34.45625L37.909374 34.175Q38.05 35.221874 38.721874 35.784374Q39.39375 36.33125 40.596874 36.33125Q41.8 36.33125 42.378124 35.846874Q42.971874 35.346874 42.971874 34.690624Q42.971874 34.096874 42.45625 33.753124Q42.096874 33.51875 40.659374 33.159374Q38.721874 32.659374 37.971874 32.315624Q37.2375 31.95625 36.846874 31.33125Q36.45625 30.690624 36.45625 29.925Q36.45625 29.2375 36.76875 28.64375Q37.096874 28.05 37.64375 27.659374Q38.05 27.3625 38.753124 27.159374Q39.471874 26.940624 40.284374 26.940624Q41.503124 26.940624 42.425 27.3Q43.346874 27.64375 43.784374 28.253124Q44.221874 28.846874 44.39375 29.846874L42.675 30.08125Q42.55 29.284374 41.9875 28.846874Q41.425 28.39375 40.409374 28.39375Q39.190624 28.39375 38.675 28.8Q38.159374 29.190624 38.159374 29.721874Q38.159374 30.065624 38.378124 30.346874Q38.58125 30.628124 39.05 30.815624Q39.315624 30.909374 40.596874 31.253124Q42.471874 31.753124 43.20625 32.08125Q43.940624 32.39375 44.3625 33.003124Q44.784374 33.596874 44.784374 34.503124Q44.784374 35.378124 44.26875 36.159374Q43.753124 36.940624 42.784374 37.3625Q41.815624 37.784374 40.596874 37.784374Q38.58125 37.784374 37.51875 36.940624Q36.45625 36.096874 36.159374 34.45625ZM50.70625 35.971874L50.95625 37.534374Q50.221874 37.690624 49.628124 37.690624Q48.675 37.690624 48.14375 37.39375Q47.628124 37.08125 47.409374 36.596874Q47.190624 36.096874 47.190624 34.51875L47.190624 28.55L45.909374 28.55L45.909374 27.175L47.190624 27.175L47.190624 24.6125L48.940624 23.55L48.940624 27.175L50.70625 27.175L50.70625 28.55L48.940624 28.55L48.940624 34.6125Q48.940624 35.3625 49.034374 35.58125Q49.128124 35.784374 49.33125 35.925Q49.55 36.05 49.940624 36.05Q50.221874 36.05 50.70625 35.971874ZM52.221874 32.3625Q52.221874 29.4875 53.815624 28.096874Q55.159374 26.940624 57.08125 26.940624Q59.221874 26.940624 60.565624 28.346874Q61.925 29.753124 61.925 32.221874Q61.925 34.221874 61.33125 35.378124Q60.7375 36.51875 59.58125 37.159374Q58.440624 37.784374 57.08125 37.784374Q54.89375 37.784374 53.55 36.39375Q52.221874 34.9875 52.221874 32.3625ZM54.01875 32.3625Q54.01875 34.3625 54.878124 35.346874Q55.753124 36.33125 57.08125 36.33125Q58.39375 36.33125 59.253124 35.346874Q60.128124 34.346874 60.128124 32.3Q60.128124 30.378124 59.253124 29.39375Q58.378124 28.39375 57.08125 28.39375Q55.753124 28.39375 54.878124 29.39375Q54.01875 30.378124 54.01875 32.3625ZM63.55 38.409374L65.25313 38.659374Q65.3625 39.45625 65.84688 39.815624Q66.50313 40.3 67.64375 40.3Q68.8625 40.3 69.51875 39.815624Q70.19063 39.33125 70.425 38.45625Q70.56563 37.909374 70.55 36.190624Q69.39375 37.55 67.675 37.55Q65.53438 37.55 64.3625 36.003124Q63.190624 34.45625 63.190624 32.3Q63.190624 30.815624 63.721874 29.565624Q64.26875 28.315624 65.28438 27.628124Q66.31563 26.940624 67.69063 26.940624Q69.51875 26.940624 70.72188 28.425L70.72188 27.175L72.33125 27.175L72.33125 36.14375Q72.33125 38.565624 71.83125 39.565624Q71.34688 40.58125 70.26875 41.159374Q69.20625 41.753124 67.64375 41.753124Q65.8 41.753124 64.64375 40.925Q63.503124 40.096874 63.55 38.409374ZM65.00313 32.175Q65.00313 34.221874 65.81563 35.159374Q66.62813 36.096874 67.84688 36.096874Q69.05 36.096874 69.8625 35.159374Q70.69063 34.221874 70.69063 32.2375Q70.69063 30.33125 69.84688 29.3625Q69.00313 28.39375 67.81563 28.39375Q66.64375 28.39375 65.81563 29.346874Q65.00313 30.3 65.00313 32.175ZM74.84688 37.55L74.84688 27.175L76.425 27.175L76.425 28.753124Q77.03438 27.64375 77.55 27.3Q78.06563 26.940624 78.675 26.940624Q79.56563 26.940624 80.4875 27.503124L79.87813 29.14375Q79.2375 28.753124 78.59688 28.753124Q78.01875 28.753124 77.55 29.1125Q77.09688 29.45625 76.89375 30.065624Q76.6125 31.003124 76.6125 32.1125L76.6125 37.55L74.84688 37.55ZM88.64375 36.26875Q87.65938 37.096874 86.75313 37.440624Q85.84688 37.784374 84.81563 37.784374Q83.1125 37.784374 82.19063 36.95625Q81.26875 36.1125 81.26875 34.815624Q81.26875 34.05 81.6125 33.425Q81.97188 32.8 82.53438 32.425Q83.09688 32.034374 83.8 31.83125Q84.31563 31.70625 85.3625 31.565624Q87.4875 31.315624 88.4875 30.971874Q88.50313 30.6125 88.50313 30.503124Q88.50313 29.440624 88.00313 28.9875Q87.33125 28.39375 86.00313 28.39375Q84.75313 28.39375 84.15938 28.83125Q83.58125 29.26875 83.3 30.378124L81.58125 30.14375Q81.81563 29.034374 82.34688 28.3625Q82.87813 27.675 83.89375 27.315624Q84.90938 26.940624 86.25313 26.940624Q87.58125 26.940624 88.40938 27.253124Q89.2375 27.565624 89.62813 28.05Q90.01875 28.51875 90.175 29.2375Q90.26875 29.690624 90.26875 30.8625L90.26875 33.20625Q90.26875 35.659374 90.37813 36.315624Q90.4875 36.95625 90.83125 37.55L88.9875 37.55Q88.72188 37.003124 88.64375 36.26875ZM88.4875 32.346874Q87.53438 32.7375 85.6125 33.003124Q84.53438 33.159374 84.08125 33.3625Q83.64375 33.55 83.39375 33.925Q83.14375 34.3 83.14375 34.76875Q83.14375 35.471874 83.675 35.940624Q84.20625 36.409374 85.2375 36.409374Q86.25313 36.409374 87.03438 35.971874Q87.83125 35.51875 88.20625 34.753124Q88.4875 34.14375 88.4875 32.9875L88.4875 32.346874ZM92.8625 37.55L92.8625 27.175L94.44063 27.175L94.44063 28.628124Q94.925 27.878124 95.7375 27.409374Q96.55 26.940624 97.58125 26.940624Q98.7375 26.940624 99.47188 27.425Q100.20625 27.89375 100.51875 28.753124Q101.75313 26.940624 103.72188 26.940624Q105.26875 26.940624 106.09688 27.8Q106.925 28.659374 106.925 30.425L106.925 37.55L105.175 37.55L105.175 31.01875Q105.175 29.95625 105.00313 29.503124Q104.83125 29.034374 104.37813 28.753124Q103.94063 28.471874 103.33125 28.471874Q102.2375 28.471874 101.50313 29.20625Q100.78438 29.925 100.78438 31.51875L100.78438 37.55L99.03438 37.55L99.03438 30.815624Q99.03438 29.64375 98.59688 29.065624Q98.175 28.471874 97.19063 28.471874Q96.45625 28.471874 95.81563 28.8625Q95.19063 29.253124 94.90938 30.003124Q94.62813 30.753124 94.62813 32.175L94.62813 37.55L92.8625 37.55ZM114.22188 32.3625Q114.22188 29.4875 115.81563 28.096874Q117.15938 26.940624 119.08125 26.940624Q121.22188 26.940624 122.56563 28.346874Q123.925 29.753124 123.925 32.221874Q123.925 34.221874 123.33125 35.378124Q122.7375 36.51875 121.58125 37.159374Q120.44063 37.784374 119.08125 37.784374Q116.89375 37.784374 115.55 36.39375Q114.22188 34.9875 114.22188 32.3625ZM116.01875 32.3625Q116.01875 34.3625 116.87813 35.346874Q117.75313 36.33125 119.08125 36.33125Q120.39375 36.33125 121.25313 35.346874Q122.12813 34.346874 122.12813 32.3Q122.12813 30.378124 121.25313 29.39375Q120.37813 28.39375 119.08125 28.39375Q117.75313 28.39375 116.87813 29.39375Q116.01875 30.378124 116.01875 32.3625ZM126.28438 37.55L126.28438 28.55L124.7375 28.55L124.7375 27.175L126.28438 27.175L126.28438 26.08125Q126.28438 25.034374 126.47188 24.51875Q126.72188 23.83125 127.3625 23.409374Q128.00313 22.9875 129.15938 22.9875Q129.90938 22.9875 130.8 23.159374L130.53438 24.690624Q129.9875 24.596874 129.50313 24.596874Q128.70625 24.596874 128.3625 24.940624Q128.03438 25.284374 128.03438 26.221874L128.03438 27.175L130.06563 27.175L130.06563 28.55L128.03438 28.55L128.03438 37.55L126.28438 37.55ZM137.83125 37.55L137.83125 23.2375L139.58125 23.2375L139.58125 37.55L137.83125 37.55ZM141.87813 25.253124L141.87813 23.2375L143.64375 23.2375L143.64375 25.253124L141.87813 25.253124ZM141.87813 37.55L141.87813 27.175L143.64375 27.175L143.64375 37.55L141.87813 37.55ZM145.15938 34.45625L146.90938 34.175Q147.05 35.221874 147.72188 35.784374Q148.39375 36.33125 149.59688 36.33125Q150.8 36.33125 151.37813 35.846874Q151.97188 35.346874 151.97188 34.690624Q151.97188 34.096874 151.45625 33.753124Q151.09688 33.51875 149.65938 33.159374Q147.72188 32.659374 146.97188 32.315624Q146.2375 31.95625 145.84688 31.33125Q145.45625 30.690624 145.45625 29.925Q145.45625 29.2375 145.76875 28.64375Q146.09688 28.05 146.64375 27.659374Q147.05 27.3625 147.75313 27.159374Q148.47188 26.940624 149.28438 26.940624Q150.50313 26.940624 151.425 27.3Q152.34688 27.64375 152.78438 28.253124Q153.22188 28.846874 153.39375 29.846874L151.675 30.08125Q151.55 29.284374 150.9875 28.846874Q150.425 28.39375 149.40938 28.39375Q148.19063 28.39375 147.675 28.8Q147.15938 29.190624 147.15938 29.721874Q147.15938 30.065624 147.37813 30.346874Q147.58125 30.628124 148.05 30.815624Q148.31563 30.909374 149.59688 31.253124Q151.47188 31.753124 152.20625 32.08125Q152.94063 32.39375 153.3625 33.003124Q153.78438 33.596874 153.78438 34.503124Q153.78438 35.378124 153.26875 36.159374Q152.75313 36.940624 151.78438 37.3625Q150.81563 37.784374 149.59688 37.784374Q147.58125 37.784374 146.51875 36.940624Q145.45625 36.096874 145.15938 34.45625ZM159.70625 35.971874L159.95625 37.534374Q159.22188 37.690624 158.62813 37.690624Q157.675 37.690624 157.14375 37.39375Q156.62813 37.08125 156.40938 36.596874Q156.19063 36.096874 156.19063 34.51875L156.19063 28.55L154.90938 28.55L154.90938 27.175L156.19063 27.175L156.19063 24.6125L157.94063 23.55L157.94063 27.175L159.70625 27.175L159.70625 28.55L157.94063 28.55L157.94063 34.6125Q157.94063 35.3625 158.03438 35.58125Q158.12813 35.784374 158.33125 35.925Q158.55 36.05 158.94063 36.05Q159.22188 36.05 159.70625 35.971874ZM167.83125 37.55L167.83125 23.2375L169.58125 23.2375L169.58125 37.55L167.83125 37.55ZM178.97188 34.20625L180.78438 34.440624Q180.3625 36.01875 179.19063 36.909374Q178.03438 37.784374 176.22188 37.784374Q173.95625 37.784374 172.6125 36.39375Q171.28438 34.9875 171.28438 32.45625Q171.28438 29.83125 172.62813 28.39375Q173.97188 26.940624 176.12813 26.940624Q178.20625 26.940624 179.51875 28.3625Q180.84688 29.76875 180.84688 32.346874Q180.84688 32.503124 180.83125 32.815624L173.09688 32.815624Q173.19063 34.51875 174.06563 35.425Q174.94063 36.33125 176.2375 36.33125Q177.20625 36.33125 177.87813 35.83125Q178.56563 35.315624 178.97188 34.20625ZM173.19063 31.3625L178.9875 31.3625Q178.87813 30.065624 178.33125 29.409374Q177.4875 28.39375 176.14375 28.39375Q174.94063 28.39375 174.1125 29.20625Q173.28438 30.003124 173.19063 31.3625ZM182.8625 37.55L182.8625 27.175L184.45625 27.175L184.45625 28.659374Q185.59688 26.940624 187.75313 26.940624Q188.69063 26.940624 189.47188 27.284374Q190.26875 27.6125 190.65938 28.159374Q191.05 28.70625 191.20625 29.45625Q191.3 29.95625 191.3 31.175L191.3 37.55L189.53438 37.55L189.53438 31.2375Q189.53438 30.159374 189.33125 29.628124Q189.12813 29.096874 188.59688 28.784374Q188.08125 28.471874 187.37813 28.471874Q186.25313 28.471874 185.44063 29.190624Q184.62813 29.89375 184.62813 31.878124L184.62813 37.55L182.8625 37.55ZM192.55 38.409374L194.25313 38.659374Q194.3625 39.45625 194.84688 39.815624Q195.50313 40.3 196.64375 40.3Q197.8625 40.3 198.51875 39.815624Q199.19063 39.33125 199.425 38.45625Q199.56563 37.909374 199.55 36.190624Q198.39375 37.55 196.675 37.55Q194.53438 37.55 193.3625 36.003124Q192.19063 34.45625 192.19063 32.3Q192.19063 30.815624 192.72188 29.565624Q193.26875 28.315624 194.28438 27.628124Q195.31563 26.940624 196.69063 26.940624Q198.51875 26.940624 199.72188 28.425L199.72188 27.175L201.33125 27.175L201.33125 36.14375Q201.33125 38.565624 200.83125 39.565624Q200.34688 40.58125 199.26875 41.159374Q198.20625 41.753124 196.64375 41.753124Q194.8 41.753124 193.64375 40.925Q192.50313 40.096874 192.55 38.409374ZM194.00313 32.175Q194.00313 34.221874 194.81563 35.159374Q195.62813 36.096874 196.84688 36.096874Q198.05 36.096874 198.8625 35.159374Q199.69063 34.221874 199.69063 32.2375Q199.69063 30.33125 198.84688 29.3625Q198.00313 28.39375 196.81563 28.39375Q195.64375 28.39375 194.81563 29.346874Q194.00313 30.3 194.00313 32.175ZM207.70625 35.971874L207.95625 37.534374Q207.22188 37.690624 206.62813 37.690624Q205.675 37.690624 205.14375 37.39375Q204.62813 37.08125 204.40938 36.596874Q204.19063 36.096874 204.19063 34.51875L204.19063 28.55L202.90938 28.55L202.90938 27.175L204.19063 27.175L204.19063 24.6125L205.94063 23.55L205.94063 27.175L207.70625 27.175L207.70625 28.55L205.94063 28.55L205.94063 34.6125Q205.94063 35.3625 206.03438 35.58125Q206.12813 35.784374 206.33125 35.925Q206.55 36.05 206.94063 36.05Q207.22188 36.05 207.70625 35.971874ZM209.8625 37.55L209.8625 23.2375L211.62813 23.2375L211.62813 28.3625Q212.8625 26.940624 214.7375 26.940624Q215.87813 26.940624 216.72188 27.39375Q217.58125 27.846874 217.94063 28.659374Q218.31563 29.45625 218.31563 30.971874L218.31563 37.55L216.56563 37.55L216.56563 30.971874Q216.56563 29.659374 215.9875 29.065624Q215.40938 28.45625 214.37813 28.45625Q213.59688 28.45625 212.89375 28.8625Q212.20625 29.26875 211.90938 29.971874Q211.62813 30.659374 211.62813 31.878124L211.62813 37.55L209.8625 37.55ZM219.15938 34.45625L220.90938 34.175Q221.05 35.221874 221.72188 35.784374Q222.39375 36.33125 223.59688 36.33125Q224.8 36.33125 225.37813 35.846874Q225.97188 35.346874 225.97188 34.690624Q225.97188 34.096874 225.45625 33.753124Q225.09688 33.51875 223.65938 33.159374Q221.72188 32.659374 220.97188 32.315624Q220.2375 31.95625 219.84688 31.33125Q219.45625 30.690624 219.45625 29.925Q219.45625 29.2375 219.76875 28.64375Q220.09688 28.05 220.64375 27.659374Q221.05 27.3625 221.75313 27.159374Q222.47188 26.940624 223.28438 26.940624Q224.50313 26.940624 225.425 27.3Q226.34688 27.64375 226.78438 28.253124Q227.22188 28.846874 227.39375 29.846874L225.675 30.08125Q225.55 29.284374 224.9875 28.846874Q224.425 28.39375 223.40938 28.39375Q222.19063 28.39375 221.675 28.8Q221.15938 29.190624 221.15938 29.721874Q221.15938 30.065624 221.37813 30.346874Q221.58125 30.628124 222.05 30.815624Q222.31563 30.909374 223.59688 31.253124Q225.47188 31.753124 226.20625 32.08125Q226.94063 32.39375 227.3625 33.003124Q227.78438 33.596874 227.78438 34.503124Q227.78438 35.378124 227.26875 36.159374Q226.75313 36.940624 225.78438 37.3625Q224.81563 37.784374 223.59688 37.784374Q221.58125 37.784374 220.51875 36.940624Q219.45625 36.096874 219.15938 34.45625Z" fill-rule="nonzero"/></svg>