<?xml version="1.0" encoding="UTF-8"?>
<svg xmlns="http://www.w3.org/2000/svg" width="213" height="71">
   <defs>
      <style type="text/css">
    @namespace "http://www.w3.org/2000/svg";
    .line                 {fill: none; stroke: #332900; stroke-width: 1;}
    .bold-line            {stroke: #141000; shape-rendering: crispEdges; stroke-width: 2;}
    .thin-line            {stroke: #1F1800; shape-rendering: crispEdges}
    .filled               {fill: #332900; stroke: none;}
    text.terminal         {font-family: Verdana, Sans-serif;
                            font-size: 12px;
                            fill: #141000;
                            font-weight: bold;
                          }
    text.nonterminal      {font-family: Verdana, Sans-serif;
                            font-size: 12px;
                            fill: #1A1400;
                            font-weight: normal;
                          }
    text.regexp           {font-family: Verdana, Sans-serif;
                            font-size: 12px;
                            fill: #1F1800;
                            font-weight: normal;
                          }
    rect, circle, polygon {fill: #332900; stroke: #332900;}
    rect.terminal         {fill: #FFDB4D; stroke: #332900; stroke-width: 1;}
    rect.nonterminal      {fill: #FFEC9E; stroke: #332900; stroke-width: 1;}
    rect.text             {fill: none; stroke: none;}
    polygon.regexp        {fill: #FFF4C7; stroke: #332900; stroke-width: 1;}
  </style>
   </defs>
   <polygon points="9 51 1 47 1 55"/>
   <polygon points="17 51 9 47 9 55"/>
   <rect x="31" y="37" width="30" height="32" rx="10"/>
   <rect x="29"
         y="35"
         width="30"
         height="32"
         class="terminal"
         rx="10"/>
   <text class="terminal" x="39" y="55">#</text>
   <polygon points="101 19 108 3 158 3 165 19 158 35 108 35"/>
   <polygon points="99 17 106 1 156 1 163 17 156 33 106 33" class="regexp"/>
   <text class="regexp" x="114" y="21">[^\n]</text>
   <path class="line"
         d="m17 51 h2 m0 0 h10 m30 0 h10 m20 0 h10 m0 0 h74 m-104 0 l20 0 m-1 0 q-9 0 -9 -10 l0 -14 q0 -10 10 -10 m84 34 l20 0 m-20 0 q10 0 10 -10 l0 -14 q0 -10 -10 -10 m-84 0 h10 m64 0 h10 m23 34 h-3"/>
   <polygon points="203 51 211 47 211 55"/>
   <polygon points="203 51 195 47 195 55"/>
</svg>
