<?xml version="1.0" encoding="UTF-8"?>
<svg xmlns="http://www.w3.org/2000/svg" width="287" height="237">
   <defs>
      <style type="text/css">
    @namespace "http://www.w3.org/2000/svg";
    .line                 {fill: none; stroke: #332900; stroke-width: 1;}
    .bold-line            {stroke: #141000; shape-rendering: crispEdges; stroke-width: 2;}
    .thin-line            {stroke: #1F1800; shape-rendering: crispEdges}
    .filled               {fill: #332900; stroke: none;}
    text.terminal         {font-family: Verdana, Sans-serif;
                            font-size: 12px;
                            fill: #141000;
                            font-weight: bold;
                          }
    text.nonterminal      {font-family: Verdana, Sans-serif;
                            font-size: 12px;
                            fill: #1A1400;
                            font-weight: normal;
                          }
    text.regexp           {font-family: Verdana, Sans-serif;
                            font-size: 12px;
                            fill: #1F1800;
                            font-weight: normal;
                          }
    rect, circle, polygon {fill: #332900; stroke: #332900;}
    rect.terminal         {fill: #FFDB4D; stroke: #332900; stroke-width: 1;}
    rect.nonterminal      {fill: #FFEC9E; stroke: #332900; stroke-width: 1;}
    rect.text             {fill: none; stroke: none;}
    polygon.regexp        {fill: #FFF4C7; stroke: #332900; stroke-width: 1;}
  </style>
   </defs>
   <polygon points="9 95 1 91 1 99"/>
   <polygon points="17 95 9 91 9 99"/>
   <rect x="51" y="81" width="24" height="32" rx="10"/>
   <rect x="49"
         y="79"
         width="24"
         height="32"
         class="terminal"
         rx="10"/>
   <text class="terminal" x="59" y="99">'</text>
   <rect x="115" y="47" width="40" height="32" rx="10"/>
   <rect x="113"
         y="45"
         width="40"
         height="32"
         class="terminal"
         rx="10"/>
   <text class="terminal" x="123" y="65">\\'</text>
   <polygon points="115 19 122 3 162 3 169 19 162 35 122 35"/>
   <polygon points="113 17 120 1 160 1 167 17 160 33 120 33" class="regexp"/>
   <text class="regexp" x="128" y="21">[^']</text>
   <rect x="209" y="81" width="24" height="32" rx="10"/>
   <rect x="207"
         y="79"
         width="24"
         height="32"
         class="terminal"
         rx="10"/>
   <text class="terminal" x="217" y="99">'</text>
   <rect x="51" y="203" width="26" height="32" rx="10"/>
   <rect x="49"
         y="201"
         width="26"
         height="32"
         class="terminal"
         rx="10"/>
   <text class="terminal" x="59" y="221">"</text>
   <rect x="117" y="169" width="44" height="32" rx="10"/>
   <rect x="115"
         y="167"
         width="44"
         height="32"
         class="terminal"
         rx="10"/>
   <text class="terminal" x="125" y="187">\\"</text>
   <polygon points="117 141 124 125 166 125 173 141 166 157 124 157"/>
   <polygon points="115 139 122 123 164 123 171 139 164 155 122 155" class="regexp"/>
   <text class="regexp" x="130" y="143">[^"]</text>
   <rect x="213" y="203" width="26" height="32" rx="10"/>
   <rect x="211"
         y="201"
         width="26"
         height="32"
         class="terminal"
         rx="10"/>
   <text class="terminal" x="221" y="221">"</text>
   <path class="line"
         d="m17 95 h2 m20 0 h10 m24 0 h10 m20 0 h10 m0 0 h64 m-94 0 l20 0 m-1 0 q-9 0 -9 -10 l0 -14 q0 -10 10 -10 m74 34 l20 0 m-20 0 q10 0 10 -10 l0 -14 q0 -10 -10 -10 m-74 0 h10 m40 0 h10 m0 0 h14 m-84 10 l0 -44 q0 -10 10 -10 m84 54 l0 -44 q0 -10 -10 -10 m-74 0 h10 m54 0 h10 m20 78 h10 m24 0 h10 m0 0 h6 m-228 0 h20 m208 0 h20 m-248 0 q10 0 10 10 m228 0 q0 -10 10 -10 m-238 10 v102 m228 0 v-102 m-228 102 q0 10 10 10 m208 0 q10 0 10 -10 m-218 10 h10 m26 0 h10 m20 0 h10 m0 0 h66 m-96 0 l20 0 m-1 0 q-9 0 -9 -10 l0 -14 q0 -10 10 -10 m76 34 l20 0 m-20 0 q10 0 10 -10 l0 -14 q0 -10 -10 -10 m-76 0 h10 m44 0 h10 m0 0 h12 m-86 10 l0 -44 q0 -10 10 -10 m86 54 l0 -44 q0 -10 -10 -10 m-76 0 h10 m56 0 h10 m20 78 h10 m26 0 h10 m23 -122 h-3"/>
   <polygon points="277 95 285 91 285 99"/>
   <polygon points="277 95 269 91 269 99"/>
</svg>
