<?xml version="1.0" encoding="UTF-8"?>
<svg xmlns="http://www.w3.org/2000/svg" width="389" height="129">
   <defs>
      <style type="text/css">
    @namespace "http://www.w3.org/2000/svg";
    .line                 {fill: none; stroke: #332900; stroke-width: 1;}
    .bold-line            {stroke: #141000; shape-rendering: crispEdges; stroke-width: 2;}
    .thin-line            {stroke: #1F1800; shape-rendering: crispEdges}
    .filled               {fill: #332900; stroke: none;}
    text.terminal         {font-family: Verdana, Sans-serif;
                            font-size: 12px;
                            fill: #141000;
                            font-weight: bold;
                          }
    text.nonterminal      {font-family: Verdana, Sans-serif;
                            font-size: 12px;
                            fill: #1A1400;
                            font-weight: normal;
                          }
    text.regexp           {font-family: Verdana, Sans-serif;
                            font-size: 12px;
                            fill: #1F1800;
                            font-weight: normal;
                          }
    rect, circle, polygon {fill: #332900; stroke: #332900;}
    rect.terminal         {fill: #FFDB4D; stroke: #332900; stroke-width: 1;}
    rect.nonterminal      {fill: #FFEC9E; stroke: #332900; stroke-width: 1;}
    rect.text             {fill: none; stroke: none;}
    polygon.regexp        {fill: #FFF4C7; stroke: #332900; stroke-width: 1;}
  </style>
   </defs>
   <polygon points="9 33 1 29 1 37"/>
   <polygon points="17 33 9 29 9 37"/>
   <rect x="71" y="51" width="26" height="32" rx="10"/>
   <rect x="69"
         y="49"
         width="26"
         height="32"
         class="terminal"
         rx="10"/>
   <text class="terminal" x="79" y="69">?</text>
   <a xmlns:xlink="http://www.w3.org/1999/xlink"
      xlink:href="#PathStep"
      xlink:title="PathStep">
      <rect x="157" y="19" width="78" height="32"/>
      <rect x="155" y="17" width="78" height="32" class="nonterminal"/>
      <text class="nonterminal" x="165" y="37">PathStep</text>
   </a>
   <rect x="275" y="51" width="26" height="32" rx="10"/>
   <rect x="273"
         y="49"
         width="26"
         height="32"
         class="terminal"
         rx="10"/>
   <text class="terminal" x="283" y="69">?</text>
   <rect x="51" y="95" width="26" height="32" rx="10"/>
   <rect x="49"
         y="93"
         width="26"
         height="32"
         class="terminal"
         rx="10"/>
   <text class="terminal" x="59" y="113">?</text>
   <path class="line"
         d="m17 33 h2 m40 0 h10 m0 0 h36 m-66 0 h20 m46 0 h20 m-86 0 q10 0 10 10 m66 0 q0 -10 10 -10 m-76 10 v12 m66 0 v-12 m-66 12 q0 10 10 10 m46 0 q10 0 10 -10 m-56 10 h10 m26 0 h10 m40 -32 h10 m78 0 h10 m20 0 h10 m0 0 h36 m-66 0 h20 m46 0 h20 m-86 0 q10 0 10 10 m66 0 q0 -10 10 -10 m-76 10 v12 m66 0 v-12 m-66 12 q0 10 10 10 m46 0 q10 0 10 -10 m-56 10 h10 m26 0 h10 m-184 -32 l20 0 m-1 0 q-9 0 -9 -10 l0 -12 q0 -10 10 -10 m184 32 l20 0 m-20 0 q10 0 10 -10 l0 -12 q0 -10 -10 -10 m-184 0 h10 m0 0 h174 m-310 32 h20 m310 0 h20 m-350 0 q10 0 10 10 m330 0 q0 -10 10 -10 m-340 10 v56 m330 0 v-56 m-330 56 q0 10 10 10 m310 0 q10 0 10 -10 m-320 10 h10 m26 0 h10 m0 0 h264 m23 -76 h-3"/>
   <polygon points="379 33 387 29 387 37"/>
   <polygon points="379 33 371 29 371 37"/>
</svg>
