<svg width="498" height="290" viewBox="0 0 498 290" fill="none" xmlns="http://www.w3.org/2000/svg">
<rect x="222.011" y="1.6167" width="102.5" height="40.5" rx="5.25" fill="#15252D"/>
<rect x="222.011" y="1.6167" width="102.5" height="40.5" rx="5.25" stroke="#FFEEE6" stroke-width="1.5"/>
<path d="M248.727 19.5267C248.727 20.2423 248.574 20.82 248.267 21.26C247.965 21.6956 247.545 22.0134 247.007 22.2134C246.47 22.4134 245.854 22.5134 245.161 22.5134H244.014V25.8667H242.687V16.68H245.121C246.241 16.68 247.121 16.9134 247.761 17.38C248.405 17.8423 248.727 18.5578 248.727 19.5267ZM247.327 19.54C247.327 18.8645 247.132 18.3889 246.741 18.1134C246.354 17.8378 245.856 17.7 245.247 17.7H244.014V21.4734H245.227C245.636 21.4734 245.999 21.4156 246.314 21.3C246.63 21.1845 246.876 20.9867 247.054 20.7067C247.236 20.4267 247.327 20.0378 247.327 19.54ZM254.965 23.58H251.485L250.792 25.8667H249.465L252.425 16.68H254.092L257.059 25.8667H255.659L254.965 23.58ZM251.792 22.52H254.659L253.232 17.7467L251.792 22.52ZM264.477 19.2867C264.477 19.9756 264.266 20.5311 263.844 20.9534C263.426 21.3711 262.91 21.66 262.297 21.82L264.97 25.8667H263.404L260.984 21.9934H259.844V25.8667H258.517V16.68H260.964C262.115 16.68 262.988 16.9 263.584 17.34C264.179 17.7756 264.477 18.4245 264.477 19.2867ZM263.07 19.2867C263.07 18.7223 262.906 18.3156 262.577 18.0667C262.252 17.8178 261.752 17.6934 261.077 17.6934H259.844V20.9867H261.09C261.721 20.9867 262.208 20.8578 262.55 20.6C262.897 20.3378 263.07 19.9 263.07 19.2867ZM270.962 23.58H267.482L266.788 25.8667H265.462L268.422 16.68H270.088L273.055 25.8667H271.655L270.962 23.58ZM267.788 22.52H270.655L269.228 17.7467L267.788 22.52ZM274.966 25.8667V16.68H276.293V24.72H280.453L280.306 25.8667H274.966ZM282.964 25.8667V16.68H284.291V24.72H288.451L288.304 25.8667H282.964ZM292.176 17.72V20.6734H295.549V21.72H292.176V24.8334H296.302V25.8667H290.849V16.68H296.202L296.049 17.72H292.176ZM298.96 25.8667V16.68H300.287V24.72H304.447L304.3 25.8667H298.96Z" fill="#FFEEE6"/>
<rect x="88.75" y="83.8354" width="142.5" height="40.5" rx="5.25" fill="#15252D"/>
<rect x="88.75" y="83.8354" width="142.5" height="40.5" rx="5.25" stroke="#FFEEE6" stroke-width="1.5"/>
<path d="M111.1 99.9388V103.032H114.64V104.065H111.1V108.085H109.78V98.8988H115.293L115.14 99.9388H111.1ZM118.925 99.9388V102.892H122.298V103.939H118.925V107.052H123.051V108.085H117.598V98.8988H122.951L122.798 99.9388H118.925ZM128.636 99.9988V108.085H127.316V99.9988H124.489V98.8988H131.509L131.369 99.9988H128.636ZM136.767 98.7321C137.376 98.7321 137.887 98.8099 138.301 98.9654C138.719 99.121 139.11 99.3477 139.474 99.6454L138.761 100.485C138.476 100.25 138.174 100.079 137.854 99.9721C137.534 99.861 137.199 99.8054 136.847 99.8054C136.363 99.8054 135.916 99.9232 135.507 100.159C135.099 100.394 134.77 100.781 134.521 101.319C134.272 101.857 134.147 102.579 134.147 103.485C134.147 104.37 134.265 105.081 134.501 105.619C134.741 106.152 135.063 106.541 135.467 106.785C135.876 107.025 136.332 107.145 136.834 107.145C137.336 107.145 137.752 107.068 138.081 106.912C138.414 106.752 138.703 106.57 138.947 106.365L139.607 107.212C139.319 107.497 138.943 107.741 138.481 107.945C138.023 108.15 137.463 108.252 136.801 108.252C136.041 108.252 135.356 108.07 134.747 107.705C134.143 107.341 133.663 106.805 133.307 106.099C132.952 105.388 132.774 104.517 132.774 103.485C132.774 102.454 132.954 101.585 133.314 100.879C133.679 100.172 134.163 99.6388 134.767 99.2788C135.376 98.9143 136.043 98.7321 136.767 98.7321ZM145.626 108.085V103.805H142.359V108.085H141.039V98.8988H142.359V102.719H145.626V98.8988H146.946V108.085H145.626Z" fill="#FFEEE6"/>
<path d="M158.928 103.419C158.928 104.312 159.028 105.09 159.228 105.752C159.428 106.414 159.735 107.025 160.148 107.585C160.566 108.141 161.093 108.712 161.728 109.299L161.035 109.992C160.315 109.401 159.697 108.792 159.182 108.165C158.671 107.539 158.277 106.843 158.002 106.079C157.731 105.31 157.595 104.423 157.595 103.419C157.595 102.414 157.731 101.53 158.002 100.765C158.277 99.9966 158.671 99.2988 159.182 98.6721C159.697 98.0454 160.315 97.4366 161.035 96.8454L161.728 97.5388C161.093 98.121 160.568 98.6899 160.155 99.2454C159.742 99.801 159.433 100.412 159.228 101.079C159.028 101.741 158.928 102.521 158.928 103.419ZM171.086 98.8988V105.092C171.086 105.714 170.96 106.263 170.706 106.739C170.457 107.214 170.1 107.585 169.633 107.852C169.171 108.119 168.617 108.252 167.973 108.252C167.324 108.252 166.769 108.119 166.306 107.852C165.844 107.585 165.491 107.214 165.246 106.739C165.006 106.263 164.886 105.714 164.886 105.092V98.8988H166.206V104.992C166.206 106.432 166.795 107.152 167.973 107.152C169.16 107.152 169.753 106.432 169.753 104.992V98.8988H171.086ZM179.204 105.519C179.204 106.052 179.069 106.525 178.798 106.939C178.531 107.348 178.142 107.67 177.631 107.905C177.124 108.137 176.509 108.252 175.784 108.252C175.082 108.252 174.455 108.145 173.904 107.932C173.353 107.719 172.884 107.425 172.498 107.052L173.251 106.205C173.571 106.503 173.938 106.739 174.351 106.912C174.764 107.085 175.247 107.172 175.798 107.172C176.158 107.172 176.491 107.114 176.798 106.999C177.109 106.879 177.358 106.701 177.544 106.465C177.735 106.225 177.831 105.925 177.831 105.565C177.831 105.281 177.773 105.039 177.658 104.839C177.547 104.634 177.349 104.454 177.064 104.299C176.78 104.143 176.382 103.99 175.871 103.839C175.249 103.657 174.715 103.45 174.271 103.219C173.831 102.983 173.493 102.701 173.258 102.372C173.027 102.039 172.911 101.63 172.911 101.145C172.911 100.67 173.042 100.252 173.304 99.8921C173.567 99.5277 173.927 99.2432 174.384 99.0388C174.842 98.8343 175.369 98.7321 175.964 98.7321C176.609 98.7321 177.171 98.8254 177.651 99.0121C178.135 99.1988 178.571 99.4632 178.958 99.8054L178.224 100.632C177.895 100.343 177.542 100.134 177.164 100.005C176.791 99.8721 176.411 99.8054 176.024 99.8054C175.535 99.8054 175.12 99.9121 174.778 100.125C174.435 100.334 174.264 100.654 174.264 101.085C174.264 101.343 174.333 101.563 174.471 101.745C174.609 101.923 174.84 102.088 175.164 102.239C175.493 102.39 175.942 102.55 176.511 102.719C177.004 102.865 177.453 103.045 177.858 103.259C178.267 103.468 178.593 103.752 178.838 104.112C179.082 104.468 179.204 104.937 179.204 105.519ZM182.909 99.9388V102.892H186.282V103.939H182.909V107.052H187.036V108.085H181.582V98.8988H186.936L186.782 99.9388H182.909ZM195.2 101.505C195.2 102.194 194.989 102.75 194.567 103.172C194.149 103.59 193.634 103.879 193.02 104.039L195.694 108.085H194.127L191.707 104.212H190.567V108.085H189.24V98.8988H191.687C192.838 98.8988 193.712 99.1188 194.307 99.5588C194.903 99.9943 195.2 100.643 195.2 101.505ZM193.794 101.505C193.794 100.941 193.629 100.534 193.3 100.285C192.976 100.037 192.476 99.9121 191.8 99.9121H190.567V103.205H191.814C192.445 103.205 192.932 103.077 193.274 102.819C193.62 102.557 193.794 102.119 193.794 101.505ZM203.199 105.519C203.199 106.052 203.063 106.525 202.792 106.939C202.525 107.348 202.136 107.67 201.625 107.905C201.119 108.137 200.503 108.252 199.779 108.252C199.076 108.252 198.45 108.145 197.899 107.932C197.347 107.719 196.879 107.425 196.492 107.052L197.245 106.205C197.565 106.503 197.932 106.739 198.345 106.912C198.759 107.085 199.241 107.172 199.792 107.172C200.152 107.172 200.485 107.114 200.792 106.999C201.103 106.879 201.352 106.701 201.539 106.465C201.73 106.225 201.825 105.925 201.825 105.565C201.825 105.281 201.767 105.039 201.652 104.839C201.541 104.634 201.343 104.454 201.059 104.299C200.774 104.143 200.376 103.99 199.865 103.839C199.243 103.657 198.71 103.45 198.265 103.219C197.825 102.983 197.487 102.701 197.252 102.372C197.021 102.039 196.905 101.63 196.905 101.145C196.905 100.67 197.036 100.252 197.299 99.8921C197.561 99.5277 197.921 99.2432 198.379 99.0388C198.836 98.8343 199.363 98.7321 199.959 98.7321C200.603 98.7321 201.165 98.8254 201.645 99.0121C202.13 99.1988 202.565 99.4632 202.952 99.8054L202.219 100.632C201.89 100.343 201.536 100.134 201.159 100.005C200.785 99.8721 200.405 99.8054 200.019 99.8054C199.53 99.8054 199.114 99.9121 198.772 100.125C198.43 100.334 198.259 100.654 198.259 101.085C198.259 101.343 198.327 101.563 198.465 101.745C198.603 101.923 198.834 102.088 199.159 102.239C199.487 102.39 199.936 102.55 200.505 102.719C200.999 102.865 201.447 103.045 201.852 103.259C202.261 103.468 202.587 103.752 202.832 104.112C203.076 104.468 203.199 104.937 203.199 105.519ZM209.037 103.419C209.037 102.521 208.934 101.741 208.73 101.079C208.53 100.412 208.223 99.801 207.81 99.2454C207.397 98.6899 206.872 98.121 206.237 97.5388L206.93 96.8454C207.65 97.4366 208.265 98.0454 208.777 98.6721C209.292 99.2988 209.685 99.9966 209.957 100.765C210.232 101.53 210.37 102.414 210.37 103.419C210.37 104.423 210.232 105.31 209.957 106.079C209.685 106.843 209.292 107.539 208.777 108.165C208.265 108.792 207.65 109.401 206.93 109.992L206.237 109.299C206.872 108.712 207.397 108.141 207.81 107.585C208.228 107.025 208.537 106.414 208.737 105.752C208.937 105.09 209.037 104.312 209.037 103.419Z" fill="#00FAB3"/>
<rect x="322.75" y="82.75" width="174.5" height="40.5" rx="5.25" fill="#15252D"/>
<rect x="322.75" y="82.75" width="174.5" height="40.5" rx="5.25" stroke="#FFEEE6" stroke-width="1.5"/>
<path d="M345.1 98.8533V101.947H348.64V102.98H345.1V107H343.78V97.8133H349.293L349.14 98.8533H345.1ZM352.925 98.8533V101.807H356.298V102.853H352.925V105.967H357.051V107H351.598V97.8133H356.951L356.798 98.8533H352.925ZM362.636 98.9133V107H361.316V98.9133H358.489V97.8133H365.509L365.369 98.9133H362.636ZM370.767 97.6467C371.376 97.6467 371.887 97.7244 372.301 97.88C372.719 98.0356 373.11 98.2622 373.474 98.56L372.761 99.4C372.476 99.1644 372.174 98.9933 371.854 98.8867C371.534 98.7756 371.199 98.72 370.847 98.72C370.363 98.72 369.916 98.8378 369.507 99.0733C369.099 99.3089 368.77 99.6956 368.521 100.233C368.272 100.771 368.147 101.493 368.147 102.4C368.147 103.284 368.265 103.996 368.501 104.533C368.741 105.067 369.063 105.456 369.467 105.7C369.876 105.94 370.332 106.06 370.834 106.06C371.336 106.06 371.752 105.982 372.081 105.827C372.414 105.667 372.703 105.484 372.947 105.28L373.607 106.127C373.319 106.411 372.943 106.656 372.481 106.86C372.023 107.064 371.463 107.167 370.801 107.167C370.041 107.167 369.356 106.984 368.747 106.62C368.143 106.256 367.663 105.72 367.307 105.013C366.952 104.302 366.774 103.431 366.774 102.4C366.774 101.369 366.954 100.5 367.314 99.7933C367.679 99.0867 368.163 98.5533 368.767 98.1933C369.376 97.8289 370.043 97.6467 370.767 97.6467ZM379.626 107V102.72H376.359V107H375.039V97.8133H376.359V101.633H379.626V97.8133H380.946V107H379.626Z" fill="#FFEEE6"/>
<path d="M392.928 102.333C392.928 103.227 393.028 104.004 393.228 104.667C393.428 105.329 393.735 105.94 394.148 106.5C394.566 107.056 395.093 107.627 395.728 108.213L395.035 108.907C394.315 108.316 393.697 107.707 393.182 107.08C392.671 106.453 392.277 105.758 392.002 104.993C391.731 104.224 391.595 103.338 391.595 102.333C391.595 101.329 391.731 100.444 392.002 99.68C392.277 98.9111 392.671 98.2133 393.182 97.5867C393.697 96.96 394.315 96.3511 395.035 95.76L395.728 96.4533C395.093 97.0356 394.568 97.6044 394.155 98.16C393.742 98.7156 393.433 99.3267 393.228 99.9933C393.028 100.656 392.928 101.436 392.928 102.333ZM404.673 97.8133V98.8467H402.653V105.96H404.673V107H399.3V105.96H401.32V98.8467H399.3V97.8133H404.673ZM411.151 107L408.051 99.0333C408.06 99.1889 408.078 99.4556 408.104 99.8333C408.135 100.207 408.164 100.638 408.191 101.127C408.218 101.611 408.231 102.096 408.231 102.58V107H407.031V97.8133H408.784L411.918 105.8C411.909 105.649 411.889 105.398 411.858 105.047C411.827 104.691 411.798 104.271 411.771 103.787C411.749 103.302 411.738 102.784 411.738 102.233V97.8133H412.938V107H411.151ZM418.009 105.62L420.369 97.8133H421.709L418.702 107H417.262L414.256 97.8133H415.676L418.009 105.62ZM424.907 98.8533V101.807H428.28V102.853H424.907V105.967H429.034V107H423.58V97.8133H428.934L428.78 98.8533H424.907ZM435.145 107L432.045 99.0333C432.054 99.1889 432.072 99.4556 432.099 99.8333C432.13 100.207 432.159 100.638 432.185 101.127C432.212 101.611 432.225 102.096 432.225 102.58V107H431.025V97.8133H432.779L435.912 105.8C435.903 105.649 435.883 105.398 435.852 105.047C435.821 104.691 435.792 104.271 435.765 103.787C435.743 103.302 435.732 102.784 435.732 102.233V97.8133H436.932V107H435.145ZM442.617 98.9133V107H441.297V98.9133H438.47V97.8133H445.49L445.35 98.9133H442.617ZM453.408 102.413C453.408 103.347 453.279 104.171 453.021 104.887C452.763 105.602 452.379 106.162 451.868 106.567C451.361 106.967 450.73 107.167 449.975 107.167C449.219 107.167 448.586 106.971 448.075 106.58C447.568 106.184 447.186 105.631 446.928 104.92C446.67 104.209 446.541 103.378 446.541 102.427C446.541 101.489 446.67 100.662 446.928 99.9467C447.186 99.2267 447.568 98.6644 448.075 98.26C448.586 97.8511 449.219 97.6467 449.975 97.6467C450.73 97.6467 451.361 97.8444 451.868 98.24C452.379 98.6356 452.763 99.1911 453.021 99.9067C453.279 100.622 453.408 101.458 453.408 102.413ZM452.028 102.413C452.028 101.204 451.868 100.287 451.548 99.66C451.232 99.0333 450.708 98.72 449.975 98.72C449.241 98.72 448.715 99.0356 448.395 99.6667C448.079 100.298 447.921 101.218 447.921 102.427C447.921 103.631 448.083 104.544 448.408 105.167C448.737 105.784 449.259 106.093 449.975 106.093C450.708 106.093 451.232 105.782 451.548 105.16C451.868 104.533 452.028 103.618 452.028 102.413ZM461.193 100.42C461.193 101.109 460.982 101.664 460.559 102.087C460.142 102.504 459.626 102.793 459.013 102.953L461.686 107H460.119L457.699 103.127H456.559V107H455.233V97.8133H457.679C458.83 97.8133 459.704 98.0333 460.299 98.4733C460.895 98.9089 461.193 99.5578 461.193 100.42ZM459.786 100.42C459.786 99.8556 459.622 99.4489 459.293 99.2C458.968 98.9511 458.468 98.8267 457.793 98.8267H456.559V102.12H457.806C458.437 102.12 458.924 101.991 459.266 101.733C459.613 101.471 459.786 101.033 459.786 100.42ZM466.637 103.473V107H465.304V103.487L462.217 97.8133H463.677L465.997 102.307L468.344 97.8133H469.724L466.637 103.473ZM475.029 102.333C475.029 101.436 474.927 100.656 474.722 99.9933C474.522 99.3267 474.215 98.7156 473.802 98.16C473.389 97.6044 472.864 97.0356 472.229 96.4533L472.922 95.76C473.642 96.3511 474.258 96.96 474.769 97.5867C475.284 98.2133 475.678 98.9111 475.949 99.68C476.224 100.444 476.362 101.329 476.362 102.333C476.362 103.338 476.224 104.224 475.949 104.993C475.678 105.758 475.284 106.453 474.769 107.08C474.258 107.707 473.642 108.316 472.922 108.907L472.229 108.213C472.864 107.627 473.389 107.056 473.802 106.5C474.22 105.94 474.529 105.329 474.729 104.667C474.929 104.004 475.029 103.227 475.029 102.333Z" fill="#C363FF"/>
<path d="M164.352 82.5813L170.125 72.5813H158.578L164.352 82.5813ZM260.669 42.5813V54.0465H262.669V42.5813H260.669ZM252.669 62.0465H173.352V64.0465H252.669V62.0465ZM163.352 72.0465V73.5813H165.352V72.0465H163.352ZM173.352 62.0465C167.829 62.0465 163.352 66.5236 163.352 72.0465H165.352C165.352 67.6282 168.933 64.0465 173.352 64.0465V62.0465ZM260.669 54.0465C260.669 58.4647 257.087 62.0465 252.669 62.0465V64.0465C258.192 64.0465 262.669 59.5693 262.669 54.0465H260.669Z" fill="#FC5200"/>
<path d="M403.329 82.5813L397.556 72.5813H409.103L403.329 82.5813ZM293.352 42.5813V54.0465H291.352V42.5813H293.352ZM301.352 62.0465H394.329V64.0465H301.352V62.0465ZM404.329 72.0465V73.5813H402.329V72.0465H404.329ZM394.329 62.0465C399.852 62.0465 404.329 66.5236 404.329 72.0465H402.329C402.329 67.6282 398.747 64.0465 394.329 64.0465V62.0465ZM293.352 54.0465C293.352 58.4647 296.933 62.0465 301.352 62.0465V64.0465C295.829 64.0465 291.352 59.5693 291.352 54.0465H293.352Z" fill="#FC5200"/>
<rect x="76.75" y="166.054" width="166.5" height="40.5" rx="5.25" fill="#15252D"/>
<rect x="76.75" y="166.054" width="166.5" height="40.5" rx="5.25" stroke="#FFEEE6" stroke-width="1.5"/>
<path d="M99.1 182.158V185.251H102.64V186.284H99.1V190.304H97.78V181.118H103.293L103.14 182.158H99.1ZM106.925 182.158V185.111H110.298V186.158H106.925V189.271H111.051V190.304H105.598V181.118H110.951L110.798 182.158H106.925ZM116.636 182.218V190.304H115.316V182.218H112.489V181.118H119.509L119.369 182.218H116.636ZM124.767 180.951C125.376 180.951 125.887 181.029 126.301 181.184C126.719 181.34 127.11 181.566 127.474 181.864L126.761 182.704C126.476 182.469 126.174 182.298 125.854 182.191C125.534 182.08 125.199 182.024 124.847 182.024C124.363 182.024 123.916 182.142 123.507 182.378C123.099 182.613 122.77 183 122.521 183.538C122.272 184.075 122.147 184.798 122.147 185.704C122.147 186.589 122.265 187.3 122.501 187.838C122.741 188.371 123.063 188.76 123.467 189.004C123.876 189.244 124.332 189.364 124.834 189.364C125.336 189.364 125.752 189.286 126.081 189.131C126.414 188.971 126.703 188.789 126.947 188.584L127.607 189.431C127.319 189.715 126.943 189.96 126.481 190.164C126.023 190.369 125.463 190.471 124.801 190.471C124.041 190.471 123.356 190.289 122.747 189.924C122.143 189.56 121.663 189.024 121.307 188.318C120.952 187.606 120.774 186.735 120.774 185.704C120.774 184.673 120.954 183.804 121.314 183.098C121.679 182.391 122.163 181.858 122.767 181.498C123.376 181.133 124.043 180.951 124.767 180.951ZM133.626 190.304V186.024H130.359V190.304H129.039V181.118H130.359V184.938H133.626V181.118H134.946V190.304H133.626Z" fill="#FFEEE6"/>
<path d="M146.928 185.638C146.928 186.531 147.028 187.309 147.228 187.971C147.428 188.633 147.735 189.244 148.148 189.804C148.566 190.36 149.093 190.931 149.728 191.518L149.035 192.211C148.315 191.62 147.697 191.011 147.182 190.384C146.671 189.758 146.277 189.062 146.002 188.298C145.731 187.529 145.595 186.642 145.595 185.638C145.595 184.633 145.731 183.749 146.002 182.984C146.277 182.215 146.671 181.518 147.182 180.891C147.697 180.264 148.315 179.655 149.035 179.064L149.728 179.758C149.093 180.34 148.568 180.909 148.155 181.464C147.742 182.02 147.433 182.631 147.228 183.298C147.028 183.96 146.928 184.74 146.928 185.638ZM159.453 183.964C159.453 184.68 159.3 185.258 158.993 185.698C158.691 186.133 158.271 186.451 157.733 186.651C157.195 186.851 156.58 186.951 155.886 186.951H154.74V190.304H153.413V181.118H155.846C156.966 181.118 157.846 181.351 158.486 181.818C159.131 182.28 159.453 182.995 159.453 183.964ZM158.053 183.978C158.053 183.302 157.857 182.826 157.466 182.551C157.08 182.275 156.582 182.138 155.973 182.138H154.74V185.911H155.953C156.362 185.911 156.724 185.853 157.04 185.738C157.355 185.622 157.602 185.424 157.78 185.144C157.962 184.864 158.053 184.475 158.053 183.978ZM167.204 183.724C167.204 184.413 166.993 184.969 166.571 185.391C166.153 185.809 165.638 186.098 165.024 186.258L167.698 190.304H166.131L163.711 186.431H162.571V190.304H161.244V181.118H163.691C164.842 181.118 165.715 181.338 166.311 181.778C166.907 182.213 167.204 182.862 167.204 183.724ZM165.798 183.724C165.798 183.16 165.633 182.753 165.304 182.504C164.98 182.255 164.48 182.131 163.804 182.131H162.571V185.424H163.818C164.449 185.424 164.935 185.295 165.278 185.038C165.624 184.775 165.798 184.338 165.798 183.724ZM175.416 185.718C175.416 186.651 175.287 187.475 175.029 188.191C174.771 188.906 174.387 189.466 173.876 189.871C173.369 190.271 172.738 190.471 171.982 190.471C171.227 190.471 170.594 190.275 170.082 189.884C169.576 189.489 169.194 188.935 168.936 188.224C168.678 187.513 168.549 186.682 168.549 185.731C168.549 184.793 168.678 183.966 168.936 183.251C169.194 182.531 169.576 181.969 170.082 181.564C170.594 181.155 171.227 180.951 171.982 180.951C172.738 180.951 173.369 181.149 173.876 181.544C174.387 181.94 174.771 182.495 175.029 183.211C175.287 183.926 175.416 184.762 175.416 185.718ZM174.036 185.718C174.036 184.509 173.876 183.591 173.556 182.964C173.24 182.338 172.716 182.024 171.982 182.024C171.249 182.024 170.722 182.34 170.402 182.971C170.087 183.602 169.929 184.522 169.929 185.731C169.929 186.935 170.091 187.849 170.416 188.471C170.745 189.089 171.267 189.398 171.982 189.398C172.716 189.398 173.24 189.086 173.556 188.464C173.876 187.838 174.036 186.922 174.036 185.718ZM183.394 185.664C183.394 186.62 183.269 187.402 183.02 188.011C182.772 188.62 182.44 189.091 182.027 189.424C181.618 189.753 181.167 189.982 180.674 190.111C180.18 190.24 179.687 190.304 179.194 190.304H177.027V181.118H179.047C179.594 181.118 180.125 181.178 180.64 181.298C181.156 181.418 181.62 181.64 182.034 181.964C182.452 182.284 182.783 182.742 183.027 183.338C183.272 183.933 183.394 184.709 183.394 185.664ZM181.994 185.664C181.994 184.895 181.914 184.278 181.754 183.811C181.598 183.344 181.389 182.993 181.127 182.758C180.865 182.522 180.576 182.364 180.26 182.284C179.949 182.204 179.638 182.164 179.327 182.164H178.347V189.271H179.34C179.665 189.271 179.985 189.22 180.3 189.118C180.616 189.015 180.9 188.833 181.154 188.571C181.412 188.309 181.616 187.942 181.767 187.471C181.918 187 181.994 186.398 181.994 185.664ZM191.079 181.118V187.311C191.079 187.933 190.952 188.482 190.699 188.958C190.45 189.433 190.092 189.804 189.625 190.071C189.163 190.338 188.61 190.471 187.965 190.471C187.316 190.471 186.761 190.338 186.299 190.071C185.836 189.804 185.483 189.433 185.239 188.958C184.999 188.482 184.879 187.933 184.879 187.311V181.118H186.199V187.211C186.199 188.651 186.787 189.371 187.965 189.371C189.152 189.371 189.745 188.651 189.745 187.211V181.118H191.079ZM196.75 180.951C197.359 180.951 197.87 181.029 198.283 181.184C198.701 181.34 199.092 181.566 199.457 181.864L198.743 182.704C198.459 182.469 198.157 182.298 197.837 182.191C197.517 182.08 197.181 182.024 196.83 182.024C196.345 182.024 195.899 182.142 195.49 182.378C195.081 182.613 194.752 183 194.503 183.538C194.254 184.075 194.13 184.798 194.13 185.704C194.13 186.589 194.248 187.3 194.483 187.838C194.723 188.371 195.045 188.76 195.45 189.004C195.859 189.244 196.314 189.364 196.817 189.364C197.319 189.364 197.734 189.286 198.063 189.131C198.397 188.971 198.685 188.789 198.93 188.584L199.59 189.431C199.301 189.715 198.925 189.96 198.463 190.164C198.005 190.369 197.445 190.471 196.783 190.471C196.023 190.471 195.339 190.289 194.73 189.924C194.125 189.56 193.645 189.024 193.29 188.318C192.934 187.606 192.757 186.735 192.757 185.704C192.757 184.673 192.937 183.804 193.297 183.098C193.661 182.391 194.145 181.858 194.75 181.498C195.359 181.133 196.025 180.951 196.75 180.951ZM204.615 182.218V190.304H203.295V182.218H200.468V181.118H207.488L207.348 182.218H204.615ZM215.193 187.738C215.193 188.271 215.057 188.744 214.786 189.158C214.519 189.566 214.13 189.889 213.619 190.124C213.113 190.355 212.497 190.471 211.773 190.471C211.07 190.471 210.444 190.364 209.893 190.151C209.342 189.938 208.873 189.644 208.486 189.271L209.239 188.424C209.559 188.722 209.926 188.958 210.339 189.131C210.753 189.304 211.235 189.391 211.786 189.391C212.146 189.391 212.479 189.333 212.786 189.218C213.097 189.098 213.346 188.92 213.533 188.684C213.724 188.444 213.819 188.144 213.819 187.784C213.819 187.5 213.762 187.258 213.646 187.058C213.535 186.853 213.337 186.673 213.053 186.518C212.768 186.362 212.37 186.209 211.859 186.058C211.237 185.875 210.704 185.669 210.259 185.438C209.819 185.202 209.482 184.92 209.246 184.591C209.015 184.258 208.899 183.849 208.899 183.364C208.899 182.889 209.03 182.471 209.293 182.111C209.555 181.746 209.915 181.462 210.373 181.258C210.83 181.053 211.357 180.951 211.953 180.951C212.597 180.951 213.159 181.044 213.639 181.231C214.124 181.418 214.559 181.682 214.946 182.024L214.213 182.851C213.884 182.562 213.53 182.353 213.153 182.224C212.779 182.091 212.399 182.024 212.013 182.024C211.524 182.024 211.108 182.131 210.766 182.344C210.424 182.553 210.253 182.873 210.253 183.304C210.253 183.562 210.322 183.782 210.459 183.964C210.597 184.142 210.828 184.306 211.153 184.458C211.482 184.609 211.93 184.769 212.499 184.938C212.993 185.084 213.442 185.264 213.846 185.478C214.255 185.686 214.582 185.971 214.826 186.331C215.07 186.686 215.193 187.155 215.193 187.738ZM221.031 185.638C221.031 184.74 220.928 183.96 220.724 183.298C220.524 182.631 220.217 182.02 219.804 181.464C219.391 180.909 218.866 180.34 218.231 179.758L218.924 179.064C219.644 179.655 220.26 180.264 220.771 180.891C221.286 181.518 221.68 182.215 221.951 182.984C222.226 183.749 222.364 184.633 222.364 185.638C222.364 186.642 222.226 187.529 221.951 188.298C221.68 189.062 221.286 189.758 220.771 190.384C220.26 191.011 219.644 191.62 218.924 192.211L218.231 191.518C218.866 190.931 219.391 190.36 219.804 189.804C220.222 189.244 220.531 188.633 220.731 187.971C220.931 187.309 221.031 186.531 221.031 185.638Z" fill="#FAD000"/>
<rect x="0.75" y="248.273" width="318.5" height="40.5" rx="5.25" fill="#15252D"/>
<rect x="0.75" y="248.273" width="318.5" height="40.5" rx="5.25" stroke="#FFEEE6" stroke-width="1.5"/>
<path d="M23.1 264.376V267.47H26.64V268.503H23.1V272.523H21.78V263.336H27.2933L27.14 264.376H23.1ZM29.7114 272.523V263.336H31.038V271.376H35.198L35.0514 272.523H29.7114ZM41.7028 270.236H38.2228L37.5294 272.523H36.2028L39.1628 263.336H40.8294L43.7961 272.523H42.3961L41.7028 270.236ZM38.5294 269.176H41.3961L39.9694 264.403L38.5294 269.176ZM48.6341 264.436V272.523H47.3141V264.436H44.4875V263.336H51.5075L51.3675 264.436H48.6341ZM56.6322 264.436V272.523H55.3122V264.436H52.4855V263.336H59.5055L59.3655 264.436H56.6322ZM62.9169 264.376V267.33H66.2902V268.376H62.9169V271.49H67.0436V272.523H61.5902V263.336H66.9436L66.7902 264.376H62.9169ZM73.1549 272.523L70.0549 264.556C70.0638 264.712 70.0816 264.979 70.1083 265.356C70.1394 265.73 70.1683 266.161 70.1949 266.65C70.2216 267.134 70.2349 267.619 70.2349 268.103V272.523H69.0349V263.336H70.7883L73.9216 271.323C73.9127 271.172 73.8927 270.921 73.8616 270.57C73.8305 270.214 73.8016 269.794 73.7749 269.31C73.7527 268.825 73.7416 268.307 73.7416 267.756V263.336H74.9416V272.523H73.1549ZM86.9244 267.856C86.9244 268.75 87.0244 269.527 87.2244 270.19C87.4244 270.852 87.731 271.463 88.1444 272.023C88.5622 272.579 89.0888 273.15 89.7244 273.736L89.031 274.43C88.311 273.839 87.6933 273.23 87.1777 272.603C86.6666 271.976 86.2733 271.281 85.9977 270.516C85.7266 269.747 85.591 268.861 85.591 267.856C85.591 266.852 85.7266 265.967 85.9977 265.203C86.2733 264.434 86.6666 263.736 87.1777 263.11C87.6933 262.483 88.311 261.874 89.031 261.283L89.7244 261.976C89.0888 262.559 88.5644 263.127 88.151 263.683C87.7377 264.239 87.4288 264.85 87.2244 265.516C87.0244 266.179 86.9244 266.959 86.9244 267.856ZM96.5224 265.33C97.1446 265.33 97.6424 265.483 98.0158 265.79C98.3891 266.092 98.658 266.519 98.8224 267.07C98.9869 267.616 99.0691 268.261 99.0691 269.003C99.0691 269.714 98.9691 270.347 98.7691 270.903C98.5691 271.459 98.2691 271.896 97.8691 272.216C97.4691 272.532 96.9669 272.69 96.3624 272.69C95.6069 272.69 94.998 272.423 94.5358 271.89V275.216L93.2558 275.37V265.496H94.3558L94.4491 266.443C94.9913 265.701 95.6824 265.33 96.5224 265.33ZM96.1958 266.336C95.8313 266.336 95.5091 266.447 95.2291 266.67C94.9491 266.887 94.718 267.136 94.5358 267.416V270.816C94.7135 271.079 94.9313 271.285 95.1891 271.436C95.4469 271.583 95.7335 271.656 96.0491 271.656C96.6002 271.656 97.0158 271.443 97.2958 271.016C97.5758 270.585 97.7158 269.914 97.7158 269.003C97.7158 268.092 97.5913 267.421 97.3424 266.99C97.0935 266.554 96.7113 266.336 96.1958 266.336ZM101.32 272.523V271.576H102.387V266.443H101.32V265.496H103.367L103.6 267.143C103.867 266.561 104.194 266.114 104.58 265.803C104.972 265.487 105.478 265.33 106.1 265.33C106.305 265.33 106.485 265.345 106.64 265.376C106.8 265.407 106.963 265.447 107.127 265.496L106.927 267.963H105.94V266.496H105.934C104.88 266.496 104.125 267.25 103.667 268.756V271.576H105.094V272.523H101.32ZM111.992 265.33C112.996 265.33 113.759 265.663 114.279 266.33C114.803 266.996 115.065 267.887 115.065 269.003C115.065 269.727 114.945 270.367 114.705 270.923C114.47 271.479 114.123 271.912 113.665 272.223C113.207 272.534 112.645 272.69 111.979 272.69C110.974 272.69 110.207 272.356 109.679 271.69C109.154 271.023 108.892 270.132 108.892 269.016C108.892 268.287 109.01 267.647 109.245 267.096C109.485 266.541 109.834 266.107 110.292 265.796C110.754 265.485 111.321 265.33 111.992 265.33ZM111.992 266.35C111.414 266.35 110.979 266.567 110.685 267.003C110.392 267.434 110.245 268.105 110.245 269.016C110.245 269.919 110.39 270.587 110.679 271.023C110.967 271.454 111.401 271.67 111.979 271.67C112.556 271.67 112.99 271.454 113.279 271.023C113.567 270.587 113.712 269.914 113.712 269.003C113.712 268.096 113.567 267.427 113.279 266.996C112.99 266.565 112.561 266.35 111.992 266.35ZM121.977 265.33C122.217 265.33 122.441 265.383 122.65 265.49C122.863 265.596 123.034 265.792 123.163 266.076C123.292 266.356 123.357 266.763 123.357 267.296V272.523H122.19V267.483C122.19 267.074 122.163 266.781 122.11 266.603C122.061 266.421 121.919 266.33 121.683 266.33C121.488 266.33 121.292 266.39 121.097 266.51C120.905 266.63 120.719 266.83 120.537 267.11V272.523H119.417V267.483C119.417 267.074 119.39 266.781 119.337 266.603C119.288 266.421 119.145 266.33 118.91 266.33C118.71 266.33 118.514 266.39 118.323 266.51C118.132 266.63 117.945 266.83 117.763 267.11V272.523H116.597V265.496H117.583L117.663 266.283C117.859 266.012 118.074 265.785 118.31 265.603C118.55 265.421 118.841 265.33 119.183 265.33C119.45 265.33 119.697 265.394 119.923 265.523C120.154 265.652 120.323 265.892 120.43 266.243C120.621 265.972 120.839 265.752 121.083 265.583C121.328 265.414 121.625 265.33 121.977 265.33ZM127.988 265.33C128.992 265.33 129.755 265.663 130.275 266.33C130.799 266.996 131.061 267.887 131.061 269.003C131.061 269.727 130.941 270.367 130.701 270.923C130.466 271.479 130.119 271.912 129.661 272.223C129.203 272.534 128.641 272.69 127.975 272.69C126.97 272.69 126.203 272.356 125.675 271.69C125.15 271.023 124.888 270.132 124.888 269.016C124.888 268.287 125.006 267.647 125.241 267.096C125.481 266.541 125.83 266.107 126.288 265.796C126.75 265.485 127.317 265.33 127.988 265.33ZM127.988 266.35C127.41 266.35 126.975 266.567 126.681 267.003C126.388 267.434 126.241 268.105 126.241 269.016C126.241 269.919 126.386 270.587 126.675 271.023C126.963 271.454 127.397 271.67 127.975 271.67C128.552 271.67 128.986 271.454 129.275 271.023C129.563 270.587 129.708 269.914 129.708 269.003C129.708 268.096 129.563 267.427 129.275 266.996C128.986 266.565 128.557 266.35 127.988 266.35ZM138.953 272.163C138.704 272.323 138.404 272.45 138.053 272.543C137.706 272.641 137.355 272.69 136.999 272.69C136.217 272.69 135.617 272.485 135.199 272.076C134.786 271.667 134.579 271.136 134.579 270.483V266.456H132.986V265.496H134.579V263.91L135.859 263.756V265.496H138.259L138.113 266.456H135.859V270.47C135.859 270.856 135.957 271.147 136.153 271.343C136.353 271.539 136.684 271.636 137.146 271.636C137.404 271.636 137.642 271.607 137.859 271.55C138.082 271.487 138.286 271.405 138.473 271.303L138.953 272.163ZM142.277 269.443C142.313 270.216 142.522 270.779 142.904 271.13C143.291 271.481 143.748 271.656 144.277 271.656C144.628 271.656 144.951 271.603 145.244 271.496C145.537 271.39 145.835 271.234 146.137 271.03L146.717 271.836C146.388 272.099 146.008 272.307 145.577 272.463C145.146 272.614 144.7 272.69 144.237 272.69C143.535 272.69 142.937 272.536 142.444 272.23C141.955 271.919 141.582 271.487 141.324 270.936C141.071 270.385 140.944 269.745 140.944 269.016C140.944 268.31 141.071 267.679 141.324 267.123C141.582 266.567 141.944 266.13 142.411 265.81C142.877 265.49 143.433 265.33 144.077 265.33C144.984 265.33 145.697 265.641 146.217 266.263C146.742 266.881 147.004 267.727 147.004 268.803C147.004 268.923 147.002 269.039 146.997 269.15C146.993 269.261 146.986 269.359 146.977 269.443H142.277ZM144.091 266.33C143.588 266.33 143.173 266.507 142.844 266.863C142.515 267.219 142.326 267.767 142.277 268.51H145.771C145.757 267.799 145.602 267.259 145.304 266.89C145.011 266.516 144.606 266.33 144.091 266.33ZM153.415 262.516L154.695 262.67V272.523H153.569L153.462 271.623C152.964 272.334 152.302 272.69 151.475 272.69C150.871 272.69 150.371 272.536 149.975 272.23C149.584 271.919 149.293 271.487 149.102 270.936C148.911 270.385 148.815 269.745 148.815 269.016C148.815 268.305 148.924 267.674 149.142 267.123C149.364 266.567 149.68 266.13 150.089 265.81C150.502 265.49 151 265.33 151.582 265.33C152.338 265.33 152.949 265.596 153.415 266.13V262.516ZM151.915 266.336C151.364 266.336 150.938 266.556 150.635 266.996C150.338 267.436 150.189 268.11 150.189 269.016C150.189 269.919 150.324 270.587 150.595 271.023C150.871 271.459 151.267 271.676 151.782 271.676C152.151 271.676 152.469 271.572 152.735 271.363C153.007 271.15 153.233 270.901 153.415 270.616V267.183C153.233 266.916 153.013 266.71 152.755 266.563C152.502 266.412 152.222 266.336 151.915 266.336ZM163.433 266.183C163.433 266.899 163.28 267.476 162.973 267.916C162.671 268.352 162.251 268.67 161.713 268.87C161.176 269.07 160.56 269.17 159.867 269.17H158.72V272.523H157.393V263.336H159.827C160.947 263.336 161.827 263.57 162.467 264.036C163.111 264.499 163.433 265.214 163.433 266.183ZM162.033 266.196C162.033 265.521 161.838 265.045 161.447 264.77C161.06 264.494 160.562 264.356 159.953 264.356H158.72V268.13H159.933C160.342 268.13 160.705 268.072 161.02 267.956C161.336 267.841 161.582 267.643 161.76 267.363C161.942 267.083 162.033 266.694 162.033 266.196ZM165.305 272.523V271.576H166.372V266.443H165.305V265.496H167.352L167.585 267.143C167.852 266.561 168.178 266.114 168.565 265.803C168.956 265.487 169.463 265.33 170.085 265.33C170.289 265.33 170.469 265.345 170.625 265.376C170.785 265.407 170.947 265.447 171.112 265.496L170.912 267.963H169.925V266.496H169.918C168.865 266.496 168.109 267.25 167.652 268.756V271.576H169.078V272.523H165.305ZM175.976 265.33C176.981 265.33 177.743 265.663 178.263 266.33C178.787 266.996 179.05 267.887 179.05 269.003C179.05 269.727 178.93 270.367 178.69 270.923C178.454 271.479 178.107 271.912 177.65 272.223C177.192 272.534 176.63 272.69 175.963 272.69C174.958 272.69 174.192 272.356 173.663 271.69C173.138 271.023 172.876 270.132 172.876 269.016C172.876 268.287 172.994 267.647 173.23 267.096C173.47 266.541 173.818 266.107 174.276 265.796C174.738 265.485 175.305 265.33 175.976 265.33ZM175.976 266.35C175.398 266.35 174.963 266.567 174.67 267.003C174.376 267.434 174.23 268.105 174.23 269.016C174.23 269.919 174.374 270.587 174.663 271.023C174.952 271.454 175.385 271.67 175.963 271.67C176.541 271.67 176.974 271.454 177.263 271.023C177.552 270.587 177.696 269.914 177.696 269.003C177.696 268.096 177.552 267.427 177.263 266.996C176.974 266.565 176.545 266.35 175.976 266.35ZM185.408 262.516L186.688 262.67V272.523H185.561L185.454 271.623C184.956 272.334 184.294 272.69 183.468 272.69C182.863 272.69 182.363 272.536 181.968 272.23C181.576 271.919 181.285 271.487 181.094 270.936C180.903 270.385 180.808 269.745 180.808 269.016C180.808 268.305 180.916 267.674 181.134 267.123C181.356 266.567 181.672 266.13 182.081 265.81C182.494 265.49 182.992 265.33 183.574 265.33C184.33 265.33 184.941 265.596 185.408 266.13V262.516ZM183.908 266.336C183.356 266.336 182.93 266.556 182.628 266.996C182.33 267.436 182.181 268.11 182.181 269.016C182.181 269.919 182.316 270.587 182.588 271.023C182.863 271.459 183.259 271.676 183.774 271.676C184.143 271.676 184.461 271.572 184.728 271.363C184.999 271.15 185.225 270.901 185.408 270.616V267.183C185.225 266.916 185.005 266.71 184.748 266.563C184.494 266.412 184.214 266.336 183.908 266.336ZM190.512 265.496V270.443C190.512 270.887 190.601 271.207 190.779 271.403C190.961 271.594 191.241 271.69 191.619 271.69C191.975 271.69 192.315 271.585 192.639 271.376C192.968 271.167 193.223 270.919 193.406 270.63V265.496H194.686V272.523H193.586L193.492 271.596C193.221 271.952 192.883 272.223 192.479 272.41C192.079 272.596 191.672 272.69 191.259 272.69C190.579 272.69 190.07 272.505 189.732 272.136C189.399 271.767 189.232 271.256 189.232 270.603V265.496H190.512ZM200.497 271.61C200.839 271.61 201.157 271.554 201.45 271.443C201.748 271.327 202.026 271.179 202.284 270.996L202.897 271.83C202.586 272.087 202.213 272.296 201.777 272.456C201.346 272.612 200.913 272.69 200.477 272.69C199.77 272.69 199.166 272.539 198.664 272.236C198.166 271.934 197.786 271.51 197.524 270.963C197.261 270.416 197.13 269.776 197.13 269.043C197.13 268.332 197.261 267.699 197.524 267.143C197.79 266.583 198.175 266.141 198.677 265.816C199.179 265.492 199.786 265.33 200.497 265.33C201.413 265.33 202.208 265.605 202.884 266.156L202.277 266.99C201.686 266.581 201.095 266.376 200.504 266.376C199.917 266.376 199.437 266.594 199.064 267.03C198.69 267.465 198.504 268.136 198.504 269.043C198.504 269.954 198.69 270.61 199.064 271.01C199.441 271.41 199.919 271.61 200.497 271.61ZM210.935 272.163C210.686 272.323 210.386 272.45 210.035 272.543C209.688 272.641 209.337 272.69 208.982 272.69C208.2 272.69 207.6 272.485 207.182 272.076C206.768 271.667 206.562 271.136 206.562 270.483V266.456H204.968V265.496H206.562V263.91L207.842 263.756V265.496H210.242L210.095 266.456H207.842V270.47C207.842 270.856 207.94 271.147 208.135 271.343C208.335 271.539 208.666 271.636 209.128 271.636C209.386 271.636 209.624 271.607 209.842 271.55C210.064 271.487 210.268 271.405 210.455 271.303L210.935 272.163ZM215.686 271.67C216.198 271.67 216.6 271.576 216.893 271.39C217.191 271.203 217.34 270.95 217.34 270.63C217.34 270.425 217.3 270.252 217.22 270.11C217.144 269.963 216.984 269.83 216.74 269.71C216.5 269.585 216.135 269.461 215.646 269.336C215.166 269.216 214.749 269.076 214.393 268.916C214.042 268.756 213.769 268.547 213.573 268.29C213.382 268.032 213.286 267.699 213.286 267.29C213.286 266.694 213.535 266.219 214.033 265.863C214.531 265.507 215.191 265.33 216.013 265.33C216.591 265.33 217.093 265.407 217.52 265.563C217.946 265.714 218.311 265.901 218.613 266.123L218.066 266.956C217.795 266.779 217.498 266.632 217.173 266.516C216.853 266.396 216.475 266.336 216.04 266.336C215.52 266.336 215.149 266.416 214.926 266.576C214.709 266.732 214.6 266.939 214.6 267.196C214.6 267.392 214.653 267.554 214.76 267.683C214.871 267.807 215.06 267.923 215.326 268.03C215.593 268.132 215.962 268.247 216.433 268.376C216.891 268.501 217.291 268.647 217.633 268.816C217.975 268.985 218.24 269.207 218.426 269.483C218.618 269.754 218.713 270.112 218.713 270.556C218.713 271.059 218.569 271.467 218.28 271.783C217.991 272.094 217.615 272.323 217.153 272.47C216.695 272.616 216.206 272.69 215.686 272.69C215.046 272.69 214.495 272.596 214.033 272.41C213.575 272.223 213.191 271.994 212.88 271.723L213.586 270.91C213.858 271.136 214.171 271.321 214.526 271.463C214.886 271.601 215.273 271.67 215.686 271.67ZM223.951 270.243C224.276 270.243 224.547 270.354 224.765 270.576C224.982 270.794 225.091 271.059 225.091 271.37C225.091 271.547 225.067 271.727 225.018 271.91C224.973 272.087 224.893 272.299 224.778 272.543L223.718 274.97H222.645L223.291 272.303C222.98 272.085 222.825 271.772 222.825 271.363C222.825 271.052 222.931 270.787 223.145 270.57C223.362 270.352 223.631 270.243 223.951 270.243ZM230.343 274.076V261.636H233.809V262.696H231.549V273.03H233.809V274.076H230.343ZM241.554 261.636V274.076H238.087V273.03H240.347V262.696H238.087V261.636H241.554ZM247.945 270.243C248.27 270.243 248.541 270.354 248.759 270.576C248.976 270.794 249.085 271.059 249.085 271.37C249.085 271.547 249.061 271.727 249.012 271.91C248.968 272.087 248.888 272.299 248.772 272.543L247.712 274.97H246.639L247.285 272.303C246.974 272.085 246.819 271.772 246.819 271.363C246.819 271.052 246.925 270.787 247.139 270.57C247.356 270.352 247.625 270.243 247.945 270.243ZM254.497 265.496V270.443C254.497 270.887 254.586 271.207 254.763 271.403C254.946 271.594 255.226 271.69 255.603 271.69C255.959 271.69 256.299 271.585 256.623 271.376C256.952 271.167 257.208 270.919 257.39 270.63V265.496H258.67V272.523H257.57L257.477 271.596C257.206 271.952 256.868 272.223 256.463 272.41C256.063 272.596 255.657 272.69 255.243 272.69C254.563 272.69 254.054 272.505 253.717 272.136C253.383 271.767 253.217 271.256 253.217 270.603V265.496H254.497ZM263.675 271.67C264.186 271.67 264.588 271.576 264.881 271.39C265.179 271.203 265.328 270.95 265.328 270.63C265.328 270.425 265.288 270.252 265.208 270.11C265.133 269.963 264.973 269.83 264.728 269.71C264.488 269.585 264.124 269.461 263.635 269.336C263.155 269.216 262.737 269.076 262.381 268.916C262.03 268.756 261.757 268.547 261.561 268.29C261.37 268.032 261.275 267.699 261.275 267.29C261.275 266.694 261.524 266.219 262.021 265.863C262.519 265.507 263.179 265.33 264.001 265.33C264.579 265.33 265.081 265.407 265.508 265.563C265.935 265.714 266.299 265.901 266.601 266.123L266.055 266.956C265.784 266.779 265.486 266.632 265.161 266.516C264.841 266.396 264.464 266.336 264.028 266.336C263.508 266.336 263.137 266.416 262.915 266.576C262.697 266.732 262.588 266.939 262.588 267.196C262.588 267.392 262.641 267.554 262.748 267.683C262.859 267.807 263.048 267.923 263.315 268.03C263.581 268.132 263.95 268.247 264.421 268.376C264.879 268.501 265.279 268.647 265.621 268.816C265.964 268.985 266.228 269.207 266.415 269.483C266.606 269.754 266.701 270.112 266.701 270.556C266.701 271.059 266.557 271.467 266.268 271.783C265.979 272.094 265.604 272.323 265.141 272.47C264.684 272.616 264.195 272.69 263.675 272.69C263.035 272.69 262.484 272.596 262.021 272.41C261.564 272.223 261.179 271.994 260.868 271.723L261.575 270.91C261.846 271.136 262.159 271.321 262.515 271.463C262.875 271.601 263.261 271.67 263.675 271.67ZM270.246 269.443C270.282 270.216 270.491 270.779 270.873 271.13C271.259 271.481 271.717 271.656 272.246 271.656C272.597 271.656 272.919 271.603 273.213 271.496C273.506 271.39 273.804 271.234 274.106 271.03L274.686 271.836C274.357 272.099 273.977 272.307 273.546 272.463C273.115 272.614 272.668 272.69 272.206 272.69C271.504 272.69 270.906 272.536 270.413 272.23C269.924 271.919 269.551 271.487 269.293 270.936C269.039 270.385 268.913 269.745 268.913 269.016C268.913 268.31 269.039 267.679 269.293 267.123C269.551 266.567 269.913 266.13 270.379 265.81C270.846 265.49 271.402 265.33 272.046 265.33C272.953 265.33 273.666 265.641 274.186 266.263C274.711 266.881 274.973 267.727 274.973 268.803C274.973 268.923 274.971 269.039 274.966 269.15C274.962 269.261 274.955 269.359 274.946 269.443H270.246ZM272.059 266.33C271.557 266.33 271.142 266.507 270.813 266.863C270.484 267.219 270.295 267.767 270.246 268.51H273.739C273.726 267.799 273.571 267.259 273.273 266.89C272.979 266.516 272.575 266.33 272.059 266.33ZM277.277 272.523V271.576H278.344V266.443H277.277V265.496H279.324L279.557 267.143C279.824 266.561 280.151 266.114 280.537 265.803C280.929 265.487 281.435 265.33 282.057 265.33C282.262 265.33 282.442 265.345 282.597 265.376C282.757 265.407 282.92 265.447 283.084 265.496L282.884 267.963H281.897V266.496H281.891C280.837 266.496 280.082 267.25 279.624 268.756V271.576H281.051V272.523H277.277ZM290.909 271.496V272.523H285.496V271.496H287.749V264.683L285.676 265.95L285.122 265.043L287.896 263.336H289.022V271.496H290.909ZM296.994 267.856C296.994 266.959 296.891 266.179 296.687 265.516C296.487 264.85 296.18 264.239 295.767 263.683C295.354 263.127 294.829 262.559 294.194 261.976L294.887 261.283C295.607 261.874 296.222 262.483 296.734 263.11C297.249 263.736 297.642 264.434 297.914 265.203C298.189 265.967 298.327 266.852 298.327 267.856C298.327 268.861 298.189 269.747 297.914 270.516C297.642 271.281 297.249 271.976 296.734 272.603C296.222 273.23 295.607 273.839 294.887 274.43L294.194 273.736C294.829 273.15 295.354 272.579 295.767 272.023C296.185 271.463 296.494 270.852 296.694 270.19C296.894 269.527 296.994 268.75 296.994 267.856Z" fill="#FFEEE6"/>
<path d="M163.946 165.212L169.72 155.212H158.173L163.946 165.212ZM162.946 125.212V156.212H164.946V125.212H162.946Z" fill="#FC5200"/>
<path d="M163.188 247.57L168.962 237.57H157.415L163.188 247.57ZM162.188 207.57V238.57H164.188V207.57H162.188Z" fill="#FC5200"/>
</svg>
