<svg width="499" height="289" viewBox="0 0 499 289" fill="none" xmlns="http://www.w3.org/2000/svg">
<rect x="222.851" y="0.803223" width="102.5" height="40.5" rx="5.25" fill="#FDFDFD"/>
<rect x="222.851" y="0.803223" width="102.5" height="40.5" rx="5.25" stroke="#254250" stroke-width="1.5"/>
<path d="M249.567 18.7132C249.567 19.4288 249.414 20.0066 249.107 20.4466C248.805 20.8821 248.385 21.1999 247.847 21.3999C247.309 21.5999 246.694 21.6999 246.001 21.6999H244.854V25.0532H243.527V15.8666H245.961C247.081 15.8666 247.961 16.0999 248.601 16.5666C249.245 17.0288 249.567 17.7443 249.567 18.7132ZM248.167 18.7266C248.167 18.051 247.972 17.5754 247.581 17.2999C247.194 17.0243 246.696 16.8866 246.087 16.8866H244.854V20.6599H246.067C246.476 20.6599 246.838 20.6021 247.154 20.4866C247.469 20.371 247.716 20.1732 247.894 19.8932C248.076 19.6132 248.167 19.2243 248.167 18.7266ZM255.805 22.7666H252.325L251.632 25.0532H250.305L253.265 15.8666H254.932L257.899 25.0532H256.499L255.805 22.7666ZM252.632 21.7066H255.499L254.072 16.9332L252.632 21.7066ZM265.317 18.4732C265.317 19.1621 265.106 19.7177 264.683 20.1399C264.266 20.5577 263.75 20.8466 263.137 21.0066L265.81 25.0532H264.243L261.823 21.1799H260.683V25.0532H259.357V15.8666H261.803C262.954 15.8666 263.828 16.0866 264.423 16.5266C265.019 16.9621 265.317 17.611 265.317 18.4732ZM263.91 18.4732C263.91 17.9088 263.746 17.5021 263.417 17.2532C263.092 17.0043 262.592 16.8799 261.917 16.8799H260.683V20.1732H261.93C262.561 20.1732 263.048 20.0443 263.39 19.7866C263.737 19.5243 263.91 19.0866 263.91 18.4732ZM271.801 22.7666H268.321L267.628 25.0532H266.301L269.261 15.8666H270.928L273.895 25.0532H272.495L271.801 22.7666ZM268.628 21.7066H271.495L270.068 16.9332L268.628 21.7066ZM275.806 25.0532V15.8666H277.133V23.9066H281.293L281.146 25.0532H275.806ZM283.804 25.0532V15.8666H285.131V23.9066H289.291L289.144 25.0532H283.804ZM293.016 16.9066V19.8599H296.389V20.9066H293.016V24.0199H297.142V25.0532H291.689V15.8666H297.042L296.889 16.9066H293.016ZM299.8 25.0532V15.8666H301.127V23.9066H305.287L305.14 25.0532H299.8Z" fill="#254250"/>
<rect x="89.5898" y="83.022" width="142.5" height="40.5" rx="5.25" fill="#FDFDFD"/>
<rect x="89.5898" y="83.022" width="142.5" height="40.5" rx="5.25" stroke="#254250" stroke-width="1.5"/>
<path d="M111.94 99.1253V102.219H115.48V103.252H111.94V107.272H110.62V98.0853H116.133L115.98 99.1253H111.94ZM119.765 99.1253V102.079H123.138V103.125H119.765V106.239H123.891V107.272H118.438V98.0853H123.791L123.638 99.1253H119.765ZM129.476 99.1853V107.272H128.156V99.1853H125.329V98.0853H132.349L132.209 99.1853H129.476ZM137.607 97.9186C138.216 97.9186 138.727 97.9964 139.141 98.152C139.558 98.3075 139.95 98.5342 140.314 98.832L139.601 99.672C139.316 99.4364 139.014 99.2653 138.694 99.1586C138.374 99.0475 138.038 98.992 137.687 98.992C137.203 98.992 136.756 99.1098 136.347 99.3453C135.938 99.5809 135.61 99.9675 135.361 100.505C135.112 101.043 134.987 101.765 134.987 102.672C134.987 103.556 135.105 104.268 135.341 104.805C135.581 105.339 135.903 105.728 136.307 105.972C136.716 106.212 137.172 106.332 137.674 106.332C138.176 106.332 138.592 106.254 138.921 106.099C139.254 105.939 139.543 105.756 139.787 105.552L140.447 106.399C140.158 106.683 139.783 106.928 139.321 107.132C138.863 107.336 138.303 107.439 137.641 107.439C136.881 107.439 136.196 107.256 135.587 106.892C134.983 106.528 134.503 105.992 134.147 105.285C133.792 104.574 133.614 103.703 133.614 102.672C133.614 101.641 133.794 100.772 134.154 100.065C134.518 99.3586 135.003 98.8253 135.607 98.4653C136.216 98.1009 136.883 97.9186 137.607 97.9186ZM146.465 107.272V102.992H143.199V107.272H141.879V98.0853H143.199V101.905H146.465V98.0853H147.785V107.272H146.465Z" fill="#254250"/>
<path d="M159.768 102.605C159.768 103.499 159.868 104.276 160.068 104.939C160.268 105.601 160.575 106.212 160.988 106.772C161.406 107.328 161.933 107.899 162.568 108.485L161.875 109.179C161.155 108.588 160.537 107.979 160.021 107.352C159.51 106.725 159.117 106.03 158.841 105.265C158.57 104.496 158.435 103.61 158.435 102.605C158.435 101.601 158.57 100.716 158.841 99.952C159.117 99.1831 159.51 98.4853 160.021 97.8586C160.537 97.232 161.155 96.6231 161.875 96.032L162.568 96.7253C161.933 97.3075 161.408 97.8764 160.995 98.432C160.581 98.9875 160.273 99.5986 160.068 100.265C159.868 100.928 159.768 101.708 159.768 102.605ZM171.926 98.0853V104.279C171.926 104.901 171.8 105.45 171.546 105.925C171.297 106.401 170.94 106.772 170.473 107.039C170.011 107.305 169.457 107.439 168.813 107.439C168.164 107.439 167.608 107.305 167.146 107.039C166.684 106.772 166.331 106.401 166.086 105.925C165.846 105.45 165.726 104.901 165.726 104.279V98.0853H167.046V104.179C167.046 105.619 167.635 106.339 168.813 106.339C170 106.339 170.593 105.619 170.593 104.179V98.0853H171.926ZM180.044 104.705C180.044 105.239 179.909 105.712 179.638 106.125C179.371 106.534 178.982 106.856 178.471 107.092C177.964 107.323 177.349 107.439 176.624 107.439C175.922 107.439 175.295 107.332 174.744 107.119C174.193 106.905 173.724 106.612 173.338 106.239L174.091 105.392C174.411 105.69 174.778 105.925 175.191 106.099C175.604 106.272 176.086 106.359 176.638 106.359C176.998 106.359 177.331 106.301 177.638 106.185C177.949 106.065 178.198 105.888 178.384 105.652C178.575 105.412 178.671 105.112 178.671 104.752C178.671 104.468 178.613 104.225 178.498 104.025C178.386 103.821 178.189 103.641 177.904 103.485C177.62 103.33 177.222 103.176 176.711 103.025C176.089 102.843 175.555 102.636 175.111 102.405C174.671 102.17 174.333 101.888 174.098 101.559C173.866 101.225 173.751 100.816 173.751 100.332C173.751 99.8564 173.882 99.4386 174.144 99.0786C174.406 98.7142 174.766 98.4298 175.224 98.2253C175.682 98.0209 176.209 97.9186 176.804 97.9186C177.449 97.9186 178.011 98.012 178.491 98.1986C178.975 98.3853 179.411 98.6498 179.798 98.992L179.064 99.8186C178.735 99.5298 178.382 99.3209 178.004 99.192C177.631 99.0586 177.251 98.992 176.864 98.992C176.375 98.992 175.96 99.0986 175.618 99.312C175.275 99.5209 175.104 99.8409 175.104 100.272C175.104 100.53 175.173 100.75 175.311 100.932C175.449 101.11 175.68 101.274 176.004 101.425C176.333 101.576 176.782 101.736 177.351 101.905C177.844 102.052 178.293 102.232 178.698 102.445C179.106 102.654 179.433 102.939 179.678 103.299C179.922 103.654 180.044 104.123 180.044 104.705ZM183.749 99.1253V102.079H187.122V103.125H183.749V106.239H187.876V107.272H182.422V98.0853H187.776L187.622 99.1253H183.749ZM196.04 100.692C196.04 101.381 195.829 101.936 195.407 102.359C194.989 102.776 194.474 103.065 193.86 103.225L196.534 107.272H194.967L192.547 103.399H191.407V107.272H190.08V98.0853H192.527C193.678 98.0853 194.551 98.3053 195.147 98.7453C195.743 99.1809 196.04 99.8298 196.04 100.692ZM194.634 100.692C194.634 100.128 194.469 99.7209 194.14 99.472C193.816 99.2231 193.316 99.0986 192.64 99.0986H191.407V102.392H192.654C193.285 102.392 193.771 102.263 194.114 102.005C194.46 101.743 194.634 101.305 194.634 100.692ZM204.038 104.705C204.038 105.239 203.903 105.712 203.632 106.125C203.365 106.534 202.976 106.856 202.465 107.092C201.958 107.323 201.343 107.439 200.618 107.439C199.916 107.439 199.289 107.332 198.738 107.119C198.187 106.905 197.718 106.612 197.332 106.239L198.085 105.392C198.405 105.69 198.772 105.925 199.185 106.099C199.598 106.272 200.081 106.359 200.632 106.359C200.992 106.359 201.325 106.301 201.632 106.185C201.943 106.065 202.192 105.888 202.378 105.652C202.569 105.412 202.665 105.112 202.665 104.752C202.665 104.468 202.607 104.225 202.492 104.025C202.381 103.821 202.183 103.641 201.898 103.485C201.614 103.33 201.216 103.176 200.705 103.025C200.083 102.843 199.549 102.636 199.105 102.405C198.665 102.17 198.327 101.888 198.092 101.559C197.861 101.225 197.745 100.816 197.745 100.332C197.745 99.8564 197.876 99.4386 198.138 99.0786C198.401 98.7142 198.761 98.4298 199.218 98.2253C199.676 98.0209 200.203 97.9186 200.798 97.9186C201.443 97.9186 202.005 98.012 202.485 98.1986C202.969 98.3853 203.405 98.6498 203.792 98.992L203.058 99.8186C202.729 99.5298 202.376 99.3209 201.998 99.192C201.625 99.0586 201.245 98.992 200.858 98.992C200.369 98.992 199.954 99.0986 199.612 99.312C199.269 99.5209 199.098 99.8409 199.098 100.272C199.098 100.53 199.167 100.75 199.305 100.932C199.443 101.11 199.674 101.274 199.998 101.425C200.327 101.576 200.776 101.736 201.345 101.905C201.838 102.052 202.287 102.232 202.692 102.445C203.101 102.654 203.427 102.939 203.672 103.299C203.916 103.654 204.038 104.123 204.038 104.705ZM209.876 102.605C209.876 101.708 209.774 100.928 209.57 100.265C209.37 99.5986 209.063 98.9875 208.65 98.432C208.236 97.8764 207.712 97.3075 207.076 96.7253L207.77 96.032C208.49 96.6231 209.105 97.232 209.616 97.8586C210.132 98.4853 210.525 99.1831 210.796 99.952C211.072 100.716 211.21 101.601 211.21 102.605C211.21 103.61 211.072 104.496 210.796 105.265C210.525 106.03 210.132 106.725 209.616 107.352C209.105 107.979 208.49 108.588 207.77 109.179L207.076 108.485C207.712 107.899 208.236 107.328 208.65 106.772C209.068 106.212 209.376 105.601 209.576 104.939C209.776 104.276 209.876 103.499 209.876 102.605Z" fill="#25855A"/>
<rect x="323.59" y="81.9365" width="174.5" height="40.5" rx="5.25" fill="#FDFDFD"/>
<rect x="323.59" y="81.9365" width="174.5" height="40.5" rx="5.25" stroke="#254250" stroke-width="1.5"/>
<path d="M345.94 98.0399V101.133H349.48V102.167H345.94V106.187H344.62V96.9999H350.133L349.98 98.0399H345.94ZM353.765 98.0399V100.993H357.138V102.04H353.765V105.153H357.891V106.187H352.438V96.9999H357.791L357.638 98.0399H353.765ZM363.476 98.0999V106.187H362.156V98.0999H359.329V96.9999H366.349L366.209 98.0999H363.476ZM371.607 96.8332C372.216 96.8332 372.727 96.911 373.141 97.0665C373.558 97.2221 373.95 97.4487 374.314 97.7465L373.601 98.5865C373.316 98.351 373.014 98.1799 372.694 98.0732C372.374 97.9621 372.038 97.9065 371.687 97.9065C371.203 97.9065 370.756 98.0243 370.347 98.2599C369.938 98.4954 369.61 98.8821 369.361 99.4199C369.112 99.9576 368.987 100.68 368.987 101.587C368.987 102.471 369.105 103.182 369.341 103.72C369.581 104.253 369.903 104.642 370.307 104.887C370.716 105.127 371.172 105.247 371.674 105.247C372.176 105.247 372.592 105.169 372.921 105.013C373.254 104.853 373.543 104.671 373.787 104.467L374.447 105.313C374.158 105.598 373.783 105.842 373.321 106.047C372.863 106.251 372.303 106.353 371.641 106.353C370.881 106.353 370.196 106.171 369.587 105.807C368.983 105.442 368.503 104.907 368.147 104.2C367.792 103.489 367.614 102.618 367.614 101.587C367.614 100.555 367.794 99.6865 368.154 98.9799C368.518 98.2732 369.003 97.7399 369.607 97.3799C370.216 97.0154 370.883 96.8332 371.607 96.8332ZM380.465 106.187V101.907H377.199V106.187H375.879V96.9999H377.199V100.82H380.465V96.9999H381.785V106.187H380.465Z" fill="#254250"/>
<path d="M393.768 101.52C393.768 102.413 393.868 103.191 394.068 103.853C394.268 104.515 394.575 105.127 394.988 105.687C395.406 106.242 395.933 106.813 396.568 107.4L395.875 108.093C395.155 107.502 394.537 106.893 394.021 106.267C393.51 105.64 393.117 104.944 392.841 104.18C392.57 103.411 392.435 102.524 392.435 101.52C392.435 100.515 392.57 99.631 392.841 98.8665C393.117 98.0976 393.51 97.3999 394.021 96.7732C394.537 96.1465 395.155 95.5376 395.875 94.9465L396.568 95.6399C395.933 96.2221 395.408 96.791 394.995 97.3465C394.581 97.9021 394.273 98.5132 394.068 99.1799C393.868 99.8421 393.768 100.622 393.768 101.52ZM405.513 96.9999V98.0332H403.493V105.147H405.513V106.187H400.14V105.147H402.16V98.0332H400.14V96.9999H405.513ZM411.991 106.187L408.891 98.2199C408.9 98.3754 408.918 98.6421 408.944 99.0199C408.975 99.3932 409.004 99.8243 409.031 100.313C409.058 100.798 409.071 101.282 409.071 101.767V106.187H407.871V96.9999H409.624L412.758 104.987C412.749 104.835 412.729 104.584 412.698 104.233C412.666 103.878 412.638 103.458 412.611 102.973C412.589 102.489 412.578 101.971 412.578 101.42V96.9999H413.778V106.187H411.991ZM418.849 104.807L421.209 96.9999H422.549L419.542 106.187H418.102L415.096 96.9999H416.516L418.849 104.807ZM425.747 98.0399V100.993H429.12V102.04H425.747V105.153H429.874V106.187H424.42V96.9999H429.774L429.62 98.0399H425.747ZM435.985 106.187L432.885 98.2199C432.894 98.3754 432.912 98.6421 432.938 99.0199C432.969 99.3932 432.998 99.8243 433.025 100.313C433.052 100.798 433.065 101.282 433.065 101.767V106.187H431.865V96.9999H433.618L436.752 104.987C436.743 104.835 436.723 104.584 436.692 104.233C436.661 103.878 436.632 103.458 436.605 102.973C436.583 102.489 436.572 101.971 436.572 101.42V96.9999H437.772V106.187H435.985ZM443.456 98.0999V106.187H442.136V98.0999H439.31V96.9999H446.33L446.19 98.0999H443.456ZM454.248 101.6C454.248 102.533 454.119 103.358 453.861 104.073C453.603 104.789 453.219 105.349 452.708 105.753C452.201 106.153 451.57 106.353 450.814 106.353C450.059 106.353 449.426 106.158 448.914 105.767C448.408 105.371 448.026 104.818 447.768 104.107C447.51 103.395 447.381 102.564 447.381 101.613C447.381 100.675 447.51 99.8487 447.768 99.1332C448.026 98.4132 448.408 97.851 448.914 97.4465C449.426 97.0376 450.059 96.8332 450.814 96.8332C451.57 96.8332 452.201 97.031 452.708 97.4265C453.219 97.8221 453.603 98.3776 453.861 99.0932C454.119 99.8087 454.248 100.644 454.248 101.6ZM452.868 101.6C452.868 100.391 452.708 99.4732 452.388 98.8465C452.072 98.2199 451.548 97.9065 450.814 97.9065C450.081 97.9065 449.554 98.2221 449.234 98.8532C448.919 99.4843 448.761 100.404 448.761 101.613C448.761 102.818 448.923 103.731 449.248 104.353C449.577 104.971 450.099 105.28 450.814 105.28C451.548 105.28 452.072 104.969 452.388 104.347C452.708 103.72 452.868 102.804 452.868 101.6ZM462.032 99.6065C462.032 100.295 461.821 100.851 461.399 101.273C460.981 101.691 460.466 101.98 459.852 102.14L462.526 106.187H460.959L458.539 102.313H457.399V106.187H456.072V96.9999H458.519C459.67 96.9999 460.544 97.2199 461.139 97.6599C461.735 98.0954 462.032 98.7443 462.032 99.6065ZM460.626 99.6065C460.626 99.0421 460.461 98.6354 460.132 98.3865C459.808 98.1376 459.308 98.0132 458.632 98.0132H457.399V101.307H458.646C459.277 101.307 459.764 101.178 460.106 100.92C460.452 100.658 460.626 100.22 460.626 99.6065ZM467.477 102.66V106.187H466.144V102.673L463.057 96.9999H464.517L466.837 101.493L469.184 96.9999H470.564L467.477 102.66ZM475.869 101.52C475.869 100.622 475.766 99.8421 475.562 99.1799C475.362 98.5132 475.055 97.9021 474.642 97.3465C474.229 96.791 473.704 96.2221 473.069 95.6399L473.762 94.9465C474.482 95.5376 475.097 96.1465 475.609 96.7732C476.124 97.3999 476.517 98.0976 476.789 98.8665C477.064 99.631 477.202 100.515 477.202 101.52C477.202 102.524 477.064 103.411 476.789 104.18C476.517 104.944 476.124 105.64 475.609 106.267C475.097 106.893 474.482 107.502 473.762 108.093L473.069 107.4C473.704 106.813 474.229 106.242 474.642 105.687C475.06 105.127 475.369 104.515 475.569 103.853C475.769 103.191 475.869 102.413 475.869 101.52Z" fill="#7B00C7"/>
<path d="M165.191 81.7678L170.965 71.7678H159.418L165.191 81.7678ZM261.509 41.7678V53.233H263.509V41.7678H261.509ZM253.509 61.233H174.191V63.233H253.509V61.233ZM164.191 71.233V72.7678H166.191V71.233H164.191ZM174.191 61.233C168.669 61.233 164.191 65.7101 164.191 71.233H166.191C166.191 66.8147 169.773 63.233 174.191 63.233V61.233ZM261.509 53.233C261.509 57.6513 257.927 61.233 253.509 61.233V63.233C259.032 63.233 263.509 58.7558 263.509 53.233H261.509Z" fill="#B03900"/>
<path d="M404.169 81.7678L398.395 71.7678H409.942L404.169 81.7678ZM294.191 41.7678V53.233H292.191V41.7678H294.191ZM302.191 61.233H395.169V63.233H302.191V61.233ZM405.169 71.233V72.7678H403.169V71.233H405.169ZM395.169 61.233C400.692 61.233 405.169 65.7101 405.169 71.233H403.169C403.169 66.8147 399.587 63.233 395.169 63.233V61.233ZM294.191 53.233C294.191 57.6513 297.773 61.233 302.191 61.233V63.233C296.669 63.233 292.191 58.7558 292.191 53.233H294.191Z" fill="#B03900"/>
<rect x="77.5898" y="165.241" width="166.5" height="40.5" rx="5.25" fill="#FDFDFD"/>
<rect x="77.5898" y="165.241" width="166.5" height="40.5" rx="5.25" stroke="#254250" stroke-width="1.5"/>
<path d="M99.9398 181.344V184.437H103.48V185.471H99.9398V189.491H98.6198V180.304H104.133L103.98 181.344H99.9398ZM107.765 181.344V184.297H111.138V185.344H107.765V188.457H111.891V189.491H106.438V180.304H111.791L111.638 181.344H107.765ZM117.476 181.404V189.491H116.156V181.404H113.329V180.304H120.349L120.209 181.404H117.476ZM125.607 180.137C126.216 180.137 126.727 180.215 127.141 180.371C127.558 180.526 127.95 180.753 128.314 181.051L127.601 181.891C127.316 181.655 127.014 181.484 126.694 181.377C126.374 181.266 126.038 181.211 125.687 181.211C125.203 181.211 124.756 181.329 124.347 181.564C123.938 181.8 123.61 182.186 123.361 182.724C123.112 183.262 122.987 183.984 122.987 184.891C122.987 185.775 123.105 186.486 123.341 187.024C123.581 187.557 123.903 187.946 124.307 188.191C124.716 188.431 125.172 188.551 125.674 188.551C126.176 188.551 126.592 188.473 126.921 188.317C127.254 188.157 127.543 187.975 127.787 187.771L128.447 188.617C128.158 188.902 127.783 189.146 127.321 189.351C126.863 189.555 126.303 189.657 125.641 189.657C124.881 189.657 124.196 189.475 123.587 189.111C122.983 188.746 122.503 188.211 122.147 187.504C121.792 186.793 121.614 185.922 121.614 184.891C121.614 183.86 121.794 182.991 122.154 182.284C122.518 181.577 123.003 181.044 123.607 180.684C124.216 180.32 124.883 180.137 125.607 180.137ZM134.465 189.491V185.211H131.199V189.491H129.879V180.304H131.199V184.124H134.465V180.304H135.785V189.491H134.465Z" fill="#254250"/>
<path d="M147.768 184.824C147.768 185.717 147.868 186.495 148.068 187.157C148.268 187.82 148.575 188.431 148.988 188.991C149.406 189.546 149.933 190.117 150.568 190.704L149.875 191.397C149.155 190.806 148.537 190.197 148.021 189.571C147.51 188.944 147.117 188.249 146.841 187.484C146.57 186.715 146.435 185.829 146.435 184.824C146.435 183.82 146.57 182.935 146.841 182.171C147.117 181.402 147.51 180.704 148.021 180.077C148.537 179.451 149.155 178.842 149.875 178.251L150.568 178.944C149.933 179.526 149.408 180.095 148.995 180.651C148.581 181.206 148.273 181.817 148.068 182.484C147.868 183.146 147.768 183.926 147.768 184.824ZM160.293 183.151C160.293 183.866 160.14 184.444 159.833 184.884C159.531 185.32 159.111 185.637 158.573 185.837C158.035 186.037 157.42 186.137 156.726 186.137H155.58V189.491H154.253V180.304H156.686C157.806 180.304 158.686 180.537 159.326 181.004C159.971 181.466 160.293 182.182 160.293 183.151ZM158.893 183.164C158.893 182.489 158.697 182.013 158.306 181.737C157.92 181.462 157.422 181.324 156.813 181.324H155.58V185.097H156.793C157.202 185.097 157.564 185.04 157.88 184.924C158.195 184.809 158.442 184.611 158.62 184.331C158.802 184.051 158.893 183.662 158.893 183.164ZM168.044 182.911C168.044 183.6 167.833 184.155 167.411 184.577C166.993 184.995 166.478 185.284 165.864 185.444L168.538 189.491H166.971L164.551 185.617H163.411V189.491H162.084V180.304H164.531C165.682 180.304 166.555 180.524 167.151 180.964C167.746 181.4 168.044 182.049 168.044 182.911ZM166.638 182.911C166.638 182.346 166.473 181.94 166.144 181.691C165.82 181.442 165.32 181.317 164.644 181.317H163.411V184.611H164.658C165.289 184.611 165.775 184.482 166.118 184.224C166.464 183.962 166.638 183.524 166.638 182.911ZM176.256 184.904C176.256 185.837 176.127 186.662 175.869 187.377C175.611 188.093 175.227 188.653 174.716 189.057C174.209 189.457 173.578 189.657 172.822 189.657C172.067 189.657 171.433 189.462 170.922 189.071C170.416 188.675 170.033 188.122 169.776 187.411C169.518 186.7 169.389 185.869 169.389 184.917C169.389 183.98 169.518 183.153 169.776 182.437C170.033 181.717 170.416 181.155 170.922 180.751C171.433 180.342 172.067 180.137 172.822 180.137C173.578 180.137 174.209 180.335 174.716 180.731C175.227 181.126 175.611 181.682 175.869 182.397C176.127 183.113 176.256 183.949 176.256 184.904ZM174.876 184.904C174.876 183.695 174.716 182.777 174.396 182.151C174.08 181.524 173.556 181.211 172.822 181.211C172.089 181.211 171.562 181.526 171.242 182.157C170.927 182.789 170.769 183.709 170.769 184.917C170.769 186.122 170.931 187.035 171.256 187.657C171.584 188.275 172.107 188.584 172.822 188.584C173.556 188.584 174.08 188.273 174.396 187.651C174.716 187.024 174.876 186.109 174.876 184.904ZM184.234 184.851C184.234 185.806 184.109 186.589 183.86 187.197C183.611 187.806 183.28 188.277 182.867 188.611C182.458 188.94 182.007 189.169 181.514 189.297C181.02 189.426 180.527 189.491 180.034 189.491H177.867V180.304H179.887C180.434 180.304 180.965 180.364 181.48 180.484C181.996 180.604 182.46 180.826 182.874 181.151C183.291 181.471 183.623 181.929 183.867 182.524C184.111 183.12 184.234 183.895 184.234 184.851ZM182.834 184.851C182.834 184.082 182.754 183.464 182.594 182.997C182.438 182.531 182.229 182.18 181.967 181.944C181.705 181.709 181.416 181.551 181.1 181.471C180.789 181.391 180.478 181.351 180.167 181.351H179.187V188.457H180.18C180.505 188.457 180.825 188.406 181.14 188.304C181.456 188.202 181.74 188.02 181.994 187.757C182.251 187.495 182.456 187.129 182.607 186.657C182.758 186.186 182.834 185.584 182.834 184.851ZM191.918 180.304V186.497C191.918 187.12 191.792 187.669 191.538 188.144C191.289 188.62 190.932 188.991 190.465 189.257C190.003 189.524 189.449 189.657 188.805 189.657C188.156 189.657 187.601 189.524 187.138 189.257C186.676 188.991 186.323 188.62 186.078 188.144C185.838 187.669 185.718 187.12 185.718 186.497V180.304H187.038V186.397C187.038 187.837 187.627 188.557 188.805 188.557C189.992 188.557 190.585 187.837 190.585 186.397V180.304H191.918ZM197.59 180.137C198.199 180.137 198.71 180.215 199.123 180.371C199.541 180.526 199.932 180.753 200.296 181.051L199.583 181.891C199.299 181.655 198.996 181.484 198.676 181.377C198.356 181.266 198.021 181.211 197.67 181.211C197.185 181.211 196.739 181.329 196.33 181.564C195.921 181.8 195.592 182.186 195.343 182.724C195.094 183.262 194.97 183.984 194.97 184.891C194.97 185.775 195.088 186.486 195.323 187.024C195.563 187.557 195.885 187.946 196.29 188.191C196.699 188.431 197.154 188.551 197.656 188.551C198.159 188.551 198.574 188.473 198.903 188.317C199.236 188.157 199.525 187.975 199.77 187.771L200.43 188.617C200.141 188.902 199.765 189.146 199.303 189.351C198.845 189.555 198.285 189.657 197.623 189.657C196.863 189.657 196.179 189.475 195.57 189.111C194.965 188.746 194.485 188.211 194.13 187.504C193.774 186.793 193.596 185.922 193.596 184.891C193.596 183.86 193.776 182.991 194.136 182.284C194.501 181.577 194.985 181.044 195.59 180.684C196.199 180.32 196.865 180.137 197.59 180.137ZM205.454 181.404V189.491H204.134V181.404H201.308V180.304H208.328L208.188 181.404H205.454ZM216.032 186.924C216.032 187.457 215.897 187.931 215.626 188.344C215.359 188.753 214.97 189.075 214.459 189.311C213.952 189.542 213.337 189.657 212.612 189.657C211.91 189.657 211.284 189.551 210.733 189.337C210.181 189.124 209.712 188.831 209.326 188.457L210.079 187.611C210.399 187.909 210.766 188.144 211.179 188.317C211.592 188.491 212.075 188.577 212.626 188.577C212.986 188.577 213.319 188.52 213.626 188.404C213.937 188.284 214.186 188.106 214.372 187.871C214.564 187.631 214.659 187.331 214.659 186.971C214.659 186.686 214.601 186.444 214.486 186.244C214.375 186.04 214.177 185.86 213.892 185.704C213.608 185.549 213.21 185.395 212.699 185.244C212.077 185.062 211.544 184.855 211.099 184.624C210.659 184.389 210.321 184.106 210.086 183.777C209.855 183.444 209.739 183.035 209.739 182.551C209.739 182.075 209.87 181.657 210.132 181.297C210.395 180.933 210.755 180.649 211.212 180.444C211.67 180.24 212.197 180.137 212.792 180.137C213.437 180.137 213.999 180.231 214.479 180.417C214.964 180.604 215.399 180.869 215.786 181.211L215.052 182.037C214.724 181.749 214.37 181.54 213.992 181.411C213.619 181.277 213.239 181.211 212.852 181.211C212.364 181.211 211.948 181.317 211.606 181.531C211.264 181.74 211.092 182.06 211.092 182.491C211.092 182.749 211.161 182.969 211.299 183.151C211.437 183.329 211.668 183.493 211.992 183.644C212.321 183.795 212.77 183.955 213.339 184.124C213.832 184.271 214.281 184.451 214.686 184.664C215.095 184.873 215.421 185.157 215.666 185.517C215.91 185.873 216.032 186.342 216.032 186.924ZM221.871 184.824C221.871 183.926 221.768 183.146 221.564 182.484C221.364 181.817 221.057 181.206 220.644 180.651C220.231 180.095 219.706 179.526 219.071 178.944L219.764 178.251C220.484 178.842 221.099 179.451 221.611 180.077C222.126 180.704 222.519 181.402 222.791 182.171C223.066 182.935 223.204 183.82 223.204 184.824C223.204 185.829 223.066 186.715 222.791 187.484C222.519 188.249 222.126 188.944 221.611 189.571C221.099 190.197 220.484 190.806 219.764 191.397L219.071 190.704C219.706 190.117 220.231 189.546 220.644 188.991C221.062 188.431 221.371 187.82 221.571 187.157C221.771 186.495 221.871 185.717 221.871 184.824Z" fill="#AF9200"/>
<rect x="1.58984" y="247.459" width="318.5" height="40.5" rx="5.25" fill="#FDFDFD"/>
<rect x="1.58984" y="247.459" width="318.5" height="40.5" rx="5.25" stroke="#254250" stroke-width="1.5"/>
<path d="M23.9398 263.563V266.656H27.4798V267.689H23.9398V271.709H22.6198V262.523H28.1332L27.9798 263.563H23.9398ZM30.5512 271.709V262.523H31.8779V270.563H36.0379L35.8912 271.709H30.5512ZM42.5426 269.423H39.0626L38.3693 271.709H37.0426L40.0026 262.523H41.6693L44.6359 271.709H43.2359L42.5426 269.423ZM39.3693 268.363H42.2359L40.8093 263.589L39.3693 268.363ZM49.474 263.623V271.709H48.154V263.623H45.3273V262.523H52.3473L52.2073 263.623H49.474ZM57.472 263.623V271.709H56.152V263.623H53.3254V262.523H60.3454L60.2054 263.623H57.472ZM63.7567 263.563V266.516H67.1301V267.563H63.7567V270.676H67.8834V271.709H62.4301V262.523H67.7834L67.6301 263.563H63.7567ZM73.9948 271.709L70.8948 263.743C70.9037 263.898 70.9215 264.165 70.9481 264.543C70.9792 264.916 71.0081 265.347 71.0348 265.836C71.0615 266.321 71.0748 266.805 71.0748 267.289V271.709H69.8748V262.523H71.6281L74.7615 270.509C74.7526 270.358 74.7326 270.107 74.7015 269.756C74.6703 269.401 74.6415 268.981 74.6148 268.496C74.5926 268.012 74.5815 267.494 74.5815 266.943V262.523H75.7815V271.709H73.9948ZM87.7642 267.043C87.7642 267.936 87.8642 268.714 88.0642 269.376C88.2642 270.038 88.5709 270.649 88.9842 271.209C89.402 271.765 89.9287 272.336 90.5642 272.923L89.8709 273.616C89.1509 273.025 88.5331 272.416 88.0176 271.789C87.5064 271.163 87.1131 270.467 86.8376 269.703C86.5664 268.934 86.4309 268.047 86.4309 267.043C86.4309 266.038 86.5664 265.154 86.8376 264.389C87.1131 263.621 87.5064 262.923 88.0176 262.296C88.5331 261.669 89.1509 261.061 89.8709 260.469L90.5642 261.163C89.9287 261.745 89.4042 262.314 88.9909 262.869C88.5776 263.425 88.2687 264.036 88.0642 264.703C87.8642 265.365 87.7642 266.145 87.7642 267.043ZM97.3623 264.516C97.9845 264.516 98.4823 264.669 98.8556 264.976C99.2289 265.278 99.4978 265.705 99.6623 266.256C99.8267 266.803 99.9089 267.447 99.9089 268.189C99.9089 268.901 99.8089 269.534 99.6089 270.089C99.4089 270.645 99.1089 271.083 98.7089 271.403C98.3089 271.718 97.8067 271.876 97.2023 271.876C96.4467 271.876 95.8378 271.609 95.3756 271.076V274.403L94.0956 274.556V264.683H95.1956L95.2889 265.629C95.8312 264.887 96.5223 264.516 97.3623 264.516ZM97.0356 265.523C96.6712 265.523 96.3489 265.634 96.0689 265.856C95.7889 266.074 95.5578 266.323 95.3756 266.603V270.003C95.5534 270.265 95.7712 270.472 96.0289 270.623C96.2867 270.769 96.5734 270.843 96.8889 270.843C97.44 270.843 97.8556 270.629 98.1356 270.203C98.4156 269.772 98.5556 269.101 98.5556 268.189C98.5556 267.278 98.4312 266.607 98.1823 266.176C97.9334 265.741 97.5512 265.523 97.0356 265.523ZM102.16 271.709V270.763H103.227V265.629H102.16V264.683H104.207L104.44 266.329C104.707 265.747 105.034 265.301 105.42 264.989C105.811 264.674 106.318 264.516 106.94 264.516C107.145 264.516 107.325 264.532 107.48 264.563C107.64 264.594 107.803 264.634 107.967 264.683L107.767 267.149H106.78V265.683H106.774C105.72 265.683 104.965 266.436 104.507 267.943V270.763H105.934V271.709H102.16ZM112.832 264.516C113.836 264.516 114.598 264.849 115.118 265.516C115.643 266.183 115.905 267.074 115.905 268.189C115.905 268.914 115.785 269.554 115.545 270.109C115.309 270.665 114.963 271.098 114.505 271.409C114.047 271.721 113.485 271.876 112.818 271.876C111.814 271.876 111.047 271.543 110.518 270.876C109.994 270.209 109.732 269.318 109.732 268.203C109.732 267.474 109.849 266.834 110.085 266.283C110.325 265.727 110.674 265.294 111.132 264.983C111.594 264.672 112.161 264.516 112.832 264.516ZM112.832 265.536C112.254 265.536 111.818 265.754 111.525 266.189C111.232 266.621 111.085 267.292 111.085 268.203C111.085 269.105 111.229 269.774 111.518 270.209C111.807 270.641 112.241 270.856 112.818 270.856C113.396 270.856 113.829 270.641 114.118 270.209C114.407 269.774 114.552 269.101 114.552 268.189C114.552 267.283 114.407 266.614 114.118 266.183C113.829 265.752 113.401 265.536 112.832 265.536ZM122.816 264.516C123.056 264.516 123.281 264.569 123.49 264.676C123.703 264.783 123.874 264.978 124.003 265.263C124.132 265.543 124.196 265.949 124.196 266.483V271.709H123.03V266.669C123.03 266.261 123.003 265.967 122.95 265.789C122.901 265.607 122.759 265.516 122.523 265.516C122.328 265.516 122.132 265.576 121.936 265.696C121.745 265.816 121.559 266.016 121.376 266.296V271.709H120.256V266.669C120.256 266.261 120.23 265.967 120.176 265.789C120.128 265.607 119.985 265.516 119.75 265.516C119.55 265.516 119.354 265.576 119.163 265.696C118.972 265.816 118.785 266.016 118.603 266.296V271.709H117.436V264.683H118.423L118.503 265.469C118.699 265.198 118.914 264.972 119.15 264.789C119.39 264.607 119.681 264.516 120.023 264.516C120.29 264.516 120.536 264.581 120.763 264.709C120.994 264.838 121.163 265.078 121.27 265.429C121.461 265.158 121.679 264.938 121.923 264.769C122.168 264.601 122.465 264.516 122.816 264.516ZM128.828 264.516C129.832 264.516 130.594 264.849 131.114 265.516C131.639 266.183 131.901 267.074 131.901 268.189C131.901 268.914 131.781 269.554 131.541 270.109C131.306 270.665 130.959 271.098 130.501 271.409C130.043 271.721 129.481 271.876 128.814 271.876C127.81 271.876 127.043 271.543 126.514 270.876C125.99 270.209 125.728 269.318 125.728 268.203C125.728 267.474 125.846 266.834 126.081 266.283C126.321 265.727 126.67 265.294 127.128 264.983C127.59 264.672 128.157 264.516 128.828 264.516ZM128.828 265.536C128.25 265.536 127.814 265.754 127.521 266.189C127.228 266.621 127.081 267.292 127.081 268.203C127.081 269.105 127.226 269.774 127.514 270.209C127.803 270.641 128.237 270.856 128.814 270.856C129.392 270.856 129.826 270.641 130.114 270.209C130.403 269.774 130.548 269.101 130.548 268.189C130.548 267.283 130.403 266.614 130.114 266.183C129.826 265.752 129.397 265.536 128.828 265.536ZM139.792 271.349C139.544 271.509 139.244 271.636 138.892 271.729C138.546 271.827 138.195 271.876 137.839 271.876C137.057 271.876 136.457 271.672 136.039 271.263C135.626 270.854 135.419 270.323 135.419 269.669V265.643H133.826V264.683H135.419V263.096L136.699 262.943V264.683H139.099L138.952 265.643H136.699V269.656C136.699 270.043 136.797 270.334 136.992 270.529C137.192 270.725 137.524 270.823 137.986 270.823C138.244 270.823 138.481 270.794 138.699 270.736C138.921 270.674 139.126 270.592 139.312 270.489L139.792 271.349ZM143.117 268.629C143.153 269.403 143.362 269.965 143.744 270.316C144.131 270.667 144.588 270.843 145.117 270.843C145.468 270.843 145.791 270.789 146.084 270.683C146.377 270.576 146.675 270.421 146.977 270.216L147.557 271.023C147.228 271.285 146.848 271.494 146.417 271.649C145.986 271.801 145.539 271.876 145.077 271.876C144.375 271.876 143.777 271.723 143.284 271.416C142.795 271.105 142.422 270.674 142.164 270.123C141.911 269.572 141.784 268.932 141.784 268.203C141.784 267.496 141.911 266.865 142.164 266.309C142.422 265.754 142.784 265.316 143.251 264.996C143.717 264.676 144.273 264.516 144.917 264.516C145.824 264.516 146.537 264.827 147.057 265.449C147.582 266.067 147.844 266.914 147.844 267.989C147.844 268.109 147.842 268.225 147.837 268.336C147.833 268.447 147.826 268.545 147.817 268.629H143.117ZM144.931 265.516C144.428 265.516 144.013 265.694 143.684 266.049C143.355 266.405 143.166 266.954 143.117 267.696H146.611C146.597 266.985 146.442 266.445 146.144 266.076C145.851 265.703 145.446 265.516 144.931 265.516ZM154.255 261.703L155.535 261.856V271.709H154.409L154.302 270.809C153.804 271.521 153.142 271.876 152.315 271.876C151.711 271.876 151.211 271.723 150.815 271.416C150.424 271.105 150.133 270.674 149.942 270.123C149.751 269.572 149.655 268.932 149.655 268.203C149.655 267.492 149.764 266.861 149.982 266.309C150.204 265.754 150.52 265.316 150.929 264.996C151.342 264.676 151.84 264.516 152.422 264.516C153.177 264.516 153.789 264.783 154.255 265.316V261.703ZM152.755 265.523C152.204 265.523 151.777 265.743 151.475 266.183C151.177 266.623 151.029 267.296 151.029 268.203C151.029 269.105 151.164 269.774 151.435 270.209C151.711 270.645 152.106 270.863 152.622 270.863C152.991 270.863 153.309 270.758 153.575 270.549C153.846 270.336 154.073 270.087 154.255 269.803V266.369C154.073 266.103 153.853 265.896 153.595 265.749C153.342 265.598 153.062 265.523 152.755 265.523ZM164.273 265.369C164.273 266.085 164.12 266.663 163.813 267.103C163.511 267.538 163.091 267.856 162.553 268.056C162.016 268.256 161.4 268.356 160.707 268.356H159.56V271.709H158.233V262.523H160.667C161.787 262.523 162.667 262.756 163.307 263.223C163.951 263.685 164.273 264.401 164.273 265.369ZM162.873 265.383C162.873 264.707 162.678 264.232 162.287 263.956C161.9 263.681 161.402 263.543 160.793 263.543H159.56V267.316H160.773C161.182 267.316 161.544 267.258 161.86 267.143C162.176 267.027 162.422 266.829 162.6 266.549C162.782 266.269 162.873 265.881 162.873 265.383ZM166.145 271.709V270.763H167.211V265.629H166.145V264.683H168.191L168.425 266.329C168.691 265.747 169.018 265.301 169.405 264.989C169.796 264.674 170.302 264.516 170.925 264.516C171.129 264.516 171.309 264.532 171.465 264.563C171.625 264.594 171.787 264.634 171.951 264.683L171.751 267.149H170.765V265.683H170.758C169.705 265.683 168.949 266.436 168.491 267.943V270.763H169.918V271.709H166.145ZM176.816 264.516C177.821 264.516 178.583 264.849 179.103 265.516C179.627 266.183 179.889 267.074 179.889 268.189C179.889 268.914 179.769 269.554 179.529 270.109C179.294 270.665 178.947 271.098 178.489 271.409C178.032 271.721 177.469 271.876 176.803 271.876C175.798 271.876 175.032 271.543 174.503 270.876C173.978 270.209 173.716 269.318 173.716 268.203C173.716 267.474 173.834 266.834 174.069 266.283C174.309 265.727 174.658 265.294 175.116 264.983C175.578 264.672 176.145 264.516 176.816 264.516ZM176.816 265.536C176.238 265.536 175.803 265.754 175.509 266.189C175.216 266.621 175.069 267.292 175.069 268.203C175.069 269.105 175.214 269.774 175.503 270.209C175.792 270.641 176.225 270.856 176.803 270.856C177.381 270.856 177.814 270.641 178.103 270.209C178.392 269.774 178.536 269.101 178.536 268.189C178.536 267.283 178.392 266.614 178.103 266.183C177.814 265.752 177.385 265.536 176.816 265.536ZM186.247 261.703L187.527 261.856V271.709H186.401L186.294 270.809C185.796 271.521 185.134 271.876 184.307 271.876C183.703 271.876 183.203 271.723 182.807 271.416C182.416 271.105 182.125 270.674 181.934 270.123C181.743 269.572 181.647 268.932 181.647 268.203C181.647 267.492 181.756 266.861 181.974 266.309C182.196 265.754 182.512 265.316 182.921 264.996C183.334 264.676 183.832 264.516 184.414 264.516C185.17 264.516 185.781 264.783 186.247 265.316V261.703ZM184.747 265.523C184.196 265.523 183.77 265.743 183.467 266.183C183.17 266.623 183.021 267.296 183.021 268.203C183.021 269.105 183.156 269.774 183.427 270.209C183.703 270.645 184.099 270.863 184.614 270.863C184.983 270.863 185.301 270.758 185.567 270.549C185.839 270.336 186.065 270.087 186.247 269.803V266.369C186.065 266.103 185.845 265.896 185.587 265.749C185.334 265.598 185.054 265.523 184.747 265.523ZM191.352 264.683V269.629C191.352 270.074 191.441 270.394 191.619 270.589C191.801 270.781 192.081 270.876 192.459 270.876C192.814 270.876 193.154 270.772 193.479 270.563C193.808 270.354 194.063 270.105 194.245 269.816V264.683H195.525V271.709H194.425L194.332 270.783C194.061 271.138 193.723 271.409 193.319 271.596C192.919 271.783 192.512 271.876 192.099 271.876C191.419 271.876 190.91 271.692 190.572 271.323C190.239 270.954 190.072 270.443 190.072 269.789V264.683H191.352ZM201.337 270.796C201.679 270.796 201.997 270.741 202.29 270.629C202.588 270.514 202.866 270.365 203.124 270.183L203.737 271.016C203.426 271.274 203.052 271.483 202.617 271.643C202.186 271.798 201.752 271.876 201.317 271.876C200.61 271.876 200.006 271.725 199.504 271.423C199.006 271.121 198.626 270.696 198.364 270.149C198.101 269.603 197.97 268.963 197.97 268.229C197.97 267.518 198.101 266.885 198.364 266.329C198.63 265.769 199.015 265.327 199.517 265.003C200.019 264.678 200.626 264.516 201.337 264.516C202.252 264.516 203.048 264.792 203.724 265.343L203.117 266.176C202.526 265.767 201.935 265.563 201.344 265.563C200.757 265.563 200.277 265.781 199.904 266.216C199.53 266.652 199.344 267.323 199.344 268.229C199.344 269.141 199.53 269.796 199.904 270.196C200.281 270.596 200.759 270.796 201.337 270.796ZM211.775 271.349C211.526 271.509 211.226 271.636 210.875 271.729C210.528 271.827 210.177 271.876 209.822 271.876C209.039 271.876 208.439 271.672 208.022 271.263C207.608 270.854 207.402 270.323 207.402 269.669V265.643H205.808V264.683H207.402V263.096L208.682 262.943V264.683H211.082L210.935 265.643H208.682V269.656C208.682 270.043 208.779 270.334 208.975 270.529C209.175 270.725 209.506 270.823 209.968 270.823C210.226 270.823 210.464 270.794 210.682 270.736C210.904 270.674 211.108 270.592 211.295 270.489L211.775 271.349ZM216.526 270.856C217.037 270.856 217.44 270.763 217.733 270.576C218.031 270.389 218.18 270.136 218.18 269.816C218.18 269.612 218.14 269.438 218.06 269.296C217.984 269.149 217.824 269.016 217.58 268.896C217.34 268.772 216.975 268.647 216.486 268.523C216.006 268.403 215.589 268.263 215.233 268.103C214.882 267.943 214.609 267.734 214.413 267.476C214.222 267.218 214.126 266.885 214.126 266.476C214.126 265.881 214.375 265.405 214.873 265.049C215.371 264.694 216.031 264.516 216.853 264.516C217.431 264.516 217.933 264.594 218.36 264.749C218.786 264.901 219.151 265.087 219.453 265.309L218.906 266.143C218.635 265.965 218.337 265.818 218.013 265.703C217.693 265.583 217.315 265.523 216.88 265.523C216.36 265.523 215.989 265.603 215.766 265.763C215.549 265.918 215.44 266.125 215.44 266.383C215.44 266.578 215.493 266.741 215.6 266.869C215.711 266.994 215.9 267.109 216.166 267.216C216.433 267.318 216.802 267.434 217.273 267.563C217.731 267.687 218.131 267.834 218.473 268.003C218.815 268.172 219.08 268.394 219.266 268.669C219.457 268.941 219.553 269.298 219.553 269.743C219.553 270.245 219.409 270.654 219.12 270.969C218.831 271.281 218.455 271.509 217.993 271.656C217.535 271.803 217.046 271.876 216.526 271.876C215.886 271.876 215.335 271.783 214.873 271.596C214.415 271.409 214.031 271.181 213.72 270.909L214.426 270.096C214.697 270.323 215.011 270.507 215.366 270.649C215.726 270.787 216.113 270.856 216.526 270.856ZM224.791 269.429C225.115 269.429 225.387 269.541 225.604 269.763C225.822 269.981 225.931 270.245 225.931 270.556C225.931 270.734 225.907 270.914 225.858 271.096C225.813 271.274 225.733 271.485 225.618 271.729L224.558 274.156H223.484L224.131 271.489C223.82 271.272 223.664 270.958 223.664 270.549C223.664 270.238 223.771 269.974 223.984 269.756C224.202 269.538 224.471 269.429 224.791 269.429ZM231.182 273.263V260.823H234.649V261.883H232.389V272.216H234.649V273.263H231.182ZM242.394 260.823V273.263H238.927V272.216H241.187V261.883H238.927V260.823H242.394ZM248.785 269.429C249.11 269.429 249.381 269.541 249.598 269.763C249.816 269.981 249.925 270.245 249.925 270.556C249.925 270.734 249.901 270.914 249.852 271.096C249.807 271.274 249.727 271.485 249.612 271.729L248.552 274.156H247.478L248.125 271.489C247.814 271.272 247.658 270.958 247.658 270.549C247.658 270.238 247.765 269.974 247.978 269.756C248.196 269.538 248.465 269.429 248.785 269.429ZM255.337 264.683V269.629C255.337 270.074 255.425 270.394 255.603 270.589C255.785 270.781 256.065 270.876 256.443 270.876C256.799 270.876 257.139 270.772 257.463 270.563C257.792 270.354 258.048 270.105 258.23 269.816V264.683H259.51V271.709H258.41L258.317 270.783C258.045 271.138 257.708 271.409 257.303 271.596C256.903 271.783 256.497 271.876 256.083 271.876C255.403 271.876 254.894 271.692 254.557 271.323C254.223 270.954 254.057 270.443 254.057 269.789V264.683H255.337ZM264.515 270.856C265.026 270.856 265.428 270.763 265.721 270.576C266.019 270.389 266.168 270.136 266.168 269.816C266.168 269.612 266.128 269.438 266.048 269.296C265.972 269.149 265.812 269.016 265.568 268.896C265.328 268.772 264.963 268.647 264.475 268.523C263.995 268.403 263.577 268.263 263.221 268.103C262.87 267.943 262.597 267.734 262.401 267.476C262.21 267.218 262.115 266.885 262.115 266.476C262.115 265.881 262.363 265.405 262.861 265.049C263.359 264.694 264.019 264.516 264.841 264.516C265.419 264.516 265.921 264.594 266.348 264.749C266.775 264.901 267.139 265.087 267.441 265.309L266.895 266.143C266.623 265.965 266.326 265.818 266.001 265.703C265.681 265.583 265.303 265.523 264.868 265.523C264.348 265.523 263.977 265.603 263.755 265.763C263.537 265.918 263.428 266.125 263.428 266.383C263.428 266.578 263.481 266.741 263.588 266.869C263.699 266.994 263.888 267.109 264.155 267.216C264.421 267.318 264.79 267.434 265.261 267.563C265.719 267.687 266.119 267.834 266.461 268.003C266.803 268.172 267.068 268.394 267.255 268.669C267.446 268.941 267.541 269.298 267.541 269.743C267.541 270.245 267.397 270.654 267.108 270.969C266.819 271.281 266.443 271.509 265.981 271.656C265.523 271.803 265.035 271.876 264.515 271.876C263.875 271.876 263.323 271.783 262.861 271.596C262.403 271.409 262.019 271.181 261.708 270.909L262.415 270.096C262.686 270.323 262.999 270.507 263.355 270.649C263.715 270.787 264.101 270.856 264.515 270.856ZM271.086 268.629C271.122 269.403 271.33 269.965 271.713 270.316C272.099 270.667 272.557 270.843 273.086 270.843C273.437 270.843 273.759 270.789 274.053 270.683C274.346 270.576 274.644 270.421 274.946 270.216L275.526 271.023C275.197 271.285 274.817 271.494 274.386 271.649C273.955 271.801 273.508 271.876 273.046 271.876C272.344 271.876 271.746 271.723 271.253 271.416C270.764 271.105 270.39 270.674 270.133 270.123C269.879 269.572 269.753 268.932 269.753 268.203C269.753 267.496 269.879 266.865 270.133 266.309C270.39 265.754 270.753 265.316 271.219 264.996C271.686 264.676 272.242 264.516 272.886 264.516C273.793 264.516 274.506 264.827 275.026 265.449C275.55 266.067 275.813 266.914 275.813 267.989C275.813 268.109 275.81 268.225 275.806 268.336C275.802 268.447 275.795 268.545 275.786 268.629H271.086ZM272.899 265.516C272.397 265.516 271.982 265.694 271.653 266.049C271.324 266.405 271.135 266.954 271.086 267.696H274.579C274.566 266.985 274.41 266.445 274.113 266.076C273.819 265.703 273.415 265.516 272.899 265.516ZM278.117 271.709V270.763H279.184V265.629H278.117V264.683H280.164L280.397 266.329C280.664 265.747 280.991 265.301 281.377 264.989C281.768 264.674 282.275 264.516 282.897 264.516C283.102 264.516 283.282 264.532 283.437 264.563C283.597 264.594 283.76 264.634 283.924 264.683L283.724 267.149H282.737V265.683H282.731C281.677 265.683 280.922 266.436 280.464 267.943V270.763H281.891V271.709H278.117ZM291.749 270.683V271.709H286.335V270.683H288.589V263.869L286.515 265.136L285.962 264.229L288.735 262.523H289.862V270.683H291.749ZM297.833 267.043C297.833 266.145 297.731 265.365 297.527 264.703C297.327 264.036 297.02 263.425 296.607 262.869C296.193 262.314 295.669 261.745 295.033 261.163L295.727 260.469C296.447 261.061 297.062 261.669 297.573 262.296C298.089 262.923 298.482 263.621 298.753 264.389C299.029 265.154 299.167 266.038 299.167 267.043C299.167 268.047 299.029 268.934 298.753 269.703C298.482 270.467 298.089 271.163 297.573 271.789C297.062 272.416 296.447 273.025 295.727 273.616L295.033 272.923C295.669 272.336 296.193 271.765 296.607 271.209C297.025 270.649 297.333 270.038 297.533 269.376C297.733 268.714 297.833 267.936 297.833 267.043Z" fill="#254250"/>
<path d="M164.786 164.398L170.56 154.398H159.013L164.786 164.398ZM163.786 124.398V155.398H165.786V124.398H163.786Z" fill="#B03900"/>
<path d="M164.028 246.757L169.802 236.757H158.255L164.028 246.757ZM163.028 206.757V237.757H165.028V206.757H163.028Z" fill="#B03900"/>
</svg>
