<svg width="711" height="254" viewBox="0 0 711 254" fill="none" xmlns="http://www.w3.org/2000/svg">
<rect x="0.75" y="103.119" width="86.5" height="70.5" rx="5.25" fill="#15252D"/>
<rect x="0.75" y="103.119" width="86.5" height="70.5" rx="5.25" stroke="#CFD7D6" stroke-width="1.5"/>
<path d="M18.7733 122.516C19.3822 122.516 19.8933 122.594 20.3067 122.749C20.7244 122.905 21.1156 123.131 21.48 123.429L20.7667 124.269C20.4822 124.034 20.18 123.862 19.86 123.756C19.54 123.645 19.2044 123.589 18.8533 123.589C18.3689 123.589 17.9222 123.707 17.5133 123.942C17.1044 124.178 16.7756 124.565 16.5267 125.102C16.2778 125.64 16.1533 126.362 16.1533 127.269C16.1533 128.154 16.2711 128.865 16.5067 129.402C16.7467 129.936 17.0689 130.325 17.4733 130.569C17.8822 130.809 18.3378 130.929 18.84 130.929C19.3422 130.929 19.7578 130.851 20.0867 130.696C20.42 130.536 20.7089 130.354 20.9533 130.149L21.6133 130.996C21.3244 131.28 20.9489 131.525 20.4867 131.729C20.0289 131.934 19.4689 132.036 18.8067 132.036C18.0467 132.036 17.3622 131.854 16.7533 131.489C16.1489 131.125 15.6689 130.589 15.3133 129.882C14.9578 129.171 14.78 128.3 14.78 127.269C14.78 126.238 14.96 125.369 15.32 124.662C15.6844 123.956 16.1689 123.422 16.7733 123.062C17.3822 122.698 18.0489 122.516 18.7733 122.516ZM23.7114 131.869V122.682H25.038V130.722H29.198L29.0514 131.869H23.7114ZM36.6828 122.682V123.716H34.6628V130.829H36.6828V131.869H31.3094V130.829H33.3294V123.716H31.3094V122.682H36.6828ZM40.9208 123.722V126.676H44.2941V127.722H40.9208V130.836H45.0475V131.869H39.5941V122.682H44.9475L44.7941 123.722H40.9208ZM51.1589 131.869L48.0589 123.902C48.0677 124.058 48.0855 124.325 48.1122 124.702C48.1433 125.076 48.1722 125.507 48.1989 125.996C48.2255 126.48 48.2389 126.965 48.2389 127.449V131.869H47.0389V122.682H48.7922L51.9255 130.669C51.9166 130.518 51.8966 130.267 51.8655 129.916C51.8344 129.56 51.8055 129.14 51.7789 128.656C51.7566 128.171 51.7455 127.654 51.7455 127.102V122.682H52.9455V131.869H51.1589ZM58.6302 123.782V131.869H57.3102V123.782H54.4836V122.682H61.5036L61.3636 123.782H58.6302ZM69.2083 129.302C69.2083 129.836 69.0727 130.309 68.8016 130.722C68.5349 131.131 68.1461 131.454 67.6349 131.689C67.1283 131.92 66.5127 132.036 65.7883 132.036C65.0861 132.036 64.4594 131.929 63.9083 131.716C63.3572 131.502 62.8883 131.209 62.5016 130.836L63.2549 129.989C63.5749 130.287 63.9416 130.522 64.3549 130.696C64.7683 130.869 65.2505 130.956 65.8016 130.956C66.1616 130.956 66.4949 130.898 66.8016 130.782C67.1127 130.662 67.3616 130.485 67.5483 130.249C67.7394 130.009 67.8349 129.709 67.8349 129.349C67.8349 129.065 67.7772 128.822 67.6616 128.622C67.5505 128.418 67.3527 128.238 67.0683 128.082C66.7838 127.927 66.3861 127.774 65.8749 127.622C65.2527 127.44 64.7194 127.234 64.2749 127.002C63.8349 126.767 63.4972 126.485 63.2616 126.156C63.0305 125.822 62.9149 125.414 62.9149 124.929C62.9149 124.454 63.0461 124.036 63.3083 123.676C63.5705 123.311 63.9305 123.027 64.3883 122.822C64.8461 122.618 65.3727 122.516 65.9683 122.516C66.6127 122.516 67.1749 122.609 67.6549 122.796C68.1394 122.982 68.5749 123.247 68.9616 123.589L68.2283 124.416C67.8994 124.127 67.5461 123.918 67.1683 123.789C66.7949 123.656 66.4149 123.589 66.0283 123.589C65.5394 123.589 65.1238 123.696 64.7816 123.909C64.4394 124.118 64.2683 124.438 64.2683 124.869C64.2683 125.127 64.3372 125.347 64.4749 125.529C64.6127 125.707 64.8438 125.871 65.1683 126.022C65.4972 126.174 65.9461 126.334 66.5149 126.502C67.0083 126.649 67.4572 126.829 67.8616 127.042C68.2705 127.251 68.5972 127.536 68.8416 127.896C69.0861 128.251 69.2083 128.72 69.2083 129.302Z" fill="#CFD7D6"/>
<path d="M25.2712 147.783C25.6588 148.593 25.9643 149.44 26.1831 150.31C27.9231 149.798 29.0312 148.957 29.0312 147.935C29.0312 146.893 27.8812 146.038 26.0819 145.53" stroke="#CFD7D6" stroke-linecap="round" stroke-linejoin="round"/>
<path d="M18.7206 147.783C18.3834 147.059 18.1115 146.306 17.9081 145.533C16.1138 146.041 14.9706 146.895 14.9706 147.935C14.9706 148.955 16.075 149.796 17.81 150.31" stroke="#CFD7D6" stroke-linecap="round" stroke-linejoin="round"/>
<path d="M20.2656 145.109C20.7738 144.369 21.3548 143.681 22 143.057C20.6875 141.807 19.4044 141.268 18.5194 141.778C17.6169 142.299 17.4512 143.723 17.9112 145.535" stroke="#CFD7D6" stroke-linecap="round" stroke-linejoin="round"/>
<path d="M23.5413 150.782C23.0827 151.436 22.5669 152.047 22 152.61C23.3375 153.909 24.65 154.475 25.5506 153.955C26.4337 153.445 26.6094 152.069 26.185 150.311" stroke="#CFD7D6" stroke-linecap="round" stroke-linejoin="round"/>
<path d="M20.4518 150.78C19.557 150.711 18.6713 150.553 17.8081 150.307C17.3806 152.07 17.5581 153.45 18.4406 153.961C19.3425 154.482 20.6581 153.914 21.9981 152.609" stroke="#CFD7D6" stroke-linecap="round" stroke-linejoin="round"/>
<path d="M23.7275 145.109C24.5233 145.179 25.3112 145.321 26.0819 145.531C26.5387 143.723 26.3725 142.304 25.4719 141.781C24.5881 141.274 23.3088 141.808 22 143.058" stroke="#CFD7D6" stroke-linecap="round" stroke-linejoin="round"/>
<path d="M23.7275 145.108C23.1763 145.056 22.6025 145.024 22 145.024C21.3975 145.024 20.8194 145.056 20.2656 145.109C19.9813 145.518 19.7031 145.954 19.435 146.417C19.1669 146.88 18.935 147.335 18.7206 147.784C18.9506 148.288 19.2119 148.802 19.5119 149.322C19.8119 149.842 20.1294 150.329 20.4494 150.781C21.4773 150.869 22.5108 150.869 23.5388 150.782C24.212 149.841 24.7918 148.837 25.27 147.784C24.8336 146.849 24.3175 145.954 23.7275 145.108Z" stroke="#CFD7D6" stroke-linecap="round" stroke-linejoin="round"/>
<path d="M21.0625 147.936C21.0625 148.184 21.1613 148.423 21.3371 148.598C21.5129 148.774 21.7514 148.873 22 148.873C22.2486 148.873 22.4871 148.774 22.6629 148.598C22.8387 148.423 22.9375 148.184 22.9375 147.936C22.9375 147.687 22.8387 147.448 22.6629 147.273C22.4871 147.097 22.2486 146.998 22 146.998C21.7514 146.998 21.5129 147.097 21.3371 147.273C21.1613 147.448 21.0625 147.687 21.0625 147.936Z" stroke="#CFD7D6" stroke-linecap="round" stroke-linejoin="round"/>
<g clip-path="url(#clip0_451_2097)">
<path d="M37.4739 142.01V153.729L49.1927 142.01H37.4739Z" stroke="#CFD7D6" stroke-linecap="round" stroke-linejoin="round"/>
<path d="M43.3333 147.869L49.1927 153.729H37.4739" stroke="#CFD7D6" stroke-linecap="round" stroke-linejoin="round"/>
<path d="M43.3333 142.01L37.5989 147.744" stroke="#CFD7D6" stroke-linecap="round" stroke-linejoin="round"/>
</g>
<path d="M65.6938 147.243C63.25 145.725 61.0813 142.343 61.0813 142.343C61.0813 142.343 62.875 147.062 66.1688 150.162C65.1077 150.221 64.0466 150.046 63.0606 149.65C62.0746 149.253 61.1877 148.645 60.4625 147.868C60.0037 147.41 59.599 146.9 59.2563 146.35C59.2342 146.322 59.2029 146.304 59.1684 146.299C59.1339 146.293 59.0985 146.3 59.0688 146.318C59.0345 146.336 59.0069 146.365 58.99 146.4C58.9731 146.435 58.9679 146.474 58.975 146.512C59.4078 148.065 60.242 149.477 61.3938 150.606C64.0563 153.268 67.725 154.006 70.0563 152.481C70.5061 152.618 70.969 152.708 71.4375 152.75C72.65 153.375 72.65 153.662 72.65 153.662C72.826 153.456 72.9465 153.208 73.0001 152.942C73.0537 152.677 73.0386 152.402 72.9563 152.143C73.021 151.858 72.9957 151.559 72.8838 151.288C72.7719 151.017 72.5789 150.788 72.3313 150.631L71.775 150.287C72.6188 147.987 71.775 144.875 69.4313 142.537C69.275 142.375 69.1125 142.225 68.9438 142.081C68.9153 142.056 68.8786 142.042 68.8406 142.042C68.8027 142.042 68.766 142.056 68.7375 142.081C68.7084 142.104 68.6882 142.137 68.6802 142.173C68.6722 142.21 68.677 142.248 68.6938 142.281C70.0125 144.375 70.2063 146.768 69.1313 148.393C67.118 146.653 65.3851 144.612 63.9938 142.343" stroke="#CFD7D6" stroke-linecap="round" stroke-linejoin="round"/>
<rect x="150.406" y="47.8008" width="230" height="156" rx="7" stroke="#FC5200" stroke-width="2"/>
<path d="M212.929 66.9864H208.646L207.793 69.8008H206.16L209.803 58.4941H211.854L215.506 69.8008H213.783L212.929 66.9864ZM209.024 65.6818H212.552L210.796 59.8069L209.024 65.6818ZM224.939 61.9977C224.939 62.8784 224.751 63.5895 224.373 64.131C224.001 64.6671 223.484 65.0582 222.822 65.3044C222.16 65.5505 221.403 65.6736 220.55 65.6736H219.138V69.8008H217.505V58.4941H220.5C221.879 58.4941 222.962 58.7813 223.75 59.3557C224.543 59.9245 224.939 60.8052 224.939 61.9977ZM223.216 62.0141C223.216 61.1827 222.975 60.5974 222.494 60.2582C222.018 59.9191 221.406 59.7495 220.656 59.7495H219.138V64.3936H220.632C221.135 64.3936 221.581 64.3225 221.969 64.1803C222.357 64.038 222.661 63.7946 222.88 63.45C223.104 63.1054 223.216 62.6268 223.216 62.0141ZM234.742 64.1557C234.742 65.3044 234.583 66.3191 234.266 67.1998C233.949 68.0804 233.476 68.7697 232.847 69.2674C232.223 69.7598 231.446 70.0059 230.516 70.0059C229.586 70.0059 228.807 69.7652 228.178 69.2839C227.554 68.797 227.084 68.116 226.767 67.2408C226.449 66.3656 226.291 65.3427 226.291 64.1721C226.291 63.0179 226.449 62.0004 226.767 61.1198C227.084 60.2336 227.554 59.5416 228.178 59.0439C228.807 58.5406 229.586 58.289 230.516 58.289C231.446 58.289 232.223 58.5324 232.847 59.0192C233.476 59.5061 233.949 60.1898 234.266 61.0705C234.583 61.9512 234.742 62.9796 234.742 64.1557ZM233.044 64.1557C233.044 62.6678 232.847 61.5382 232.453 60.7669C232.064 59.9957 231.419 59.61 230.516 59.61C229.614 59.61 228.966 59.9984 228.572 60.7751C228.183 61.5519 227.989 62.6842 227.989 64.1721C227.989 65.6545 228.189 66.7786 228.588 67.5444C228.993 68.3047 229.636 68.6849 230.516 68.6849C231.419 68.6849 232.064 68.302 232.453 67.5362C232.847 66.7649 233.044 65.638 233.044 64.1557ZM237.546 69.8008V58.4941H239.179V68.3895H244.299L244.118 69.8008H237.546ZM247.389 69.8008V58.4941H249.022V68.3895H254.142L253.962 69.8008H247.389ZM264.273 64.1557C264.273 65.3044 264.115 66.3191 263.797 67.1998C263.48 68.0804 263.007 68.7697 262.378 69.2674C261.754 69.7598 260.978 70.0059 260.048 70.0059C259.118 70.0059 258.338 69.7652 257.709 69.2839C257.086 68.797 256.615 68.116 256.298 67.2408C255.981 66.3656 255.822 65.3427 255.822 64.1721C255.822 63.0179 255.981 62.0004 256.298 61.1198C256.615 60.2336 257.086 59.5416 257.709 59.0439C258.338 58.5406 259.118 58.289 260.048 58.289C260.978 58.289 261.754 58.5324 262.378 59.0192C263.007 59.5061 263.48 60.1898 263.797 61.0705C264.115 61.9512 264.273 62.9796 264.273 64.1557ZM262.575 64.1557C262.575 62.6678 262.378 61.5382 261.984 60.7669C261.596 59.9957 260.95 59.61 260.048 59.61C259.145 59.61 258.497 59.9984 258.103 60.7751C257.715 61.5519 257.52 62.6842 257.52 64.1721C257.52 65.6545 257.72 66.7786 258.119 67.5444C258.524 68.3047 259.167 68.6849 260.048 68.6849C260.95 68.6849 261.596 68.302 261.984 67.5362C262.378 66.7649 262.575 65.638 262.575 64.1557ZM280.687 58.289C281.436 58.289 282.065 58.3847 282.574 58.5762C283.088 58.7676 283.57 59.0466 284.018 59.4131L283.14 60.4469C282.79 60.157 282.418 59.9464 282.024 59.8151C281.63 59.6784 281.217 59.61 280.785 59.61C280.189 59.61 279.639 59.755 279.136 60.0449C278.633 60.3348 278.228 60.8107 277.922 61.4726C277.615 62.1345 277.462 63.0233 277.462 64.1392C277.462 65.2278 277.607 66.103 277.897 66.7649C278.193 67.4213 278.589 67.8999 279.087 68.2008C279.59 68.4962 280.151 68.6439 280.769 68.6439C281.387 68.6439 281.899 68.5481 282.303 68.3567C282.714 68.1598 283.069 67.9355 283.37 67.6839L284.182 68.7259C283.827 69.076 283.364 69.3768 282.796 69.6285C282.232 69.8801 281.543 70.0059 280.728 70.0059C279.793 70.0059 278.95 69.7816 278.201 69.3331C277.457 68.8845 276.866 68.2254 276.428 67.3557C275.991 66.4804 275.772 65.4083 275.772 64.1392C275.772 62.8702 275.994 61.8008 276.437 60.931C276.885 60.0613 277.481 59.4049 278.225 58.9618C278.975 58.5133 279.795 58.289 280.687 58.289ZM286.764 69.8008V58.4941H288.397V68.3895H293.517L293.337 69.8008H286.764ZM303.648 64.1557C303.648 65.3044 303.49 66.3191 303.172 67.1998C302.855 68.0804 302.382 68.7697 301.753 69.2674C301.129 69.7598 300.353 70.0059 299.423 70.0059C298.493 70.0059 297.713 69.7652 297.084 69.2839C296.461 68.797 295.99 68.116 295.673 67.2408C295.356 66.3656 295.197 65.3427 295.197 64.1721C295.197 63.0179 295.356 62.0004 295.673 61.1198C295.99 60.2336 296.461 59.5416 297.084 59.0439C297.713 58.5406 298.493 58.289 299.423 58.289C300.353 58.289 301.129 58.5324 301.753 59.0192C302.382 59.5061 302.855 60.1898 303.172 61.0705C303.49 61.9512 303.648 62.9796 303.648 64.1557ZM301.95 64.1557C301.95 62.6678 301.753 61.5382 301.359 60.7669C300.971 59.9957 300.325 59.61 299.423 59.61C298.52 59.61 297.872 59.9984 297.478 60.7751C297.09 61.5519 296.895 62.6842 296.895 64.1721C296.895 65.6545 297.095 66.7786 297.494 67.5444C297.899 68.3047 298.542 68.6849 299.423 68.6849C300.325 68.6849 300.971 68.302 301.359 67.5362C301.753 66.7649 301.95 65.638 301.95 64.1557ZM313.082 58.4941V66.1167C313.082 66.8825 312.926 67.558 312.614 68.1433C312.308 68.7286 311.867 69.1854 311.293 69.5136C310.724 69.8418 310.043 70.0059 309.25 70.0059C308.451 70.0059 307.768 69.8418 307.199 69.5136C306.63 69.1854 306.195 68.7286 305.894 68.1433C305.599 67.558 305.451 66.8825 305.451 66.1167V58.4941H307.076V65.9936C307.076 67.7659 307.8 68.6521 309.25 68.6521C310.71 68.6521 311.441 67.7659 311.441 65.9936V58.4941H313.082ZM323.311 64.09C323.311 65.2661 323.158 66.2288 322.852 66.9782C322.545 67.7276 322.138 68.3074 321.629 68.7177C321.126 69.1225 320.571 69.4042 319.963 69.5628C319.356 69.7215 318.749 69.8008 318.142 69.8008H315.475V58.4941H317.961C318.634 58.4941 319.288 58.568 319.922 58.7157C320.557 58.8633 321.129 59.1369 321.637 59.5362C322.151 59.93 322.559 60.4934 322.86 61.2264C323.161 61.9594 323.311 62.9139 323.311 64.09ZM321.588 64.09C321.588 63.1437 321.49 62.3833 321.293 61.809C321.101 61.2346 320.844 60.8025 320.521 60.5126C320.199 60.2227 319.843 60.0285 319.455 59.93C319.072 59.8316 318.689 59.7823 318.306 59.7823H317.1V68.529H318.322C318.722 68.529 319.116 68.4661 319.504 68.3403C319.892 68.2145 320.242 67.9902 320.554 67.6674C320.871 67.3447 321.123 66.8934 321.309 66.3136C321.495 65.7338 321.588 64.9926 321.588 64.09Z" fill="#FC5200"/>
<rect x="180.156" y="103.551" width="170.5" height="70.5" rx="35.25" fill="#15252D"/>
<rect x="180.156" y="103.551" width="170.5" height="70.5" rx="35.25" stroke="#FC5200" stroke-width="1.5"/>
<g clip-path="url(#clip1_451_2097)">
<path d="M199.804 139.696C202.397 140.508 203.942 142.071 203.942 145.02M203.942 145.02V145.832M203.942 145.02C203.942 142.071 205.486 140.508 208.079 139.696M203.942 145.02V135.051M202.474 135.051C202.413 135.051 202.353 135.034 202.3 135.004C202.248 134.973 202.204 134.929 202.174 134.876C202.144 134.823 202.128 134.763 202.128 134.702C202.129 134.642 202.145 134.582 202.176 134.529L203.644 131.926C203.675 131.874 203.718 131.831 203.771 131.801C203.823 131.772 203.882 131.756 203.942 131.756C204.002 131.756 204.061 131.772 204.113 131.801C204.165 131.831 204.209 131.874 204.239 131.926L205.708 134.529C205.739 134.581 205.756 134.641 205.756 134.702C205.756 134.763 205.741 134.823 205.71 134.876C205.68 134.929 205.636 134.973 205.584 135.004C205.531 135.034 205.471 135.051 205.41 135.051H202.474ZM200.449 138.138C200.473 138.082 200.48 138.02 200.472 137.96C200.464 137.899 200.44 137.842 200.403 137.794C200.366 137.746 200.316 137.708 200.26 137.685C200.203 137.662 200.142 137.654 200.081 137.662L197.206 138.067C197.146 138.075 197.09 138.099 197.042 138.136C196.994 138.173 196.957 138.221 196.934 138.277C196.911 138.333 196.903 138.394 196.911 138.453C196.918 138.513 196.942 138.57 196.978 138.618L198.723 140.935C198.76 140.984 198.809 141.022 198.865 141.045C198.922 141.069 198.983 141.077 199.044 141.07C199.104 141.062 199.162 141.038 199.21 141.001C199.259 140.964 199.297 140.915 199.32 140.859L199.882 139.499L200.449 138.138ZM207.434 138.138C207.411 138.082 207.403 138.02 207.411 137.96C207.42 137.899 207.443 137.842 207.481 137.794C207.518 137.746 207.568 137.708 207.624 137.685C207.68 137.662 207.742 137.654 207.802 137.662L210.677 138.067C210.737 138.075 210.794 138.099 210.842 138.136C210.889 138.173 210.927 138.221 210.95 138.277C210.973 138.333 210.981 138.394 210.973 138.453C210.965 138.513 210.942 138.57 210.906 138.618L209.161 140.935C209.124 140.984 209.075 141.022 209.018 141.045C208.962 141.069 208.901 141.077 208.84 141.07C208.78 141.062 208.722 141.038 208.674 141.001C208.625 140.964 208.587 140.915 208.564 140.859L208.001 139.499L207.434 138.138Z" stroke="#FC5200" stroke-linecap="round" stroke-linejoin="round"/>
</g>
<path d="M227.09 143.467C225.966 143.467 225.077 143.07 224.423 142.274C223.77 141.479 223.443 140.287 223.443 138.701C223.443 137.91 223.55 137.219 223.763 136.627C223.977 136.032 224.266 135.536 224.63 135.141C224.999 134.741 225.417 134.443 225.883 134.247C226.354 134.047 226.846 133.947 227.357 133.947C227.966 133.947 228.472 134.036 228.877 134.214C229.286 134.392 229.67 134.647 230.03 134.981L229.257 135.781C228.71 135.274 228.083 135.021 227.377 135.021C226.941 135.021 226.53 135.136 226.143 135.367C225.757 135.599 225.443 135.983 225.203 136.521C224.963 137.059 224.843 137.785 224.843 138.701C224.843 140.012 225.041 140.956 225.437 141.534C225.832 142.107 226.414 142.394 227.183 142.394C227.77 142.394 228.319 142.254 228.83 141.974V139.287H227.13L226.977 138.234H230.13V142.647C229.708 142.883 229.257 143.079 228.777 143.234C228.301 143.39 227.739 143.467 227.09 143.467ZM238.101 136.721C238.101 137.41 237.89 137.965 237.468 138.387C237.05 138.805 236.535 139.094 235.921 139.254L238.595 143.301H237.028L234.608 139.427H233.468V143.301H232.141V134.114H234.588C235.739 134.114 236.613 134.334 237.208 134.774C237.804 135.21 238.101 135.859 238.101 136.721ZM236.695 136.721C236.695 136.156 236.53 135.75 236.201 135.501C235.877 135.252 235.377 135.127 234.701 135.127H233.468V138.421H234.715C235.346 138.421 235.833 138.292 236.175 138.034C236.521 137.772 236.695 137.334 236.695 136.721ZM244.586 141.014H241.106L240.413 143.301H239.086L242.046 134.114H243.713L246.679 143.301H245.279L244.586 141.014ZM241.413 139.954H244.279L242.853 135.181L241.413 139.954ZM254.344 136.961C254.344 137.676 254.191 138.254 253.884 138.694C253.582 139.13 253.162 139.447 252.624 139.647C252.086 139.847 251.471 139.947 250.778 139.947H249.631V143.301H248.304V134.114H250.738C251.858 134.114 252.738 134.347 253.378 134.814C254.022 135.276 254.344 135.992 254.344 136.961ZM252.944 136.974C252.944 136.299 252.749 135.823 252.358 135.547C251.971 135.272 251.473 135.134 250.864 135.134H249.631V138.907H250.844C251.253 138.907 251.615 138.85 251.931 138.734C252.246 138.619 252.493 138.421 252.671 138.141C252.853 137.861 252.944 137.472 252.944 136.974ZM260.509 143.301V139.021H257.242V143.301H255.922V134.114H257.242V137.934H260.509V134.114H261.829V143.301H260.509ZM270.307 138.714C270.307 139.647 270.178 140.472 269.92 141.187C269.662 141.903 269.278 142.463 268.767 142.867C268.26 143.267 267.629 143.467 266.874 143.467C266.118 143.467 265.485 143.272 264.974 142.881C264.467 142.485 264.085 141.932 263.827 141.221C263.569 140.51 263.44 139.679 263.44 138.727C263.44 137.79 263.569 136.963 263.827 136.247C264.085 135.527 264.467 134.965 264.974 134.561C265.485 134.152 266.118 133.947 266.874 133.947C267.629 133.947 268.26 134.145 268.767 134.541C269.278 134.936 269.662 135.492 269.92 136.207C270.178 136.923 270.307 137.759 270.307 138.714ZM268.927 138.714C268.927 137.505 268.767 136.587 268.447 135.961C268.131 135.334 267.607 135.021 266.874 135.021C266.14 135.021 265.614 135.336 265.294 135.967C264.978 136.599 264.82 137.519 264.82 138.727C264.82 139.932 264.982 140.845 265.307 141.467C265.636 142.085 266.158 142.394 266.874 142.394C267.607 142.394 268.131 142.083 268.447 141.461C268.767 140.834 268.927 139.919 268.927 138.714ZM278.092 140.734C278.092 141.267 277.956 141.741 277.685 142.154C277.418 142.563 277.029 142.885 276.518 143.121C276.012 143.352 275.396 143.467 274.672 143.467C273.969 143.467 273.343 143.361 272.792 143.147C272.241 142.934 271.772 142.641 271.385 142.267L272.138 141.421C272.458 141.719 272.825 141.954 273.238 142.127C273.652 142.301 274.134 142.387 274.685 142.387C275.045 142.387 275.378 142.33 275.685 142.214C275.996 142.094 276.245 141.916 276.432 141.681C276.623 141.441 276.718 141.141 276.718 140.781C276.718 140.496 276.661 140.254 276.545 140.054C276.434 139.85 276.236 139.67 275.952 139.514C275.667 139.359 275.269 139.205 274.758 139.054C274.136 138.872 273.603 138.665 273.158 138.434C272.718 138.199 272.381 137.916 272.145 137.587C271.914 137.254 271.798 136.845 271.798 136.361C271.798 135.885 271.929 135.467 272.192 135.107C272.454 134.743 272.814 134.459 273.272 134.254C273.729 134.05 274.256 133.947 274.852 133.947C275.496 133.947 276.058 134.041 276.538 134.227C277.023 134.414 277.458 134.679 277.845 135.021L277.112 135.847C276.783 135.559 276.429 135.35 276.052 135.221C275.678 135.087 275.298 135.021 274.912 135.021C274.423 135.021 274.007 135.127 273.665 135.341C273.323 135.55 273.152 135.87 273.152 136.301C273.152 136.559 273.221 136.779 273.358 136.961C273.496 137.139 273.727 137.303 274.052 137.454C274.381 137.605 274.829 137.765 275.398 137.934C275.892 138.081 276.341 138.261 276.745 138.474C277.154 138.683 277.481 138.967 277.725 139.327C277.969 139.683 278.092 140.152 278.092 140.734ZM294.088 136.721C294.088 137.41 293.877 137.965 293.454 138.387C293.037 138.805 292.521 139.094 291.908 139.254L294.581 143.301H293.014L290.594 139.427H289.454V143.301H288.128V134.114H290.574C291.726 134.114 292.599 134.334 293.194 134.774C293.79 135.21 294.088 135.859 294.088 136.721ZM292.681 136.721C292.681 136.156 292.517 135.75 292.188 135.501C291.863 135.252 291.363 135.127 290.688 135.127H289.454V138.421H290.701C291.332 138.421 291.819 138.292 292.161 138.034C292.508 137.772 292.681 137.334 292.681 136.721ZM302.299 138.714C302.299 139.647 302.17 140.472 301.912 141.187C301.655 141.903 301.27 142.463 300.759 142.867C300.252 143.267 299.621 143.467 298.866 143.467C298.11 143.467 297.477 143.272 296.966 142.881C296.459 142.485 296.077 141.932 295.819 141.221C295.561 140.51 295.432 139.679 295.432 138.727C295.432 137.79 295.561 136.963 295.819 136.247C296.077 135.527 296.459 134.965 296.966 134.561C297.477 134.152 298.11 133.947 298.866 133.947C299.621 133.947 300.252 134.145 300.759 134.541C301.27 134.936 301.655 135.492 301.912 136.207C302.17 136.923 302.299 137.759 302.299 138.714ZM300.919 138.714C300.919 137.505 300.759 136.587 300.439 135.961C300.124 135.334 299.599 135.021 298.866 135.021C298.132 135.021 297.606 135.336 297.286 135.967C296.97 136.599 296.812 137.519 296.812 138.727C296.812 139.932 296.975 140.845 297.299 141.467C297.628 142.085 298.15 142.394 298.866 142.394C299.599 142.394 300.124 142.083 300.439 141.461C300.759 140.834 300.919 139.919 300.919 138.714ZM309.964 134.114V140.307C309.964 140.93 309.837 141.479 309.584 141.954C309.335 142.43 308.977 142.801 308.51 143.067C308.048 143.334 307.495 143.467 306.85 143.467C306.202 143.467 305.646 143.334 305.184 143.067C304.722 142.801 304.368 142.43 304.124 141.954C303.884 141.479 303.764 140.93 303.764 140.307V134.114H305.084V140.207C305.084 141.647 305.673 142.367 306.85 142.367C308.037 142.367 308.63 141.647 308.63 140.207V134.114H309.964ZM315.502 135.214V143.301H314.182V135.214H311.355V134.114H318.375L318.235 135.214H315.502ZM321.787 135.154V138.107H325.16V139.154H321.787V142.267H325.913V143.301H320.46V134.114H325.813L325.66 135.154H321.787ZM334.078 136.721C334.078 137.41 333.867 137.965 333.445 138.387C333.027 138.805 332.511 139.094 331.898 139.254L334.571 143.301H333.005L330.585 139.427H329.445V143.301H328.118V134.114H330.565C331.716 134.114 332.589 134.334 333.185 134.774C333.78 135.21 334.078 135.859 334.078 136.721ZM332.671 136.721C332.671 136.156 332.507 135.75 332.178 135.501C331.854 135.252 331.354 135.127 330.678 135.127H329.445V138.421H330.691C331.322 138.421 331.809 138.292 332.151 138.034C332.498 137.772 332.671 137.334 332.671 136.721Z" fill="#FC5200"/>
<rect x="443.88" y="1.80078" width="266" height="250.94" rx="7" stroke="#5C95B2" stroke-width="2"/>
<path d="M488.624 19.4603V23.8008H486.983V19.4767L483.184 12.4941H484.981L487.836 18.0244L490.724 12.4941H492.423L488.624 19.4603ZM501.873 18.1557C501.873 19.3044 501.714 20.3191 501.397 21.1998C501.08 22.0804 500.607 22.7697 499.977 23.2674C499.354 23.7598 498.577 24.0059 497.647 24.0059C496.717 24.0059 495.938 23.7652 495.309 23.2839C494.685 22.797 494.215 22.116 493.897 21.2408C493.58 20.3656 493.422 19.3427 493.422 18.1721C493.422 17.0179 493.58 16.0004 493.897 15.1198C494.215 14.2336 494.685 13.5416 495.309 13.0439C495.938 12.5406 496.717 12.289 497.647 12.289C498.577 12.289 499.354 12.5324 499.977 13.0192C500.607 13.5061 501.08 14.1898 501.397 15.0705C501.714 15.9512 501.873 16.9796 501.873 18.1557ZM500.174 18.1557C500.174 16.6678 499.977 15.5382 499.584 14.7669C499.195 13.9957 498.55 13.61 497.647 13.61C496.745 13.61 496.096 13.9984 495.703 14.7751C495.314 15.5519 495.12 16.6842 495.12 18.1721C495.12 19.6545 495.32 20.7786 495.719 21.5444C496.124 22.3047 496.767 22.6849 497.647 22.6849C498.55 22.6849 499.195 22.302 499.584 21.5362C499.977 20.7649 500.174 19.638 500.174 18.1557ZM511.306 12.4941V20.1167C511.306 20.8825 511.15 21.558 510.839 22.1433C510.532 22.7286 510.092 23.1854 509.518 23.5136C508.949 23.8418 508.268 24.0059 507.475 24.0059C506.676 24.0059 505.992 23.8418 505.423 23.5136C504.854 23.1854 504.419 22.7286 504.119 22.1433C503.823 21.558 503.676 20.8825 503.676 20.1167V12.4941H505.3V19.9936C505.3 21.7659 506.025 22.6521 507.475 22.6521C508.935 22.6521 509.665 21.7659 509.665 19.9936V12.4941H511.306ZM521.298 15.7023C521.298 16.5502 521.038 17.2339 520.518 17.7536C520.004 18.2678 519.37 18.6233 518.615 18.8203L521.905 23.8008H519.977L516.998 19.0336H515.595V23.8008H513.962V12.4941H516.974C518.39 12.4941 519.465 12.7649 520.198 13.3064C520.931 13.8425 521.298 14.6411 521.298 15.7023ZM519.566 15.7023C519.566 15.0076 519.364 14.5071 518.959 14.2008C518.56 13.8945 517.945 13.7413 517.113 13.7413H515.595V17.7946H517.13C517.906 17.7946 518.505 17.636 518.926 17.3187C519.353 16.996 519.566 16.4572 519.566 15.7023ZM540.329 12.4941V13.7659H537.843V22.5208H540.329V23.8008H533.716V22.5208H536.202V13.7659H533.716V12.4941H540.329ZM548.302 23.8008L544.486 13.9957C544.497 14.1871 544.519 14.5153 544.552 14.9803C544.59 15.4398 544.626 15.9704 544.659 16.5721C544.692 17.1683 544.708 17.7645 544.708 18.3608V23.8008H543.231V12.4941H545.389L549.245 22.3239C549.234 22.1379 549.21 21.8288 549.172 21.3967C549.133 20.9591 549.098 20.4421 549.065 19.8459C549.038 19.2497 549.024 18.6124 549.024 17.9341V12.4941H550.501V23.8008H548.302ZM555.602 13.7741V17.5813H559.959V18.8531H555.602V23.8008H553.977V12.4941H560.763L560.574 13.7741H555.602ZM570.517 15.7023C570.517 16.5502 570.257 17.2339 569.737 17.7536C569.223 18.2678 568.588 18.6233 567.833 18.8203L571.124 23.8008H569.195L566.217 19.0336H564.814V23.8008H563.181V12.4941H566.192C567.609 12.4941 568.684 12.7649 569.417 13.3064C570.15 13.8425 570.517 14.6411 570.517 15.7023ZM568.785 15.7023C568.785 15.0076 568.583 14.5071 568.178 14.2008C567.779 13.8945 567.163 13.7413 566.332 13.7413H564.814V17.7946H566.348C567.125 17.7946 567.724 17.636 568.145 17.3187C568.572 16.996 568.785 16.4572 568.785 15.7023ZM578.498 20.9864H574.215L573.361 23.8008H571.728L575.372 12.4941H577.423L581.074 23.8008H579.351L578.498 20.9864ZM574.592 19.6818H578.12L576.364 13.8069L574.592 19.6818ZM590.204 20.6418C590.204 21.2982 590.037 21.8808 589.704 22.3895C589.375 22.8927 588.897 23.2893 588.268 23.5792C587.644 23.8637 586.886 24.0059 585.995 24.0059C585.131 24.0059 584.359 23.8746 583.681 23.6121C583.003 23.3495 582.426 22.9885 581.95 22.529L582.877 21.4869C583.271 21.8534 583.722 22.1433 584.231 22.3567C584.739 22.57 585.333 22.6767 586.011 22.6767C586.454 22.6767 586.865 22.6056 587.242 22.4633C587.625 22.3157 587.931 22.0968 588.161 21.8069C588.396 21.5116 588.514 21.1423 588.514 20.6992C588.514 20.3492 588.443 20.051 588.3 19.8049C588.164 19.5533 587.92 19.3317 587.57 19.1403C587.22 18.9488 586.731 18.7601 586.101 18.5741C585.336 18.3498 584.679 18.0955 584.132 17.811C583.591 17.5211 583.175 17.1738 582.885 16.769C582.601 16.3587 582.458 15.8555 582.458 15.2592C582.458 14.6739 582.62 14.1598 582.942 13.7167C583.265 13.2681 583.708 12.918 584.272 12.6664C584.835 12.4148 585.483 12.289 586.216 12.289C587.009 12.289 587.701 12.4039 588.292 12.6336C588.888 12.8633 589.425 13.1888 589.9 13.61L588.998 14.6274C588.593 14.2719 588.158 14.0148 587.693 13.8562C587.234 13.6921 586.766 13.61 586.29 13.61C585.688 13.61 585.177 13.7413 584.756 14.0039C584.335 14.261 584.124 14.6548 584.124 15.1854C584.124 15.5027 584.209 15.7734 584.378 15.9977C584.548 16.2165 584.832 16.4189 585.232 16.6049C585.637 16.7909 586.189 16.9878 586.889 17.1957C587.496 17.3762 588.049 17.5977 588.547 17.8603C589.05 18.1174 589.452 18.4674 589.753 18.9105C590.054 19.3481 590.204 19.9252 590.204 20.6418ZM596.872 13.848V23.8008H595.248V13.848H591.769V12.4941H600.409L600.236 13.848H596.872ZM609.892 15.7023C609.892 16.5502 609.632 17.2339 609.112 17.7536C608.598 18.2678 607.963 18.6233 607.208 18.8203L610.499 23.8008H608.57L605.592 19.0336H604.189V23.8008H602.556V12.4941H605.567C606.984 12.4941 608.059 12.7649 608.792 13.3064C609.525 13.8425 609.892 14.6411 609.892 15.7023ZM608.16 15.7023C608.16 15.0076 607.958 14.5071 607.553 14.2008C607.154 13.8945 606.538 13.7413 605.707 13.7413H604.189V17.7946H605.723C606.5 17.7946 607.099 17.636 607.52 17.3187C607.947 16.996 608.16 16.4572 608.16 15.7023ZM619.588 12.4941V20.1167C619.588 20.8825 619.432 21.558 619.12 22.1433C618.814 22.7286 618.373 23.1854 617.799 23.5136C617.23 23.8418 616.549 24.0059 615.756 24.0059C614.957 24.0059 614.273 23.8418 613.705 23.5136C613.136 23.1854 612.701 22.7286 612.4 22.1433C612.105 21.558 611.957 20.8825 611.957 20.1167V12.4941H613.581V19.9936C613.581 21.7659 614.306 22.6521 615.756 22.6521C617.216 22.6521 617.947 21.7659 617.947 19.9936V12.4941H619.588ZM626.568 12.289C627.317 12.289 627.946 12.3847 628.455 12.5762C628.969 12.7676 629.45 13.0466 629.899 13.4131L629.021 14.4469C628.671 14.157 628.299 13.9464 627.905 13.8151C627.511 13.6784 627.098 13.61 626.666 13.61C626.07 13.61 625.52 13.755 625.017 14.0449C624.514 14.3348 624.109 14.8107 623.803 15.4726C623.496 16.1345 623.343 17.0233 623.343 18.1392C623.343 19.2278 623.488 20.103 623.778 20.7649C624.073 21.4213 624.47 21.8999 624.968 22.2008C625.471 22.4962 626.032 22.6439 626.65 22.6439C627.268 22.6439 627.779 22.5481 628.184 22.3567C628.594 22.1598 628.95 21.9355 629.251 21.6839L630.063 22.7259C629.708 23.076 629.245 23.3768 628.676 23.6285C628.113 23.8801 627.424 24.0059 626.609 24.0059C625.673 24.0059 624.831 23.7816 624.082 23.3331C623.338 22.8845 622.747 22.2254 622.309 21.3557C621.872 20.4804 621.653 19.4083 621.653 18.1392C621.653 16.8702 621.874 15.8008 622.317 14.931C622.766 14.0613 623.362 13.4049 624.106 12.9618C624.856 12.5133 625.676 12.289 626.568 12.289ZM636.247 13.848V23.8008H634.623V13.848H631.144V12.4941H639.784L639.611 13.848H636.247ZM649.119 12.4941V20.1167C649.119 20.8825 648.963 21.558 648.651 22.1433C648.345 22.7286 647.904 23.1854 647.33 23.5136C646.761 23.8418 646.08 24.0059 645.287 24.0059C644.488 24.0059 643.805 23.8418 643.236 23.5136C642.667 23.1854 642.232 22.7286 641.931 22.1433C641.636 21.558 641.488 20.8825 641.488 20.1167V12.4941H643.113V19.9936C643.113 21.7659 643.837 22.6521 645.287 22.6521C646.748 22.6521 647.478 21.7659 647.478 19.9936V12.4941H649.119ZM659.11 15.7023C659.11 16.5502 658.85 17.2339 658.331 17.7536C657.817 18.2678 657.182 18.6233 656.427 18.8203L659.717 23.8008H657.789L654.811 19.0336H653.408V23.8008H651.775V12.4941H654.786C656.203 12.4941 657.278 12.7649 658.011 13.3064C658.744 13.8425 659.11 14.6411 659.11 15.7023ZM657.379 15.7023C657.379 15.0076 657.177 14.5071 656.772 14.2008C656.372 13.8945 655.757 13.7413 654.926 13.7413H653.408V17.7946H654.942C655.719 17.7946 656.318 17.636 656.739 17.3187C657.166 16.996 657.379 16.4572 657.379 15.7023ZM663.67 13.7741V17.409H667.822V18.6972H663.67V22.529H668.749V23.8008H662.037V12.4941H668.626L668.437 13.7741H663.67Z" fill="#5C95B2"/>
<rect x="473.63" y="57.5508" width="206.5" height="71.2449" rx="5.25" fill="#15252D"/>
<rect x="473.63" y="57.5508" width="206.5" height="71.2449" rx="5.25" stroke="#FAD000" stroke-width="1.5"/>
<g clip-path="url(#clip2_451_2097)">
<path d="M535.488 95.8291H527.337M535.638 96.5516L532.346 98.5466M526.26 94.8916C526.55 94.8916 526.828 95.0068 527.034 95.212C527.239 95.4171 527.354 95.6953 527.354 95.9854C527.354 96.2754 527.239 96.5536 527.034 96.7587C526.828 96.9639 526.55 97.0791 526.26 97.0791C525.97 97.0791 525.692 96.9639 525.487 96.7587C525.282 96.5536 525.166 96.2754 525.166 95.9854C525.166 95.6953 525.282 95.4171 525.487 95.212C525.692 95.0068 525.97 94.8916 526.26 94.8916ZM526.26 94.8916V91.4522M536.573 94.8916C536.863 94.8916 537.141 95.0068 537.346 95.212C537.551 95.4171 537.666 95.6953 537.666 95.9854C537.666 96.2754 537.551 96.5536 537.346 96.7587C537.141 96.9639 536.863 97.0791 536.573 97.0791C536.283 97.0791 536.004 96.9639 535.799 96.7587C535.594 96.5536 535.479 96.2754 535.479 95.9854C535.479 95.6953 535.594 95.4171 535.799 95.212C536.004 95.0068 536.283 94.8916 536.573 94.8916ZM536.573 94.8916V91.4522M531.009 88.2447L526.963 95.1604M531.824 88.2447L535.87 95.161M530.481 87.8022L527.195 89.7941M527.195 96.5516L530.486 98.5466M532.352 87.8022L535.638 89.7941M531.416 88.3291C531.707 88.3291 531.985 88.2139 532.19 88.0087C532.395 87.8036 532.51 87.5254 532.51 87.2354C532.51 86.9453 532.395 86.6671 532.19 86.462C531.985 86.2568 531.707 86.1416 531.416 86.1416C531.126 86.1416 530.848 86.2568 530.643 86.462C530.438 86.6671 530.323 86.9453 530.323 87.2354C530.323 87.5254 530.438 87.8036 530.643 88.0087C530.848 88.2139 531.126 88.3291 531.416 88.3291ZM526.26 91.4541C526.55 91.4541 526.828 91.3389 527.034 91.1337C527.239 90.9286 527.354 90.6504 527.354 90.3604C527.354 90.0703 527.239 89.7921 527.034 89.587C526.828 89.3818 526.55 89.2666 526.26 89.2666C525.97 89.2666 525.692 89.3818 525.487 89.587C525.282 89.7921 525.166 90.0703 525.166 90.3604C525.166 90.6504 525.282 90.9286 525.487 91.1337C525.692 91.3389 525.97 91.4541 526.26 91.4541ZM536.573 91.4541C536.863 91.4541 537.141 91.3389 537.346 91.1337C537.551 90.9286 537.666 90.6504 537.666 90.3604C537.666 90.0703 537.551 89.7921 537.346 89.587C537.141 89.3818 536.863 89.2666 536.573 89.2666C536.283 89.2666 536.004 89.3818 535.799 89.587C535.594 89.7921 535.479 90.0703 535.479 90.3604C535.479 90.6504 535.594 90.9286 535.799 91.1337C536.004 91.3389 536.283 91.4541 536.573 91.4541ZM531.416 100.204C531.707 100.204 531.985 100.089 532.19 99.8837C532.395 99.6786 532.51 99.4004 532.51 99.1104C532.51 98.8203 532.395 98.5421 532.19 98.337C531.985 98.1318 531.707 98.0166 531.416 98.0166C531.126 98.0166 530.848 98.1318 530.643 98.337C530.438 98.5421 530.323 98.8203 530.323 99.1104C530.323 99.4004 530.438 99.6786 530.643 99.8837C530.848 100.089 531.126 100.204 531.416 100.204Z" stroke="#FAD000" stroke-linecap="round" stroke-linejoin="round"/>
</g>
<path d="M557.564 94.6062C557.564 95.1395 557.429 95.6129 557.158 96.0262C556.891 96.4351 556.502 96.7573 555.991 96.9929C555.484 97.224 554.869 97.3395 554.144 97.3395C553.442 97.3395 552.815 97.2329 552.264 97.0195C551.713 96.8062 551.244 96.5129 550.858 96.1395L551.611 95.2929C551.931 95.5906 552.298 95.8262 552.711 95.9995C553.124 96.1729 553.607 96.2595 554.158 96.2595C554.518 96.2595 554.851 96.2017 555.158 96.0862C555.469 95.9662 555.718 95.7884 555.904 95.5529C556.095 95.3129 556.191 95.0129 556.191 94.6529C556.191 94.3684 556.133 94.1262 556.018 93.9262C555.907 93.7217 555.709 93.5417 555.424 93.3862C555.14 93.2306 554.742 93.0773 554.231 92.9262C553.609 92.744 553.075 92.5373 552.631 92.3062C552.191 92.0706 551.853 91.7884 551.618 91.4595C551.387 91.1262 551.271 90.7173 551.271 90.2329C551.271 89.7573 551.402 89.3395 551.664 88.9795C551.927 88.6151 552.287 88.3306 552.744 88.1262C553.202 87.9217 553.729 87.8195 554.324 87.8195C554.969 87.8195 555.531 87.9129 556.011 88.0995C556.495 88.2862 556.931 88.5506 557.318 88.8929L556.584 89.7195C556.255 89.4306 555.902 89.2217 555.524 89.0929C555.151 88.9595 554.771 88.8929 554.384 88.8929C553.895 88.8929 553.48 88.9995 553.138 89.2129C552.795 89.4217 552.624 89.7417 552.624 90.1729C552.624 90.4306 552.693 90.6506 552.831 90.8329C552.969 91.0106 553.2 91.1751 553.524 91.3262C553.853 91.4773 554.302 91.6373 554.871 91.8062C555.364 91.9529 555.813 92.1329 556.218 92.3462C556.627 92.5551 556.953 92.8395 557.198 93.1995C557.442 93.5551 557.564 94.024 557.564 94.6062ZM565.442 87.9862V94.1795C565.442 94.8017 565.316 95.3506 565.062 95.8262C564.813 96.3017 564.456 96.6729 563.989 96.9395C563.527 97.2062 562.973 97.3395 562.329 97.3395C561.68 97.3395 561.125 97.2062 560.662 96.9395C560.2 96.6729 559.847 96.3017 559.602 95.8262C559.362 95.3506 559.242 94.8017 559.242 94.1795V87.9862H560.562V94.0795C560.562 95.5195 561.151 96.2395 562.329 96.2395C563.516 96.2395 564.109 95.5195 564.109 94.0795V87.9862H565.442ZM573.6 94.5395C573.6 95.0462 573.5 95.4684 573.3 95.8062C573.105 96.144 572.838 96.4129 572.5 96.6129C572.167 96.8129 571.792 96.9573 571.374 97.0462C570.96 97.1306 570.536 97.1729 570.1 97.1729H567.54V87.9862H569.907C570.32 87.9862 570.723 88.024 571.114 88.0995C571.505 88.1706 571.858 88.2951 572.174 88.4729C572.489 88.6462 572.738 88.884 572.92 89.1862C573.107 89.484 573.2 89.8573 573.2 90.3062C573.2 90.6929 573.118 91.024 572.954 91.2995C572.794 91.5706 572.585 91.7906 572.327 91.9595C572.069 92.124 571.794 92.2395 571.5 92.3062C571.834 92.364 572.16 92.4706 572.48 92.6262C572.805 92.7773 573.072 93.0062 573.28 93.3129C573.494 93.6151 573.6 94.024 573.6 94.5395ZM571.854 90.3929C571.854 89.8951 571.698 89.5417 571.387 89.3329C571.08 89.1195 570.656 89.0129 570.114 89.0129H568.86V91.8529H570.22C570.749 91.8529 571.154 91.7395 571.434 91.5129C571.714 91.2817 571.854 90.9084 571.854 90.3929ZM572.214 94.5595C572.214 94.1195 572.127 93.7795 571.954 93.5395C571.785 93.2951 571.556 93.1262 571.267 93.0329C570.983 92.9395 570.667 92.8929 570.32 92.8929H568.86V96.1129H570.26C570.558 96.1129 570.856 96.0751 571.154 95.9995C571.456 95.9195 571.707 95.7684 571.907 95.5462C572.112 95.324 572.214 94.9951 572.214 94.5595ZM578.545 97.3395C577.421 97.3395 576.532 96.9417 575.878 96.1462C575.225 95.3506 574.898 94.1595 574.898 92.5729C574.898 91.7817 575.005 91.0906 575.218 90.4995C575.432 89.904 575.721 89.4084 576.085 89.0129C576.454 88.6129 576.872 88.3151 577.338 88.1195C577.81 87.9195 578.301 87.8195 578.812 87.8195C579.421 87.8195 579.927 87.9084 580.332 88.0862C580.741 88.264 581.125 88.5195 581.485 88.8529L580.712 89.6529C580.165 89.1462 579.538 88.8929 578.832 88.8929C578.396 88.8929 577.985 89.0084 577.598 89.2395C577.212 89.4706 576.898 89.8551 576.658 90.3929C576.418 90.9306 576.298 91.6573 576.298 92.5729C576.298 93.884 576.496 94.8284 576.892 95.4062C577.287 95.9795 577.87 96.2662 578.638 96.2662C579.225 96.2662 579.774 96.1262 580.285 95.8462V93.1595H578.585L578.432 92.1062H581.585V96.5195C581.163 96.7551 580.712 96.9506 580.232 97.1062C579.756 97.2617 579.194 97.3395 578.545 97.3395ZM589.556 90.5929C589.556 91.2817 589.345 91.8373 588.923 92.2595C588.505 92.6773 587.99 92.9662 587.376 93.1262L590.05 97.1729H588.483L586.063 93.2995H584.923V97.1729H583.596V87.9862H586.043C587.194 87.9862 588.068 88.2062 588.663 88.6462C589.259 89.0817 589.556 89.7306 589.556 90.5929ZM588.15 90.5929C588.15 90.0284 587.985 89.6217 587.656 89.3729C587.332 89.124 586.832 88.9995 586.156 88.9995H584.923V92.2929H586.17C586.801 92.2929 587.288 92.164 587.63 91.9062C587.976 91.644 588.15 91.2062 588.15 90.5929ZM596.041 94.8862H592.561L591.868 97.1729H590.541L593.501 87.9862H595.168L598.135 97.1729H596.735L596.041 94.8862ZM592.868 93.8262H595.735L594.308 89.0529L592.868 93.8262ZM605.799 90.8329C605.799 91.5484 605.646 92.1262 605.339 92.5662C605.037 93.0017 604.617 93.3195 604.079 93.5195C603.541 93.7195 602.926 93.8195 602.233 93.8195H601.086V97.1729H599.759V87.9862H602.193C603.313 87.9862 604.193 88.2195 604.833 88.6862C605.477 89.1484 605.799 89.864 605.799 90.8329ZM604.399 90.8462C604.399 90.1706 604.204 89.6951 603.813 89.4195C603.426 89.144 602.928 89.0062 602.319 89.0062H601.086V92.7795H602.299C602.708 92.7795 603.07 92.7217 603.386 92.6062C603.701 92.4906 603.948 92.2929 604.126 92.0129C604.308 91.7329 604.399 91.344 604.399 90.8462ZM611.964 97.1729V92.8929H608.697V97.1729H607.377V87.9862H608.697V91.8062H611.964V87.9862H613.284V97.1729H611.964ZM628.033 94.8862H624.553L623.86 97.1729H622.533L625.493 87.9862H627.16L630.127 97.1729H628.727L628.033 94.8862ZM624.86 93.8262H627.727L626.3 89.0529L624.86 93.8262Z" fill="#FAD000"/>
<rect x="473.63" y="151.746" width="206.5" height="71.2449" rx="5.25" fill="#15252D"/>
<rect x="473.63" y="151.746" width="206.5" height="71.2449" rx="5.25" stroke="#00FAB3" stroke-width="1.5"/>
<g clip-path="url(#clip3_451_2097)">
<path d="M535.488 190.024H527.337M535.638 190.747L532.346 192.742M526.26 189.087C526.55 189.087 526.828 189.202 527.034 189.407C527.239 189.612 527.354 189.891 527.354 190.181C527.354 190.471 527.239 190.749 527.034 190.954C526.828 191.159 526.55 191.274 526.26 191.274C525.97 191.274 525.692 191.159 525.487 190.954C525.282 190.749 525.166 190.471 525.166 190.181C525.166 189.891 525.282 189.612 525.487 189.407C525.692 189.202 525.97 189.087 526.26 189.087ZM526.26 189.087V185.648M536.573 189.087C536.863 189.087 537.141 189.202 537.346 189.407C537.551 189.612 537.666 189.891 537.666 190.181C537.666 190.471 537.551 190.749 537.346 190.954C537.141 191.159 536.863 191.274 536.573 191.274C536.283 191.274 536.004 191.159 535.799 190.954C535.594 190.749 535.479 190.471 535.479 190.181C535.479 189.891 535.594 189.612 535.799 189.407C536.004 189.202 536.283 189.087 536.573 189.087ZM536.573 189.087V185.648M531.009 182.44L526.963 189.356M531.824 182.44L535.87 189.356M530.481 181.998L527.195 183.989M527.195 190.747L530.486 192.742M532.352 181.998L535.638 183.989M531.416 182.524C531.707 182.524 531.985 182.409 532.19 182.204C532.395 181.999 532.51 181.721 532.51 181.431C532.51 181.141 532.395 180.862 532.19 180.657C531.985 180.452 531.707 180.337 531.416 180.337C531.126 180.337 530.848 180.452 530.643 180.657C530.438 180.862 530.323 181.141 530.323 181.431C530.323 181.721 530.438 181.999 530.643 182.204C530.848 182.409 531.126 182.524 531.416 182.524ZM526.26 185.649C526.55 185.649 526.828 185.534 527.034 185.329C527.239 185.124 527.354 184.846 527.354 184.556C527.354 184.266 527.239 183.987 527.034 183.782C526.828 183.577 526.55 183.462 526.26 183.462C525.97 183.462 525.692 183.577 525.487 183.782C525.282 183.987 525.166 184.266 525.166 184.556C525.166 184.846 525.282 185.124 525.487 185.329C525.692 185.534 525.97 185.649 526.26 185.649ZM536.573 185.649C536.863 185.649 537.141 185.534 537.346 185.329C537.551 185.124 537.666 184.846 537.666 184.556C537.666 184.266 537.551 183.987 537.346 183.782C537.141 183.577 536.863 183.462 536.573 183.462C536.283 183.462 536.004 183.577 535.799 183.782C535.594 183.987 535.479 184.266 535.479 184.556C535.479 184.846 535.594 185.124 535.799 185.329C536.004 185.534 536.283 185.649 536.573 185.649ZM531.416 194.399C531.707 194.399 531.985 194.284 532.19 194.079C532.395 193.874 532.51 193.596 532.51 193.306C532.51 193.016 532.395 192.737 532.19 192.532C531.985 192.327 531.707 192.212 531.416 192.212C531.126 192.212 530.848 192.327 530.643 192.532C530.438 192.737 530.323 193.016 530.323 193.306C530.323 193.596 530.438 193.874 530.643 194.079C530.848 194.284 531.126 194.399 531.416 194.399Z" stroke="#00FAB3" stroke-linecap="round" stroke-linejoin="round"/>
</g>
<path d="M557.564 188.801C557.564 189.335 557.429 189.808 557.158 190.221C556.891 190.63 556.502 190.953 555.991 191.188C555.484 191.419 554.869 191.535 554.144 191.535C553.442 191.535 552.815 191.428 552.264 191.215C551.713 191.001 551.244 190.708 550.858 190.335L551.611 189.488C551.931 189.786 552.298 190.021 552.711 190.195C553.124 190.368 553.607 190.455 554.158 190.455C554.518 190.455 554.851 190.397 555.158 190.281C555.469 190.161 555.718 189.984 555.904 189.748C556.095 189.508 556.191 189.208 556.191 188.848C556.191 188.564 556.133 188.321 556.018 188.121C555.907 187.917 555.709 187.737 555.424 187.581C555.14 187.426 554.742 187.273 554.231 187.121C553.609 186.939 553.075 186.733 552.631 186.501C552.191 186.266 551.853 185.984 551.618 185.655C551.387 185.321 551.271 184.913 551.271 184.428C551.271 183.953 551.402 183.535 551.664 183.175C551.927 182.81 552.287 182.526 552.744 182.321C553.202 182.117 553.729 182.015 554.324 182.015C554.969 182.015 555.531 182.108 556.011 182.295C556.495 182.481 556.931 182.746 557.318 183.088L556.584 183.915C556.255 183.626 555.902 183.417 555.524 183.288C555.151 183.155 554.771 183.088 554.384 183.088C553.895 183.088 553.48 183.195 553.138 183.408C552.795 183.617 552.624 183.937 552.624 184.368C552.624 184.626 552.693 184.846 552.831 185.028C552.969 185.206 553.2 185.37 553.524 185.521C553.853 185.673 554.302 185.833 554.871 186.001C555.364 186.148 555.813 186.328 556.218 186.541C556.627 186.75 556.953 187.035 557.198 187.395C557.442 187.75 557.564 188.219 557.564 188.801ZM565.442 182.181V188.375C565.442 188.997 565.316 189.546 565.062 190.021C564.813 190.497 564.456 190.868 563.989 191.135C563.527 191.401 562.973 191.535 562.329 191.535C561.68 191.535 561.125 191.401 560.662 191.135C560.2 190.868 559.847 190.497 559.602 190.021C559.362 189.546 559.242 188.997 559.242 188.375V182.181H560.562V188.275C560.562 189.715 561.151 190.435 562.329 190.435C563.516 190.435 564.109 189.715 564.109 188.275V182.181H565.442ZM573.6 188.735C573.6 189.241 573.5 189.664 573.3 190.001C573.105 190.339 572.838 190.608 572.5 190.808C572.167 191.008 571.792 191.153 571.374 191.241C570.96 191.326 570.536 191.368 570.1 191.368H567.54V182.181H569.907C570.32 182.181 570.723 182.219 571.114 182.295C571.505 182.366 571.858 182.49 572.174 182.668C572.489 182.841 572.738 183.079 572.92 183.381C573.107 183.679 573.2 184.053 573.2 184.501C573.2 184.888 573.118 185.219 572.954 185.495C572.794 185.766 572.585 185.986 572.327 186.155C572.069 186.319 571.794 186.435 571.5 186.501C571.834 186.559 572.16 186.666 572.48 186.821C572.805 186.973 573.072 187.201 573.28 187.508C573.494 187.81 573.6 188.219 573.6 188.735ZM571.854 184.588C571.854 184.09 571.698 183.737 571.387 183.528C571.08 183.315 570.656 183.208 570.114 183.208H568.86V186.048H570.22C570.749 186.048 571.154 185.935 571.434 185.708C571.714 185.477 571.854 185.104 571.854 184.588ZM572.214 188.755C572.214 188.315 572.127 187.975 571.954 187.735C571.785 187.49 571.556 187.321 571.267 187.228C570.983 187.135 570.667 187.088 570.32 187.088H568.86V190.308H570.26C570.558 190.308 570.856 190.27 571.154 190.195C571.456 190.115 571.707 189.964 571.907 189.741C572.112 189.519 572.214 189.19 572.214 188.755ZM578.545 191.535C577.421 191.535 576.532 191.137 575.878 190.341C575.225 189.546 574.898 188.355 574.898 186.768C574.898 185.977 575.005 185.286 575.218 184.695C575.432 184.099 575.721 183.604 576.085 183.208C576.454 182.808 576.872 182.51 577.338 182.315C577.81 182.115 578.301 182.015 578.812 182.015C579.421 182.015 579.927 182.104 580.332 182.281C580.741 182.459 581.125 182.715 581.485 183.048L580.712 183.848C580.165 183.341 579.538 183.088 578.832 183.088C578.396 183.088 577.985 183.204 577.598 183.435C577.212 183.666 576.898 184.05 576.658 184.588C576.418 185.126 576.298 185.853 576.298 186.768C576.298 188.079 576.496 189.024 576.892 189.601C577.287 190.175 577.87 190.461 578.638 190.461C579.225 190.461 579.774 190.321 580.285 190.041V187.355H578.585L578.432 186.301H581.585V190.715C581.163 190.95 580.712 191.146 580.232 191.301C579.756 191.457 579.194 191.535 578.545 191.535ZM589.556 184.788C589.556 185.477 589.345 186.033 588.923 186.455C588.505 186.873 587.99 187.161 587.376 187.321L590.05 191.368H588.483L586.063 187.495H584.923V191.368H583.596V182.181H586.043C587.194 182.181 588.068 182.401 588.663 182.841C589.259 183.277 589.556 183.926 589.556 184.788ZM588.15 184.788C588.15 184.224 587.985 183.817 587.656 183.568C587.332 183.319 586.832 183.195 586.156 183.195H584.923V186.488H586.17C586.801 186.488 587.288 186.359 587.63 186.101C587.976 185.839 588.15 185.401 588.15 184.788ZM596.041 189.081H592.561L591.868 191.368H590.541L593.501 182.181H595.168L598.135 191.368H596.735L596.041 189.081ZM592.868 188.021H595.735L594.308 183.248L592.868 188.021ZM605.799 185.028C605.799 185.744 605.646 186.321 605.339 186.761C605.037 187.197 604.617 187.515 604.079 187.715C603.541 187.915 602.926 188.015 602.233 188.015H601.086V191.368H599.759V182.181H602.193C603.313 182.181 604.193 182.415 604.833 182.881C605.477 183.344 605.799 184.059 605.799 185.028ZM604.399 185.041C604.399 184.366 604.204 183.89 603.813 183.615C603.426 183.339 602.928 183.201 602.319 183.201H601.086V186.975H602.299C602.708 186.975 603.07 186.917 603.386 186.801C603.701 186.686 603.948 186.488 604.126 186.208C604.308 185.928 604.399 185.539 604.399 185.041ZM611.964 191.368V187.088H608.697V191.368H607.377V182.181H608.697V186.001H611.964V182.181H613.284V191.368H611.964ZM629.587 188.735C629.587 189.241 629.487 189.664 629.287 190.001C629.091 190.339 628.824 190.608 628.487 190.808C628.153 191.008 627.778 191.153 627.36 191.241C626.947 191.326 626.522 191.368 626.087 191.368H623.527V182.181H625.893C626.307 182.181 626.709 182.219 627.1 182.295C627.491 182.366 627.844 182.49 628.16 182.668C628.476 182.841 628.724 183.079 628.907 183.381C629.093 183.679 629.187 184.053 629.187 184.501C629.187 184.888 629.104 185.219 628.94 185.495C628.78 185.766 628.571 185.986 628.313 186.155C628.056 186.319 627.78 186.435 627.487 186.501C627.82 186.559 628.147 186.666 628.467 186.821C628.791 186.973 629.058 187.201 629.267 187.508C629.48 187.81 629.587 188.219 629.587 188.735ZM627.84 184.588C627.84 184.09 627.684 183.737 627.373 183.528C627.067 183.315 626.642 183.208 626.1 183.208H624.847V186.048H626.207C626.736 186.048 627.14 185.935 627.42 185.708C627.7 185.477 627.84 185.104 627.84 184.588ZM628.2 188.755C628.2 188.315 628.113 187.975 627.94 187.735C627.771 187.49 627.542 187.321 627.253 187.228C626.969 187.135 626.653 187.088 626.307 187.088H624.847V190.308H626.247C626.544 190.308 626.842 190.27 627.14 190.195C627.442 190.115 627.693 189.964 627.893 189.741C628.098 189.519 628.2 189.19 628.2 188.755Z" fill="#00FAB3"/>
<path d="M87.6147 138.368L178.258 138.368" stroke="#CFD7D6" stroke-width="2" stroke-dasharray="4 4"/>
<path d="M349.223 126.486H396.886C403.513 126.486 408.886 121.113 408.886 114.486V102.477C408.886 95.8491 414.258 90.4766 420.886 90.4766H473.521" stroke="#FAD000" stroke-width="2"/>
<path d="M349.223 126.486H396.886C403.513 126.486 408.886 121.113 408.886 114.486V102.477C408.886 95.8491 414.258 90.4766 420.886 90.4766H473.521" stroke="#FAD000" stroke-width="2"/>
<path d="M349.223 150.476H396.886C403.513 150.476 408.886 155.849 408.886 162.476V174.485C408.886 181.113 414.258 186.485 420.886 186.485H473.521" stroke="#00FAB3" stroke-width="2"/>
<defs>
<clipPath id="clip0_451_2097">
<rect width="13.3333" height="13.3333" fill="white" transform="translate(36.6667 141.203)"/>
</clipPath>
<clipPath id="clip1_451_2097">
<rect width="16" height="16" fill="white" transform="translate(195.942 130.801)"/>
</clipPath>
<clipPath id="clip2_451_2097">
<rect width="16" height="16" fill="white" transform="translate(523.416 85.1729)"/>
</clipPath>
<clipPath id="clip3_451_2097">
<rect width="16" height="16" fill="white" transform="translate(523.416 179.368)"/>
</clipPath>
</defs>
</svg>
