<svg width="681" height="168" viewBox="0 0 681 168" fill="none" xmlns="http://www.w3.org/2000/svg">
<rect x="0.75" y="46.584" width="86.5" height="70.5" rx="5.25" fill="#15252D"/>
<rect x="0.75" y="46.584" width="86.5" height="70.5" rx="5.25" stroke="#CFD7D6" stroke-width="1.5"/>
<path d="M18.7733 65.9807C19.3822 65.9807 19.8933 66.0584 20.3067 66.214C20.7244 66.3695 21.1156 66.5962 21.48 66.894L20.7667 67.734C20.4822 67.4984 20.18 67.3273 19.86 67.2207C19.54 67.1095 19.2044 67.054 18.8533 67.054C18.3689 67.054 17.9222 67.1718 17.5133 67.4073C17.1044 67.6429 16.7756 68.0295 16.5267 68.5673C16.2778 69.1051 16.1533 69.8273 16.1533 70.734C16.1533 71.6184 16.2711 72.3295 16.5067 72.8673C16.7467 73.4007 17.0689 73.7895 17.4733 74.034C17.8822 74.274 18.3378 74.394 18.84 74.394C19.3422 74.394 19.7578 74.3162 20.0867 74.1607C20.42 74.0007 20.7089 73.8184 20.9533 73.614L21.6133 74.4607C21.3244 74.7451 20.9489 74.9895 20.4867 75.194C20.0289 75.3984 19.4689 75.5007 18.8067 75.5007C18.0467 75.5007 17.3622 75.3184 16.7533 74.954C16.1489 74.5895 15.6689 74.054 15.3133 73.3473C14.9578 72.6362 14.78 71.7651 14.78 70.734C14.78 69.7029 14.96 68.834 15.32 68.1273C15.6844 67.4207 16.1689 66.8873 16.7733 66.5273C17.3822 66.1629 18.0489 65.9807 18.7733 65.9807ZM23.7114 75.334V66.1473H25.038V74.1873H29.198L29.0514 75.334H23.7114ZM36.6828 66.1473V67.1807H34.6628V74.294H36.6828V75.334H31.3094V74.294H33.3294V67.1807H31.3094V66.1473H36.6828ZM40.9208 67.1873V70.1407H44.2941V71.1873H40.9208V74.3007H45.0475V75.334H39.5941V66.1473H44.9475L44.7941 67.1873H40.9208ZM51.1589 75.334L48.0589 67.3673C48.0677 67.5229 48.0855 67.7895 48.1122 68.1673C48.1433 68.5407 48.1722 68.9718 48.1989 69.4607C48.2255 69.9451 48.2389 70.4295 48.2389 70.914V75.334H47.0389V66.1473H48.7922L51.9255 74.134C51.9166 73.9829 51.8966 73.7318 51.8655 73.3807C51.8344 73.0251 51.8055 72.6051 51.7789 72.1207C51.7566 71.6362 51.7455 71.1184 51.7455 70.5673V66.1473H52.9455V75.334H51.1589ZM58.6302 67.2473V75.334H57.3102V67.2473H54.4836V66.1473H61.5036L61.3636 67.2473H58.6302ZM69.2083 72.7673C69.2083 73.3007 69.0727 73.774 68.8016 74.1873C68.5349 74.5962 68.1461 74.9184 67.6349 75.154C67.1283 75.3851 66.5127 75.5007 65.7883 75.5007C65.0861 75.5007 64.4594 75.394 63.9083 75.1807C63.3572 74.9673 62.8883 74.674 62.5016 74.3007L63.2549 73.454C63.5749 73.7518 63.9416 73.9873 64.3549 74.1607C64.7683 74.334 65.2505 74.4207 65.8016 74.4207C66.1616 74.4207 66.4949 74.3629 66.8016 74.2473C67.1127 74.1273 67.3616 73.9495 67.5483 73.714C67.7394 73.474 67.8349 73.174 67.8349 72.814C67.8349 72.5295 67.7772 72.2873 67.6616 72.0873C67.5505 71.8829 67.3527 71.7029 67.0683 71.5473C66.7838 71.3918 66.3861 71.2384 65.8749 71.0873C65.2527 70.9051 64.7194 70.6984 64.2749 70.4673C63.8349 70.2318 63.4972 69.9495 63.2616 69.6207C63.0305 69.2873 62.9149 68.8784 62.9149 68.394C62.9149 67.9184 63.0461 67.5007 63.3083 67.1407C63.5705 66.7762 63.9305 66.4918 64.3883 66.2873C64.8461 66.0829 65.3727 65.9807 65.9683 65.9807C66.6127 65.9807 67.1749 66.074 67.6549 66.2607C68.1394 66.4473 68.5749 66.7118 68.9616 67.054L68.2283 67.8807C67.8994 67.5918 67.5461 67.3829 67.1683 67.254C66.7949 67.1207 66.4149 67.054 66.0283 67.054C65.5394 67.054 65.1238 67.1607 64.7816 67.374C64.4394 67.5829 64.2683 67.9029 64.2683 68.334C64.2683 68.5918 64.3372 68.8118 64.4749 68.994C64.6127 69.1718 64.8438 69.3362 65.1683 69.4873C65.4972 69.6384 65.9461 69.7984 66.5149 69.9673C67.0083 70.114 67.4572 70.294 67.8616 70.5073C68.2705 70.7162 68.5972 71.0007 68.8416 71.3607C69.0861 71.7162 69.2083 72.1851 69.2083 72.7673Z" fill="#CFD7D6"/>
<path d="M25.2712 91.2482C25.6588 92.058 25.9643 92.9045 26.1831 93.7751C27.9231 93.2632 29.0312 92.422 29.0312 91.4001C29.0312 90.3582 27.8812 89.5032 26.0819 88.9951" stroke="#CFD7D6" stroke-linecap="round" stroke-linejoin="round"/>
<path d="M18.7206 91.248C18.3834 90.5237 18.1115 89.7707 17.9081 88.998C16.1138 89.5062 14.9706 90.3599 14.9706 91.3999C14.9706 92.4199 16.075 93.2605 17.81 93.7749" stroke="#CFD7D6" stroke-linecap="round" stroke-linejoin="round"/>
<path d="M20.2656 88.5738C20.7738 87.8337 21.3548 87.1463 22 86.5219C20.6875 85.2719 19.4044 84.7326 18.5194 85.2432C17.6169 85.7638 17.4512 87.1876 17.9112 89.0001" stroke="#CFD7D6" stroke-linecap="round" stroke-linejoin="round"/>
<path d="M23.5413 94.2466C23.0827 94.9005 22.5669 95.5123 22 96.0748C23.3375 97.3741 24.65 97.9398 25.5506 97.4198C26.4337 96.9098 26.6094 95.5335 26.185 93.7754" stroke="#CFD7D6" stroke-linecap="round" stroke-linejoin="round"/>
<path d="M20.4518 94.2452C19.557 94.1762 18.6713 94.0175 17.8081 93.7715C17.3806 95.5346 17.5581 96.9146 18.4406 97.4259C19.3425 97.9465 20.6581 97.3784 21.9981 96.074" stroke="#CFD7D6" stroke-linecap="round" stroke-linejoin="round"/>
<path d="M23.7275 88.5737C24.5233 88.6442 25.3112 88.7856 26.0819 88.9962C26.5387 87.188 26.3725 85.7687 25.4719 85.2462C24.5881 84.7387 23.3088 85.2724 22 86.5224" stroke="#CFD7D6" stroke-linecap="round" stroke-linejoin="round"/>
<path d="M23.7275 88.573C23.1763 88.5205 22.6025 88.4893 22 88.4893C21.3975 88.4893 20.8194 88.5205 20.2656 88.5736C19.9813 88.983 19.7031 89.4186 19.435 89.8818C19.1669 90.3449 18.935 90.7999 18.7206 91.2486C18.9506 91.7524 19.2119 92.2668 19.5119 92.7868C19.8119 93.3068 20.1294 93.7936 20.4494 94.2461C21.4773 94.3338 22.5108 94.3341 23.5388 94.2468C24.212 93.3061 24.7918 92.3019 25.27 91.2486C24.8336 90.3142 24.3175 89.419 23.7275 88.573Z" stroke="#CFD7D6" stroke-linecap="round" stroke-linejoin="round"/>
<path d="M21.0625 91.4004C21.0625 91.649 21.1613 91.8875 21.3371 92.0633C21.5129 92.2391 21.7514 92.3379 22 92.3379C22.2486 92.3379 22.4871 92.2391 22.6629 92.0633C22.8387 91.8875 22.9375 91.649 22.9375 91.4004C22.9375 91.1518 22.8387 90.9133 22.6629 90.7375C22.4871 90.5617 22.2486 90.4629 22 90.4629C21.7514 90.4629 21.5129 90.5617 21.3371 90.7375C21.1613 90.9133 21.0625 91.1518 21.0625 91.4004Z" stroke="#CFD7D6" stroke-linecap="round" stroke-linejoin="round"/>
<g clip-path="url(#clip0_451_2123)">
<path d="M37.4739 85.4746V97.1934L49.1927 85.4746H37.4739Z" stroke="#CFD7D6" stroke-linecap="round" stroke-linejoin="round"/>
<path d="M43.3333 91.334L49.1927 97.1934H37.4739" stroke="#CFD7D6" stroke-linecap="round" stroke-linejoin="round"/>
<path d="M43.3333 85.4746L37.5989 91.209" stroke="#CFD7D6" stroke-linecap="round" stroke-linejoin="round"/>
</g>
<path d="M65.6938 90.7082C63.25 89.1895 61.0813 85.8082 61.0813 85.8082C61.0813 85.8082 62.875 90.527 66.1688 93.627C65.1077 93.6858 64.0466 93.5109 63.0606 93.1145C62.0746 92.7182 61.1877 92.1101 60.4625 91.3332C60.0037 90.8747 59.599 90.3651 59.2563 89.8145C59.2342 89.7873 59.2029 89.7692 59.1684 89.7634C59.1339 89.7577 59.0985 89.7647 59.0688 89.7832C59.0345 89.8012 59.0069 89.8298 58.99 89.8647C58.9731 89.8995 58.9679 89.9389 58.975 89.977C59.4078 91.5303 60.242 92.9422 61.3938 94.0707C64.0563 96.7332 67.725 97.4707 70.0563 95.9457C70.5061 96.0831 70.969 96.1732 71.4375 96.2145C72.65 96.8395 72.65 97.127 72.65 97.127C72.826 96.9207 72.9465 96.6731 73.0001 96.4073C73.0537 96.1415 73.0386 95.8665 72.9563 95.6082C73.021 95.3224 72.9957 95.0236 72.8838 94.7528C72.7719 94.4819 72.5789 94.2524 72.3313 94.0957L71.775 93.752C72.6188 91.452 71.775 88.3395 69.4313 86.002C69.275 85.8395 69.1125 85.6895 68.9438 85.5457C68.9153 85.5207 68.8786 85.5068 68.8406 85.5068C68.8027 85.5068 68.766 85.5207 68.7375 85.5457C68.7084 85.569 68.6882 85.6015 68.6802 85.6379C68.6722 85.6744 68.677 85.7124 68.6938 85.7457C70.0125 87.8395 70.2063 90.2332 69.1313 91.8582C67.118 90.1176 65.3851 88.077 63.9938 85.8082" stroke="#CFD7D6" stroke-linecap="round" stroke-linejoin="round"/>
<rect x="180.156" y="47.0156" width="170.5" height="70.5" rx="35.25" fill="#15252D"/>
<rect x="180.156" y="47.0156" width="170.5" height="70.5" rx="35.25" stroke="#FC5200" stroke-width="1.5"/>
<g clip-path="url(#clip1_451_2123)">
<path d="M199.804 83.1604C202.397 83.9729 203.942 85.5354 203.942 88.4848M203.942 88.4848V89.2973M203.942 88.4848C203.942 85.5354 205.486 83.9729 208.079 83.1604M203.942 88.4848V78.5154M202.474 78.5154C202.413 78.5154 202.353 78.4992 202.3 78.4686C202.248 78.438 202.204 78.394 202.174 78.3411C202.144 78.2882 202.128 78.2282 202.128 78.1673C202.129 78.1064 202.145 78.0466 202.176 77.9942L203.644 75.3904C203.675 75.3387 203.718 75.2959 203.771 75.2661C203.823 75.2364 203.882 75.2207 203.942 75.2207C204.002 75.2207 204.061 75.2364 204.113 75.2661C204.165 75.2959 204.209 75.3387 204.239 75.3904L205.708 77.9935C205.739 78.0461 205.756 78.1059 205.756 78.1669C205.756 78.2279 205.741 78.2879 205.71 78.3409C205.68 78.3939 205.636 78.4379 205.584 78.4685C205.531 78.4992 205.471 78.5154 205.41 78.5154H202.474ZM200.449 81.6029C200.473 81.5465 200.48 81.485 200.472 81.4245C200.464 81.3641 200.44 81.3068 200.403 81.2586C200.366 81.2104 200.316 81.1728 200.26 81.1498C200.203 81.1267 200.142 81.119 200.081 81.1273L197.206 81.5317C197.146 81.5399 197.09 81.5636 197.042 81.6005C196.994 81.6374 196.957 81.6861 196.934 81.7419C196.911 81.7976 196.903 81.8584 196.911 81.9182C196.918 81.9781 196.942 82.0348 196.978 82.0829L198.723 84.3998C198.76 84.4484 198.809 84.4865 198.865 84.5102C198.922 84.5338 198.983 84.5422 199.044 84.5345C199.104 84.5267 199.162 84.5032 199.21 84.4661C199.259 84.4291 199.297 84.3799 199.32 84.3235L199.882 82.9635L200.449 81.6029ZM207.434 81.6029C207.411 81.5465 207.403 81.485 207.411 81.4245C207.42 81.3641 207.443 81.3068 207.481 81.2586C207.518 81.2104 207.568 81.1728 207.624 81.1498C207.68 81.1267 207.742 81.119 207.802 81.1273L210.677 81.5317C210.737 81.5399 210.794 81.5636 210.842 81.6005C210.889 81.6374 210.927 81.6861 210.95 81.7419C210.973 81.7976 210.981 81.8584 210.973 81.9182C210.965 81.9781 210.942 82.0348 210.906 82.0829L209.161 84.3998C209.124 84.4484 209.075 84.4865 209.018 84.5102C208.962 84.5338 208.901 84.5422 208.84 84.5345C208.78 84.5267 208.722 84.5032 208.674 84.4661C208.625 84.4291 208.587 84.3799 208.564 84.3235L208.001 82.9635L207.434 81.6029Z" stroke="#FC5200" stroke-linecap="round" stroke-linejoin="round"/>
</g>
<path d="M227.09 86.9323C225.966 86.9323 225.077 86.5345 224.423 85.739C223.77 84.9434 223.443 83.7523 223.443 82.1656C223.443 81.3745 223.55 80.6834 223.763 80.0923C223.977 79.4967 224.266 79.0012 224.63 78.6056C224.999 78.2056 225.417 77.9078 225.883 77.7123C226.354 77.5123 226.846 77.4123 227.357 77.4123C227.966 77.4123 228.472 77.5012 228.877 77.679C229.286 77.8567 229.67 78.1123 230.03 78.4456L229.257 79.2456C228.71 78.739 228.083 78.4856 227.377 78.4856C226.941 78.4856 226.53 78.6012 226.143 78.8323C225.757 79.0634 225.443 79.4478 225.203 79.9856C224.963 80.5234 224.843 81.2501 224.843 82.1656C224.843 83.4767 225.041 84.4212 225.437 84.999C225.832 85.5723 226.414 85.859 227.183 85.859C227.77 85.859 228.319 85.719 228.83 85.439V82.7523H227.13L226.977 81.699H230.13V86.1123C229.708 86.3478 229.257 86.5434 228.777 86.699C228.301 86.8545 227.739 86.9323 227.09 86.9323ZM238.101 80.1856C238.101 80.8745 237.89 81.4301 237.468 81.8523C237.05 82.2701 236.535 82.559 235.921 82.719L238.595 86.7656H237.028L234.608 82.8923H233.468V86.7656H232.141V77.579H234.588C235.739 77.579 236.613 77.799 237.208 78.239C237.804 78.6745 238.101 79.3234 238.101 80.1856ZM236.695 80.1856C236.695 79.6212 236.53 79.2145 236.201 78.9656C235.877 78.7167 235.377 78.5923 234.701 78.5923H233.468V81.8856H234.715C235.346 81.8856 235.833 81.7567 236.175 81.499C236.521 81.2367 236.695 80.799 236.695 80.1856ZM244.586 84.479H241.106L240.413 86.7656H239.086L242.046 77.579H243.713L246.679 86.7656H245.279L244.586 84.479ZM241.413 83.419H244.279L242.853 78.6456L241.413 83.419ZM254.344 80.4256C254.344 81.1412 254.191 81.719 253.884 82.159C253.582 82.5945 253.162 82.9123 252.624 83.1123C252.086 83.3123 251.471 83.4123 250.778 83.4123H249.631V86.7656H248.304V77.579H250.738C251.858 77.579 252.738 77.8123 253.378 78.279C254.022 78.7412 254.344 79.4567 254.344 80.4256ZM252.944 80.439C252.944 79.7634 252.749 79.2878 252.358 79.0123C251.971 78.7367 251.473 78.599 250.864 78.599H249.631V82.3723H250.844C251.253 82.3723 251.615 82.3145 251.931 82.199C252.246 82.0834 252.493 81.8856 252.671 81.6056C252.853 81.3256 252.944 80.9367 252.944 80.439ZM260.509 86.7656V82.4856H257.242V86.7656H255.922V77.579H257.242V81.399H260.509V77.579H261.829V86.7656H260.509ZM270.307 82.179C270.307 83.1123 270.178 83.9367 269.92 84.6523C269.662 85.3678 269.278 85.9278 268.767 86.3323C268.26 86.7323 267.629 86.9323 266.874 86.9323C266.118 86.9323 265.485 86.7367 264.974 86.3456C264.467 85.9501 264.085 85.3967 263.827 84.6856C263.569 83.9745 263.44 83.1434 263.44 82.1923C263.44 81.2545 263.569 80.4278 263.827 79.7123C264.085 78.9923 264.467 78.4301 264.974 78.0256C265.485 77.6167 266.118 77.4123 266.874 77.4123C267.629 77.4123 268.26 77.6101 268.767 78.0056C269.278 78.4012 269.662 78.9567 269.92 79.6723C270.178 80.3878 270.307 81.2234 270.307 82.179ZM268.927 82.179C268.927 80.9701 268.767 80.0523 268.447 79.4256C268.131 78.799 267.607 78.4856 266.874 78.4856C266.14 78.4856 265.614 78.8012 265.294 79.4323C264.978 80.0634 264.82 80.9834 264.82 82.1923C264.82 83.3967 264.982 84.3101 265.307 84.9323C265.636 85.5501 266.158 85.859 266.874 85.859C267.607 85.859 268.131 85.5478 268.447 84.9256C268.767 84.299 268.927 83.3834 268.927 82.179ZM278.092 84.199C278.092 84.7323 277.956 85.2056 277.685 85.619C277.418 86.0278 277.029 86.3501 276.518 86.5856C276.012 86.8167 275.396 86.9323 274.672 86.9323C273.969 86.9323 273.343 86.8256 272.792 86.6123C272.241 86.399 271.772 86.1056 271.385 85.7323L272.138 84.8856C272.458 85.1834 272.825 85.419 273.238 85.5923C273.652 85.7656 274.134 85.8523 274.685 85.8523C275.045 85.8523 275.378 85.7945 275.685 85.679C275.996 85.559 276.245 85.3812 276.432 85.1456C276.623 84.9056 276.718 84.6056 276.718 84.2456C276.718 83.9612 276.661 83.719 276.545 83.519C276.434 83.3145 276.236 83.1345 275.952 82.979C275.667 82.8234 275.269 82.6701 274.758 82.519C274.136 82.3367 273.603 82.1301 273.158 81.899C272.718 81.6634 272.381 81.3812 272.145 81.0523C271.914 80.719 271.798 80.3101 271.798 79.8256C271.798 79.3501 271.929 78.9323 272.192 78.5723C272.454 78.2078 272.814 77.9234 273.272 77.719C273.729 77.5145 274.256 77.4123 274.852 77.4123C275.496 77.4123 276.058 77.5056 276.538 77.6923C277.023 77.879 277.458 78.1434 277.845 78.4856L277.112 79.3123C276.783 79.0234 276.429 78.8145 276.052 78.6856C275.678 78.5523 275.298 78.4856 274.912 78.4856C274.423 78.4856 274.007 78.5923 273.665 78.8056C273.323 79.0145 273.152 79.3345 273.152 79.7656C273.152 80.0234 273.221 80.2434 273.358 80.4256C273.496 80.6034 273.727 80.7678 274.052 80.919C274.381 81.0701 274.829 81.2301 275.398 81.399C275.892 81.5456 276.341 81.7256 276.745 81.939C277.154 82.1478 277.481 82.4323 277.725 82.7923C277.969 83.1478 278.092 83.6167 278.092 84.199ZM294.088 80.1856C294.088 80.8745 293.877 81.4301 293.454 81.8523C293.037 82.2701 292.521 82.559 291.908 82.719L294.581 86.7656H293.014L290.594 82.8923H289.454V86.7656H288.128V77.579H290.574C291.726 77.579 292.599 77.799 293.194 78.239C293.79 78.6745 294.088 79.3234 294.088 80.1856ZM292.681 80.1856C292.681 79.6212 292.517 79.2145 292.188 78.9656C291.863 78.7167 291.363 78.5923 290.688 78.5923H289.454V81.8856H290.701C291.332 81.8856 291.819 81.7567 292.161 81.499C292.508 81.2367 292.681 80.799 292.681 80.1856ZM302.299 82.179C302.299 83.1123 302.17 83.9367 301.912 84.6523C301.655 85.3678 301.27 85.9278 300.759 86.3323C300.252 86.7323 299.621 86.9323 298.866 86.9323C298.11 86.9323 297.477 86.7367 296.966 86.3456C296.459 85.9501 296.077 85.3967 295.819 84.6856C295.561 83.9745 295.432 83.1434 295.432 82.1923C295.432 81.2545 295.561 80.4278 295.819 79.7123C296.077 78.9923 296.459 78.4301 296.966 78.0256C297.477 77.6167 298.11 77.4123 298.866 77.4123C299.621 77.4123 300.252 77.6101 300.759 78.0056C301.27 78.4012 301.655 78.9567 301.912 79.6723C302.17 80.3878 302.299 81.2234 302.299 82.179ZM300.919 82.179C300.919 80.9701 300.759 80.0523 300.439 79.4256C300.124 78.799 299.599 78.4856 298.866 78.4856C298.132 78.4856 297.606 78.8012 297.286 79.4323C296.97 80.0634 296.812 80.9834 296.812 82.1923C296.812 83.3967 296.975 84.3101 297.299 84.9323C297.628 85.5501 298.15 85.859 298.866 85.859C299.599 85.859 300.124 85.5478 300.439 84.9256C300.759 84.299 300.919 83.3834 300.919 82.179ZM309.964 77.579V83.7723C309.964 84.3945 309.837 84.9434 309.584 85.419C309.335 85.8945 308.977 86.2656 308.51 86.5323C308.048 86.799 307.495 86.9323 306.85 86.9323C306.202 86.9323 305.646 86.799 305.184 86.5323C304.722 86.2656 304.368 85.8945 304.124 85.419C303.884 84.9434 303.764 84.3945 303.764 83.7723V77.579H305.084V83.6723C305.084 85.1123 305.673 85.8323 306.85 85.8323C308.037 85.8323 308.63 85.1123 308.63 83.6723V77.579H309.964ZM315.502 78.679V86.7656H314.182V78.679H311.355V77.579H318.375L318.235 78.679H315.502ZM321.787 78.619V81.5723H325.16V82.619H321.787V85.7323H325.913V86.7656H320.46V77.579H325.813L325.66 78.619H321.787ZM334.078 80.1856C334.078 80.8745 333.867 81.4301 333.445 81.8523C333.027 82.2701 332.511 82.559 331.898 82.719L334.571 86.7656H333.005L330.585 82.8923H329.445V86.7656H328.118V77.579H330.565C331.716 77.579 332.589 77.799 333.185 78.239C333.78 78.6745 334.078 79.3234 334.078 80.1856ZM332.671 80.1856C332.671 79.6212 332.507 79.2145 332.178 78.9656C331.854 78.7167 331.354 78.5923 330.678 78.5923H329.445V81.8856H330.691C331.322 81.8856 331.809 81.7567 332.151 81.499C332.498 81.2367 332.671 80.799 332.671 80.1856Z" fill="#FC5200"/>
<rect x="473.63" y="1.01562" width="206.5" height="71.2449" rx="5.25" fill="#15252D"/>
<rect x="473.63" y="1.01562" width="206.5" height="71.2449" rx="5.25" stroke="#FAD000" stroke-width="1.5"/>
<g clip-path="url(#clip2_451_2123)">
<path d="M535.488 39.2939H527.337M535.638 40.0164L532.346 42.0114M526.26 38.3564C526.55 38.3564 526.828 38.4717 527.034 38.6768C527.239 38.8819 527.354 39.1601 527.354 39.4502C527.354 39.7403 527.239 40.0185 527.034 40.2236C526.828 40.4287 526.55 40.5439 526.26 40.5439C525.97 40.5439 525.692 40.4287 525.487 40.2236C525.282 40.0185 525.166 39.7403 525.166 39.4502C525.166 39.1601 525.282 38.8819 525.487 38.6768C525.692 38.4717 525.97 38.3564 526.26 38.3564ZM526.26 38.3564V34.9171M536.573 38.3564C536.863 38.3564 537.141 38.4717 537.346 38.6768C537.551 38.8819 537.666 39.1601 537.666 39.4502C537.666 39.7403 537.551 40.0185 537.346 40.2236C537.141 40.4287 536.863 40.5439 536.573 40.5439C536.283 40.5439 536.004 40.4287 535.799 40.2236C535.594 40.0185 535.479 39.7403 535.479 39.4502C535.479 39.1601 535.594 38.8819 535.799 38.6768C536.004 38.4717 536.283 38.3564 536.573 38.3564ZM536.573 38.3564V34.9171M531.009 31.7096L526.963 38.6252M531.824 31.7096L535.87 38.6258M530.481 31.2671L527.195 33.2589M527.195 40.0164L530.486 42.0114M532.352 31.2671L535.638 33.2589M531.416 31.7939C531.707 31.7939 531.985 31.6787 532.19 31.4736C532.395 31.2685 532.51 30.9903 532.51 30.7002C532.51 30.4101 532.395 30.1319 532.19 29.9268C531.985 29.7217 531.707 29.6064 531.416 29.6064C531.126 29.6064 530.848 29.7217 530.643 29.9268C530.438 30.1319 530.323 30.4101 530.323 30.7002C530.323 30.9903 530.438 31.2685 530.643 31.4736C530.848 31.6787 531.126 31.7939 531.416 31.7939ZM526.26 34.9189C526.55 34.9189 526.828 34.8037 527.034 34.5986C527.239 34.3935 527.354 34.1153 527.354 33.8252C527.354 33.5351 527.239 33.2569 527.034 33.0518C526.828 32.8467 526.55 32.7314 526.26 32.7314C525.97 32.7314 525.692 32.8467 525.487 33.0518C525.282 33.2569 525.166 33.5351 525.166 33.8252C525.166 34.1153 525.282 34.3935 525.487 34.5986C525.692 34.8037 525.97 34.9189 526.26 34.9189ZM536.573 34.9189C536.863 34.9189 537.141 34.8037 537.346 34.5986C537.551 34.3935 537.666 34.1153 537.666 33.8252C537.666 33.5351 537.551 33.2569 537.346 33.0518C537.141 32.8467 536.863 32.7314 536.573 32.7314C536.283 32.7314 536.004 32.8467 535.799 33.0518C535.594 33.2569 535.479 33.5351 535.479 33.8252C535.479 34.1153 535.594 34.3935 535.799 34.5986C536.004 34.8037 536.283 34.9189 536.573 34.9189ZM531.416 43.6689C531.707 43.6689 531.985 43.5537 532.19 43.3486C532.395 43.1435 532.51 42.8653 532.51 42.5752C532.51 42.2851 532.395 42.0069 532.19 41.8018C531.985 41.5967 531.707 41.4814 531.416 41.4814C531.126 41.4814 530.848 41.5967 530.643 41.8018C530.438 42.0069 530.323 42.2851 530.323 42.5752C530.323 42.8653 530.438 43.1435 530.643 43.3486C530.848 43.5537 531.126 43.6689 531.416 43.6689Z" stroke="#FAD000" stroke-linecap="round" stroke-linejoin="round"/>
</g>
<path d="M557.564 38.071C557.564 38.6044 557.429 39.0777 557.158 39.491C556.891 39.8999 556.502 40.2221 555.991 40.4577C555.484 40.6888 554.869 40.8044 554.144 40.8044C553.442 40.8044 552.815 40.6977 552.264 40.4844C551.713 40.271 551.244 39.9777 550.858 39.6044L551.611 38.7577C551.931 39.0555 552.298 39.291 552.711 39.4644C553.124 39.6377 553.607 39.7244 554.158 39.7244C554.518 39.7244 554.851 39.6666 555.158 39.551C555.469 39.431 555.718 39.2533 555.904 39.0177C556.095 38.7777 556.191 38.4777 556.191 38.1177C556.191 37.8333 556.133 37.591 556.018 37.391C555.907 37.1866 555.709 37.0066 555.424 36.851C555.14 36.6955 554.742 36.5421 554.231 36.391C553.609 36.2088 553.075 36.0021 552.631 35.771C552.191 35.5355 551.853 35.2533 551.618 34.9244C551.387 34.591 551.271 34.1821 551.271 33.6977C551.271 33.2221 551.402 32.8044 551.664 32.4444C551.927 32.0799 552.287 31.7955 552.744 31.591C553.202 31.3866 553.729 31.2844 554.324 31.2844C554.969 31.2844 555.531 31.3777 556.011 31.5644C556.495 31.751 556.931 32.0155 557.318 32.3577L556.584 33.1844C556.255 32.8955 555.902 32.6866 555.524 32.5577C555.151 32.4244 554.771 32.3577 554.384 32.3577C553.895 32.3577 553.48 32.4644 553.138 32.6777C552.795 32.8866 552.624 33.2066 552.624 33.6377C552.624 33.8955 552.693 34.1155 552.831 34.2977C552.969 34.4755 553.2 34.6399 553.524 34.791C553.853 34.9421 554.302 35.1021 554.871 35.271C555.364 35.4177 555.813 35.5977 556.218 35.811C556.627 36.0199 556.953 36.3044 557.198 36.6644C557.442 37.0199 557.564 37.4888 557.564 38.071ZM565.442 31.451V37.6444C565.442 38.2666 565.316 38.8155 565.062 39.291C564.813 39.7666 564.456 40.1377 563.989 40.4044C563.527 40.671 562.973 40.8044 562.329 40.8044C561.68 40.8044 561.125 40.671 560.662 40.4044C560.2 40.1377 559.847 39.7666 559.602 39.291C559.362 38.8155 559.242 38.2666 559.242 37.6444V31.451H560.562V37.5444C560.562 38.9844 561.151 39.7044 562.329 39.7044C563.516 39.7044 564.109 38.9844 564.109 37.5444V31.451H565.442ZM573.6 38.0044C573.6 38.511 573.5 38.9333 573.3 39.271C573.105 39.6088 572.838 39.8777 572.5 40.0777C572.167 40.2777 571.792 40.4221 571.374 40.511C570.96 40.5955 570.536 40.6377 570.1 40.6377H567.54V31.451H569.907C570.32 31.451 570.723 31.4888 571.114 31.5644C571.505 31.6355 571.858 31.7599 572.174 31.9377C572.489 32.111 572.738 32.3488 572.92 32.651C573.107 32.9488 573.2 33.3221 573.2 33.771C573.2 34.1577 573.118 34.4888 572.954 34.7644C572.794 35.0355 572.585 35.2555 572.327 35.4244C572.069 35.5888 571.794 35.7044 571.5 35.771C571.834 35.8288 572.16 35.9355 572.48 36.091C572.805 36.2421 573.072 36.471 573.28 36.7777C573.494 37.0799 573.6 37.4888 573.6 38.0044ZM571.854 33.8577C571.854 33.3599 571.698 33.0066 571.387 32.7977C571.08 32.5844 570.656 32.4777 570.114 32.4777H568.86V35.3177H570.22C570.749 35.3177 571.154 35.2044 571.434 34.9777C571.714 34.7466 571.854 34.3733 571.854 33.8577ZM572.214 38.0244C572.214 37.5844 572.127 37.2444 571.954 37.0044C571.785 36.7599 571.556 36.591 571.267 36.4977C570.983 36.4044 570.667 36.3577 570.32 36.3577H568.86V39.5777H570.26C570.558 39.5777 570.856 39.5399 571.154 39.4644C571.456 39.3844 571.707 39.2333 571.907 39.011C572.112 38.7888 572.214 38.4599 572.214 38.0244ZM578.545 40.8044C577.421 40.8044 576.532 40.4066 575.878 39.611C575.225 38.8155 574.898 37.6244 574.898 36.0377C574.898 35.2466 575.005 34.5555 575.218 33.9644C575.432 33.3688 575.721 32.8733 576.085 32.4777C576.454 32.0777 576.872 31.7799 577.338 31.5844C577.81 31.3844 578.301 31.2844 578.812 31.2844C579.421 31.2844 579.927 31.3733 580.332 31.551C580.741 31.7288 581.125 31.9844 581.485 32.3177L580.712 33.1177C580.165 32.611 579.538 32.3577 578.832 32.3577C578.396 32.3577 577.985 32.4733 577.598 32.7044C577.212 32.9355 576.898 33.3199 576.658 33.8577C576.418 34.3955 576.298 35.1221 576.298 36.0377C576.298 37.3488 576.496 38.2933 576.892 38.871C577.287 39.4444 577.87 39.731 578.638 39.731C579.225 39.731 579.774 39.591 580.285 39.311V36.6244H578.585L578.432 35.571H581.585V39.9844C581.163 40.2199 580.712 40.4155 580.232 40.571C579.756 40.7266 579.194 40.8044 578.545 40.8044ZM589.556 34.0577C589.556 34.7466 589.345 35.3021 588.923 35.7244C588.505 36.1421 587.99 36.431 587.376 36.591L590.05 40.6377H588.483L586.063 36.7644H584.923V40.6377H583.596V31.451H586.043C587.194 31.451 588.068 31.671 588.663 32.111C589.259 32.5466 589.556 33.1955 589.556 34.0577ZM588.15 34.0577C588.15 33.4933 587.985 33.0866 587.656 32.8377C587.332 32.5888 586.832 32.4644 586.156 32.4644H584.923V35.7577H586.17C586.801 35.7577 587.288 35.6288 587.63 35.371C587.976 35.1088 588.15 34.671 588.15 34.0577ZM596.041 38.351H592.561L591.868 40.6377H590.541L593.501 31.451H595.168L598.135 40.6377H596.735L596.041 38.351ZM592.868 37.291H595.735L594.308 32.5177L592.868 37.291ZM605.799 34.2977C605.799 35.0133 605.646 35.591 605.339 36.031C605.037 36.4666 604.617 36.7844 604.079 36.9844C603.541 37.1844 602.926 37.2844 602.233 37.2844H601.086V40.6377H599.759V31.451H602.193C603.313 31.451 604.193 31.6844 604.833 32.151C605.477 32.6133 605.799 33.3288 605.799 34.2977ZM604.399 34.311C604.399 33.6355 604.204 33.1599 603.813 32.8844C603.426 32.6088 602.928 32.471 602.319 32.471H601.086V36.2444H602.299C602.708 36.2444 603.07 36.1866 603.386 36.071C603.701 35.9555 603.948 35.7577 604.126 35.4777C604.308 35.1977 604.399 34.8088 604.399 34.311ZM611.964 40.6377V36.3577H608.697V40.6377H607.377V31.451H608.697V35.271H611.964V31.451H613.284V40.6377H611.964ZM628.033 38.351H624.553L623.86 40.6377H622.533L625.493 31.451H627.16L630.127 40.6377H628.727L628.033 38.351ZM624.86 37.291H627.727L626.3 32.5177L624.86 37.291Z" fill="#FAD000"/>
<rect x="473.63" y="95.2109" width="206.5" height="71.2449" rx="5.25" fill="#15252D"/>
<rect x="473.63" y="95.2109" width="206.5" height="71.2449" rx="5.25" stroke="#00FAB3" stroke-width="1.5"/>
<g clip-path="url(#clip3_451_2123)">
<path d="M535.488 133.489H527.337M535.638 134.212L532.346 136.207M526.26 132.552C526.55 132.552 526.828 132.667 527.034 132.872C527.239 133.077 527.354 133.355 527.354 133.646C527.354 133.936 527.239 134.214 527.034 134.419C526.828 134.624 526.55 134.739 526.26 134.739C525.97 134.739 525.692 134.624 525.487 134.419C525.282 134.214 525.166 133.936 525.166 133.646C525.166 133.355 525.282 133.077 525.487 132.872C525.692 132.667 525.97 132.552 526.26 132.552ZM526.26 132.552V129.112M536.573 132.552C536.863 132.552 537.141 132.667 537.346 132.872C537.551 133.077 537.666 133.355 537.666 133.646C537.666 133.936 537.551 134.214 537.346 134.419C537.141 134.624 536.863 134.739 536.573 134.739C536.283 134.739 536.004 134.624 535.799 134.419C535.594 134.214 535.479 133.936 535.479 133.646C535.479 133.355 535.594 133.077 535.799 132.872C536.004 132.667 536.283 132.552 536.573 132.552ZM536.573 132.552V129.112M531.009 125.905L526.963 132.821M531.824 125.905L535.87 132.821M530.481 125.462L527.195 127.454M527.195 134.212L530.486 136.207M532.352 125.462L535.638 127.454M531.416 125.989C531.707 125.989 531.985 125.874 532.19 125.669C532.395 125.464 532.51 125.186 532.51 124.896C532.51 124.605 532.395 124.327 532.19 124.122C531.985 123.917 531.707 123.802 531.416 123.802C531.126 123.802 530.848 123.917 530.643 124.122C530.438 124.327 530.323 124.605 530.323 124.896C530.323 125.186 530.438 125.464 530.643 125.669C530.848 125.874 531.126 125.989 531.416 125.989ZM526.26 129.114C526.55 129.114 526.828 128.999 527.034 128.794C527.239 128.589 527.354 128.311 527.354 128.021C527.354 127.73 527.239 127.452 527.034 127.247C526.828 127.042 526.55 126.927 526.26 126.927C525.97 126.927 525.692 127.042 525.487 127.247C525.282 127.452 525.166 127.73 525.166 128.021C525.166 128.311 525.282 128.589 525.487 128.794C525.692 128.999 525.97 129.114 526.26 129.114ZM536.573 129.114C536.863 129.114 537.141 128.999 537.346 128.794C537.551 128.589 537.666 128.311 537.666 128.021C537.666 127.73 537.551 127.452 537.346 127.247C537.141 127.042 536.863 126.927 536.573 126.927C536.283 126.927 536.004 127.042 535.799 127.247C535.594 127.452 535.479 127.73 535.479 128.021C535.479 128.311 535.594 128.589 535.799 128.794C536.004 128.999 536.283 129.114 536.573 129.114ZM531.416 137.864C531.707 137.864 531.985 137.749 532.19 137.544C532.395 137.339 532.51 137.061 532.51 136.771C532.51 136.48 532.395 136.202 532.19 135.997C531.985 135.792 531.707 135.677 531.416 135.677C531.126 135.677 530.848 135.792 530.643 135.997C530.438 136.202 530.323 136.48 530.323 136.771C530.323 137.061 530.438 137.339 530.643 137.544C530.848 137.749 531.126 137.864 531.416 137.864Z" stroke="#00FAB3" stroke-linecap="round" stroke-linejoin="round"/>
</g>
<path d="M557.564 132.266C557.564 132.8 557.429 133.273 557.158 133.686C556.891 134.095 556.502 134.417 555.991 134.653C555.484 134.884 554.869 135 554.144 135C553.442 135 552.815 134.893 552.264 134.68C551.713 134.466 551.244 134.173 550.858 133.8L551.611 132.953C551.931 133.251 552.298 133.486 552.711 133.66C553.124 133.833 553.607 133.92 554.158 133.92C554.518 133.92 554.851 133.862 555.158 133.746C555.469 133.626 555.718 133.449 555.904 133.213C556.095 132.973 556.191 132.673 556.191 132.313C556.191 132.029 556.133 131.786 556.018 131.586C555.907 131.382 555.709 131.202 555.424 131.046C555.14 130.891 554.742 130.737 554.231 130.586C553.609 130.404 553.075 130.197 552.631 129.966C552.191 129.731 551.853 129.449 551.618 129.12C551.387 128.786 551.271 128.377 551.271 127.893C551.271 127.417 551.402 127 551.664 126.64C551.927 126.275 552.287 125.991 552.744 125.786C553.202 125.582 553.729 125.48 554.324 125.48C554.969 125.48 555.531 125.573 556.011 125.76C556.495 125.946 556.931 126.211 557.318 126.553L556.584 127.38C556.255 127.091 555.902 126.882 555.524 126.753C555.151 126.62 554.771 126.553 554.384 126.553C553.895 126.553 553.48 126.66 553.138 126.873C552.795 127.082 552.624 127.402 552.624 127.833C552.624 128.091 552.693 128.311 552.831 128.493C552.969 128.671 553.2 128.835 553.524 128.986C553.853 129.137 554.302 129.297 554.871 129.466C555.364 129.613 555.813 129.793 556.218 130.006C556.627 130.215 556.953 130.5 557.198 130.86C557.442 131.215 557.564 131.684 557.564 132.266ZM565.442 125.646V131.84C565.442 132.462 565.316 133.011 565.062 133.486C564.813 133.962 564.456 134.333 563.989 134.6C563.527 134.866 562.973 135 562.329 135C561.68 135 561.125 134.866 560.662 134.6C560.2 134.333 559.847 133.962 559.602 133.486C559.362 133.011 559.242 132.462 559.242 131.84V125.646H560.562V131.74C560.562 133.18 561.151 133.9 562.329 133.9C563.516 133.9 564.109 133.18 564.109 131.74V125.646H565.442ZM573.6 132.2C573.6 132.706 573.5 133.129 573.3 133.466C573.105 133.804 572.838 134.073 572.5 134.273C572.167 134.473 571.792 134.617 571.374 134.706C570.96 134.791 570.536 134.833 570.1 134.833H567.54V125.646H569.907C570.32 125.646 570.723 125.684 571.114 125.76C571.505 125.831 571.858 125.955 572.174 126.133C572.489 126.306 572.738 126.544 572.92 126.846C573.107 127.144 573.2 127.517 573.2 127.966C573.2 128.353 573.118 128.684 572.954 128.96C572.794 129.231 572.585 129.451 572.327 129.62C572.069 129.784 571.794 129.9 571.5 129.966C571.834 130.024 572.16 130.131 572.48 130.286C572.805 130.437 573.072 130.666 573.28 130.973C573.494 131.275 573.6 131.684 573.6 132.2ZM571.854 128.053C571.854 127.555 571.698 127.202 571.387 126.993C571.08 126.78 570.656 126.673 570.114 126.673H568.86V129.513H570.22C570.749 129.513 571.154 129.4 571.434 129.173C571.714 128.942 571.854 128.569 571.854 128.053ZM572.214 132.22C572.214 131.78 572.127 131.44 571.954 131.2C571.785 130.955 571.556 130.786 571.267 130.693C570.983 130.6 570.667 130.553 570.32 130.553H568.86V133.773H570.26C570.558 133.773 570.856 133.735 571.154 133.66C571.456 133.58 571.707 133.429 571.907 133.206C572.112 132.984 572.214 132.655 572.214 132.22ZM578.545 135C577.421 135 576.532 134.602 575.878 133.806C575.225 133.011 574.898 131.82 574.898 130.233C574.898 129.442 575.005 128.751 575.218 128.16C575.432 127.564 575.721 127.069 576.085 126.673C576.454 126.273 576.872 125.975 577.338 125.78C577.81 125.58 578.301 125.48 578.812 125.48C579.421 125.48 579.927 125.569 580.332 125.746C580.741 125.924 581.125 126.18 581.485 126.513L580.712 127.313C580.165 126.806 579.538 126.553 578.832 126.553C578.396 126.553 577.985 126.669 577.598 126.9C577.212 127.131 576.898 127.515 576.658 128.053C576.418 128.591 576.298 129.317 576.298 130.233C576.298 131.544 576.496 132.489 576.892 133.066C577.287 133.64 577.87 133.926 578.638 133.926C579.225 133.926 579.774 133.786 580.285 133.506V130.82H578.585L578.432 129.766H581.585V134.18C581.163 134.415 580.712 134.611 580.232 134.766C579.756 134.922 579.194 135 578.545 135ZM589.556 128.253C589.556 128.942 589.345 129.497 588.923 129.92C588.505 130.337 587.99 130.626 587.376 130.786L590.05 134.833H588.483L586.063 130.96H584.923V134.833H583.596V125.646H586.043C587.194 125.646 588.068 125.866 588.663 126.306C589.259 126.742 589.556 127.391 589.556 128.253ZM588.15 128.253C588.15 127.689 587.985 127.282 587.656 127.033C587.332 126.784 586.832 126.66 586.156 126.66H584.923V129.953H586.17C586.801 129.953 587.288 129.824 587.63 129.566C587.976 129.304 588.15 128.866 588.15 128.253ZM596.041 132.546H592.561L591.868 134.833H590.541L593.501 125.646H595.168L598.135 134.833H596.735L596.041 132.546ZM592.868 131.486H595.735L594.308 126.713L592.868 131.486ZM605.799 128.493C605.799 129.209 605.646 129.786 605.339 130.226C605.037 130.662 604.617 130.98 604.079 131.18C603.541 131.38 602.926 131.48 602.233 131.48H601.086V134.833H599.759V125.646H602.193C603.313 125.646 604.193 125.88 604.833 126.346C605.477 126.809 605.799 127.524 605.799 128.493ZM604.399 128.506C604.399 127.831 604.204 127.355 603.813 127.08C603.426 126.804 602.928 126.666 602.319 126.666H601.086V130.44H602.299C602.708 130.44 603.07 130.382 603.386 130.266C603.701 130.151 603.948 129.953 604.126 129.673C604.308 129.393 604.399 129.004 604.399 128.506ZM611.964 134.833V130.553H608.697V134.833H607.377V125.646H608.697V129.466H611.964V125.646H613.284V134.833H611.964ZM629.587 132.2C629.587 132.706 629.487 133.129 629.287 133.466C629.091 133.804 628.824 134.073 628.487 134.273C628.153 134.473 627.778 134.617 627.36 134.706C626.947 134.791 626.522 134.833 626.087 134.833H623.527V125.646H625.893C626.307 125.646 626.709 125.684 627.1 125.76C627.491 125.831 627.844 125.955 628.16 126.133C628.476 126.306 628.724 126.544 628.907 126.846C629.093 127.144 629.187 127.517 629.187 127.966C629.187 128.353 629.104 128.684 628.94 128.96C628.78 129.231 628.571 129.451 628.313 129.62C628.056 129.784 627.78 129.9 627.487 129.966C627.82 130.024 628.147 130.131 628.467 130.286C628.791 130.437 629.058 130.666 629.267 130.973C629.48 131.275 629.587 131.684 629.587 132.2ZM627.84 128.053C627.84 127.555 627.684 127.202 627.373 126.993C627.067 126.78 626.642 126.673 626.1 126.673H624.847V129.513H626.207C626.736 129.513 627.14 129.4 627.42 129.173C627.7 128.942 627.84 128.569 627.84 128.053ZM628.2 132.22C628.2 131.78 628.113 131.44 627.94 131.2C627.771 130.955 627.542 130.786 627.253 130.693C626.969 130.6 626.653 130.553 626.307 130.553H624.847V133.773H626.247C626.544 133.773 626.842 133.735 627.14 133.66C627.442 133.58 627.693 133.429 627.893 133.206C628.098 132.984 628.2 132.655 628.2 132.22Z" fill="#00FAB3"/>
<path d="M87.6147 81.833L178.258 81.833" stroke="#CFD7D6" stroke-width="2" stroke-dasharray="4 4"/>
<path d="M349.223 69.9507H396.886C403.513 69.9507 408.886 64.5781 408.886 57.9507V45.9414C408.886 39.314 414.258 33.9414 420.886 33.9414H473.521" stroke="#FAD000" stroke-width="2"/>
<path d="M349.223 69.9507H396.886C403.513 69.9507 408.886 64.5781 408.886 57.9507V45.9414C408.886 39.314 414.258 33.9414 420.886 33.9414H473.521" stroke="#FAD000" stroke-width="2"/>
<path d="M349.223 93.9409H396.886C403.513 93.9409 408.886 99.3135 408.886 105.941V117.95C408.886 124.578 414.258 129.95 420.886 129.95H473.521" stroke="#00FAB3" stroke-width="2"/>
<defs>
<clipPath id="clip0_451_2123">
<rect width="13.3333" height="13.3333" fill="white" transform="translate(36.6667 84.668)"/>
</clipPath>
<clipPath id="clip1_451_2123">
<rect width="16" height="16" fill="white" transform="translate(195.942 74.2656)"/>
</clipPath>
<clipPath id="clip2_451_2123">
<rect width="16" height="16" fill="white" transform="translate(523.416 28.6377)"/>
</clipPath>
<clipPath id="clip3_451_2123">
<rect width="16" height="16" fill="white" transform="translate(523.416 122.833)"/>
</clipPath>
</defs>
</svg>
