<svg width="715" height="256" viewBox="0 0 715 256" fill="none" xmlns="http://www.w3.org/2000/svg">
<rect x="1.51074" y="104.218" width="86.5" height="70.5" rx="5.25" fill="#15252D"/>
<rect x="1.51074" y="104.218" width="86.5" height="70.5" rx="5.25" stroke="#CFD7D6" stroke-width="1.5"/>
<path d="M19.5341 123.614C20.143 123.614 20.6541 123.692 21.0674 123.848C21.4852 124.003 21.8763 124.23 22.2407 124.528L21.5274 125.368C21.243 125.132 20.9407 124.961 20.6207 124.854C20.3007 124.743 19.9652 124.688 19.6141 124.688C19.1296 124.688 18.683 124.806 18.2741 125.041C17.8652 125.277 17.5363 125.663 17.2874 126.201C17.0385 126.739 16.9141 127.461 16.9141 128.368C16.9141 129.252 17.0319 129.963 17.2674 130.501C17.5074 131.034 17.8296 131.423 18.2341 131.668C18.643 131.908 19.0985 132.028 19.6007 132.028C20.103 132.028 20.5185 131.95 20.8474 131.794C21.1807 131.634 21.4696 131.452 21.7141 131.248L22.3741 132.094C22.0852 132.379 21.7096 132.623 21.2474 132.828C20.7896 133.032 20.2296 133.134 19.5674 133.134C18.8074 133.134 18.123 132.952 17.5141 132.588C16.9096 132.223 16.4296 131.688 16.0741 130.981C15.7185 130.27 15.5407 129.399 15.5407 128.368C15.5407 127.337 15.7207 126.468 16.0807 125.761C16.4452 125.054 16.9296 124.521 17.5341 124.161C18.143 123.797 18.8096 123.614 19.5341 123.614ZM24.4721 132.968V123.781H25.7988V131.821H29.9588L29.8121 132.968H24.4721ZM37.4435 123.781V124.814H35.4235V131.928H37.4435V132.968H32.0702V131.928H34.0902V124.814H32.0702V123.781H37.4435ZM41.6815 124.821V127.774H45.0549V128.821H41.6815V131.934H45.8082V132.968H40.3549V123.781H45.7082L45.5549 124.821H41.6815ZM51.9196 132.968L48.8196 125.001C48.8285 125.157 48.8463 125.423 48.8729 125.801C48.904 126.174 48.9329 126.606 48.9596 127.094C48.9863 127.579 48.9996 128.063 48.9996 128.548V132.968H47.7996V123.781H49.5529L52.6863 131.768C52.6774 131.617 52.6574 131.366 52.6263 131.014C52.5952 130.659 52.5663 130.239 52.5396 129.754C52.5174 129.27 52.5063 128.752 52.5063 128.201V123.781H53.7063V132.968H51.9196ZM59.391 124.881V132.968H58.071V124.881H55.2443V123.781H62.2643L62.1243 124.881H59.391ZM69.969 130.401C69.969 130.934 69.8335 131.408 69.5624 131.821C69.2957 132.23 68.9068 132.552 68.3957 132.788C67.889 133.019 67.2735 133.134 66.549 133.134C65.8468 133.134 65.2201 133.028 64.669 132.814C64.1179 132.601 63.649 132.308 63.2624 131.934L64.0157 131.088C64.3357 131.386 64.7024 131.621 65.1157 131.794C65.529 131.968 66.0112 132.054 66.5624 132.054C66.9224 132.054 67.2557 131.997 67.5624 131.881C67.8735 131.761 68.1224 131.583 68.309 131.348C68.5001 131.108 68.5957 130.808 68.5957 130.448C68.5957 130.163 68.5379 129.921 68.4224 129.721C68.3112 129.517 68.1135 129.337 67.829 129.181C67.5446 129.026 67.1468 128.872 66.6357 128.721C66.0135 128.539 65.4801 128.332 65.0357 128.101C64.5957 127.866 64.2579 127.583 64.0224 127.254C63.7912 126.921 63.6757 126.512 63.6757 126.028C63.6757 125.552 63.8068 125.134 64.069 124.774C64.3312 124.41 64.6912 124.126 65.149 123.921C65.6068 123.717 66.1335 123.614 66.729 123.614C67.3735 123.614 67.9357 123.708 68.4157 123.894C68.9001 124.081 69.3357 124.346 69.7224 124.688L68.989 125.514C68.6601 125.226 68.3068 125.017 67.929 124.888C67.5557 124.754 67.1757 124.688 66.789 124.688C66.3001 124.688 65.8846 124.794 65.5424 125.008C65.2001 125.217 65.029 125.537 65.029 125.968C65.029 126.226 65.0979 126.446 65.2357 126.628C65.3735 126.806 65.6046 126.97 65.929 127.121C66.2579 127.272 66.7068 127.432 67.2757 127.601C67.769 127.748 68.2179 127.928 68.6224 128.141C69.0312 128.35 69.3579 128.634 69.6024 128.994C69.8468 129.35 69.969 129.819 69.969 130.401Z" fill="#CFD7D6"/>
<g clip-path="url(#clip0_451_2146)">
<path d="M26.032 148.882C26.4196 149.692 26.7251 150.538 26.9439 151.409C28.6839 150.897 29.792 150.056 29.792 149.034C29.792 147.992 28.642 147.137 26.8426 146.629" stroke="#CFD7D6" stroke-linecap="round" stroke-linejoin="round"/>
<path d="M19.4814 148.882C19.1441 148.158 18.8722 147.405 18.6689 146.632C16.8745 147.14 15.7314 147.994 15.7314 149.034C15.7314 150.054 16.8358 150.894 18.5708 151.409" stroke="#CFD7D6" stroke-linecap="round" stroke-linejoin="round"/>
<path d="M21.0264 146.208C21.5345 145.467 22.1155 144.78 22.7607 144.156C21.4482 142.906 20.1651 142.366 19.2801 142.877C18.3776 143.398 18.212 144.821 18.672 146.634" stroke="#CFD7D6" stroke-linecap="round" stroke-linejoin="round"/>
<path d="M24.302 151.88C23.8435 152.534 23.3277 153.146 22.7607 153.709C24.0982 155.008 25.4107 155.574 26.3114 155.054C27.1945 154.544 27.3701 153.167 26.9457 151.409" stroke="#CFD7D6" stroke-linecap="round" stroke-linejoin="round"/>
<path d="M21.2126 151.879C20.3177 151.81 19.432 151.651 18.5688 151.405C18.1413 153.168 18.3188 154.548 19.2013 155.06C20.1032 155.58 21.4188 155.012 22.7588 153.708" stroke="#CFD7D6" stroke-linecap="round" stroke-linejoin="round"/>
<path d="M24.4882 146.207C25.284 146.278 26.072 146.419 26.8426 146.63C27.2995 144.822 27.1332 143.402 26.2326 142.88C25.3489 142.372 24.0695 142.906 22.7607 144.156" stroke="#CFD7D6" stroke-linecap="round" stroke-linejoin="round"/>
<path d="M24.4883 146.207C23.937 146.154 23.3633 146.123 22.7608 146.123C22.1583 146.123 21.5801 146.154 21.0264 146.207C20.742 146.617 20.4639 147.052 20.1958 147.516C19.9276 147.979 19.6958 148.434 19.4814 148.882C19.7114 149.386 19.9726 149.901 20.2726 150.421C20.5726 150.941 20.8901 151.427 21.2101 151.88C22.238 151.968 23.2716 151.968 24.2995 151.881C24.9727 150.94 25.5526 149.936 26.0308 148.882C25.5943 147.948 25.0782 147.053 24.4883 146.207Z" stroke="#CFD7D6" stroke-linecap="round" stroke-linejoin="round"/>
<path d="M21.8232 149.034C21.8232 149.283 21.922 149.521 22.0978 149.697C22.2736 149.873 22.5121 149.972 22.7607 149.972C23.0094 149.972 23.2478 149.873 23.4237 149.697C23.5995 149.521 23.6982 149.283 23.6982 149.034C23.6982 148.786 23.5995 148.547 23.4237 148.371C23.2478 148.195 23.0094 148.097 22.7607 148.097C22.5121 148.097 22.2736 148.195 22.0978 148.371C21.922 148.547 21.8232 148.786 21.8232 149.034Z" stroke="#CFD7D6" stroke-linecap="round" stroke-linejoin="round"/>
</g>
<g clip-path="url(#clip1_451_2146)">
<path d="M38.2347 143.107V154.826L49.9534 143.107H38.2347Z" stroke="#CFD7D6" stroke-linecap="round" stroke-linejoin="round"/>
<path d="M44.0941 148.967L49.9534 154.826H38.2347" stroke="#CFD7D6" stroke-linecap="round" stroke-linejoin="round"/>
<path d="M44.0941 143.107L38.3597 148.842" stroke="#CFD7D6" stroke-linecap="round" stroke-linejoin="round"/>
</g>
<g clip-path="url(#clip2_451_2146)">
<path d="M66.4545 148.342C64.0108 146.823 61.842 143.442 61.842 143.442C61.842 143.442 63.6358 148.161 66.9295 151.261C65.8684 151.32 64.8074 151.145 63.8214 150.748C62.8353 150.352 61.9484 149.744 61.2233 148.967C60.7645 148.508 60.3597 147.999 60.017 147.448C59.9949 147.421 59.9637 147.403 59.9292 147.397C59.8946 147.391 59.8592 147.398 59.8295 147.417C59.7952 147.435 59.7676 147.464 59.7508 147.498C59.7339 147.533 59.7286 147.573 59.7358 147.611C60.1685 149.164 61.0028 150.576 62.1545 151.704C64.817 154.367 68.4858 155.104 70.817 153.579C71.2668 153.717 71.7297 153.807 72.1983 153.848C73.4108 154.473 73.4108 154.761 73.4108 154.761C73.5868 154.555 73.7073 154.307 73.7609 154.041C73.8144 153.775 73.7994 153.5 73.717 153.242C73.7818 152.956 73.7565 152.657 73.6446 152.387C73.5327 152.116 73.3396 151.886 73.092 151.729L72.5358 151.386C73.3795 149.086 72.5358 145.973 70.192 143.636C70.0358 143.473 69.8733 143.323 69.7045 143.179C69.676 143.154 69.6393 143.141 69.6014 143.141C69.5634 143.141 69.5268 143.154 69.4983 143.179C69.4691 143.203 69.4489 143.235 69.4409 143.272C69.433 143.308 69.4378 143.346 69.4545 143.379C70.7733 145.473 70.967 147.867 69.892 149.492C67.8787 147.751 66.1458 145.711 64.7545 143.442" stroke="#CFD7D6" stroke-linecap="round" stroke-linejoin="round"/>
</g>
<rect x="180.917" y="104.65" width="170.5" height="70.5" rx="35.25" fill="#15252D"/>
<rect x="180.917" y="104.65" width="170.5" height="70.5" rx="35.25" stroke="#FC5200" stroke-width="1.5"/>
<g clip-path="url(#clip3_451_2146)">
<path d="M200.565 140.795C203.158 141.608 204.703 143.17 204.703 146.12M204.703 146.12V146.932M204.703 146.12C204.703 143.17 206.247 141.608 208.84 140.795M204.703 146.12V136.15M203.234 136.15C203.174 136.15 203.114 136.134 203.061 136.103C203.008 136.073 202.965 136.029 202.934 135.976C202.904 135.923 202.889 135.863 202.889 135.802C202.889 135.741 202.906 135.681 202.937 135.629L204.405 133.025C204.436 132.973 204.479 132.931 204.531 132.901C204.584 132.871 204.643 132.855 204.703 132.855C204.763 132.855 204.822 132.871 204.874 132.901C204.926 132.931 204.97 132.973 205 133.025L206.469 135.628C206.5 135.681 206.516 135.741 206.517 135.802C206.517 135.863 206.501 135.923 206.471 135.976C206.441 136.029 206.397 136.073 206.344 136.103C206.292 136.134 206.232 136.15 206.171 136.15H203.234ZM201.21 139.238C201.233 139.181 201.241 139.12 201.233 139.059C201.225 138.999 201.201 138.942 201.164 138.893C201.126 138.845 201.077 138.808 201.02 138.785C200.964 138.761 200.902 138.754 200.842 138.762L197.967 139.166C197.907 139.175 197.851 139.198 197.803 139.235C197.755 139.272 197.718 139.321 197.695 139.377C197.672 139.432 197.664 139.493 197.671 139.553C197.679 139.613 197.702 139.67 197.739 139.718L199.484 142.035C199.521 142.083 199.57 142.121 199.626 142.145C199.682 142.169 199.744 142.177 199.804 142.169C199.865 142.162 199.922 142.138 199.971 142.101C200.019 142.064 200.057 142.015 200.081 141.958L200.643 140.598L201.21 139.238ZM208.195 139.238C208.172 139.181 208.164 139.12 208.172 139.059C208.18 138.999 208.204 138.942 208.242 138.893C208.279 138.845 208.328 138.808 208.385 138.785C208.441 138.761 208.503 138.754 208.563 138.762L211.438 139.166C211.498 139.175 211.555 139.198 211.602 139.235C211.65 139.272 211.687 139.321 211.71 139.377C211.733 139.432 211.741 139.493 211.734 139.553C211.726 139.613 211.703 139.67 211.666 139.718L209.921 142.035C209.884 142.083 209.835 142.121 209.779 142.145C209.723 142.169 209.661 142.177 209.601 142.169C209.54 142.162 209.483 142.138 209.434 142.101C209.386 142.064 209.348 142.015 209.324 141.958L208.762 140.598L208.195 139.238Z" stroke="#FC5200" stroke-linecap="round" stroke-linejoin="round"/>
</g>
<path d="M227.851 144.567C226.726 144.567 225.837 144.169 225.184 143.374C224.531 142.578 224.204 141.387 224.204 139.8C224.204 139.009 224.311 138.318 224.524 137.727C224.737 137.132 225.026 136.636 225.391 136.24C225.76 135.84 226.177 135.543 226.644 135.347C227.115 135.147 227.606 135.047 228.117 135.047C228.726 135.047 229.233 135.136 229.637 135.314C230.046 135.492 230.431 135.747 230.791 136.08L230.017 136.88C229.471 136.374 228.844 136.12 228.137 136.12C227.702 136.12 227.291 136.236 226.904 136.467C226.517 136.698 226.204 137.083 225.964 137.62C225.724 138.158 225.604 138.885 225.604 139.8C225.604 141.112 225.802 142.056 226.197 142.634C226.593 143.207 227.175 143.494 227.944 143.494C228.531 143.494 229.08 143.354 229.591 143.074V140.387H227.891L227.737 139.334H230.891V143.747C230.469 143.983 230.017 144.178 229.537 144.334C229.062 144.489 228.5 144.567 227.851 144.567ZM238.862 137.82C238.862 138.509 238.651 139.065 238.229 139.487C237.811 139.905 237.295 140.194 236.682 140.354L239.355 144.4H237.789L235.369 140.527H234.229V144.4H232.902V135.214H235.349C236.5 135.214 237.373 135.434 237.969 135.874C238.564 136.309 238.862 136.958 238.862 137.82ZM237.455 137.82C237.455 137.256 237.291 136.849 236.962 136.6C236.638 136.352 236.138 136.227 235.462 136.227H234.229V139.52H235.475C236.107 139.52 236.593 139.392 236.935 139.134C237.282 138.872 237.455 138.434 237.455 137.82ZM245.347 142.114H241.867L241.174 144.4H239.847L242.807 135.214H244.474L247.44 144.4H246.04L245.347 142.114ZM242.174 141.054H245.04L243.614 136.28L242.174 141.054ZM255.105 138.06C255.105 138.776 254.952 139.354 254.645 139.794C254.343 140.229 253.923 140.547 253.385 140.747C252.847 140.947 252.232 141.047 251.538 141.047H250.392V144.4H249.065V135.214H251.498C252.618 135.214 253.498 135.447 254.138 135.914C254.783 136.376 255.105 137.092 255.105 138.06ZM253.705 138.074C253.705 137.398 253.509 136.923 253.118 136.647C252.732 136.372 252.234 136.234 251.625 136.234H250.392V140.007H251.605C252.014 140.007 252.376 139.949 252.692 139.834C253.007 139.718 253.254 139.52 253.432 139.24C253.614 138.96 253.705 138.572 253.705 138.074ZM261.27 144.4V140.12H258.003V144.4H256.683V135.214H258.003V139.034H261.27V135.214H262.59V144.4H261.27ZM271.068 139.814C271.068 140.747 270.939 141.572 270.681 142.287C270.423 143.003 270.039 143.563 269.528 143.967C269.021 144.367 268.39 144.567 267.634 144.567C266.879 144.567 266.245 144.372 265.734 143.98C265.228 143.585 264.845 143.032 264.588 142.32C264.33 141.609 264.201 140.778 264.201 139.827C264.201 138.889 264.33 138.063 264.588 137.347C264.845 136.627 265.228 136.065 265.734 135.66C266.245 135.252 266.879 135.047 267.634 135.047C268.39 135.047 269.021 135.245 269.528 135.64C270.039 136.036 270.423 136.592 270.681 137.307C270.939 138.023 271.068 138.858 271.068 139.814ZM269.688 139.814C269.688 138.605 269.528 137.687 269.208 137.06C268.892 136.434 268.368 136.12 267.634 136.12C266.901 136.12 266.374 136.436 266.054 137.067C265.739 137.698 265.581 138.618 265.581 139.827C265.581 141.032 265.743 141.945 266.068 142.567C266.397 143.185 266.919 143.494 267.634 143.494C268.368 143.494 268.892 143.183 269.208 142.56C269.528 141.934 269.688 141.018 269.688 139.814ZM278.852 141.834C278.852 142.367 278.717 142.84 278.446 143.254C278.179 143.663 277.79 143.985 277.279 144.22C276.772 144.452 276.157 144.567 275.432 144.567C274.73 144.567 274.103 144.46 273.552 144.247C273.001 144.034 272.532 143.74 272.146 143.367L272.899 142.52C273.219 142.818 273.586 143.054 273.999 143.227C274.412 143.4 274.895 143.487 275.446 143.487C275.806 143.487 276.139 143.429 276.446 143.314C276.757 143.194 277.006 143.016 277.192 142.78C277.383 142.54 277.479 142.24 277.479 141.88C277.479 141.596 277.421 141.354 277.306 141.154C277.195 140.949 276.997 140.769 276.712 140.614C276.428 140.458 276.03 140.305 275.519 140.154C274.897 139.972 274.363 139.765 273.919 139.534C273.479 139.298 273.141 139.016 272.906 138.687C272.675 138.354 272.559 137.945 272.559 137.46C272.559 136.985 272.69 136.567 272.952 136.207C273.215 135.843 273.575 135.558 274.032 135.354C274.49 135.149 275.017 135.047 275.612 135.047C276.257 135.047 276.819 135.14 277.299 135.327C277.783 135.514 278.219 135.778 278.606 136.12L277.872 136.947C277.543 136.658 277.19 136.449 276.812 136.32C276.439 136.187 276.059 136.12 275.672 136.12C275.183 136.12 274.768 136.227 274.426 136.44C274.083 136.649 273.912 136.969 273.912 137.4C273.912 137.658 273.981 137.878 274.119 138.06C274.257 138.238 274.488 138.403 274.812 138.554C275.141 138.705 275.59 138.865 276.159 139.034C276.652 139.18 277.101 139.36 277.506 139.574C277.915 139.783 278.241 140.067 278.486 140.427C278.73 140.783 278.852 141.252 278.852 141.834ZM294.848 137.82C294.848 138.509 294.637 139.065 294.215 139.487C293.797 139.905 293.282 140.194 292.668 140.354L295.342 144.4H293.775L291.355 140.527H290.215V144.4H288.888V135.214H291.335C292.486 135.214 293.36 135.434 293.955 135.874C294.551 136.309 294.848 136.958 294.848 137.82ZM293.442 137.82C293.442 137.256 293.277 136.849 292.948 136.6C292.624 136.352 292.124 136.227 291.448 136.227H290.215V139.52H291.462C292.093 139.52 292.58 139.392 292.922 139.134C293.268 138.872 293.442 138.434 293.442 137.82ZM303.06 139.814C303.06 140.747 302.931 141.572 302.673 142.287C302.415 143.003 302.031 143.563 301.52 143.967C301.013 144.367 300.382 144.567 299.627 144.567C298.871 144.567 298.238 144.372 297.727 143.98C297.22 143.585 296.838 143.032 296.58 142.32C296.322 141.609 296.193 140.778 296.193 139.827C296.193 138.889 296.322 138.063 296.58 137.347C296.838 136.627 297.22 136.065 297.727 135.66C298.238 135.252 298.871 135.047 299.627 135.047C300.382 135.047 301.013 135.245 301.52 135.64C302.031 136.036 302.415 136.592 302.673 137.307C302.931 138.023 303.06 138.858 303.06 139.814ZM301.68 139.814C301.68 138.605 301.52 137.687 301.2 137.06C300.884 136.434 300.36 136.12 299.627 136.12C298.893 136.12 298.367 136.436 298.047 137.067C297.731 137.698 297.573 138.618 297.573 139.827C297.573 141.032 297.735 141.945 298.06 142.567C298.389 143.185 298.911 143.494 299.627 143.494C300.36 143.494 300.884 143.183 301.2 142.56C301.52 141.934 301.68 141.018 301.68 139.814ZM310.725 135.214V141.407C310.725 142.029 310.598 142.578 310.345 143.054C310.096 143.529 309.738 143.9 309.271 144.167C308.809 144.434 308.256 144.567 307.611 144.567C306.962 144.567 306.407 144.434 305.945 144.167C305.482 143.9 305.129 143.529 304.885 143.054C304.645 142.578 304.525 142.029 304.525 141.407V135.214H305.845V141.307C305.845 142.747 306.433 143.467 307.611 143.467C308.798 143.467 309.391 142.747 309.391 141.307V135.214H310.725ZM316.263 136.314V144.4H314.943V136.314H312.116V135.214H319.136L318.996 136.314H316.263ZM322.547 136.254V139.207H325.921V140.254H322.547V143.367H326.674V144.4H321.221V135.214H326.574L326.421 136.254H322.547ZM334.839 137.82C334.839 138.509 334.628 139.065 334.205 139.487C333.788 139.905 333.272 140.194 332.659 140.354L335.332 144.4H333.765L331.345 140.527H330.205V144.4H328.879V135.214H331.325C332.476 135.214 333.35 135.434 333.945 135.874C334.541 136.309 334.839 136.958 334.839 137.82ZM333.432 137.82C333.432 137.256 333.268 136.849 332.939 136.6C332.614 136.352 332.114 136.227 331.439 136.227H330.205V139.52H331.452C332.083 139.52 332.57 139.392 332.912 139.134C333.259 138.872 333.432 138.434 333.432 137.82Z" fill="#FC5200"/>
<path d="M337.138 20.5599V24.9004H335.497V20.5763L331.698 13.5937H333.495L336.35 19.124L339.239 13.5937H340.937L337.138 20.5599ZM350.387 19.2553C350.387 20.404 350.228 21.4187 349.911 22.2994C349.594 23.18 349.121 23.8693 348.492 24.3671C347.868 24.8594 347.091 25.1055 346.161 25.1055C345.231 25.1055 344.452 24.8648 343.823 24.3835C343.199 23.8966 342.729 23.2156 342.412 22.3404C342.094 21.4652 341.936 20.4423 341.936 19.2717C341.936 18.1175 342.094 17.1 342.412 16.2194C342.729 15.3332 343.199 14.6412 343.823 14.1435C344.452 13.6402 345.231 13.3886 346.161 13.3886C347.091 13.3886 347.868 13.632 348.492 14.1189C349.121 14.6057 349.594 15.2895 349.911 16.1701C350.228 17.0508 350.387 18.0792 350.387 19.2553ZM348.689 19.2553C348.689 17.7674 348.492 16.6378 348.098 15.8665C347.709 15.0953 347.064 14.7096 346.161 14.7096C345.259 14.7096 344.611 15.098 344.217 15.8748C343.828 16.6515 343.634 17.7838 343.634 19.2717C343.634 20.7541 343.834 21.8782 344.233 22.644C344.638 23.4043 345.281 23.7845 346.161 23.7845C347.064 23.7845 347.709 23.4016 348.098 22.6358C348.492 21.8645 348.689 20.7377 348.689 19.2553ZM359.82 13.5937V21.2163C359.82 21.9821 359.665 22.6577 359.353 23.243C359.046 23.8283 358.606 24.285 358.032 24.6132C357.463 24.9414 356.782 25.1055 355.989 25.1055C355.19 25.1055 354.506 24.9414 353.937 24.6132C353.369 24.285 352.934 23.8283 352.633 23.243C352.337 22.6577 352.19 21.9821 352.19 21.2163V13.5937H353.814V21.0932C353.814 22.8655 354.539 23.7517 355.989 23.7517C357.449 23.7517 358.179 22.8655 358.179 21.0932V13.5937H359.82ZM369.812 16.8019C369.812 17.6498 369.552 18.3336 369.032 18.8532C368.518 19.3674 367.884 19.723 367.129 19.9199L370.419 24.9004H368.491L365.512 20.1332H364.109V24.9004H362.477V13.5937H365.488C366.905 13.5937 367.979 13.8645 368.712 14.406C369.445 14.9421 369.812 15.7407 369.812 16.8019ZM368.081 16.8019C368.081 16.1072 367.878 15.6067 367.473 15.3004C367.074 14.9941 366.459 14.8409 365.627 14.8409H364.109V18.8942H365.644C366.42 18.8942 367.019 18.7356 367.441 18.4183C367.867 18.0956 368.081 17.5568 368.081 16.8019ZM388.843 13.5937V14.8655H386.357V23.6204H388.843V24.9004H382.23V23.6204H384.716V14.8655H382.23V13.5937H388.843ZM396.816 24.9004L393.001 15.0953C393.012 15.2867 393.033 15.6149 393.066 16.0799C393.105 16.5394 393.14 17.07 393.173 17.6717C393.206 18.2679 393.222 18.8642 393.222 19.4604V24.9004H391.745V13.5937H393.903L397.76 23.4235C397.749 23.2375 397.724 22.9284 397.686 22.4963C397.647 22.0587 397.612 21.5418 397.579 20.9455C397.552 20.3493 397.538 19.712 397.538 19.0337V13.5937H399.015V24.9004H396.816ZM404.116 14.8737V18.6809H408.473V19.9527H404.116V24.9004H402.492V13.5937H409.277L409.088 14.8737H404.116ZM419.031 16.8019C419.031 17.6498 418.771 18.3336 418.251 18.8532C417.737 19.3674 417.102 19.723 416.348 19.9199L419.638 24.9004H417.71L414.731 20.1332H413.328V24.9004H411.695V13.5937H414.707C416.123 13.5937 417.198 13.8645 417.931 14.406C418.664 14.9421 419.031 15.7407 419.031 16.8019ZM417.299 16.8019C417.299 16.1072 417.097 15.6067 416.692 15.3004C416.293 14.9941 415.678 14.8409 414.846 14.8409H413.328V18.8942H414.862C415.639 18.8942 416.238 18.7356 416.659 18.4183C417.086 18.0956 417.299 17.5568 417.299 16.8019ZM427.012 22.086H422.729L421.875 24.9004H420.243L423.886 13.5937H425.937L429.588 24.9004H427.865L427.012 22.086ZM423.106 20.7814H426.634L424.879 14.9065L423.106 20.7814ZM438.718 21.7414C438.718 22.3978 438.551 22.9804 438.218 23.4891C437.889 23.9924 437.411 24.3889 436.782 24.6789C436.158 24.9633 435.401 25.1055 434.509 25.1055C433.645 25.1055 432.873 24.9742 432.195 24.7117C431.517 24.4491 430.94 24.0881 430.464 23.6286L431.391 22.5865C431.785 22.953 432.236 23.243 432.745 23.4563C433.254 23.6696 433.847 23.7763 434.525 23.7763C434.968 23.7763 435.379 23.7052 435.756 23.563C436.139 23.4153 436.445 23.1965 436.675 22.9065C436.91 22.6112 437.028 22.2419 437.028 21.7989C437.028 21.4488 436.957 21.1506 436.815 20.9045C436.678 20.6529 436.434 20.4313 436.084 20.2399C435.734 20.0484 435.245 19.8597 434.616 19.6737C433.85 19.4495 433.193 19.1951 432.646 18.9106C432.105 18.6207 431.689 18.2734 431.399 17.8686C431.115 17.4583 430.973 16.9551 430.973 16.3589C430.973 15.7736 431.134 15.2594 431.457 14.8163C431.779 14.3677 432.222 14.0177 432.786 13.766C433.349 13.5144 433.998 13.3886 434.73 13.3886C435.524 13.3886 436.216 13.5035 436.806 13.7332C437.403 13.963 437.939 14.2884 438.415 14.7096L437.512 15.7271C437.107 15.3715 436.672 15.1144 436.207 14.9558C435.748 14.7917 435.28 14.7096 434.804 14.7096C434.203 14.7096 433.691 14.8409 433.27 15.1035C432.849 15.3606 432.638 15.7544 432.638 16.285C432.638 16.6023 432.723 16.873 432.893 17.0973C433.062 17.3161 433.347 17.5185 433.746 17.7045C434.151 17.8905 434.703 18.0874 435.403 18.2953C436.01 18.4758 436.563 18.6973 437.061 18.9599C437.564 19.217 437.966 19.5671 438.267 20.0101C438.568 20.4477 438.718 21.0248 438.718 21.7414ZM445.387 14.9476V24.9004H443.762V14.9476H440.283V13.5937H448.923L448.751 14.9476H445.387ZM458.406 16.8019C458.406 17.6498 458.146 18.3336 457.626 18.8532C457.112 19.3674 456.477 19.723 455.723 19.9199L459.013 24.9004H457.085L454.106 20.1332H452.703V24.9004H451.07V13.5937H454.082C455.498 13.5937 456.573 13.8645 457.306 14.406C458.039 14.9421 458.406 15.7407 458.406 16.8019ZM456.674 16.8019C456.674 16.1072 456.472 15.6067 456.067 15.3004C455.668 14.9941 455.053 14.8409 454.221 14.8409H452.703V18.8942H454.237C455.014 18.8942 455.613 18.7356 456.034 18.4183C456.461 18.0956 456.674 17.5568 456.674 16.8019ZM468.102 13.5937V21.2163C468.102 21.9821 467.946 22.6577 467.634 23.243C467.328 23.8283 466.887 24.285 466.313 24.6132C465.744 24.9414 465.063 25.1055 464.27 25.1055C463.471 25.1055 462.788 24.9414 462.219 24.6132C461.65 24.285 461.215 23.8283 460.914 23.243C460.619 22.6577 460.471 21.9821 460.471 21.2163V13.5937H462.096V21.0932C462.096 22.8655 462.82 23.7517 464.27 23.7517C465.73 23.7517 466.461 22.8655 466.461 21.0932V13.5937H468.102ZM475.082 13.3886C475.831 13.3886 476.46 13.4843 476.969 13.6758C477.483 13.8672 477.965 14.1462 478.413 14.5127L477.535 15.5465C477.185 15.2566 476.813 15.046 476.419 14.9148C476.025 14.778 475.613 14.7096 475.18 14.7096C474.584 14.7096 474.034 14.8546 473.531 15.1445C473.028 15.4344 472.623 15.9103 472.317 16.5722C472.01 17.2341 471.857 18.123 471.857 19.2389C471.857 20.3274 472.002 21.2026 472.292 21.8645C472.588 22.5209 472.984 22.9995 473.482 23.3004C473.985 23.5958 474.546 23.7435 475.164 23.7435C475.782 23.7435 476.294 23.6477 476.698 23.4563C477.109 23.2594 477.464 23.0351 477.765 22.7835L478.577 23.8255C478.222 24.1756 477.76 24.4765 477.191 24.7281C476.627 24.9797 475.938 25.1055 475.123 25.1055C474.188 25.1055 473.345 24.8812 472.596 24.4327C471.852 23.9842 471.261 23.325 470.823 22.4553C470.386 21.58 470.167 20.5079 470.167 19.2389C470.167 17.9698 470.389 16.9004 470.832 16.0306C471.28 15.1609 471.876 14.5045 472.62 14.0614C473.37 13.6129 474.19 13.3886 475.082 13.3886ZM484.762 14.9476V24.9004H483.137V14.9476H479.658V13.5937H488.298L488.126 14.9476H484.762ZM497.633 13.5937V21.2163C497.633 21.9821 497.477 22.6577 497.165 23.243C496.859 23.8283 496.419 24.285 495.844 24.6132C495.275 24.9414 494.594 25.1055 493.801 25.1055C493.003 25.1055 492.319 24.9414 491.75 24.6132C491.181 24.285 490.746 23.8283 490.445 23.243C490.15 22.6577 490.002 21.9821 490.002 21.2163V13.5937H491.627V21.0932C491.627 22.8655 492.352 23.7517 493.801 23.7517C495.262 23.7517 495.992 22.8655 495.992 21.0932V13.5937H497.633ZM507.624 16.8019C507.624 17.6498 507.365 18.3336 506.845 18.8532C506.331 19.3674 505.696 19.723 504.941 19.9199L508.232 24.9004H506.303L503.325 20.1332H501.922V24.9004H500.289V13.5937H503.3C504.717 13.5937 505.792 13.8645 506.525 14.406C507.258 14.9421 507.624 15.7407 507.624 16.8019ZM505.893 16.8019C505.893 16.1072 505.691 15.6067 505.286 15.3004C504.887 14.9941 504.271 14.8409 503.44 14.8409H501.922V18.8942H503.456C504.233 18.8942 504.832 18.7356 505.253 18.4183C505.68 18.0956 505.893 17.5568 505.893 16.8019ZM512.184 14.8737V18.5086H516.336V19.7968H512.184V23.6286H517.263V24.9004H510.551V13.5937H517.14L516.951 14.8737H512.184Z" fill="#5C95B2"/>
<rect x="474.391" y="58.6504" width="206.5" height="71.2449" rx="5.25" fill="#15252D"/>
<rect x="474.391" y="58.6504" width="206.5" height="71.2449" rx="5.25" stroke="#FAD000" stroke-width="1.5"/>
<g clip-path="url(#clip4_451_2146)">
<path d="M536.249 96.9287H528.098M536.399 97.6512L533.107 99.6462M527.021 95.9912C527.311 95.9912 527.589 96.1064 527.794 96.3116C527.999 96.5167 528.115 96.7949 528.115 97.085C528.115 97.375 527.999 97.6532 527.794 97.8584C527.589 98.0635 527.311 98.1787 527.021 98.1787C526.731 98.1787 526.453 98.0635 526.248 97.8584C526.042 97.6532 525.927 97.375 525.927 97.085C525.927 96.7949 526.042 96.5167 526.248 96.3116C526.453 96.1064 526.731 95.9912 527.021 95.9912ZM527.021 95.9912V92.5518M537.333 95.9912C537.624 95.9912 537.902 96.1064 538.107 96.3116C538.312 96.5167 538.427 96.7949 538.427 97.085C538.427 97.375 538.312 97.6532 538.107 97.8584C537.902 98.0635 537.624 98.1787 537.333 98.1787C537.043 98.1787 536.765 98.0635 536.56 97.8584C536.355 97.6532 536.24 97.375 536.24 97.085C536.24 96.7949 536.355 96.5167 536.56 96.3116C536.765 96.1064 537.043 95.9912 537.333 95.9912ZM537.333 95.9912V92.5518M531.77 89.3443L527.724 96.26M532.585 89.3443L536.63 96.2606M531.242 88.9018L527.955 90.8937M527.955 97.6512L531.247 99.6462M533.113 88.9018L536.399 90.8937M532.177 89.4287C532.467 89.4287 532.745 89.3135 532.951 89.1084C533.156 88.9032 533.271 88.625 533.271 88.335C533.271 88.0449 533.156 87.7667 532.951 87.5616C532.745 87.3564 532.467 87.2412 532.177 87.2412C531.887 87.2412 531.609 87.3564 531.404 87.5616C531.199 87.7667 531.083 88.0449 531.083 88.335C531.083 88.625 531.199 88.9032 531.404 89.1084C531.609 89.3135 531.887 89.4287 532.177 89.4287ZM527.021 92.5537C527.311 92.5537 527.589 92.4385 527.794 92.2334C527.999 92.0282 528.115 91.75 528.115 91.46C528.115 91.1699 527.999 90.8917 527.794 90.6866C527.589 90.4814 527.311 90.3662 527.021 90.3662C526.731 90.3662 526.453 90.4814 526.248 90.6866C526.042 90.8917 525.927 91.1699 525.927 91.46C525.927 91.75 526.042 92.0282 526.248 92.2334C526.453 92.4385 526.731 92.5537 527.021 92.5537ZM537.333 92.5537C537.624 92.5537 537.902 92.4385 538.107 92.2334C538.312 92.0282 538.427 91.75 538.427 91.46C538.427 91.1699 538.312 90.8917 538.107 90.6866C537.902 90.4814 537.624 90.3662 537.333 90.3662C537.043 90.3662 536.765 90.4814 536.56 90.6866C536.355 90.8917 536.24 91.1699 536.24 91.46C536.24 91.75 536.355 92.0282 536.56 92.2334C536.765 92.4385 537.043 92.5537 537.333 92.5537ZM532.177 101.304C532.467 101.304 532.745 101.188 532.951 100.983C533.156 100.778 533.271 100.5 533.271 100.21C533.271 99.9199 533.156 99.6417 532.951 99.4366C532.745 99.2314 532.467 99.1162 532.177 99.1162C531.887 99.1162 531.609 99.2314 531.404 99.4366C531.199 99.6417 531.083 99.9199 531.083 100.21C531.083 100.5 531.199 100.778 531.404 100.983C531.609 101.188 531.887 101.304 532.177 101.304Z" stroke="#FAD000" stroke-linecap="round" stroke-linejoin="round"/>
</g>
<path d="M558.325 95.7058C558.325 96.2391 558.189 96.7125 557.918 97.1258C557.652 97.5347 557.263 97.8569 556.752 98.0925C556.245 98.3236 555.629 98.4391 554.905 98.4391C554.203 98.4391 553.576 98.3325 553.025 98.1191C552.474 97.9058 552.005 97.6125 551.618 97.2391L552.372 96.3925C552.692 96.6902 553.058 96.9258 553.472 97.0991C553.885 97.2725 554.367 97.3591 554.918 97.3591C555.278 97.3591 555.612 97.3013 555.918 97.1858C556.229 97.0658 556.478 96.888 556.665 96.6525C556.856 96.4125 556.952 96.1125 556.952 95.7525C556.952 95.468 556.894 95.2258 556.778 95.0258C556.667 94.8214 556.469 94.6414 556.185 94.4858C555.901 94.3302 555.503 94.1769 554.992 94.0258C554.369 93.8436 553.836 93.6369 553.392 93.4058C552.952 93.1702 552.614 92.888 552.378 92.5591C552.147 92.2258 552.032 91.8169 552.032 91.3325C552.032 90.8569 552.163 90.4391 552.425 90.0791C552.687 89.7147 553.047 89.4302 553.505 89.2258C553.963 89.0214 554.489 88.9191 555.085 88.9191C555.729 88.9191 556.292 89.0125 556.772 89.1991C557.256 89.3858 557.692 89.6502 558.078 89.9925L557.345 90.8191C557.016 90.5302 556.663 90.3214 556.285 90.1925C555.912 90.0591 555.532 89.9925 555.145 89.9925C554.656 89.9925 554.241 90.0991 553.898 90.3125C553.556 90.5214 553.385 90.8414 553.385 91.2725C553.385 91.5302 553.454 91.7502 553.592 91.9325C553.729 92.1102 553.961 92.2747 554.285 92.4258C554.614 92.5769 555.063 92.7369 555.632 92.9058C556.125 93.0525 556.574 93.2325 556.978 93.4458C557.387 93.6547 557.714 93.9391 557.958 94.2991C558.203 94.6547 558.325 95.1236 558.325 95.7058ZM566.203 89.0858V95.2791C566.203 95.9013 566.076 96.4502 565.823 96.9258C565.574 97.4013 565.216 97.7725 564.75 98.0391C564.288 98.3058 563.734 98.4391 563.09 98.4391C562.441 98.4391 561.885 98.3058 561.423 98.0391C560.961 97.7725 560.608 97.4013 560.363 96.9258C560.123 96.4502 560.003 95.9013 560.003 95.2791V89.0858H561.323V95.1791C561.323 96.6191 561.912 97.3391 563.09 97.3391C564.276 97.3391 564.87 96.6191 564.87 95.1791V89.0858H566.203ZM574.361 95.6391C574.361 96.1458 574.261 96.568 574.061 96.9058C573.866 97.2436 573.599 97.5125 573.261 97.7125C572.928 97.9125 572.552 98.0569 572.134 98.1458C571.721 98.2302 571.297 98.2725 570.861 98.2725H568.301V89.0858H570.668C571.081 89.0858 571.483 89.1236 571.874 89.1991C572.266 89.2702 572.619 89.3947 572.934 89.5725C573.25 89.7458 573.499 89.9836 573.681 90.2858C573.868 90.5836 573.961 90.9569 573.961 91.4058C573.961 91.7925 573.879 92.1236 573.714 92.3991C573.554 92.6702 573.346 92.8902 573.088 93.0591C572.83 93.2236 572.554 93.3391 572.261 93.4058C572.594 93.4636 572.921 93.5702 573.241 93.7258C573.566 93.8769 573.832 94.1058 574.041 94.4125C574.254 94.7147 574.361 95.1236 574.361 95.6391ZM572.614 91.4925C572.614 90.9947 572.459 90.6413 572.148 90.4325C571.841 90.2191 571.417 90.1125 570.874 90.1125H569.621V92.9525H570.981C571.51 92.9525 571.914 92.8391 572.194 92.6125C572.474 92.3813 572.614 92.008 572.614 91.4925ZM572.974 95.6591C572.974 95.2191 572.888 94.8791 572.714 94.6391C572.546 94.3947 572.317 94.2258 572.028 94.1325C571.743 94.0391 571.428 93.9925 571.081 93.9925H569.621V97.2125H571.021C571.319 97.2125 571.617 97.1747 571.914 97.0991C572.217 97.0191 572.468 96.868 572.668 96.6458C572.872 96.4236 572.974 96.0947 572.974 95.6591ZM579.306 98.4391C578.181 98.4391 577.293 98.0413 576.639 97.2458C575.986 96.4502 575.659 95.2591 575.659 93.6725C575.659 92.8813 575.766 92.1902 575.979 91.5991C576.193 91.0036 576.481 90.508 576.846 90.1125C577.215 89.7125 577.633 89.4147 578.099 89.2191C578.57 89.0191 579.061 88.9191 579.573 88.9191C580.181 88.9191 580.688 89.008 581.093 89.1858C581.501 89.3636 581.886 89.6191 582.246 89.9525L581.473 90.7525C580.926 90.2458 580.299 89.9925 579.593 89.9925C579.157 89.9925 578.746 90.108 578.359 90.3391C577.973 90.5702 577.659 90.9547 577.419 91.4925C577.179 92.0302 577.059 92.7569 577.059 93.6725C577.059 94.9836 577.257 95.928 577.653 96.5058C578.048 97.0791 578.63 97.3658 579.399 97.3658C579.986 97.3658 580.535 97.2258 581.046 96.9458V94.2591H579.346L579.193 93.2058H582.346V97.6191C581.924 97.8547 581.473 98.0502 580.993 98.2058C580.517 98.3613 579.955 98.4391 579.306 98.4391ZM590.317 91.6925C590.317 92.3814 590.106 92.9369 589.684 93.3591C589.266 93.7769 588.751 94.0658 588.137 94.2258L590.811 98.2725H589.244L586.824 94.3991H585.684V98.2725H584.357V89.0858H586.804C587.955 89.0858 588.828 89.3058 589.424 89.7458C590.019 90.1813 590.317 90.8302 590.317 91.6925ZM588.911 91.6925C588.911 91.128 588.746 90.7214 588.417 90.4725C588.093 90.2236 587.593 90.0991 586.917 90.0991H585.684V93.3925H586.931C587.562 93.3925 588.048 93.2636 588.391 93.0058C588.737 92.7436 588.911 92.3058 588.911 91.6925ZM596.802 95.9858H593.322L592.629 98.2725H591.302L594.262 89.0858H595.929L598.895 98.2725H597.495L596.802 95.9858ZM593.629 94.9258H596.495L595.069 90.1525L593.629 94.9258ZM606.56 91.9325C606.56 92.648 606.407 93.2258 606.1 93.6658C605.798 94.1014 605.378 94.4191 604.84 94.6191C604.302 94.8191 603.687 94.9191 602.993 94.9191H601.847V98.2725H600.52V89.0858H602.953C604.073 89.0858 604.953 89.3191 605.593 89.7858C606.238 90.248 606.56 90.9636 606.56 91.9325ZM605.16 91.9458C605.16 91.2702 604.964 90.7947 604.573 90.5191C604.187 90.2436 603.689 90.1058 603.08 90.1058H601.847V93.8791H603.06C603.469 93.8791 603.831 93.8213 604.147 93.7058C604.462 93.5902 604.709 93.3925 604.887 93.1125C605.069 92.8325 605.16 92.4436 605.16 91.9458ZM612.725 98.2725V93.9925H609.458V98.2725H608.138V89.0858H609.458V92.9058H612.725V89.0858H614.045V98.2725H612.725ZM628.794 95.9858H625.314L624.621 98.2725H623.294L626.254 89.0858H627.921L630.887 98.2725H629.487L628.794 95.9858ZM625.621 94.9258H628.487L627.061 90.1525L625.621 94.9258Z" fill="#FAD000"/>
<rect x="474.391" y="152.846" width="206.5" height="71.2449" rx="5.25" fill="#15252D"/>
<rect x="474.391" y="152.846" width="206.5" height="71.2449" rx="5.25" stroke="#00FAB3" stroke-width="1.5"/>
<g clip-path="url(#clip5_451_2146)">
<path d="M536.249 191.124H528.098M536.399 191.847L533.107 193.842M527.021 190.187C527.311 190.187 527.589 190.302 527.794 190.507C527.999 190.712 528.115 190.99 528.115 191.28C528.115 191.57 527.999 191.849 527.794 192.054C527.589 192.259 527.311 192.374 527.021 192.374C526.731 192.374 526.453 192.259 526.248 192.054C526.042 191.849 525.927 191.57 525.927 191.28C525.927 190.99 526.042 190.712 526.248 190.507C526.453 190.302 526.731 190.187 527.021 190.187ZM527.021 190.187V186.747M537.333 190.187C537.624 190.187 537.902 190.302 538.107 190.507C538.312 190.712 538.427 190.99 538.427 191.28C538.427 191.57 538.312 191.849 538.107 192.054C537.902 192.259 537.624 192.374 537.333 192.374C537.043 192.374 536.765 192.259 536.56 192.054C536.355 191.849 536.24 191.57 536.24 191.28C536.24 190.99 536.355 190.712 536.56 190.507C536.765 190.302 537.043 190.187 537.333 190.187ZM537.333 190.187V186.747M531.77 183.54L527.724 190.455M532.585 183.54L536.63 190.456M531.242 183.097L527.955 185.089M527.955 191.847L531.247 193.842M533.113 183.097L536.399 185.089M532.177 183.624C532.467 183.624 532.745 183.509 532.951 183.304C533.156 183.099 533.271 182.82 533.271 182.53C533.271 182.24 533.156 181.962 532.951 181.757C532.745 181.552 532.467 181.437 532.177 181.437C531.887 181.437 531.609 181.552 531.404 181.757C531.199 181.962 531.083 182.24 531.083 182.53C531.083 182.82 531.199 183.099 531.404 183.304C531.609 183.509 531.887 183.624 532.177 183.624ZM527.021 186.749C527.311 186.749 527.589 186.634 527.794 186.429C527.999 186.224 528.115 185.945 528.115 185.655C528.115 185.365 527.999 185.087 527.794 184.882C527.589 184.677 527.311 184.562 527.021 184.562C526.731 184.562 526.453 184.677 526.248 184.882C526.042 185.087 525.927 185.365 525.927 185.655C525.927 185.945 526.042 186.224 526.248 186.429C526.453 186.634 526.731 186.749 527.021 186.749ZM537.333 186.749C537.624 186.749 537.902 186.634 538.107 186.429C538.312 186.224 538.427 185.945 538.427 185.655C538.427 185.365 538.312 185.087 538.107 184.882C537.902 184.677 537.624 184.562 537.333 184.562C537.043 184.562 536.765 184.677 536.56 184.882C536.355 185.087 536.24 185.365 536.24 185.655C536.24 185.945 536.355 186.224 536.56 186.429C536.765 186.634 537.043 186.749 537.333 186.749ZM532.177 195.499C532.467 195.499 532.745 195.384 532.951 195.179C533.156 194.974 533.271 194.695 533.271 194.405C533.271 194.115 533.156 193.837 532.951 193.632C532.745 193.427 532.467 193.312 532.177 193.312C531.887 193.312 531.609 193.427 531.404 193.632C531.199 193.837 531.083 194.115 531.083 194.405C531.083 194.695 531.199 194.974 531.404 195.179C531.609 195.384 531.887 195.499 532.177 195.499Z" stroke="#00FAB3" stroke-linecap="round" stroke-linejoin="round"/>
</g>
<path d="M558.325 189.901C558.325 190.434 558.189 190.908 557.918 191.321C557.652 191.73 557.263 192.052 556.752 192.288C556.245 192.519 555.629 192.634 554.905 192.634C554.203 192.634 553.576 192.528 553.025 192.314C552.474 192.101 552.005 191.808 551.618 191.434L552.372 190.588C552.692 190.886 553.058 191.121 553.472 191.294C553.885 191.468 554.367 191.554 554.918 191.554C555.278 191.554 555.612 191.497 555.918 191.381C556.229 191.261 556.478 191.083 556.665 190.848C556.856 190.608 556.952 190.308 556.952 189.948C556.952 189.663 556.894 189.421 556.778 189.221C556.667 189.017 556.469 188.837 556.185 188.681C555.901 188.526 555.503 188.372 554.992 188.221C554.369 188.039 553.836 187.832 553.392 187.601C552.952 187.366 552.614 187.083 552.378 186.754C552.147 186.421 552.032 186.012 552.032 185.528C552.032 185.052 552.163 184.634 552.425 184.274C552.687 183.91 553.047 183.626 553.505 183.421C553.963 183.217 554.489 183.114 555.085 183.114C555.729 183.114 556.292 183.208 556.772 183.394C557.256 183.581 557.692 183.846 558.078 184.188L557.345 185.014C557.016 184.726 556.663 184.517 556.285 184.388C555.912 184.254 555.532 184.188 555.145 184.188C554.656 184.188 554.241 184.294 553.898 184.508C553.556 184.717 553.385 185.037 553.385 185.468C553.385 185.726 553.454 185.946 553.592 186.128C553.729 186.306 553.961 186.47 554.285 186.621C554.614 186.772 555.063 186.932 555.632 187.101C556.125 187.248 556.574 187.428 556.978 187.641C557.387 187.85 557.714 188.134 557.958 188.494C558.203 188.85 558.325 189.319 558.325 189.901ZM566.203 183.281V189.474C566.203 190.097 566.076 190.646 565.823 191.121C565.574 191.597 565.216 191.968 564.75 192.234C564.288 192.501 563.734 192.634 563.09 192.634C562.441 192.634 561.885 192.501 561.423 192.234C560.961 191.968 560.608 191.597 560.363 191.121C560.123 190.646 560.003 190.097 560.003 189.474V183.281H561.323V189.374C561.323 190.814 561.912 191.534 563.09 191.534C564.276 191.534 564.87 190.814 564.87 189.374V183.281H566.203ZM574.361 189.834C574.361 190.341 574.261 190.763 574.061 191.101C573.866 191.439 573.599 191.708 573.261 191.908C572.928 192.108 572.552 192.252 572.134 192.341C571.721 192.426 571.297 192.468 570.861 192.468H568.301V183.281H570.668C571.081 183.281 571.483 183.319 571.874 183.394C572.266 183.466 572.619 183.59 572.934 183.768C573.25 183.941 573.499 184.179 573.681 184.481C573.868 184.779 573.961 185.152 573.961 185.601C573.961 185.988 573.879 186.319 573.714 186.594C573.554 186.866 573.346 187.086 573.088 187.254C572.83 187.419 572.554 187.534 572.261 187.601C572.594 187.659 572.921 187.766 573.241 187.921C573.566 188.072 573.832 188.301 574.041 188.608C574.254 188.91 574.361 189.319 574.361 189.834ZM572.614 185.688C572.614 185.19 572.459 184.837 572.148 184.628C571.841 184.414 571.417 184.308 570.874 184.308H569.621V187.148H570.981C571.51 187.148 571.914 187.034 572.194 186.808C572.474 186.577 572.614 186.203 572.614 185.688ZM572.974 189.854C572.974 189.414 572.888 189.074 572.714 188.834C572.546 188.59 572.317 188.421 572.028 188.328C571.743 188.234 571.428 188.188 571.081 188.188H569.621V191.408H571.021C571.319 191.408 571.617 191.37 571.914 191.294C572.217 191.214 572.468 191.063 572.668 190.841C572.872 190.619 572.974 190.29 572.974 189.854ZM579.306 192.634C578.181 192.634 577.293 192.237 576.639 191.441C575.986 190.646 575.659 189.454 575.659 187.868C575.659 187.077 575.766 186.386 575.979 185.794C576.193 185.199 576.481 184.703 576.846 184.308C577.215 183.908 577.633 183.61 578.099 183.414C578.57 183.214 579.061 183.114 579.573 183.114C580.181 183.114 580.688 183.203 581.093 183.381C581.501 183.559 581.886 183.814 582.246 184.148L581.473 184.948C580.926 184.441 580.299 184.188 579.593 184.188C579.157 184.188 578.746 184.303 578.359 184.534C577.973 184.766 577.659 185.15 577.419 185.688C577.179 186.226 577.059 186.952 577.059 187.868C577.059 189.179 577.257 190.123 577.653 190.701C578.048 191.274 578.63 191.561 579.399 191.561C579.986 191.561 580.535 191.421 581.046 191.141V188.454H579.346L579.193 187.401H582.346V191.814C581.924 192.05 581.473 192.246 580.993 192.401C580.517 192.557 579.955 192.634 579.306 192.634ZM590.317 185.888C590.317 186.577 590.106 187.132 589.684 187.554C589.266 187.972 588.751 188.261 588.137 188.421L590.811 192.468H589.244L586.824 188.594H585.684V192.468H584.357V183.281H586.804C587.955 183.281 588.828 183.501 589.424 183.941C590.019 184.377 590.317 185.026 590.317 185.888ZM588.911 185.888C588.911 185.323 588.746 184.917 588.417 184.668C588.093 184.419 587.593 184.294 586.917 184.294H585.684V187.588H586.931C587.562 187.588 588.048 187.459 588.391 187.201C588.737 186.939 588.911 186.501 588.911 185.888ZM596.802 190.181H593.322L592.629 192.468H591.302L594.262 183.281H595.929L598.895 192.468H597.495L596.802 190.181ZM593.629 189.121H596.495L595.069 184.348L593.629 189.121ZM606.56 186.128C606.56 186.843 606.407 187.421 606.1 187.861C605.798 188.297 605.378 188.614 604.84 188.814C604.302 189.014 603.687 189.114 602.993 189.114H601.847V192.468H600.52V183.281H602.953C604.073 183.281 604.953 183.514 605.593 183.981C606.238 184.443 606.56 185.159 606.56 186.128ZM605.16 186.141C605.16 185.466 604.964 184.99 604.573 184.714C604.187 184.439 603.689 184.301 603.08 184.301H601.847V188.074H603.06C603.469 188.074 603.831 188.017 604.147 187.901C604.462 187.786 604.709 187.588 604.887 187.308C605.069 187.028 605.16 186.639 605.16 186.141ZM612.725 192.468V188.188H609.458V192.468H608.138V183.281H609.458V187.101H612.725V183.281H614.045V192.468H612.725ZM630.347 189.834C630.347 190.341 630.247 190.763 630.047 191.101C629.852 191.439 629.585 191.708 629.247 191.908C628.914 192.108 628.539 192.252 628.121 192.341C627.707 192.426 627.283 192.468 626.847 192.468H624.287V183.281H626.654C627.067 183.281 627.47 183.319 627.861 183.394C628.252 183.466 628.605 183.59 628.921 183.768C629.236 183.941 629.485 184.179 629.667 184.481C629.854 184.779 629.947 185.152 629.947 185.601C629.947 185.988 629.865 186.319 629.701 186.594C629.541 186.866 629.332 187.086 629.074 187.254C628.816 187.419 628.541 187.534 628.247 187.601C628.581 187.659 628.907 187.766 629.227 187.921C629.552 188.072 629.819 188.301 630.027 188.608C630.241 188.91 630.347 189.319 630.347 189.834ZM628.601 185.688C628.601 185.19 628.445 184.837 628.134 184.628C627.827 184.414 627.403 184.308 626.861 184.308H625.607V187.148H626.967C627.496 187.148 627.901 187.034 628.181 186.808C628.461 186.577 628.601 186.203 628.601 185.688ZM628.961 189.854C628.961 189.414 628.874 189.074 628.701 188.834C628.532 188.59 628.303 188.421 628.014 188.328C627.73 188.234 627.414 188.188 627.067 188.188H625.607V191.408H627.007C627.305 191.408 627.603 191.37 627.901 191.294C628.203 191.214 628.454 191.063 628.654 190.841C628.859 190.619 628.961 190.29 628.961 189.854Z" fill="#00FAB3"/>
<path d="M88.3755 139.468L179.019 139.468" stroke="#CFD7D6" stroke-width="2" stroke-dasharray="4 4"/>
<path d="M349.984 127.584H397.647C404.274 127.584 409.647 122.212 409.647 115.584V103.575C409.647 96.9478 415.019 91.5752 421.647 91.5752H474.281" stroke="#FAD000" stroke-width="2"/>
<path d="M349.984 127.584H397.647C404.274 127.584 409.647 122.212 409.647 115.584V103.575C409.647 96.9478 415.019 91.5752 421.647 91.5752H474.281" stroke="#FAD000" stroke-width="2"/>
<path d="M349.984 151.576H397.647C404.274 151.576 409.647 156.948 409.647 163.576V175.585C409.647 182.212 415.019 187.585 421.647 187.585H474.281" stroke="#00FAB3" stroke-width="2"/>
<rect x="-1" y="1" width="576.971" height="253.103" rx="11" transform="matrix(-1 0 0 1 712.88 0.799805)" stroke="#5C95B2" stroke-width="2"/>
<defs>
<clipPath id="clip0_451_2146">
<rect width="16" height="16" fill="white" transform="translate(14.7607 140.968)"/>
</clipPath>
<clipPath id="clip1_451_2146">
<rect width="13.3333" height="13.3333" fill="white" transform="translate(37.4274 142.301)"/>
</clipPath>
<clipPath id="clip2_451_2146">
<rect width="16" height="16" fill="white" transform="translate(58.7607 140.968)"/>
</clipPath>
<clipPath id="clip3_451_2146">
<rect width="16" height="16" fill="white" transform="translate(196.703 131.9)"/>
</clipPath>
<clipPath id="clip4_451_2146">
<rect width="16" height="16" fill="white" transform="translate(524.177 86.2725)"/>
</clipPath>
<clipPath id="clip5_451_2146">
<rect width="16" height="16" fill="white" transform="translate(524.177 180.468)"/>
</clipPath>
</defs>
</svg>
