<svg width="715" height="256" viewBox="0 0 715 256" fill="none" xmlns="http://www.w3.org/2000/svg">
<rect x="1.33289" y="104.218" width="86.5" height="70.5" rx="5.25" fill="#FDFDFD"/>
<rect x="1.33289" y="104.218" width="86.5" height="70.5" rx="5.25" stroke="#467B95" stroke-width="1.5"/>
<path d="M19.3562 123.614C19.9651 123.614 20.4762 123.692 20.8896 123.848C21.3073 124.003 21.6984 124.23 22.0629 124.528L21.3496 125.368C21.0651 125.132 20.7629 124.961 20.4429 124.854C20.1229 124.743 19.7873 124.688 19.4362 124.688C18.9518 124.688 18.5051 124.806 18.0962 125.041C17.6873 125.277 17.3584 125.663 17.1096 126.201C16.8607 126.739 16.7362 127.461 16.7362 128.368C16.7362 129.252 16.854 129.963 17.0896 130.501C17.3296 131.034 17.6518 131.423 18.0562 131.668C18.4651 131.908 18.9207 132.028 19.4229 132.028C19.9251 132.028 20.3407 131.95 20.6696 131.794C21.0029 131.634 21.2918 131.452 21.5362 131.248L22.1962 132.094C21.9073 132.379 21.5318 132.623 21.0696 132.828C20.6118 133.032 20.0518 133.134 19.3896 133.134C18.6296 133.134 17.9451 132.952 17.3362 132.588C16.7318 132.223 16.2518 131.688 15.8962 130.981C15.5407 130.27 15.3629 129.399 15.3629 128.368C15.3629 127.337 15.5429 126.468 15.9029 125.761C16.2673 125.054 16.7518 124.521 17.3562 124.161C17.9651 123.797 18.6318 123.614 19.3562 123.614ZM24.2943 132.968V123.781H25.6209V131.821H29.7809L29.6343 132.968H24.2943ZM37.2656 123.781V124.814H35.2456V131.928H37.2656V132.968H31.8923V131.928H33.9123V124.814H31.8923V123.781H37.2656ZM41.5037 124.821V127.774H44.877V128.821H41.5037V131.934H45.6304V132.968H40.177V123.781H45.5304L45.377 124.821H41.5037ZM51.7417 132.968L48.6417 125.001C48.6506 125.157 48.6684 125.423 48.6951 125.801C48.7262 126.174 48.7551 126.606 48.7817 127.094C48.8084 127.579 48.8217 128.063 48.8217 128.548V132.968H47.6217V123.781H49.3751L52.5084 131.768C52.4995 131.617 52.4795 131.366 52.4484 131.014C52.4173 130.659 52.3884 130.239 52.3617 129.754C52.3395 129.27 52.3284 128.752 52.3284 128.201V123.781H53.5284V132.968H51.7417ZM59.2131 124.881V132.968H57.8931V124.881H55.0665V123.781H62.0865L61.9465 124.881H59.2131ZM69.7912 130.401C69.7912 130.934 69.6556 131.408 69.3845 131.821C69.1178 132.23 68.7289 132.552 68.2178 132.788C67.7112 133.019 67.0956 133.134 66.3712 133.134C65.6689 133.134 65.0423 133.028 64.4912 132.814C63.9401 132.601 63.4712 132.308 63.0845 131.934L63.8378 131.088C64.1578 131.386 64.5245 131.621 64.9378 131.794C65.3512 131.968 65.8334 132.054 66.3845 132.054C66.7445 132.054 67.0778 131.997 67.3845 131.881C67.6956 131.761 67.9445 131.583 68.1312 131.348C68.3223 131.108 68.4178 130.808 68.4178 130.448C68.4178 130.163 68.3601 129.921 68.2445 129.721C68.1334 129.517 67.9356 129.337 67.6512 129.181C67.3667 129.026 66.9689 128.872 66.4578 128.721C65.8356 128.539 65.3023 128.332 64.8578 128.101C64.4178 127.866 64.0801 127.583 63.8445 127.254C63.6134 126.921 63.4978 126.512 63.4978 126.028C63.4978 125.552 63.6289 125.134 63.8912 124.774C64.1534 124.41 64.5134 124.126 64.9712 123.921C65.4289 123.717 65.9556 123.614 66.5512 123.614C67.1956 123.614 67.7578 123.708 68.2378 123.894C68.7223 124.081 69.1578 124.346 69.5445 124.688L68.8112 125.514C68.4823 125.226 68.1289 125.017 67.7512 124.888C67.3778 124.754 66.9978 124.688 66.6112 124.688C66.1223 124.688 65.7067 124.794 65.3645 125.008C65.0223 125.217 64.8512 125.537 64.8512 125.968C64.8512 126.226 64.9201 126.446 65.0578 126.628C65.1956 126.806 65.4267 126.97 65.7512 127.121C66.0801 127.272 66.5289 127.432 67.0978 127.601C67.5912 127.748 68.0401 127.928 68.4445 128.141C68.8534 128.35 69.1801 128.634 69.4245 128.994C69.6689 129.35 69.7912 129.819 69.7912 130.401Z" fill="#467B95"/>
<g clip-path="url(#clip0_451_2276)">
<path d="M25.8542 148.882C26.2418 149.692 26.5473 150.538 26.7661 151.409C28.5061 150.897 29.6142 150.056 29.6142 149.034C29.6142 147.992 28.4642 147.137 26.6648 146.629" stroke="#467B95" stroke-linecap="round" stroke-linejoin="round"/>
<path d="M19.3036 148.882C18.9664 148.158 18.6944 147.405 18.4911 146.632C16.6967 147.14 15.5536 147.994 15.5536 149.034C15.5536 150.054 16.658 150.894 18.393 151.409" stroke="#467B95" stroke-linecap="round" stroke-linejoin="round"/>
<path d="M20.8486 146.208C21.3567 145.467 21.9378 144.78 22.583 144.156C21.2705 142.906 19.9873 142.366 19.1023 142.877C18.1998 143.398 18.0342 144.821 18.4942 146.634" stroke="#467B95" stroke-linecap="round" stroke-linejoin="round"/>
<path d="M24.1241 151.88C23.6656 152.534 23.1498 153.146 22.5829 153.709C23.9204 155.008 25.2329 155.574 26.1335 155.054C27.0166 154.544 27.1923 153.167 26.7679 151.409" stroke="#467B95" stroke-linecap="round" stroke-linejoin="round"/>
<path d="M21.0348 151.879C20.1399 151.81 19.2542 151.651 18.391 151.405C17.9635 153.168 18.141 154.548 19.0235 155.06C19.9254 155.58 21.241 155.012 22.581 153.708" stroke="#467B95" stroke-linecap="round" stroke-linejoin="round"/>
<path d="M24.3104 146.207C25.1062 146.278 25.8941 146.419 26.6648 146.63C27.1216 144.822 26.9554 143.402 26.0548 142.88C25.171 142.372 23.8916 142.906 22.5829 144.156" stroke="#467B95" stroke-linecap="round" stroke-linejoin="round"/>
<path d="M24.3105 146.207C23.7592 146.154 23.1855 146.123 22.583 146.123C21.9805 146.123 21.4023 146.154 20.8486 146.207C20.5642 146.617 20.2861 147.052 20.018 147.516C19.7498 147.979 19.518 148.434 19.3036 148.882C19.5336 149.386 19.7948 149.901 20.0948 150.421C20.3948 150.941 20.7123 151.427 21.0323 151.88C22.0603 151.968 23.0938 151.968 24.1217 151.881C24.7949 150.94 25.3748 149.936 25.853 148.882C25.4165 147.948 24.9004 147.053 24.3105 146.207Z" stroke="#467B95" stroke-linecap="round" stroke-linejoin="round"/>
<path d="M21.6454 149.034C21.6454 149.283 21.7442 149.521 21.92 149.697C22.0958 149.873 22.3342 149.972 22.5829 149.972C22.8315 149.972 23.07 149.873 23.2458 149.697C23.4216 149.521 23.5204 149.283 23.5204 149.034C23.5204 148.786 23.4216 148.547 23.2458 148.371C23.07 148.195 22.8315 148.097 22.5829 148.097C22.3342 148.097 22.0958 148.195 21.92 148.371C21.7442 148.547 21.6454 148.786 21.6454 149.034Z" stroke="#467B95" stroke-linecap="round" stroke-linejoin="round"/>
</g>
<g clip-path="url(#clip1_451_2276)">
<path d="M38.0569 143.107V154.826L49.7756 143.107H38.0569Z" stroke="#467B95" stroke-linecap="round" stroke-linejoin="round"/>
<path d="M43.9162 148.967L49.7756 154.826H38.0569" stroke="#467B95" stroke-linecap="round" stroke-linejoin="round"/>
<path d="M43.9162 143.107L38.1819 148.842" stroke="#467B95" stroke-linecap="round" stroke-linejoin="round"/>
</g>
<g clip-path="url(#clip2_451_2276)">
<path d="M66.2766 148.342C63.8328 146.823 61.6641 143.442 61.6641 143.442C61.6641 143.442 63.4578 148.161 66.7516 151.261C65.6905 151.32 64.6294 151.145 63.6434 150.748C62.6574 150.352 61.7705 149.744 61.0453 148.967C60.5865 148.508 60.1818 147.999 59.8391 147.448C59.817 147.421 59.7857 147.403 59.7512 147.397C59.7167 147.391 59.6813 147.398 59.6516 147.417C59.6173 147.435 59.5897 147.464 59.5728 147.498C59.5559 147.533 59.5507 147.573 59.5578 147.611C59.9906 149.164 60.8248 150.576 61.9766 151.704C64.6391 154.367 68.3078 155.104 70.6391 153.579C71.0889 153.717 71.5518 153.807 72.0203 153.848C73.2328 154.473 73.2328 154.761 73.2328 154.761C73.4088 154.555 73.5293 154.307 73.5829 154.041C73.6365 153.775 73.6214 153.5 73.5391 153.242C73.6038 152.956 73.5785 152.657 73.4666 152.387C73.3547 152.116 73.1617 151.886 72.9141 151.729L72.3578 151.386C73.2016 149.086 72.3578 145.973 70.0141 143.636C69.8578 143.473 69.6953 143.323 69.5266 143.179C69.498 143.154 69.4614 143.141 69.4234 143.141C69.3855 143.141 69.3488 143.154 69.3203 143.179C69.2912 143.203 69.2709 143.235 69.263 143.272C69.255 143.308 69.2598 143.346 69.2766 143.379C70.5953 145.473 70.7891 147.867 69.7141 149.492C67.7008 147.751 65.9679 145.711 64.5766 143.442" stroke="#467B95" stroke-linecap="round" stroke-linejoin="round"/>
</g>
<rect x="180.739" y="104.65" width="170.5" height="70.5" rx="35.25" fill="#FDFDFD"/>
<rect x="180.739" y="104.65" width="170.5" height="70.5" rx="35.25" stroke="#B03900" stroke-width="1.5"/>
<g clip-path="url(#clip3_451_2276)">
<path d="M200.387 140.795C202.98 141.608 204.525 143.17 204.525 146.12M204.525 146.12V146.932M204.525 146.12C204.525 143.17 206.069 141.608 208.662 140.795M204.525 146.12V136.15M203.057 136.15C202.996 136.15 202.936 136.134 202.883 136.103C202.83 136.073 202.787 136.029 202.757 135.976C202.726 135.923 202.711 135.863 202.711 135.802C202.712 135.741 202.728 135.681 202.759 135.629L204.227 133.025C204.258 132.973 204.301 132.931 204.353 132.901C204.406 132.871 204.465 132.855 204.525 132.855C204.585 132.855 204.644 132.871 204.696 132.901C204.748 132.931 204.792 132.973 204.822 133.025L206.291 135.628C206.322 135.681 206.338 135.741 206.339 135.802C206.339 135.863 206.323 135.923 206.293 135.976C206.263 136.029 206.219 136.073 206.167 136.103C206.114 136.134 206.054 136.15 205.993 136.15H203.057ZM201.032 139.238C201.055 139.181 201.063 139.12 201.055 139.059C201.047 138.999 201.023 138.942 200.986 138.893C200.948 138.845 200.899 138.808 200.843 138.785C200.786 138.761 200.725 138.754 200.664 138.762L197.789 139.166C197.729 139.175 197.673 139.198 197.625 139.235C197.577 139.272 197.54 139.321 197.517 139.377C197.494 139.432 197.486 139.493 197.494 139.553C197.501 139.613 197.525 139.67 197.561 139.718L199.306 142.035C199.343 142.083 199.392 142.121 199.448 142.145C199.504 142.169 199.566 142.177 199.626 142.169C199.687 142.162 199.744 142.138 199.793 142.101C199.842 142.064 199.879 142.015 199.903 141.958L200.465 140.598L201.032 139.238ZM208.017 139.238C207.994 139.181 207.986 139.12 207.994 139.059C208.002 138.999 208.026 138.942 208.064 138.893C208.101 138.845 208.15 138.808 208.207 138.785C208.263 138.761 208.325 138.754 208.385 138.762L211.26 139.166C211.32 139.175 211.377 139.198 211.424 139.235C211.472 139.272 211.509 139.321 211.532 139.377C211.556 139.432 211.564 139.493 211.556 139.553C211.548 139.613 211.525 139.67 211.488 139.718L209.743 142.035C209.707 142.083 209.658 142.121 209.601 142.145C209.545 142.169 209.484 142.177 209.423 142.169C209.362 142.162 209.305 142.138 209.256 142.101C209.208 142.064 209.17 142.015 209.147 141.958L208.584 140.598L208.017 139.238Z" stroke="#B03900" stroke-linecap="round" stroke-linejoin="round"/>
</g>
<path d="M227.673 144.567C226.548 144.567 225.66 144.169 225.006 143.374C224.353 142.578 224.026 141.387 224.026 139.8C224.026 139.009 224.133 138.318 224.346 137.727C224.56 137.132 224.848 136.636 225.213 136.24C225.582 135.84 226 135.543 226.466 135.347C226.937 135.147 227.428 135.047 227.94 135.047C228.548 135.047 229.055 135.136 229.46 135.314C229.868 135.492 230.253 135.747 230.613 136.08L229.84 136.88C229.293 136.374 228.666 136.12 227.96 136.12C227.524 136.12 227.113 136.236 226.726 136.467C226.34 136.698 226.026 137.083 225.786 137.62C225.546 138.158 225.426 138.885 225.426 139.8C225.426 141.112 225.624 142.056 226.02 142.634C226.415 143.207 226.997 143.494 227.766 143.494C228.353 143.494 228.902 143.354 229.413 143.074V140.387H227.713L227.56 139.334H230.713V143.747C230.291 143.983 229.84 144.178 229.36 144.334C228.884 144.489 228.322 144.567 227.673 144.567ZM238.684 137.82C238.684 138.509 238.473 139.065 238.051 139.487C237.633 139.905 237.118 140.194 236.504 140.354L239.178 144.4H237.611L235.191 140.527H234.051V144.4H232.724V135.214H235.171C236.322 135.214 237.195 135.434 237.791 135.874C238.387 136.309 238.684 136.958 238.684 137.82ZM237.278 137.82C237.278 137.256 237.113 136.849 236.784 136.6C236.46 136.352 235.96 136.227 235.284 136.227H234.051V139.52H235.298C235.929 139.52 236.415 139.392 236.758 139.134C237.104 138.872 237.278 138.434 237.278 137.82ZM245.169 142.114H241.689L240.996 144.4H239.669L242.629 135.214H244.296L247.262 144.4H245.862L245.169 142.114ZM241.996 141.054H244.862L243.436 136.28L241.996 141.054ZM254.927 138.06C254.927 138.776 254.774 139.354 254.467 139.794C254.165 140.229 253.745 140.547 253.207 140.747C252.669 140.947 252.054 141.047 251.36 141.047H250.214V144.4H248.887V135.214H251.32C252.44 135.214 253.32 135.447 253.96 135.914C254.605 136.376 254.927 137.092 254.927 138.06ZM253.527 138.074C253.527 137.398 253.331 136.923 252.94 136.647C252.554 136.372 252.056 136.234 251.447 136.234H250.214V140.007H251.427C251.836 140.007 252.198 139.949 252.514 139.834C252.829 139.718 253.076 139.52 253.254 139.24C253.436 138.96 253.527 138.572 253.527 138.074ZM261.092 144.4V140.12H257.825V144.4H256.505V135.214H257.825V139.034H261.092V135.214H262.412V144.4H261.092ZM270.89 139.814C270.89 140.747 270.761 141.572 270.503 142.287C270.245 143.003 269.861 143.563 269.35 143.967C268.843 144.367 268.212 144.567 267.456 144.567C266.701 144.567 266.068 144.372 265.556 143.98C265.05 143.585 264.668 143.032 264.41 142.32C264.152 141.609 264.023 140.778 264.023 139.827C264.023 138.889 264.152 138.063 264.41 137.347C264.668 136.627 265.05 136.065 265.556 135.66C266.068 135.252 266.701 135.047 267.456 135.047C268.212 135.047 268.843 135.245 269.35 135.64C269.861 136.036 270.245 136.592 270.503 137.307C270.761 138.023 270.89 138.858 270.89 139.814ZM269.51 139.814C269.51 138.605 269.35 137.687 269.03 137.06C268.714 136.434 268.19 136.12 267.456 136.12C266.723 136.12 266.196 136.436 265.876 137.067C265.561 137.698 265.403 138.618 265.403 139.827C265.403 141.032 265.565 141.945 265.89 142.567C266.219 143.185 266.741 143.494 267.456 143.494C268.19 143.494 268.714 143.183 269.03 142.56C269.35 141.934 269.51 141.018 269.51 139.814ZM278.675 141.834C278.675 142.367 278.539 142.84 278.268 143.254C278.001 143.663 277.612 143.985 277.101 144.22C276.595 144.452 275.979 144.567 275.255 144.567C274.552 144.567 273.926 144.46 273.375 144.247C272.823 144.034 272.355 143.74 271.968 143.367L272.721 142.52C273.041 142.818 273.408 143.054 273.821 143.227C274.235 143.4 274.717 143.487 275.268 143.487C275.628 143.487 275.961 143.429 276.268 143.314C276.579 143.194 276.828 143.016 277.015 142.78C277.206 142.54 277.301 142.24 277.301 141.88C277.301 141.596 277.243 141.354 277.128 141.154C277.017 140.949 276.819 140.769 276.535 140.614C276.25 140.458 275.852 140.305 275.341 140.154C274.719 139.972 274.186 139.765 273.741 139.534C273.301 139.298 272.963 139.016 272.728 138.687C272.497 138.354 272.381 137.945 272.381 137.46C272.381 136.985 272.512 136.567 272.775 136.207C273.037 135.843 273.397 135.558 273.855 135.354C274.312 135.149 274.839 135.047 275.435 135.047C276.079 135.047 276.641 135.14 277.121 135.327C277.606 135.514 278.041 135.778 278.428 136.12L277.695 136.947C277.366 136.658 277.012 136.449 276.635 136.32C276.261 136.187 275.881 136.12 275.495 136.12C275.006 136.12 274.59 136.227 274.248 136.44C273.906 136.649 273.735 136.969 273.735 137.4C273.735 137.658 273.803 137.878 273.941 138.06C274.079 138.238 274.31 138.403 274.635 138.554C274.963 138.705 275.412 138.865 275.981 139.034C276.475 139.18 276.923 139.36 277.328 139.574C277.737 139.783 278.063 140.067 278.308 140.427C278.552 140.783 278.675 141.252 278.675 141.834ZM294.671 137.82C294.671 138.509 294.46 139.065 294.037 139.487C293.62 139.905 293.104 140.194 292.491 140.354L295.164 144.4H293.597L291.177 140.527H290.037V144.4H288.711V135.214H291.157C292.308 135.214 293.182 135.434 293.777 135.874C294.373 136.309 294.671 136.958 294.671 137.82ZM293.264 137.82C293.264 137.256 293.1 136.849 292.771 136.6C292.446 136.352 291.946 136.227 291.271 136.227H290.037V139.52H291.284C291.915 139.52 292.402 139.392 292.744 139.134C293.091 138.872 293.264 138.434 293.264 137.82ZM302.882 139.814C302.882 140.747 302.753 141.572 302.495 142.287C302.238 143.003 301.853 143.563 301.342 143.967C300.835 144.367 300.204 144.567 299.449 144.567C298.693 144.567 298.06 144.372 297.549 143.98C297.042 143.585 296.66 143.032 296.402 142.32C296.144 141.609 296.015 140.778 296.015 139.827C296.015 138.889 296.144 138.063 296.402 137.347C296.66 136.627 297.042 136.065 297.549 135.66C298.06 135.252 298.693 135.047 299.449 135.047C300.204 135.047 300.835 135.245 301.342 135.64C301.853 136.036 302.238 136.592 302.495 137.307C302.753 138.023 302.882 138.858 302.882 139.814ZM301.502 139.814C301.502 138.605 301.342 137.687 301.022 137.06C300.706 136.434 300.182 136.12 299.449 136.12C298.715 136.12 298.189 136.436 297.869 137.067C297.553 137.698 297.395 138.618 297.395 139.827C297.395 141.032 297.558 141.945 297.882 142.567C298.211 143.185 298.733 143.494 299.449 143.494C300.182 143.494 300.706 143.183 301.022 142.56C301.342 141.934 301.502 141.018 301.502 139.814ZM310.547 135.214V141.407C310.547 142.029 310.42 142.578 310.167 143.054C309.918 143.529 309.56 143.9 309.093 144.167C308.631 144.434 308.078 144.567 307.433 144.567C306.784 144.567 306.229 144.434 305.767 144.167C305.304 143.9 304.951 143.529 304.707 143.054C304.467 142.578 304.347 142.029 304.347 141.407V135.214H305.667V141.307C305.667 142.747 306.256 143.467 307.433 143.467C308.62 143.467 309.213 142.747 309.213 141.307V135.214H310.547ZM316.085 136.314V144.4H314.765V136.314H311.938V135.214H318.958L318.818 136.314H316.085ZM322.369 136.254V139.207H325.743V140.254H322.369V143.367H326.496V144.4H321.043V135.214H326.396L326.243 136.254H322.369ZM334.661 137.82C334.661 138.509 334.45 139.065 334.028 139.487C333.61 139.905 333.094 140.194 332.481 140.354L335.154 144.4H333.588L331.168 140.527H330.028V144.4H328.701V135.214H331.148C332.299 135.214 333.172 135.434 333.768 135.874C334.363 136.309 334.661 136.958 334.661 137.82ZM333.254 137.82C333.254 137.256 333.09 136.849 332.761 136.6C332.436 136.352 331.936 136.227 331.261 136.227H330.028V139.52H331.274C331.905 139.52 332.392 139.392 332.734 139.134C333.081 138.872 333.254 138.434 333.254 137.82Z" fill="#B03900"/>
<path d="M336.96 20.5599V24.9004H335.319V20.5763L331.52 13.5937H333.317L336.173 19.124L339.061 13.5937H340.759L336.96 20.5599ZM350.209 19.2553C350.209 20.404 350.051 21.4187 349.733 22.2994C349.416 23.18 348.943 23.8693 348.314 24.3671C347.69 24.8594 346.913 25.1055 345.984 25.1055C345.054 25.1055 344.274 24.8648 343.645 24.3835C343.021 23.8966 342.551 23.2156 342.234 22.3404C341.916 21.4652 341.758 20.4423 341.758 19.2717C341.758 18.1175 341.916 17.1 342.234 16.2194C342.551 15.3332 343.021 14.6412 343.645 14.1435C344.274 13.6402 345.054 13.3886 345.984 13.3886C346.913 13.3886 347.69 13.632 348.314 14.1189C348.943 14.6057 349.416 15.2895 349.733 16.1701C350.051 17.0508 350.209 18.0792 350.209 19.2553ZM348.511 19.2553C348.511 17.7674 348.314 16.6378 347.92 15.8665C347.532 15.0953 346.886 14.7096 345.984 14.7096C345.081 14.7096 344.433 15.098 344.039 15.8748C343.651 16.6515 343.456 17.7838 343.456 19.2717C343.456 20.7541 343.656 21.8782 344.055 22.644C344.46 23.4043 345.103 23.7845 345.984 23.7845C346.886 23.7845 347.532 23.4016 347.92 22.6358C348.314 21.8645 348.511 20.7377 348.511 19.2553ZM359.643 13.5937V21.2163C359.643 21.9821 359.487 22.6577 359.175 23.243C358.869 23.8283 358.428 24.285 357.854 24.6132C357.285 24.9414 356.604 25.1055 355.811 25.1055C355.012 25.1055 354.328 24.9414 353.76 24.6132C353.191 24.285 352.756 23.8283 352.455 23.243C352.16 22.6577 352.012 21.9821 352.012 21.2163V13.5937H353.636V21.0932C353.636 22.8655 354.361 23.7517 355.811 23.7517C357.271 23.7517 358.002 22.8655 358.002 21.0932V13.5937H359.643ZM369.634 16.8019C369.634 17.6498 369.374 18.3336 368.855 18.8532C368.34 19.3674 367.706 19.723 366.951 19.9199L370.241 24.9004H368.313L365.335 20.1332H363.932V24.9004H362.299V13.5937H365.31C366.727 13.5937 367.802 13.8645 368.535 14.406C369.268 14.9421 369.634 15.7407 369.634 16.8019ZM367.903 16.8019C367.903 16.1072 367.7 15.6067 367.296 15.3004C366.896 14.9941 366.281 14.8409 365.449 14.8409H363.932V18.8942H365.466C366.243 18.8942 366.842 18.7356 367.263 18.4183C367.689 18.0956 367.903 17.5568 367.903 16.8019ZM388.665 13.5937V14.8655H386.179V23.6204H388.665V24.9004H382.052V23.6204H384.538V14.8655H382.052V13.5937H388.665ZM396.638 24.9004L392.823 15.0953C392.834 15.2867 392.856 15.6149 392.888 16.0799C392.927 16.5394 392.962 17.07 392.995 17.6717C393.028 18.2679 393.044 18.8642 393.044 19.4604V24.9004H391.567V13.5937H393.725L397.582 23.4235C397.571 23.2375 397.546 22.9284 397.508 22.4963C397.47 22.0587 397.434 21.5418 397.401 20.9455C397.374 20.3493 397.36 19.712 397.36 19.0337V13.5937H398.837V24.9004H396.638ZM403.938 14.8737V18.6809H408.295V19.9527H403.938V24.9004H402.314V13.5937H409.099L408.911 14.8737H403.938ZM418.853 16.8019C418.853 17.6498 418.593 18.3336 418.073 18.8532C417.559 19.3674 416.925 19.723 416.17 19.9199L419.46 24.9004H417.532L414.553 20.1332H413.15V24.9004H411.517V13.5937H414.529C415.945 13.5937 417.02 13.8645 417.753 14.406C418.486 14.9421 418.853 15.7407 418.853 16.8019ZM417.122 16.8019C417.122 16.1072 416.919 15.6067 416.514 15.3004C416.115 14.9941 415.5 14.8409 414.668 14.8409H413.15V18.8942H414.685C415.461 18.8942 416.06 18.7356 416.482 18.4183C416.908 18.0956 417.122 17.5568 417.122 16.8019ZM426.834 22.086H422.551L421.698 24.9004H420.065L423.708 13.5937H425.759L429.41 24.9004H427.687L426.834 22.086ZM422.928 20.7814H426.457L424.701 14.9065L422.928 20.7814ZM438.54 21.7414C438.54 22.3978 438.373 22.9804 438.04 23.4891C437.712 23.9924 437.233 24.3889 436.604 24.6789C435.98 24.9633 435.223 25.1055 434.331 25.1055C433.467 25.1055 432.696 24.9742 432.017 24.7117C431.339 24.4491 430.762 24.0881 430.286 23.6286L431.213 22.5865C431.607 22.953 432.058 23.243 432.567 23.4563C433.076 23.6696 433.669 23.7763 434.348 23.7763C434.791 23.7763 435.201 23.7052 435.578 23.563C435.961 23.4153 436.268 23.1965 436.497 22.9065C436.732 22.6112 436.85 22.2419 436.85 21.7989C436.85 21.4488 436.779 21.1506 436.637 20.9045C436.5 20.6529 436.257 20.4313 435.906 20.2399C435.556 20.0484 435.067 19.8597 434.438 19.6737C433.672 19.4495 433.016 19.1951 432.469 18.9106C431.927 18.6207 431.511 18.2734 431.221 17.8686C430.937 17.4583 430.795 16.9551 430.795 16.3589C430.795 15.7736 430.956 15.2594 431.279 14.8163C431.602 14.3677 432.045 14.0177 432.608 13.766C433.171 13.5144 433.82 13.3886 434.553 13.3886C435.346 13.3886 436.038 13.5035 436.629 13.7332C437.225 13.963 437.761 14.2884 438.237 14.7096L437.334 15.7271C436.929 15.3715 436.495 15.1144 436.03 14.9558C435.57 14.7917 435.102 14.7096 434.626 14.7096C434.025 14.7096 433.513 14.8409 433.092 15.1035C432.671 15.3606 432.46 15.7544 432.46 16.285C432.46 16.6023 432.545 16.873 432.715 17.0973C432.884 17.3161 433.169 17.5185 433.568 17.7045C433.973 17.8905 434.525 18.0874 435.225 18.2953C435.833 18.4758 436.385 18.6973 436.883 18.9599C437.386 19.217 437.788 19.5671 438.089 20.0101C438.39 20.4477 438.54 21.0248 438.54 21.7414ZM445.209 14.9476V24.9004H443.584V14.9476H440.105V13.5937H448.745L448.573 14.9476H445.209ZM458.228 16.8019C458.228 17.6498 457.968 18.3336 457.448 18.8532C456.934 19.3674 456.3 19.723 455.545 19.9199L458.835 24.9004H456.907L453.928 20.1332H452.525V24.9004H450.892V13.5937H453.904C455.32 13.5937 456.395 13.8645 457.128 14.406C457.861 14.9421 458.228 15.7407 458.228 16.8019ZM456.497 16.8019C456.497 16.1072 456.294 15.6067 455.889 15.3004C455.49 14.9941 454.875 14.8409 454.043 14.8409H452.525V18.8942H454.06C454.836 18.8942 455.435 18.7356 455.857 18.4183C456.283 18.0956 456.497 17.5568 456.497 16.8019ZM467.924 13.5937V21.2163C467.924 21.9821 467.768 22.6577 467.456 23.243C467.15 23.8283 466.71 24.285 466.135 24.6132C465.566 24.9414 464.885 25.1055 464.092 25.1055C463.293 25.1055 462.61 24.9414 462.041 24.6132C461.472 24.285 461.037 23.8283 460.736 23.243C460.441 22.6577 460.293 21.9821 460.293 21.2163V13.5937H461.918V21.0932C461.918 22.8655 462.643 23.7517 464.092 23.7517C465.553 23.7517 466.283 22.8655 466.283 21.0932V13.5937H467.924ZM474.904 13.3886C475.653 13.3886 476.283 13.4843 476.791 13.6758C477.305 13.8672 477.787 14.1462 478.235 14.5127L477.357 15.5465C477.007 15.2566 476.635 15.046 476.241 14.9148C475.848 14.778 475.435 14.7096 475.003 14.7096C474.406 14.7096 473.857 14.8546 473.353 15.1445C472.85 15.4344 472.445 15.9103 472.139 16.5722C471.833 17.2341 471.679 18.123 471.679 19.2389C471.679 20.3274 471.824 21.2026 472.114 21.8645C472.41 22.5209 472.806 22.9995 473.304 23.3004C473.807 23.5958 474.368 23.7435 474.986 23.7435C475.604 23.7435 476.116 23.6477 476.52 23.4563C476.931 23.2594 477.286 23.0351 477.587 22.7835L478.399 23.8255C478.044 24.1756 477.582 24.4765 477.013 24.7281C476.449 24.9797 475.76 25.1055 474.945 25.1055C474.01 25.1055 473.167 24.8812 472.418 24.4327C471.674 23.9842 471.083 23.325 470.646 22.4553C470.208 21.58 469.989 20.5079 469.989 19.2389C469.989 17.9698 470.211 16.9004 470.654 16.0306C471.102 15.1609 471.699 14.5045 472.443 14.0614C473.192 13.6129 474.012 13.3886 474.904 13.3886ZM484.584 14.9476V24.9004H482.959V14.9476H479.48V13.5937H488.12L487.948 14.9476H484.584ZM497.455 13.5937V21.2163C497.455 21.9821 497.299 22.6577 496.987 23.243C496.681 23.8283 496.241 24.285 495.666 24.6132C495.098 24.9414 494.417 25.1055 493.623 25.1055C492.825 25.1055 492.141 24.9414 491.572 24.6132C491.003 24.285 490.568 23.8283 490.267 23.243C489.972 22.6577 489.824 21.9821 489.824 21.2163V13.5937H491.449V21.0932C491.449 22.8655 492.174 23.7517 493.623 23.7517C495.084 23.7517 495.814 22.8655 495.814 21.0932V13.5937H497.455ZM507.447 16.8019C507.447 17.6498 507.187 18.3336 506.667 18.8532C506.153 19.3674 505.518 19.723 504.764 19.9199L508.054 24.9004H506.126L503.147 20.1332H501.744V24.9004H500.111V13.5937H503.122C504.539 13.5937 505.614 13.8645 506.347 14.406C507.08 14.9421 507.447 15.7407 507.447 16.8019ZM505.715 16.8019C505.715 16.1072 505.513 15.6067 505.108 15.3004C504.709 14.9941 504.093 14.8409 503.262 14.8409H501.744V18.8942H503.278C504.055 18.8942 504.654 18.7356 505.075 18.4183C505.502 18.0956 505.715 17.5568 505.715 16.8019ZM512.006 14.8737V18.5086H516.158V19.7968H512.006V23.6286H517.085V24.9004H510.373V13.5937H516.962L516.773 14.8737H512.006Z" fill="#254250"/>
<rect x="474.213" y="58.6504" width="206.5" height="71.2449" rx="5.25" fill="#FDFDFD"/>
<rect x="474.213" y="58.6504" width="206.5" height="71.2449" rx="5.25" stroke="#AF9200" stroke-width="1.5"/>
<g clip-path="url(#clip4_451_2276)">
<path d="M536.071 96.9287H527.92M536.221 97.6512L532.929 99.6462M526.843 95.9912C527.133 95.9912 527.411 96.1064 527.616 96.3116C527.822 96.5167 527.937 96.7949 527.937 97.085C527.937 97.375 527.822 97.6532 527.616 97.8584C527.411 98.0635 527.133 98.1787 526.843 98.1787C526.553 98.1787 526.275 98.0635 526.07 97.8584C525.865 97.6532 525.749 97.375 525.749 97.085C525.749 96.7949 525.865 96.5167 526.07 96.3116C526.275 96.1064 526.553 95.9912 526.843 95.9912ZM526.843 95.9912V92.5518M537.156 95.9912C537.446 95.9912 537.724 96.1064 537.929 96.3116C538.134 96.5167 538.249 96.7949 538.249 97.085C538.249 97.375 538.134 97.6532 537.929 97.8584C537.724 98.0635 537.446 98.1787 537.156 98.1787C536.865 98.1787 536.587 98.0635 536.382 97.8584C536.177 97.6532 536.062 97.375 536.062 97.085C536.062 96.7949 536.177 96.5167 536.382 96.3116C536.587 96.1064 536.865 95.9912 537.156 95.9912ZM537.156 95.9912V92.5518M531.592 89.3443L527.546 96.26M532.407 89.3443L536.452 96.2606M531.064 88.9018L527.777 90.8937M527.777 97.6512L531.069 99.6462M532.935 88.9018L536.221 90.8937M531.999 89.4287C532.289 89.4287 532.568 89.3135 532.773 89.1084C532.978 88.9032 533.093 88.625 533.093 88.335C533.093 88.0449 532.978 87.7667 532.773 87.5616C532.568 87.3564 532.289 87.2412 531.999 87.2412C531.709 87.2412 531.431 87.3564 531.226 87.5616C531.021 87.7667 530.906 88.0449 530.906 88.335C530.906 88.625 531.021 88.9032 531.226 89.1084C531.431 89.3135 531.709 89.4287 531.999 89.4287ZM526.843 92.5537C527.133 92.5537 527.411 92.4385 527.616 92.2334C527.822 92.0282 527.937 91.75 527.937 91.46C527.937 91.1699 527.822 90.8917 527.616 90.6866C527.411 90.4814 527.133 90.3662 526.843 90.3662C526.553 90.3662 526.275 90.4814 526.07 90.6866C525.865 90.8917 525.749 91.1699 525.749 91.46C525.749 91.75 525.865 92.0282 526.07 92.2334C526.275 92.4385 526.553 92.5537 526.843 92.5537ZM537.156 92.5537C537.446 92.5537 537.724 92.4385 537.929 92.2334C538.134 92.0282 538.249 91.75 538.249 91.46C538.249 91.1699 538.134 90.8917 537.929 90.6866C537.724 90.4814 537.446 90.3662 537.156 90.3662C536.865 90.3662 536.587 90.4814 536.382 90.6866C536.177 90.8917 536.062 91.1699 536.062 91.46C536.062 91.75 536.177 92.0282 536.382 92.2334C536.587 92.4385 536.865 92.5537 537.156 92.5537ZM531.999 101.304C532.289 101.304 532.568 101.188 532.773 100.983C532.978 100.778 533.093 100.5 533.093 100.21C533.093 99.9199 532.978 99.6417 532.773 99.4366C532.568 99.2314 532.289 99.1162 531.999 99.1162C531.709 99.1162 531.431 99.2314 531.226 99.4366C531.021 99.6417 530.906 99.9199 530.906 100.21C530.906 100.5 531.021 100.778 531.226 100.983C531.431 101.188 531.709 101.304 531.999 101.304Z" stroke="#AF9200" stroke-linecap="round" stroke-linejoin="round"/>
</g>
<path d="M558.147 95.7058C558.147 96.2391 558.012 96.7125 557.741 97.1258C557.474 97.5347 557.085 97.8569 556.574 98.0925C556.067 98.3236 555.452 98.4391 554.727 98.4391C554.025 98.4391 553.398 98.3325 552.847 98.1191C552.296 97.9058 551.827 97.6125 551.441 97.2391L552.194 96.3925C552.514 96.6902 552.881 96.9258 553.294 97.0991C553.707 97.2725 554.189 97.3591 554.741 97.3591C555.101 97.3591 555.434 97.3013 555.741 97.1858C556.052 97.0658 556.301 96.888 556.487 96.6525C556.678 96.4125 556.774 96.1125 556.774 95.7525C556.774 95.468 556.716 95.2258 556.601 95.0258C556.489 94.8214 556.292 94.6414 556.007 94.4858C555.723 94.3302 555.325 94.1769 554.814 94.0258C554.192 93.8436 553.658 93.6369 553.214 93.4058C552.774 93.1702 552.436 92.888 552.201 92.5591C551.969 92.2258 551.854 91.8169 551.854 91.3325C551.854 90.8569 551.985 90.4391 552.247 90.0791C552.509 89.7147 552.869 89.4302 553.327 89.2258C553.785 89.0214 554.312 88.9191 554.907 88.9191C555.552 88.9191 556.114 89.0125 556.594 89.1991C557.078 89.3858 557.514 89.6502 557.901 89.9925L557.167 90.8191C556.838 90.5302 556.485 90.3214 556.107 90.1925C555.734 90.0591 555.354 89.9925 554.967 89.9925C554.478 89.9925 554.063 90.0991 553.721 90.3125C553.378 90.5214 553.207 90.8414 553.207 91.2725C553.207 91.5302 553.276 91.7502 553.414 91.9325C553.552 92.1102 553.783 92.2747 554.107 92.4258C554.436 92.5769 554.885 92.7369 555.454 92.9058C555.947 93.0525 556.396 93.2325 556.801 93.4458C557.209 93.6547 557.536 93.9391 557.781 94.2991C558.025 94.6547 558.147 95.1236 558.147 95.7058ZM566.025 89.0858V95.2791C566.025 95.9013 565.899 96.4502 565.645 96.9258C565.396 97.4013 565.039 97.7725 564.572 98.0391C564.11 98.3058 563.556 98.4391 562.912 98.4391C562.263 98.4391 561.707 98.3058 561.245 98.0391C560.783 97.7725 560.43 97.4013 560.185 96.9258C559.945 96.4502 559.825 95.9013 559.825 95.2791V89.0858H561.145V95.1791C561.145 96.6191 561.734 97.3391 562.912 97.3391C564.099 97.3391 564.692 96.6191 564.692 95.1791V89.0858H566.025ZM574.183 95.6391C574.183 96.1458 574.083 96.568 573.883 96.9058C573.688 97.2436 573.421 97.5125 573.083 97.7125C572.75 97.9125 572.374 98.0569 571.957 98.1458C571.543 98.2302 571.119 98.2725 570.683 98.2725H568.123V89.0858H570.49C570.903 89.0858 571.306 89.1236 571.697 89.1991C572.088 89.2702 572.441 89.3947 572.757 89.5725C573.072 89.7458 573.321 89.9836 573.503 90.2858C573.69 90.5836 573.783 90.9569 573.783 91.4058C573.783 91.7925 573.701 92.1236 573.537 92.3991C573.377 92.6702 573.168 92.8902 572.91 93.0591C572.652 93.2236 572.377 93.3391 572.083 93.4058C572.417 93.4636 572.743 93.5702 573.063 93.7258C573.388 93.8769 573.654 94.1058 573.863 94.4125C574.077 94.7147 574.183 95.1236 574.183 95.6391ZM572.437 91.4925C572.437 90.9947 572.281 90.6413 571.97 90.4325C571.663 90.2191 571.239 90.1125 570.697 90.1125H569.443V92.9525H570.803C571.332 92.9525 571.737 92.8391 572.017 92.6125C572.297 92.3813 572.437 92.008 572.437 91.4925ZM572.797 95.6591C572.797 95.2191 572.71 94.8791 572.537 94.6391C572.368 94.3947 572.139 94.2258 571.85 94.1325C571.566 94.0391 571.25 93.9925 570.903 93.9925H569.443V97.2125H570.843C571.141 97.2125 571.439 97.1747 571.737 97.0991C572.039 97.0191 572.29 96.868 572.49 96.6458C572.694 96.4236 572.797 96.0947 572.797 95.6591ZM579.128 98.4391C578.004 98.4391 577.115 98.0413 576.461 97.2458C575.808 96.4502 575.481 95.2591 575.481 93.6725C575.481 92.8813 575.588 92.1902 575.801 91.5991C576.015 91.0036 576.304 90.508 576.668 90.1125C577.037 89.7125 577.455 89.4147 577.921 89.2191C578.392 89.0191 578.884 88.9191 579.395 88.9191C580.004 88.9191 580.51 89.008 580.915 89.1858C581.324 89.3636 581.708 89.6191 582.068 89.9525L581.295 90.7525C580.748 90.2458 580.121 89.9925 579.415 89.9925C578.979 89.9925 578.568 90.108 578.181 90.3391C577.795 90.5702 577.481 90.9547 577.241 91.4925C577.001 92.0302 576.881 92.7569 576.881 93.6725C576.881 94.9836 577.079 95.928 577.475 96.5058C577.87 97.0791 578.452 97.3658 579.221 97.3658C579.808 97.3658 580.357 97.2258 580.868 96.9458V94.2591H579.168L579.015 93.2058H582.168V97.6191C581.746 97.8547 581.295 98.0502 580.815 98.2058C580.339 98.3613 579.777 98.4391 579.128 98.4391ZM590.139 91.6925C590.139 92.3814 589.928 92.9369 589.506 93.3591C589.088 93.7769 588.573 94.0658 587.959 94.2258L590.633 98.2725H589.066L586.646 94.3991H585.506V98.2725H584.179V89.0858H586.626C587.777 89.0858 588.65 89.3058 589.246 89.7458C589.842 90.1813 590.139 90.8302 590.139 91.6925ZM588.733 91.6925C588.733 91.128 588.568 90.7214 588.239 90.4725C587.915 90.2236 587.415 90.0991 586.739 90.0991H585.506V93.3925H586.753C587.384 93.3925 587.87 93.2636 588.213 93.0058C588.559 92.7436 588.733 92.3058 588.733 91.6925ZM596.624 95.9858H593.144L592.451 98.2725H591.124L594.084 89.0858H595.751L598.717 98.2725H597.317L596.624 95.9858ZM593.451 94.9258H596.317L594.891 90.1525L593.451 94.9258ZM606.382 91.9325C606.382 92.648 606.229 93.2258 605.922 93.6658C605.62 94.1014 605.2 94.4191 604.662 94.6191C604.124 94.8191 603.509 94.9191 602.815 94.9191H601.669V98.2725H600.342V89.0858H602.775C603.895 89.0858 604.775 89.3191 605.415 89.7858C606.06 90.248 606.382 90.9636 606.382 91.9325ZM604.982 91.9458C604.982 91.2702 604.787 90.7947 604.395 90.5191C604.009 90.2436 603.511 90.1058 602.902 90.1058H601.669V93.8791H602.882C603.291 93.8791 603.653 93.8213 603.969 93.7058C604.284 93.5902 604.531 93.3925 604.709 93.1125C604.891 92.8325 604.982 92.4436 604.982 91.9458ZM612.547 98.2725V93.9925H609.28V98.2725H607.96V89.0858H609.28V92.9058H612.547V89.0858H613.867V98.2725H612.547ZM628.616 95.9858H625.136L624.443 98.2725H623.116L626.076 89.0858H627.743L630.71 98.2725H629.31L628.616 95.9858ZM625.443 94.9258H628.31L626.883 90.1525L625.443 94.9258Z" fill="#AF9200"/>
<rect x="474.213" y="152.846" width="206.5" height="71.2449" rx="5.25" fill="#FDFDFD"/>
<rect x="474.213" y="152.846" width="206.5" height="71.2449" rx="5.25" stroke="#25855A" stroke-width="1.5"/>
<g clip-path="url(#clip5_451_2276)">
<path d="M536.071 191.124H527.92M536.221 191.847L532.929 193.842M526.843 190.187C527.133 190.187 527.411 190.302 527.616 190.507C527.822 190.712 527.937 190.99 527.937 191.28C527.937 191.57 527.822 191.849 527.616 192.054C527.411 192.259 527.133 192.374 526.843 192.374C526.553 192.374 526.275 192.259 526.07 192.054C525.865 191.849 525.749 191.57 525.749 191.28C525.749 190.99 525.865 190.712 526.07 190.507C526.275 190.302 526.553 190.187 526.843 190.187ZM526.843 190.187V186.747M537.156 190.187C537.446 190.187 537.724 190.302 537.929 190.507C538.134 190.712 538.249 190.99 538.249 191.28C538.249 191.57 538.134 191.849 537.929 192.054C537.724 192.259 537.446 192.374 537.156 192.374C536.865 192.374 536.587 192.259 536.382 192.054C536.177 191.849 536.062 191.57 536.062 191.28C536.062 190.99 536.177 190.712 536.382 190.507C536.587 190.302 536.865 190.187 537.156 190.187ZM537.156 190.187V186.747M531.592 183.54L527.546 190.455M532.407 183.54L536.452 190.456M531.064 183.097L527.777 185.089M527.777 191.847L531.069 193.842M532.935 183.097L536.221 185.089M531.999 183.624C532.289 183.624 532.568 183.509 532.773 183.304C532.978 183.099 533.093 182.82 533.093 182.53C533.093 182.24 532.978 181.962 532.773 181.757C532.568 181.552 532.289 181.437 531.999 181.437C531.709 181.437 531.431 181.552 531.226 181.757C531.021 181.962 530.906 182.24 530.906 182.53C530.906 182.82 531.021 183.099 531.226 183.304C531.431 183.509 531.709 183.624 531.999 183.624ZM526.843 186.749C527.133 186.749 527.411 186.634 527.616 186.429C527.822 186.224 527.937 185.945 527.937 185.655C527.937 185.365 527.822 185.087 527.616 184.882C527.411 184.677 527.133 184.562 526.843 184.562C526.553 184.562 526.275 184.677 526.07 184.882C525.865 185.087 525.749 185.365 525.749 185.655C525.749 185.945 525.865 186.224 526.07 186.429C526.275 186.634 526.553 186.749 526.843 186.749ZM537.156 186.749C537.446 186.749 537.724 186.634 537.929 186.429C538.134 186.224 538.249 185.945 538.249 185.655C538.249 185.365 538.134 185.087 537.929 184.882C537.724 184.677 537.446 184.562 537.156 184.562C536.865 184.562 536.587 184.677 536.382 184.882C536.177 185.087 536.062 185.365 536.062 185.655C536.062 185.945 536.177 186.224 536.382 186.429C536.587 186.634 536.865 186.749 537.156 186.749ZM531.999 195.499C532.289 195.499 532.568 195.384 532.773 195.179C532.978 194.974 533.093 194.695 533.093 194.405C533.093 194.115 532.978 193.837 532.773 193.632C532.568 193.427 532.289 193.312 531.999 193.312C531.709 193.312 531.431 193.427 531.226 193.632C531.021 193.837 530.906 194.115 530.906 194.405C530.906 194.695 531.021 194.974 531.226 195.179C531.431 195.384 531.709 195.499 531.999 195.499Z" stroke="#25855A" stroke-linecap="round" stroke-linejoin="round"/>
</g>
<path d="M558.147 189.901C558.147 190.434 558.012 190.908 557.741 191.321C557.474 191.73 557.085 192.052 556.574 192.288C556.067 192.519 555.452 192.634 554.727 192.634C554.025 192.634 553.398 192.528 552.847 192.314C552.296 192.101 551.827 191.808 551.441 191.434L552.194 190.588C552.514 190.886 552.881 191.121 553.294 191.294C553.707 191.468 554.189 191.554 554.741 191.554C555.101 191.554 555.434 191.497 555.741 191.381C556.052 191.261 556.301 191.083 556.487 190.848C556.678 190.608 556.774 190.308 556.774 189.948C556.774 189.663 556.716 189.421 556.601 189.221C556.489 189.017 556.292 188.837 556.007 188.681C555.723 188.526 555.325 188.372 554.814 188.221C554.192 188.039 553.658 187.832 553.214 187.601C552.774 187.366 552.436 187.083 552.201 186.754C551.969 186.421 551.854 186.012 551.854 185.528C551.854 185.052 551.985 184.634 552.247 184.274C552.509 183.91 552.869 183.626 553.327 183.421C553.785 183.217 554.312 183.114 554.907 183.114C555.552 183.114 556.114 183.208 556.594 183.394C557.078 183.581 557.514 183.846 557.901 184.188L557.167 185.014C556.838 184.726 556.485 184.517 556.107 184.388C555.734 184.254 555.354 184.188 554.967 184.188C554.478 184.188 554.063 184.294 553.721 184.508C553.378 184.717 553.207 185.037 553.207 185.468C553.207 185.726 553.276 185.946 553.414 186.128C553.552 186.306 553.783 186.47 554.107 186.621C554.436 186.772 554.885 186.932 555.454 187.101C555.947 187.248 556.396 187.428 556.801 187.641C557.209 187.85 557.536 188.134 557.781 188.494C558.025 188.85 558.147 189.319 558.147 189.901ZM566.025 183.281V189.474C566.025 190.097 565.899 190.646 565.645 191.121C565.396 191.597 565.039 191.968 564.572 192.234C564.11 192.501 563.556 192.634 562.912 192.634C562.263 192.634 561.707 192.501 561.245 192.234C560.783 191.968 560.43 191.597 560.185 191.121C559.945 190.646 559.825 190.097 559.825 189.474V183.281H561.145V189.374C561.145 190.814 561.734 191.534 562.912 191.534C564.099 191.534 564.692 190.814 564.692 189.374V183.281H566.025ZM574.183 189.834C574.183 190.341 574.083 190.763 573.883 191.101C573.688 191.439 573.421 191.708 573.083 191.908C572.75 192.108 572.374 192.252 571.957 192.341C571.543 192.426 571.119 192.468 570.683 192.468H568.123V183.281H570.49C570.903 183.281 571.306 183.319 571.697 183.394C572.088 183.466 572.441 183.59 572.757 183.768C573.072 183.941 573.321 184.179 573.503 184.481C573.69 184.779 573.783 185.152 573.783 185.601C573.783 185.988 573.701 186.319 573.537 186.594C573.377 186.866 573.168 187.086 572.91 187.254C572.652 187.419 572.377 187.534 572.083 187.601C572.417 187.659 572.743 187.766 573.063 187.921C573.388 188.072 573.654 188.301 573.863 188.608C574.077 188.91 574.183 189.319 574.183 189.834ZM572.437 185.688C572.437 185.19 572.281 184.837 571.97 184.628C571.663 184.414 571.239 184.308 570.697 184.308H569.443V187.148H570.803C571.332 187.148 571.737 187.034 572.017 186.808C572.297 186.577 572.437 186.203 572.437 185.688ZM572.797 189.854C572.797 189.414 572.71 189.074 572.537 188.834C572.368 188.59 572.139 188.421 571.85 188.328C571.566 188.234 571.25 188.188 570.903 188.188H569.443V191.408H570.843C571.141 191.408 571.439 191.37 571.737 191.294C572.039 191.214 572.29 191.063 572.49 190.841C572.694 190.619 572.797 190.29 572.797 189.854ZM579.128 192.634C578.004 192.634 577.115 192.237 576.461 191.441C575.808 190.646 575.481 189.454 575.481 187.868C575.481 187.077 575.588 186.386 575.801 185.794C576.015 185.199 576.304 184.703 576.668 184.308C577.037 183.908 577.455 183.61 577.921 183.414C578.392 183.214 578.884 183.114 579.395 183.114C580.004 183.114 580.51 183.203 580.915 183.381C581.324 183.559 581.708 183.814 582.068 184.148L581.295 184.948C580.748 184.441 580.121 184.188 579.415 184.188C578.979 184.188 578.568 184.303 578.181 184.534C577.795 184.766 577.481 185.15 577.241 185.688C577.001 186.226 576.881 186.952 576.881 187.868C576.881 189.179 577.079 190.123 577.475 190.701C577.87 191.274 578.452 191.561 579.221 191.561C579.808 191.561 580.357 191.421 580.868 191.141V188.454H579.168L579.015 187.401H582.168V191.814C581.746 192.05 581.295 192.246 580.815 192.401C580.339 192.557 579.777 192.634 579.128 192.634ZM590.139 185.888C590.139 186.577 589.928 187.132 589.506 187.554C589.088 187.972 588.573 188.261 587.959 188.421L590.633 192.468H589.066L586.646 188.594H585.506V192.468H584.179V183.281H586.626C587.777 183.281 588.65 183.501 589.246 183.941C589.842 184.377 590.139 185.026 590.139 185.888ZM588.733 185.888C588.733 185.323 588.568 184.917 588.239 184.668C587.915 184.419 587.415 184.294 586.739 184.294H585.506V187.588H586.753C587.384 187.588 587.87 187.459 588.213 187.201C588.559 186.939 588.733 186.501 588.733 185.888ZM596.624 190.181H593.144L592.451 192.468H591.124L594.084 183.281H595.751L598.717 192.468H597.317L596.624 190.181ZM593.451 189.121H596.317L594.891 184.348L593.451 189.121ZM606.382 186.128C606.382 186.843 606.229 187.421 605.922 187.861C605.62 188.297 605.2 188.614 604.662 188.814C604.124 189.014 603.509 189.114 602.815 189.114H601.669V192.468H600.342V183.281H602.775C603.895 183.281 604.775 183.514 605.415 183.981C606.06 184.443 606.382 185.159 606.382 186.128ZM604.982 186.141C604.982 185.466 604.787 184.99 604.395 184.714C604.009 184.439 603.511 184.301 602.902 184.301H601.669V188.074H602.882C603.291 188.074 603.653 188.017 603.969 187.901C604.284 187.786 604.531 187.588 604.709 187.308C604.891 187.028 604.982 186.639 604.982 186.141ZM612.547 192.468V188.188H609.28V192.468H607.96V183.281H609.28V187.101H612.547V183.281H613.867V192.468H612.547ZM630.17 189.834C630.17 190.341 630.07 190.763 629.87 191.101C629.674 191.439 629.407 191.708 629.07 191.908C628.736 192.108 628.361 192.252 627.943 192.341C627.53 192.426 627.105 192.468 626.67 192.468H624.11V183.281H626.476C626.89 183.281 627.292 183.319 627.683 183.394C628.074 183.466 628.427 183.59 628.743 183.768C629.058 183.941 629.307 184.179 629.49 184.481C629.676 184.779 629.77 185.152 629.77 185.601C629.77 185.988 629.687 186.319 629.523 186.594C629.363 186.866 629.154 187.086 628.896 187.254C628.638 187.419 628.363 187.534 628.07 187.601C628.403 187.659 628.73 187.766 629.05 187.921C629.374 188.072 629.641 188.301 629.85 188.608C630.063 188.91 630.17 189.319 630.17 189.834ZM628.423 185.688C628.423 185.19 628.267 184.837 627.956 184.628C627.65 184.414 627.225 184.308 626.683 184.308H625.43V187.148H626.79C627.318 187.148 627.723 187.034 628.003 186.808C628.283 186.577 628.423 186.203 628.423 185.688ZM628.783 189.854C628.783 189.414 628.696 189.074 628.523 188.834C628.354 188.59 628.125 188.421 627.836 188.328C627.552 188.234 627.236 188.188 626.89 188.188H625.43V191.408H626.83C627.127 191.408 627.425 191.37 627.723 191.294C628.025 191.214 628.276 191.063 628.476 190.841C628.681 190.619 628.783 190.29 628.783 189.854Z" fill="#25855A"/>
<path d="M88.1976 139.468L178.841 139.468" stroke="#467B95" stroke-width="2" stroke-dasharray="4 4"/>
<path d="M349.806 127.584H397.469C404.096 127.584 409.469 122.212 409.469 115.584V103.575C409.469 96.9478 414.841 91.5752 421.469 91.5752H474.104" stroke="#AF9200" stroke-width="2"/>
<path d="M349.806 127.584H397.469C404.096 127.584 409.469 122.212 409.469 115.584V103.575C409.469 96.9478 414.841 91.5752 421.469 91.5752H474.104" stroke="#AF9200" stroke-width="2"/>
<path d="M349.806 151.576H397.469C404.096 151.576 409.469 156.948 409.469 163.576V175.585C409.469 182.212 414.841 187.585 421.469 187.585H474.104" stroke="#25855A" stroke-width="2"/>
<rect x="-1" y="1" width="576.971" height="253.103" rx="11" transform="matrix(-1 0 0 1 712.703 0.799805)" stroke="#254250" stroke-width="2"/>
<defs>
<clipPath id="clip0_451_2276">
<rect width="16" height="16" fill="white" transform="translate(14.5829 140.968)"/>
</clipPath>
<clipPath id="clip1_451_2276">
<rect width="13.3333" height="13.3333" fill="white" transform="translate(37.2495 142.301)"/>
</clipPath>
<clipPath id="clip2_451_2276">
<rect width="16" height="16" fill="white" transform="translate(58.5829 140.968)"/>
</clipPath>
<clipPath id="clip3_451_2276">
<rect width="16" height="16" fill="white" transform="translate(196.525 131.9)"/>
</clipPath>
<clipPath id="clip4_451_2276">
<rect width="16" height="16" fill="white" transform="translate(523.999 86.2725)"/>
</clipPath>
<clipPath id="clip5_451_2276">
<rect width="16" height="16" fill="white" transform="translate(523.999 180.468)"/>
</clipPath>
</defs>
</svg>
