<svg width="712" height="254" viewBox="0 0 712 254" fill="none" xmlns="http://www.w3.org/2000/svg">
<rect x="1.58984" y="103.119" width="86.5" height="70.5" rx="5.25" fill="#FDFDFD"/>
<rect x="1.58984" y="103.119" width="86.5" height="70.5" rx="5.25" stroke="#467B95" stroke-width="1.5"/>
<path d="M19.6132 122.516C20.2221 122.516 20.7332 122.594 21.1465 122.749C21.5643 122.905 21.9554 123.131 22.3198 123.429L21.6065 124.269C21.3221 124.034 21.0198 123.862 20.6998 123.756C20.3798 123.645 20.0443 123.589 19.6932 123.589C19.2087 123.589 18.7621 123.707 18.3532 123.942C17.9443 124.178 17.6154 124.565 17.3665 125.102C17.1176 125.64 16.9932 126.362 16.9932 127.269C16.9932 128.154 17.111 128.865 17.3465 129.402C17.5865 129.936 17.9087 130.325 18.3132 130.569C18.7221 130.809 19.1776 130.929 19.6798 130.929C20.1821 130.929 20.5976 130.851 20.9265 130.696C21.2598 130.536 21.5487 130.354 21.7932 130.149L22.4532 130.996C22.1643 131.28 21.7887 131.525 21.3265 131.729C20.8687 131.934 20.3087 132.036 19.6465 132.036C18.8865 132.036 18.2021 131.854 17.5932 131.489C16.9887 131.125 16.5087 130.589 16.1532 129.882C15.7976 129.171 15.6198 128.3 15.6198 127.269C15.6198 126.238 15.7998 125.369 16.1598 124.662C16.5243 123.956 17.0087 123.422 17.6132 123.062C18.2221 122.698 18.8887 122.516 19.6132 122.516ZM24.5512 131.869V122.682H25.8779V130.722H30.0379L29.8912 131.869H24.5512ZM37.5226 122.682V123.716H35.5026V130.829H37.5226V131.869H32.1493V130.829H34.1693V123.716H32.1493V122.682H37.5226ZM41.7607 123.722V126.676H45.134V127.722H41.7607V130.836H45.8873V131.869H40.434V122.682H45.7873L45.634 123.722H41.7607ZM51.9987 131.869L48.8987 123.902C48.9076 124.058 48.9254 124.325 48.952 124.702C48.9831 125.076 49.012 125.507 49.0387 125.996C49.0654 126.48 49.0787 126.965 49.0787 127.449V131.869H47.8787V122.682H49.632L52.7654 130.669C52.7565 130.518 52.7365 130.267 52.7054 129.916C52.6743 129.56 52.6454 129.14 52.6187 128.656C52.5965 128.171 52.5854 127.654 52.5854 127.102V122.682H53.7854V131.869H51.9987ZM59.4701 123.782V131.869H58.1501V123.782H55.3234V122.682H62.3434L62.2034 123.782H59.4701ZM70.0481 129.302C70.0481 129.836 69.9126 130.309 69.6415 130.722C69.3748 131.131 68.9859 131.454 68.4748 131.689C67.9681 131.92 67.3526 132.036 66.6281 132.036C65.9259 132.036 65.2992 131.929 64.7481 131.716C64.197 131.502 63.7281 131.209 63.3415 130.836L64.0948 129.989C64.4148 130.287 64.7815 130.522 65.1948 130.696C65.6081 130.869 66.0903 130.956 66.6415 130.956C67.0015 130.956 67.3348 130.898 67.6415 130.782C67.9526 130.662 68.2015 130.485 68.3881 130.249C68.5792 130.009 68.6748 129.709 68.6748 129.349C68.6748 129.065 68.617 128.822 68.5015 128.622C68.3903 128.418 68.1926 128.238 67.9081 128.082C67.6237 127.927 67.2259 127.774 66.7148 127.622C66.0926 127.44 65.5592 127.234 65.1148 127.002C64.6748 126.767 64.337 126.485 64.1015 126.156C63.8703 125.822 63.7548 125.414 63.7548 124.929C63.7548 124.454 63.8859 124.036 64.1481 123.676C64.4103 123.311 64.7703 123.027 65.2281 122.822C65.6859 122.618 66.2126 122.516 66.8081 122.516C67.4526 122.516 68.0148 122.609 68.4948 122.796C68.9792 122.982 69.4148 123.247 69.8015 123.589L69.0681 124.416C68.7392 124.127 68.3859 123.918 68.0081 123.789C67.6348 123.656 67.2548 123.589 66.8681 123.589C66.3792 123.589 65.9637 123.696 65.6215 123.909C65.2792 124.118 65.1081 124.438 65.1081 124.869C65.1081 125.127 65.177 125.347 65.3148 125.529C65.4526 125.707 65.6837 125.871 66.0081 126.022C66.337 126.174 66.7859 126.334 67.3548 126.502C67.8481 126.649 68.297 126.829 68.7015 127.042C69.1103 127.251 69.437 127.536 69.6815 127.896C69.9259 128.251 70.0481 128.72 70.0481 129.302Z" fill="#467B95"/>
<g clip-path="url(#clip0_451_2298)">
<path d="M26.1112 147.783C26.4988 148.593 26.8043 149.44 27.023 150.31C28.763 149.798 29.8712 148.957 29.8712 147.935C29.8712 146.893 28.7212 146.038 26.9218 145.53" stroke="#467B95" stroke-linecap="round" stroke-linejoin="round"/>
<path d="M19.5605 147.783C19.2233 147.059 18.9514 146.306 18.748 145.533C16.9537 146.041 15.8105 146.895 15.8105 147.935C15.8105 148.955 16.9149 149.796 18.6499 150.31" stroke="#467B95" stroke-linecap="round" stroke-linejoin="round"/>
<path d="M21.1055 145.109C21.6137 144.369 22.1947 143.681 22.8399 143.057C21.5274 141.807 20.2443 141.268 19.3593 141.778C18.4568 142.299 18.2912 143.723 18.7512 145.535" stroke="#467B95" stroke-linecap="round" stroke-linejoin="round"/>
<path d="M24.3811 150.782C23.9226 151.436 23.4068 152.047 22.8398 152.61C24.1773 153.909 25.4898 154.475 26.3905 153.955C27.2736 153.445 27.4492 152.069 27.0248 150.311" stroke="#467B95" stroke-linecap="round" stroke-linejoin="round"/>
<path d="M21.2917 150.78C20.3968 150.711 19.5111 150.553 18.648 150.307C18.2205 152.07 18.398 153.45 19.2805 153.961C20.1823 154.482 21.498 153.914 22.838 152.609" stroke="#467B95" stroke-linecap="round" stroke-linejoin="round"/>
<path d="M24.5673 145.109C25.3631 145.179 26.1511 145.321 26.9217 145.531C27.3786 143.723 27.2123 142.304 26.3117 141.781C25.428 141.274 24.1486 141.808 22.8398 143.058" stroke="#467B95" stroke-linecap="round" stroke-linejoin="round"/>
<path d="M24.5674 145.108C24.0162 145.056 23.4424 145.024 22.8399 145.024C22.2374 145.024 21.6593 145.056 21.1055 145.109C20.8212 145.518 20.543 145.954 20.2749 146.417C20.0068 146.88 19.7749 147.335 19.5605 147.784C19.7905 148.288 20.0518 148.802 20.3518 149.322C20.6518 149.842 20.9693 150.329 21.2893 150.781C22.3172 150.869 23.3507 150.869 24.3787 150.782C25.0519 149.841 25.6317 148.837 26.1099 147.784C25.6735 146.849 25.1574 145.954 24.5674 145.108Z" stroke="#467B95" stroke-linecap="round" stroke-linejoin="round"/>
<path d="M21.9023 147.936C21.9023 148.184 22.0011 148.423 22.1769 148.598C22.3527 148.774 22.5912 148.873 22.8398 148.873C23.0885 148.873 23.3269 148.774 23.5028 148.598C23.6786 148.423 23.7773 148.184 23.7773 147.936C23.7773 147.687 23.6786 147.448 23.5028 147.273C23.3269 147.097 23.0885 146.998 22.8398 146.998C22.5912 146.998 22.3527 147.097 22.1769 147.273C22.0011 147.448 21.9023 147.687 21.9023 147.936Z" stroke="#467B95" stroke-linecap="round" stroke-linejoin="round"/>
</g>
<g clip-path="url(#clip1_451_2298)">
<path d="M38.3138 142.01V153.729L50.0326 142.01H38.3138Z" stroke="#467B95" stroke-linecap="round" stroke-linejoin="round"/>
<path d="M44.1732 147.869L50.0326 153.729H38.3138" stroke="#467B95" stroke-linecap="round" stroke-linejoin="round"/>
<path d="M44.1732 142.01L38.4388 147.744" stroke="#467B95" stroke-linecap="round" stroke-linejoin="round"/>
</g>
<g clip-path="url(#clip2_451_2298)">
<path d="M66.5335 147.243C64.0898 145.725 61.921 142.343 61.921 142.343C61.921 142.343 63.7148 147.062 67.0085 150.162C65.9474 150.221 64.8864 150.046 63.9004 149.65C62.9143 149.253 62.0274 148.645 61.3023 147.868C60.8435 147.41 60.4388 146.9 60.096 146.35C60.0739 146.322 60.0427 146.304 60.0082 146.299C59.9737 146.293 59.9382 146.3 59.9085 146.318C59.8742 146.336 59.8466 146.365 59.8298 146.4C59.8129 146.435 59.8076 146.474 59.8148 146.512C60.2475 148.065 61.0818 149.477 62.2335 150.606C64.896 153.268 68.5648 154.006 70.896 152.481C71.3458 152.618 71.8088 152.708 72.2773 152.75C73.4898 153.375 73.4898 153.662 73.4898 153.662C73.6658 153.456 73.7863 153.208 73.8399 152.942C73.8935 152.677 73.8784 152.402 73.796 152.143C73.8608 151.858 73.8355 151.559 73.7236 151.288C73.6117 151.017 73.4186 150.788 73.171 150.631L72.6148 150.287C73.4585 147.987 72.6148 144.875 70.271 142.537C70.1148 142.375 69.9523 142.225 69.7835 142.081C69.755 142.056 69.7184 142.042 69.6804 142.042C69.6424 142.042 69.6058 142.056 69.5773 142.081C69.5481 142.104 69.5279 142.137 69.5199 142.173C69.512 142.21 69.5168 142.248 69.5335 142.281C70.8523 144.375 71.046 146.768 69.971 148.393C67.9577 146.653 66.2249 144.612 64.8335 142.343" stroke="#467B95" stroke-linecap="round" stroke-linejoin="round"/>
</g>
<rect x="151.246" y="47.8008" width="230" height="156" rx="7" stroke="#B03900" stroke-width="2"/>
<path d="M213.769 66.9864H209.486L208.633 69.8008H207L210.643 58.4941H212.694L216.346 69.8008H214.623L213.769 66.9864ZM209.864 65.6818H213.392L211.636 59.8069L209.864 65.6818ZM225.779 61.9977C225.779 62.8784 225.59 63.5895 225.213 64.131C224.841 64.6671 224.324 65.0582 223.662 65.3044C223 65.5505 222.243 65.6736 221.389 65.6736H219.978V69.8008H218.345V58.4941H221.34C222.719 58.4941 223.802 58.7813 224.589 59.3557C225.383 59.9245 225.779 60.8052 225.779 61.9977ZM224.056 62.0141C224.056 61.1827 223.815 60.5974 223.334 60.2582C222.858 59.9191 222.245 59.7495 221.496 59.7495H219.978V64.3936H221.471C221.975 64.3936 222.42 64.3225 222.809 64.1803C223.197 64.038 223.501 63.7946 223.72 63.45C223.944 63.1054 224.056 62.6268 224.056 62.0141ZM235.582 64.1557C235.582 65.3044 235.423 66.3191 235.106 67.1998C234.789 68.0804 234.315 68.7697 233.686 69.2674C233.063 69.7598 232.286 70.0059 231.356 70.0059C230.426 70.0059 229.647 69.7652 229.018 69.2839C228.394 68.797 227.924 68.116 227.606 67.2408C227.289 66.3656 227.131 65.3427 227.131 64.1721C227.131 63.0179 227.289 62.0004 227.606 61.1198C227.924 60.2336 228.394 59.5416 229.018 59.0439C229.647 58.5406 230.426 58.289 231.356 58.289C232.286 58.289 233.063 58.5324 233.686 59.0192C234.315 59.5061 234.789 60.1898 235.106 61.0705C235.423 61.9512 235.582 62.9796 235.582 64.1557ZM233.883 64.1557C233.883 62.6678 233.686 61.5382 233.293 60.7669C232.904 59.9957 232.259 59.61 231.356 59.61C230.454 59.61 229.805 59.9984 229.412 60.7751C229.023 61.5519 228.829 62.6842 228.829 64.1721C228.829 65.6545 229.029 66.7786 229.428 67.5444C229.833 68.3047 230.475 68.6849 231.356 68.6849C232.259 68.6849 232.904 68.302 233.293 67.5362C233.686 66.7649 233.883 65.638 233.883 64.1557ZM238.386 69.8008V58.4941H240.018V68.3895H245.138L244.958 69.8008H238.386ZM248.229 69.8008V58.4941H249.862V68.3895H254.982L254.802 69.8008H248.229ZM265.113 64.1557C265.113 65.3044 264.954 66.3191 264.637 67.1998C264.32 68.0804 263.847 68.7697 263.218 69.2674C262.594 69.7598 261.817 70.0059 260.887 70.0059C259.958 70.0059 259.178 69.7652 258.549 69.2839C257.925 68.797 257.455 68.116 257.138 67.2408C256.82 66.3656 256.662 65.3427 256.662 64.1721C256.662 63.0179 256.82 62.0004 257.138 61.1198C257.455 60.2336 257.925 59.5416 258.549 59.0439C259.178 58.5406 259.958 58.289 260.887 58.289C261.817 58.289 262.594 58.5324 263.218 59.0192C263.847 59.5061 264.32 60.1898 264.637 61.0705C264.954 61.9512 265.113 62.9796 265.113 64.1557ZM263.415 64.1557C263.415 62.6678 263.218 61.5382 262.824 60.7669C262.435 59.9957 261.79 59.61 260.887 59.61C259.985 59.61 259.337 59.9984 258.943 60.7751C258.554 61.5519 258.36 62.6842 258.36 64.1721C258.36 65.6545 258.56 66.7786 258.959 67.5444C259.364 68.3047 260.007 68.6849 260.887 68.6849C261.79 68.6849 262.435 68.302 262.824 67.5362C263.218 66.7649 263.415 65.638 263.415 64.1557ZM281.527 58.289C282.276 58.289 282.905 58.3847 283.414 58.5762C283.928 58.7676 284.409 59.0466 284.858 59.4131L283.98 60.4469C283.63 60.157 283.258 59.9464 282.864 59.8151C282.47 59.6784 282.057 59.61 281.625 59.61C281.029 59.61 280.479 59.755 279.976 60.0449C279.473 60.3348 279.068 60.8107 278.762 61.4726C278.455 62.1345 278.302 63.0233 278.302 64.1392C278.302 65.2278 278.447 66.103 278.737 66.7649C279.032 67.4213 279.429 67.8999 279.927 68.2008C280.43 68.4962 280.991 68.6439 281.609 68.6439C282.227 68.6439 282.738 68.5481 283.143 68.3567C283.553 68.1598 283.909 67.9355 284.21 67.6839L285.022 68.7259C284.667 69.076 284.204 69.3768 283.635 69.6285C283.072 69.8801 282.383 70.0059 281.568 70.0059C280.632 70.0059 279.79 69.7816 279.041 69.3331C278.297 68.8845 277.706 68.2254 277.268 67.3557C276.831 66.4804 276.612 65.4083 276.612 64.1392C276.612 62.8702 276.833 61.8008 277.276 60.931C277.725 60.0613 278.321 59.4049 279.065 58.9618C279.815 58.5133 280.635 58.289 281.527 58.289ZM287.604 69.8008V58.4941H289.237V68.3895H294.357L294.177 69.8008H287.604ZM304.488 64.1557C304.488 65.3044 304.329 66.3191 304.012 67.1998C303.695 68.0804 303.222 68.7697 302.593 69.2674C301.969 69.7598 301.192 70.0059 300.262 70.0059C299.333 70.0059 298.553 69.7652 297.924 69.2839C297.3 68.797 296.83 68.116 296.513 67.2408C296.195 66.3656 296.037 65.3427 296.037 64.1721C296.037 63.0179 296.195 62.0004 296.513 61.1198C296.83 60.2336 297.3 59.5416 297.924 59.0439C298.553 58.5406 299.333 58.289 300.262 58.289C301.192 58.289 301.969 58.5324 302.593 59.0192C303.222 59.5061 303.695 60.1898 304.012 61.0705C304.329 61.9512 304.488 62.9796 304.488 64.1557ZM302.79 64.1557C302.79 62.6678 302.593 61.5382 302.199 60.7669C301.81 59.9957 301.165 59.61 300.262 59.61C299.36 59.61 298.712 59.9984 298.318 60.7751C297.929 61.5519 297.735 62.6842 297.735 64.1721C297.735 65.6545 297.935 66.7786 298.334 67.5444C298.739 68.3047 299.382 68.6849 300.262 68.6849C301.165 68.6849 301.81 68.302 302.199 67.5362C302.593 66.7649 302.79 65.638 302.79 64.1557ZM313.922 58.4941V66.1167C313.922 66.8825 313.766 67.558 313.454 68.1433C313.148 68.7286 312.707 69.1854 312.133 69.5136C311.564 69.8418 310.883 70.0059 310.09 70.0059C309.291 70.0059 308.607 69.8418 308.038 69.5136C307.47 69.1854 307.035 68.7286 306.734 68.1433C306.438 67.558 306.291 66.8825 306.291 66.1167V58.4941H307.915V65.9936C307.915 67.7659 308.64 68.6521 310.09 68.6521C311.55 68.6521 312.281 67.7659 312.281 65.9936V58.4941H313.922ZM324.151 64.09C324.151 65.2661 323.998 66.2288 323.691 66.9782C323.385 67.7276 322.978 68.3074 322.469 68.7177C321.966 69.1225 321.41 69.4042 320.803 69.5628C320.196 69.7215 319.589 69.8008 318.982 69.8008H316.315V58.4941H318.801C319.474 58.4941 320.128 58.568 320.762 58.7157C321.397 58.8633 321.968 59.1369 322.477 59.5362C322.991 59.93 323.399 60.4934 323.7 61.2264C324.001 61.9594 324.151 62.9139 324.151 64.09ZM322.428 64.09C322.428 63.1437 322.329 62.3833 322.132 61.809C321.941 61.2346 321.684 60.8025 321.361 60.5126C321.038 60.2227 320.683 60.0285 320.295 59.93C319.912 59.8316 319.529 59.7823 319.146 59.7823H317.94V68.529H319.162C319.562 68.529 319.955 68.4661 320.344 68.3403C320.732 68.2145 321.082 67.9902 321.394 67.6674C321.711 67.3447 321.963 66.8934 322.149 66.3136C322.335 65.7338 322.428 64.9926 322.428 64.09Z" fill="#B03900"/>
<rect x="180.996" y="103.551" width="170.5" height="70.5" rx="35.25" fill="#FDFDFD"/>
<rect x="180.996" y="103.551" width="170.5" height="70.5" rx="35.25" stroke="#B03900" stroke-width="1.5"/>
<g clip-path="url(#clip3_451_2298)">
<path d="M200.644 139.696C203.237 140.508 204.782 142.071 204.782 145.02M204.782 145.02V145.832M204.782 145.02C204.782 142.071 206.326 140.508 208.919 139.696M204.782 145.02V135.051M203.314 135.051C203.253 135.051 203.193 135.034 203.14 135.004C203.087 134.973 203.044 134.929 203.014 134.876C202.983 134.823 202.968 134.763 202.968 134.702C202.969 134.642 202.985 134.582 203.016 134.529L204.484 131.926C204.515 131.874 204.558 131.831 204.61 131.801C204.663 131.772 204.722 131.756 204.782 131.756C204.842 131.756 204.901 131.772 204.953 131.801C205.005 131.831 205.049 131.874 205.079 131.926L206.548 134.529C206.579 134.581 206.595 134.641 206.596 134.702C206.596 134.763 206.58 134.823 206.55 134.876C206.52 134.929 206.476 134.973 206.423 135.004C206.371 135.034 206.311 135.051 206.25 135.051H203.314ZM201.289 138.138C201.312 138.082 201.32 138.02 201.312 137.96C201.304 137.899 201.28 137.842 201.243 137.794C201.205 137.746 201.156 137.708 201.1 137.685C201.043 137.662 200.981 137.654 200.921 137.662L198.046 138.067C197.986 138.075 197.93 138.099 197.882 138.136C197.834 138.173 197.797 138.221 197.774 138.277C197.751 138.333 197.743 138.394 197.751 138.453C197.758 138.513 197.781 138.57 197.818 138.618L199.563 140.935C199.6 140.984 199.649 141.022 199.705 141.045C199.761 141.069 199.823 141.077 199.883 141.07C199.944 141.062 200.001 141.038 200.05 141.001C200.098 140.964 200.136 140.915 200.16 140.859L200.722 139.499L201.289 138.138ZM208.274 138.138C208.251 138.082 208.243 138.02 208.251 137.96C208.259 137.899 208.283 137.842 208.321 137.794C208.358 137.746 208.407 137.708 208.464 137.685C208.52 137.662 208.582 137.654 208.642 137.662L211.517 138.067C211.577 138.075 211.634 138.099 211.681 138.136C211.729 138.173 211.766 138.221 211.789 138.277C211.812 138.333 211.821 138.394 211.813 138.453C211.805 138.513 211.782 138.57 211.745 138.618L210 140.935C209.964 140.984 209.915 141.022 209.858 141.045C209.802 141.069 209.74 141.077 209.68 141.07C209.619 141.062 209.562 141.038 209.513 141.001C209.465 140.964 209.427 140.915 209.404 140.859L208.841 139.499L208.274 138.138Z" stroke="#B03900" stroke-linecap="round" stroke-linejoin="round"/>
</g>
<path d="M227.93 143.467C226.805 143.467 225.917 143.07 225.263 142.274C224.61 141.479 224.283 140.287 224.283 138.701C224.283 137.91 224.39 137.219 224.603 136.627C224.817 136.032 225.105 135.536 225.47 135.141C225.839 134.741 226.257 134.443 226.723 134.247C227.194 134.047 227.685 133.947 228.197 133.947C228.805 133.947 229.312 134.036 229.717 134.214C230.125 134.392 230.51 134.647 230.87 134.981L230.097 135.781C229.55 135.274 228.923 135.021 228.217 135.021C227.781 135.021 227.37 135.136 226.983 135.367C226.597 135.599 226.283 135.983 226.043 136.521C225.803 137.059 225.683 137.785 225.683 138.701C225.683 140.012 225.881 140.956 226.277 141.534C226.672 142.107 227.254 142.394 228.023 142.394C228.61 142.394 229.159 142.254 229.67 141.974V139.287H227.97L227.817 138.234H230.97V142.647C230.548 142.883 230.097 143.079 229.617 143.234C229.141 143.39 228.579 143.467 227.93 143.467ZM238.941 136.721C238.941 137.41 238.73 137.965 238.308 138.387C237.89 138.805 237.375 139.094 236.761 139.254L239.435 143.301H237.868L235.448 139.427H234.308V143.301H232.981V134.114H235.428C236.579 134.114 237.452 134.334 238.048 134.774C238.643 135.21 238.941 135.859 238.941 136.721ZM237.535 136.721C237.535 136.156 237.37 135.75 237.041 135.501C236.717 135.252 236.217 135.127 235.541 135.127H234.308V138.421H235.555C236.186 138.421 236.672 138.292 237.015 138.034C237.361 137.772 237.535 137.334 237.535 136.721ZM245.426 141.014H241.946L241.253 143.301H239.926L242.886 134.114H244.553L247.519 143.301H246.119L245.426 141.014ZM242.253 139.954H245.119L243.693 135.181L242.253 139.954ZM255.184 136.961C255.184 137.676 255.031 138.254 254.724 138.694C254.422 139.13 254.002 139.447 253.464 139.647C252.926 139.847 252.311 139.947 251.617 139.947H250.471V143.301H249.144V134.114H251.577C252.697 134.114 253.577 134.347 254.217 134.814C254.862 135.276 255.184 135.992 255.184 136.961ZM253.784 136.974C253.784 136.299 253.588 135.823 253.197 135.547C252.811 135.272 252.313 135.134 251.704 135.134H250.471V138.907H251.684C252.093 138.907 252.455 138.85 252.771 138.734C253.086 138.619 253.333 138.421 253.511 138.141C253.693 137.861 253.784 137.472 253.784 136.974ZM261.349 143.301V139.021H258.082V143.301H256.762V134.114H258.082V137.934H261.349V134.114H262.669V143.301H261.349ZM271.147 138.714C271.147 139.647 271.018 140.472 270.76 141.187C270.502 141.903 270.118 142.463 269.607 142.867C269.1 143.267 268.469 143.467 267.713 143.467C266.958 143.467 266.325 143.272 265.813 142.881C265.307 142.485 264.925 141.932 264.667 141.221C264.409 140.51 264.28 139.679 264.28 138.727C264.28 137.79 264.409 136.963 264.667 136.247C264.925 135.527 265.307 134.965 265.813 134.561C266.325 134.152 266.958 133.947 267.713 133.947C268.469 133.947 269.1 134.145 269.607 134.541C270.118 134.936 270.502 135.492 270.76 136.207C271.018 136.923 271.147 137.759 271.147 138.714ZM269.767 138.714C269.767 137.505 269.607 136.587 269.287 135.961C268.971 135.334 268.447 135.021 267.713 135.021C266.98 135.021 266.453 135.336 266.133 135.967C265.818 136.599 265.66 137.519 265.66 138.727C265.66 139.932 265.822 140.845 266.147 141.467C266.476 142.085 266.998 142.394 267.713 142.394C268.447 142.394 268.971 142.083 269.287 141.461C269.607 140.834 269.767 139.919 269.767 138.714ZM278.931 140.734C278.931 141.267 278.796 141.741 278.525 142.154C278.258 142.563 277.869 142.885 277.358 143.121C276.851 143.352 276.236 143.467 275.511 143.467C274.809 143.467 274.183 143.361 273.631 143.147C273.08 142.934 272.611 142.641 272.225 142.267L272.978 141.421C273.298 141.719 273.665 141.954 274.078 142.127C274.491 142.301 274.974 142.387 275.525 142.387C275.885 142.387 276.218 142.33 276.525 142.214C276.836 142.094 277.085 141.916 277.271 141.681C277.463 141.441 277.558 141.141 277.558 140.781C277.558 140.496 277.5 140.254 277.385 140.054C277.274 139.85 277.076 139.67 276.791 139.514C276.507 139.359 276.109 139.205 275.598 139.054C274.976 138.872 274.443 138.665 273.998 138.434C273.558 138.199 273.22 137.916 272.985 137.587C272.754 137.254 272.638 136.845 272.638 136.361C272.638 135.885 272.769 135.467 273.031 135.107C273.294 134.743 273.654 134.459 274.111 134.254C274.569 134.05 275.096 133.947 275.691 133.947C276.336 133.947 276.898 134.041 277.378 134.227C277.863 134.414 278.298 134.679 278.685 135.021L277.951 135.847C277.623 135.559 277.269 135.35 276.891 135.221C276.518 135.087 276.138 135.021 275.751 135.021C275.263 135.021 274.847 135.127 274.505 135.341C274.163 135.55 273.991 135.87 273.991 136.301C273.991 136.559 274.06 136.779 274.198 136.961C274.336 137.139 274.567 137.303 274.891 137.454C275.22 137.605 275.669 137.765 276.238 137.934C276.731 138.081 277.18 138.261 277.585 138.474C277.994 138.683 278.32 138.967 278.565 139.327C278.809 139.683 278.931 140.152 278.931 140.734ZM294.928 136.721C294.928 137.41 294.716 137.965 294.294 138.387C293.876 138.805 293.361 139.094 292.748 139.254L295.421 143.301H293.854L291.434 139.427H290.294V143.301H288.968V134.114H291.414C292.565 134.114 293.439 134.334 294.034 134.774C294.63 135.21 294.928 135.859 294.928 136.721ZM293.521 136.721C293.521 136.156 293.356 135.75 293.028 135.501C292.703 135.252 292.203 135.127 291.528 135.127H290.294V138.421H291.541C292.172 138.421 292.659 138.292 293.001 138.034C293.348 137.772 293.521 137.334 293.521 136.721ZM303.139 138.714C303.139 139.647 303.01 140.472 302.752 141.187C302.495 141.903 302.11 142.463 301.599 142.867C301.092 143.267 300.461 143.467 299.706 143.467C298.95 143.467 298.317 143.272 297.806 142.881C297.299 142.485 296.917 141.932 296.659 141.221C296.401 140.51 296.272 139.679 296.272 138.727C296.272 137.79 296.401 136.963 296.659 136.247C296.917 135.527 297.299 134.965 297.806 134.561C298.317 134.152 298.95 133.947 299.706 133.947C300.461 133.947 301.092 134.145 301.599 134.541C302.11 134.936 302.495 135.492 302.752 136.207C303.01 136.923 303.139 137.759 303.139 138.714ZM301.759 138.714C301.759 137.505 301.599 136.587 301.279 135.961C300.963 135.334 300.439 135.021 299.706 135.021C298.972 135.021 298.446 135.336 298.126 135.967C297.81 136.599 297.652 137.519 297.652 138.727C297.652 139.932 297.815 140.845 298.139 141.467C298.468 142.085 298.99 142.394 299.706 142.394C300.439 142.394 300.963 142.083 301.279 141.461C301.599 140.834 301.759 139.919 301.759 138.714ZM310.804 134.114V140.307C310.804 140.93 310.677 141.479 310.424 141.954C310.175 142.43 309.817 142.801 309.35 143.067C308.888 143.334 308.335 143.467 307.69 143.467C307.041 143.467 306.486 143.334 306.024 143.067C305.561 142.801 305.208 142.43 304.964 141.954C304.724 141.479 304.604 140.93 304.604 140.307V134.114H305.924V140.207C305.924 141.647 306.513 142.367 307.69 142.367C308.877 142.367 309.47 141.647 309.47 140.207V134.114H310.804ZM316.342 135.214V143.301H315.022V135.214H312.195V134.114H319.215L319.075 135.214H316.342ZM322.626 135.154V138.107H326V139.154H322.626V142.267H326.753V143.301H321.3V134.114H326.653L326.5 135.154H322.626ZM334.918 136.721C334.918 137.41 334.707 137.965 334.284 138.387C333.867 138.805 333.351 139.094 332.738 139.254L335.411 143.301H333.844L331.424 139.427H330.284V143.301H328.958V134.114H331.404C332.556 134.114 333.429 134.334 334.024 134.774C334.62 135.21 334.918 135.859 334.918 136.721ZM333.511 136.721C333.511 136.156 333.347 135.75 333.018 135.501C332.693 135.252 332.193 135.127 331.518 135.127H330.284V138.421H331.531C332.162 138.421 332.649 138.292 332.991 138.034C333.338 137.772 333.511 137.334 333.511 136.721Z" fill="#B03900"/>
<rect x="444.72" y="1.80078" width="266" height="250.94" rx="7" stroke="#254250" stroke-width="2"/>
<path d="M489.464 19.4603V23.8008H487.823V19.4767L484.024 12.4941H485.821L488.676 18.0244L491.564 12.4941H493.263L489.464 19.4603ZM502.713 18.1557C502.713 19.3044 502.554 20.3191 502.237 21.1998C501.92 22.0804 501.446 22.7697 500.817 23.2674C500.194 23.7598 499.417 24.0059 498.487 24.0059C497.557 24.0059 496.778 23.7652 496.149 23.2839C495.525 22.797 495.055 22.116 494.737 21.2408C494.42 20.3656 494.261 19.3427 494.261 18.1721C494.261 17.0179 494.42 16.0004 494.737 15.1198C495.055 14.2336 495.525 13.5416 496.149 13.0439C496.778 12.5406 497.557 12.289 498.487 12.289C499.417 12.289 500.194 12.5324 500.817 13.0192C501.446 13.5061 501.92 14.1898 502.237 15.0705C502.554 15.9512 502.713 16.9796 502.713 18.1557ZM501.014 18.1557C501.014 16.6678 500.817 15.5382 500.423 14.7669C500.035 13.9957 499.39 13.61 498.487 13.61C497.584 13.61 496.936 13.9984 496.542 14.7751C496.154 15.5519 495.96 16.6842 495.96 18.1721C495.96 19.6545 496.16 20.7786 496.559 21.5444C496.964 22.3047 497.606 22.6849 498.487 22.6849C499.39 22.6849 500.035 22.302 500.423 21.5362C500.817 20.7649 501.014 19.638 501.014 18.1557ZM512.146 12.4941V20.1167C512.146 20.8825 511.99 21.558 511.678 22.1433C511.372 22.7286 510.932 23.1854 510.357 23.5136C509.789 23.8418 509.108 24.0059 508.314 24.0059C507.516 24.0059 506.832 23.8418 506.263 23.5136C505.694 23.1854 505.259 22.7286 504.958 22.1433C504.663 21.558 504.515 20.8825 504.515 20.1167V12.4941H506.14V19.9936C506.14 21.7659 506.865 22.6521 508.314 22.6521C509.775 22.6521 510.505 21.7659 510.505 19.9936V12.4941H512.146ZM522.138 15.7023C522.138 16.5502 521.878 17.2339 521.358 17.7536C520.844 18.2678 520.209 18.6233 519.455 18.8203L522.745 23.8008H520.817L517.838 19.0336H516.435V23.8008H514.802V12.4941H517.814C519.23 12.4941 520.305 12.7649 521.038 13.3064C521.771 13.8425 522.138 14.6411 522.138 15.7023ZM520.406 15.7023C520.406 15.0076 520.204 14.5071 519.799 14.2008C519.4 13.8945 518.784 13.7413 517.953 13.7413H516.435V17.7946H517.969C518.746 17.7946 519.345 17.636 519.766 17.3187C520.193 16.996 520.406 16.4572 520.406 15.7023ZM541.169 12.4941V13.7659H538.683V22.5208H541.169V23.8008H534.555V22.5208H537.042V13.7659H534.555V12.4941H541.169ZM549.142 23.8008L545.326 13.9957C545.337 14.1871 545.359 14.5153 545.392 14.9803C545.43 15.4398 545.466 15.9704 545.499 16.5721C545.531 17.1683 545.548 17.7645 545.548 18.3608V23.8008H544.071V12.4941H546.229L550.085 22.3239C550.074 22.1379 550.05 21.8288 550.011 21.3967C549.973 20.9591 549.938 20.4421 549.905 19.8459C549.877 19.2497 549.864 18.6124 549.864 17.9341V12.4941H551.341V23.8008H549.142ZM556.442 13.7741V17.5813H560.799V18.8531H556.442V23.8008H554.817V12.4941H561.603L561.414 13.7741H556.442ZM571.356 15.7023C571.356 16.5502 571.097 17.2339 570.577 17.7536C570.063 18.2678 569.428 18.6233 568.673 18.8203L571.964 23.8008H570.035L567.057 19.0336H565.654V23.8008H564.021V12.4941H567.032C568.449 12.4941 569.524 12.7649 570.257 13.3064C570.99 13.8425 571.356 14.6411 571.356 15.7023ZM569.625 15.7023C569.625 15.0076 569.423 14.5071 569.018 14.2008C568.619 13.8945 568.003 13.7413 567.172 13.7413H565.654V17.7946H567.188C567.965 17.7946 568.564 17.636 568.985 17.3187C569.412 16.996 569.625 16.4572 569.625 15.7023ZM579.338 20.9864H575.054L574.201 23.8008H572.568L576.211 12.4941H578.263L581.914 23.8008H580.191L579.338 20.9864ZM575.432 19.6818H578.96L577.204 13.8069L575.432 19.6818ZM591.044 20.6418C591.044 21.2982 590.877 21.8808 590.543 22.3895C590.215 22.8927 589.737 23.2893 589.107 23.5792C588.484 23.8637 587.726 24.0059 586.835 24.0059C585.97 24.0059 585.199 23.8746 584.521 23.6121C583.843 23.3495 583.265 22.9885 582.79 22.529L583.717 21.4869C584.111 21.8534 584.562 22.1433 585.071 22.3567C585.579 22.57 586.173 22.6767 586.851 22.6767C587.294 22.6767 587.704 22.6056 588.082 22.4633C588.465 22.3157 588.771 22.0968 589.001 21.8069C589.236 21.5116 589.354 21.1423 589.354 20.6992C589.354 20.3492 589.283 20.051 589.14 19.8049C589.004 19.5533 588.76 19.3317 588.41 19.1403C588.06 18.9488 587.57 18.7601 586.941 18.5741C586.175 18.3498 585.519 18.0955 584.972 17.811C584.431 17.5211 584.015 17.1738 583.725 16.769C583.44 16.3587 583.298 15.8555 583.298 15.2592C583.298 14.6739 583.46 14.1598 583.782 13.7167C584.105 13.2681 584.548 12.918 585.112 12.6664C585.675 12.4148 586.323 12.289 587.056 12.289C587.849 12.289 588.541 12.4039 589.132 12.6336C589.728 12.8633 590.264 13.1888 590.74 13.61L589.838 14.6274C589.433 14.2719 588.998 14.0148 588.533 13.8562C588.074 13.6921 587.606 13.61 587.13 13.61C586.528 13.61 586.017 13.7413 585.596 14.0039C585.174 14.261 584.964 14.6548 584.964 15.1854C584.964 15.5027 585.049 15.7734 585.218 15.9977C585.388 16.2165 585.672 16.4189 586.072 16.6049C586.476 16.7909 587.029 16.9878 587.729 17.1957C588.336 17.3762 588.889 17.5977 589.386 17.8603C589.89 18.1174 590.292 18.4674 590.593 18.9105C590.893 19.3481 591.044 19.9252 591.044 20.6418ZM597.712 13.848V23.8008H596.088V13.848H592.609V12.4941H601.249L601.076 13.848H597.712ZM610.731 15.7023C610.731 16.5502 610.472 17.2339 609.952 17.7536C609.438 18.2678 608.803 18.6233 608.048 18.8203L611.339 23.8008H609.41L606.432 19.0336H605.029V23.8008H603.396V12.4941H606.407C607.824 12.4941 608.899 12.7649 609.632 13.3064C610.365 13.8425 610.731 14.6411 610.731 15.7023ZM609 15.7023C609 15.0076 608.798 14.5071 608.393 14.2008C607.994 13.8945 607.378 13.7413 606.547 13.7413H605.029V17.7946H606.563C607.34 17.7946 607.939 17.636 608.36 17.3187C608.787 16.996 609 16.4572 609 15.7023ZM620.427 12.4941V20.1167C620.427 20.8825 620.272 21.558 619.96 22.1433C619.653 22.7286 619.213 23.1854 618.639 23.5136C618.07 23.8418 617.389 24.0059 616.596 24.0059C615.797 24.0059 615.113 23.8418 614.544 23.5136C613.975 23.1854 613.541 22.7286 613.24 22.1433C612.944 21.558 612.797 20.8825 612.797 20.1167V12.4941H614.421V19.9936C614.421 21.7659 615.146 22.6521 616.596 22.6521C618.056 22.6521 618.786 21.7659 618.786 19.9936V12.4941H620.427ZM627.408 12.289C628.157 12.289 628.786 12.3847 629.295 12.5762C629.809 12.7676 630.29 13.0466 630.739 13.4131L629.861 14.4469C629.511 14.157 629.139 13.9464 628.745 13.8151C628.351 13.6784 627.938 13.61 627.506 13.61C626.91 13.61 626.36 13.755 625.857 14.0449C625.354 14.3348 624.949 14.8107 624.642 15.4726C624.336 16.1345 624.183 17.0233 624.183 18.1392C624.183 19.2278 624.328 20.103 624.618 20.7649C624.913 21.4213 625.31 21.8999 625.808 22.2008C626.311 22.4962 626.872 22.6439 627.49 22.6439C628.108 22.6439 628.619 22.5481 629.024 22.3567C629.434 22.1598 629.79 21.9355 630.091 21.6839L630.903 22.7259C630.547 23.076 630.085 23.3768 629.516 23.6285C628.953 23.8801 628.264 24.0059 627.449 24.0059C626.513 24.0059 625.671 23.7816 624.921 23.3331C624.178 22.8845 623.587 22.2254 623.149 21.3557C622.712 20.4804 622.493 19.4083 622.493 18.1392C622.493 16.8702 622.714 15.8008 623.157 14.931C623.606 14.0613 624.202 13.4049 624.946 12.9618C625.695 12.5133 626.516 12.289 627.408 12.289ZM637.087 13.848V23.8008H635.463V13.848H631.984V12.4941H640.624L640.451 13.848H637.087ZM649.959 12.4941V20.1167C649.959 20.8825 649.803 21.558 649.491 22.1433C649.185 22.7286 648.744 23.1854 648.17 23.5136C647.601 23.8418 646.92 24.0059 646.127 24.0059C645.328 24.0059 644.644 23.8418 644.076 23.5136C643.507 23.1854 643.072 22.7286 642.771 22.1433C642.476 21.558 642.328 20.8825 642.328 20.1167V12.4941H643.953V19.9936C643.953 21.7659 644.677 22.6521 646.127 22.6521C647.587 22.6521 648.318 21.7659 648.318 19.9936V12.4941H649.959ZM659.95 15.7023C659.95 16.5502 659.69 17.2339 659.171 17.7536C658.656 18.2678 658.022 18.6233 657.267 18.8203L660.557 23.8008H658.629L655.651 19.0336H654.248V23.8008H652.615V12.4941H655.626C657.043 12.4941 658.118 12.7649 658.851 13.3064C659.584 13.8425 659.95 14.6411 659.95 15.7023ZM658.219 15.7023C658.219 15.0076 658.016 14.5071 657.612 14.2008C657.212 13.8945 656.597 13.7413 655.766 13.7413H654.248V17.7946H655.782C656.559 17.7946 657.158 17.636 657.579 17.3187C658.006 16.996 658.219 16.4572 658.219 15.7023ZM664.51 13.7741V17.409H668.662V18.6972H664.51V22.529H669.589V23.8008H662.877V12.4941H669.466L669.277 13.7741H664.51Z" fill="#254250"/>
<rect x="474.47" y="57.5508" width="206.5" height="71.2449" rx="5.25" fill="#FDFDFD"/>
<rect x="474.47" y="57.5508" width="206.5" height="71.2449" rx="5.25" stroke="#AF9200" stroke-width="1.5"/>
<g clip-path="url(#clip4_451_2298)">
<path d="M536.328 95.8291H528.177M536.478 96.5516L533.186 98.5466M527.1 94.8916C527.39 94.8916 527.668 95.0068 527.873 95.212C528.079 95.4171 528.194 95.6953 528.194 95.9854C528.194 96.2754 528.079 96.5536 527.873 96.7587C527.668 96.9639 527.39 97.0791 527.1 97.0791C526.81 97.0791 526.532 96.9639 526.327 96.7587C526.122 96.5536 526.006 96.2754 526.006 95.9854C526.006 95.6953 526.122 95.4171 526.327 95.212C526.532 95.0068 526.81 94.8916 527.1 94.8916ZM527.1 94.8916V91.4522M537.413 94.8916C537.703 94.8916 537.981 95.0068 538.186 95.212C538.391 95.4171 538.506 95.6953 538.506 95.9854C538.506 96.2754 538.391 96.5536 538.186 96.7587C537.981 96.9639 537.703 97.0791 537.413 97.0791C537.122 97.0791 536.844 96.9639 536.639 96.7587C536.434 96.5536 536.319 96.2754 536.319 95.9854C536.319 95.6953 536.434 95.4171 536.639 95.212C536.844 95.0068 537.122 94.8916 537.413 94.8916ZM537.413 94.8916V91.4522M531.849 88.2447L527.803 95.1604M532.664 88.2447L536.709 95.161M531.321 87.8022L528.034 89.7941M528.034 96.5516L531.326 98.5466M533.192 87.8022L536.478 89.7941M532.256 88.3291C532.546 88.3291 532.825 88.2139 533.03 88.0087C533.235 87.8036 533.35 87.5254 533.35 87.2354C533.35 86.9453 533.235 86.6671 533.03 86.462C532.825 86.2568 532.546 86.1416 532.256 86.1416C531.966 86.1416 531.688 86.2568 531.483 86.462C531.278 86.6671 531.163 86.9453 531.163 87.2354C531.163 87.5254 531.278 87.8036 531.483 88.0087C531.688 88.2139 531.966 88.3291 532.256 88.3291ZM527.1 91.4541C527.39 91.4541 527.668 91.3389 527.873 91.1337C528.079 90.9286 528.194 90.6504 528.194 90.3604C528.194 90.0703 528.079 89.7921 527.873 89.587C527.668 89.3818 527.39 89.2666 527.1 89.2666C526.81 89.2666 526.532 89.3818 526.327 89.587C526.122 89.7921 526.006 90.0703 526.006 90.3604C526.006 90.6504 526.122 90.9286 526.327 91.1337C526.532 91.3389 526.81 91.4541 527.1 91.4541ZM537.413 91.4541C537.703 91.4541 537.981 91.3389 538.186 91.1337C538.391 90.9286 538.506 90.6504 538.506 90.3604C538.506 90.0703 538.391 89.7921 538.186 89.587C537.981 89.3818 537.703 89.2666 537.413 89.2666C537.122 89.2666 536.844 89.3818 536.639 89.587C536.434 89.7921 536.319 90.0703 536.319 90.3604C536.319 90.6504 536.434 90.9286 536.639 91.1337C536.844 91.3389 537.122 91.4541 537.413 91.4541ZM532.256 100.204C532.546 100.204 532.825 100.089 533.03 99.8837C533.235 99.6786 533.35 99.4004 533.35 99.1104C533.35 98.8203 533.235 98.5421 533.03 98.337C532.825 98.1318 532.546 98.0166 532.256 98.0166C531.966 98.0166 531.688 98.1318 531.483 98.337C531.278 98.5421 531.163 98.8203 531.163 99.1104C531.163 99.4004 531.278 99.6786 531.483 99.8837C531.688 100.089 531.966 100.204 532.256 100.204Z" stroke="#AF9200" stroke-linecap="round" stroke-linejoin="round"/>
</g>
<path d="M558.404 94.6062C558.404 95.1395 558.269 95.6129 557.997 96.0262C557.731 96.4351 557.342 96.7573 556.831 96.9929C556.324 97.224 555.709 97.3395 554.984 97.3395C554.282 97.3395 553.655 97.2329 553.104 97.0195C552.553 96.8062 552.084 96.5129 551.697 96.1395L552.451 95.2929C552.771 95.5906 553.137 95.8262 553.551 95.9995C553.964 96.1729 554.446 96.2595 554.997 96.2595C555.357 96.2595 555.691 96.2017 555.997 96.0862C556.309 95.9662 556.557 95.7884 556.744 95.5529C556.935 95.3129 557.031 95.0129 557.031 94.6529C557.031 94.3684 556.973 94.1262 556.857 93.9262C556.746 93.7217 556.549 93.5417 556.264 93.3862C555.98 93.2306 555.582 93.0773 555.071 92.9262C554.449 92.744 553.915 92.5373 553.471 92.3062C553.031 92.0706 552.693 91.7884 552.457 91.4595C552.226 91.1262 552.111 90.7173 552.111 90.2329C552.111 89.7573 552.242 89.3395 552.504 88.9795C552.766 88.6151 553.126 88.3306 553.584 88.1262C554.042 87.9217 554.569 87.8195 555.164 87.8195C555.809 87.8195 556.371 87.9129 556.851 88.0995C557.335 88.2862 557.771 88.5506 558.157 88.8929L557.424 89.7195C557.095 89.4306 556.742 89.2217 556.364 89.0929C555.991 88.9595 555.611 88.8929 555.224 88.8929C554.735 88.8929 554.32 88.9995 553.977 89.2129C553.635 89.4217 553.464 89.7417 553.464 90.1729C553.464 90.4306 553.533 90.6506 553.671 90.8329C553.809 91.0106 554.04 91.1751 554.364 91.3262C554.693 91.4773 555.142 91.6373 555.711 91.8062C556.204 91.9529 556.653 92.1329 557.057 92.3462C557.466 92.5551 557.793 92.8395 558.037 93.1995C558.282 93.5551 558.404 94.024 558.404 94.6062ZM566.282 87.9862V94.1795C566.282 94.8017 566.156 95.3506 565.902 95.8262C565.653 96.3017 565.296 96.6729 564.829 96.9395C564.367 97.2062 563.813 97.3395 563.169 97.3395C562.52 97.3395 561.964 97.2062 561.502 96.9395C561.04 96.6729 560.687 96.3017 560.442 95.8262C560.202 95.3506 560.082 94.8017 560.082 94.1795V87.9862H561.402V94.0795C561.402 95.5195 561.991 96.2395 563.169 96.2395C564.356 96.2395 564.949 95.5195 564.949 94.0795V87.9862H566.282ZM574.44 94.5395C574.44 95.0462 574.34 95.4684 574.14 95.8062C573.945 96.144 573.678 96.4129 573.34 96.6129C573.007 96.8129 572.631 96.9573 572.214 97.0462C571.8 97.1306 571.376 97.1729 570.94 97.1729H568.38V87.9862H570.747C571.16 87.9862 571.562 88.024 571.954 88.0995C572.345 88.1706 572.698 88.2951 573.014 88.4729C573.329 88.6462 573.578 88.884 573.76 89.1862C573.947 89.484 574.04 89.8573 574.04 90.3062C574.04 90.6929 573.958 91.024 573.794 91.2995C573.634 91.5706 573.425 91.7906 573.167 91.9595C572.909 92.124 572.634 92.2395 572.34 92.3062C572.674 92.364 573 92.4706 573.32 92.6262C573.645 92.7773 573.911 93.0062 574.12 93.3129C574.334 93.6151 574.44 94.024 574.44 94.5395ZM572.694 90.3929C572.694 89.8951 572.538 89.5417 572.227 89.3329C571.92 89.1195 571.496 89.0129 570.954 89.0129H569.7V91.8529H571.06C571.589 91.8529 571.994 91.7395 572.274 91.5129C572.554 91.2817 572.694 90.9084 572.694 90.3929ZM573.054 94.5595C573.054 94.1195 572.967 93.7795 572.794 93.5395C572.625 93.2951 572.396 93.1262 572.107 93.0329C571.822 92.9395 571.507 92.8929 571.16 92.8929H569.7V96.1129H571.1C571.398 96.1129 571.696 96.0751 571.994 95.9995C572.296 95.9195 572.547 95.7684 572.747 95.5462C572.951 95.324 573.054 94.9951 573.054 94.5595ZM579.385 97.3395C578.261 97.3395 577.372 96.9417 576.718 96.1462C576.065 95.3506 575.738 94.1595 575.738 92.5729C575.738 91.7817 575.845 91.0906 576.058 90.4995C576.272 89.904 576.561 89.4084 576.925 89.0129C577.294 88.6129 577.712 88.3151 578.178 88.1195C578.649 87.9195 579.141 87.8195 579.652 87.8195C580.261 87.8195 580.767 87.9084 581.172 88.0862C581.581 88.264 581.965 88.5195 582.325 88.8529L581.552 89.6529C581.005 89.1462 580.378 88.8929 579.672 88.8929C579.236 88.8929 578.825 89.0084 578.438 89.2395C578.052 89.4706 577.738 89.8551 577.498 90.3929C577.258 90.9306 577.138 91.6573 577.138 92.5729C577.138 93.884 577.336 94.8284 577.732 95.4062C578.127 95.9795 578.709 96.2662 579.478 96.2662C580.065 96.2662 580.614 96.1262 581.125 95.8462V93.1595H579.425L579.272 92.1062H582.425V96.5195C582.003 96.7551 581.552 96.9506 581.072 97.1062C580.596 97.2617 580.034 97.3395 579.385 97.3395ZM590.396 90.5929C590.396 91.2817 590.185 91.8373 589.763 92.2595C589.345 92.6773 588.83 92.9662 588.216 93.1262L590.89 97.1729H589.323L586.903 93.2995H585.763V97.1729H584.436V87.9862H586.883C588.034 87.9862 588.907 88.2062 589.503 88.6462C590.099 89.0817 590.396 89.7306 590.396 90.5929ZM588.99 90.5929C588.99 90.0284 588.825 89.6217 588.496 89.3729C588.172 89.124 587.672 88.9995 586.996 88.9995H585.763V92.2929H587.01C587.641 92.2929 588.127 92.164 588.47 91.9062C588.816 91.644 588.99 91.2062 588.99 90.5929ZM596.881 94.8862H593.401L592.708 97.1729H591.381L594.341 87.9862H596.008L598.974 97.1729H597.574L596.881 94.8862ZM593.708 93.8262H596.574L595.148 89.0529L593.708 93.8262ZM606.639 90.8329C606.639 91.5484 606.486 92.1262 606.179 92.5662C605.877 93.0017 605.457 93.3195 604.919 93.5195C604.381 93.7195 603.766 93.8195 603.072 93.8195H601.926V97.1729H600.599V87.9862H603.032C604.152 87.9862 605.032 88.2195 605.672 88.6862C606.317 89.1484 606.639 89.864 606.639 90.8329ZM605.239 90.8462C605.239 90.1706 605.044 89.6951 604.652 89.4195C604.266 89.144 603.768 89.0062 603.159 89.0062H601.926V92.7795H603.139C603.548 92.7795 603.91 92.7217 604.226 92.6062C604.541 92.4906 604.788 92.2929 604.966 92.0129C605.148 91.7329 605.239 91.344 605.239 90.8462ZM612.804 97.1729V92.8929H609.537V97.1729H608.217V87.9862H609.537V91.8062H612.804V87.9862H614.124V97.1729H612.804ZM628.873 94.8862H625.393L624.7 97.1729H623.373L626.333 87.9862H628L630.967 97.1729H629.567L628.873 94.8862ZM625.7 93.8262H628.567L627.14 89.0529L625.7 93.8262Z" fill="#AF9200"/>
<rect x="474.47" y="151.746" width="206.5" height="71.2449" rx="5.25" fill="#FDFDFD"/>
<rect x="474.47" y="151.746" width="206.5" height="71.2449" rx="5.25" stroke="#25855A" stroke-width="1.5"/>
<g clip-path="url(#clip5_451_2298)">
<path d="M536.328 190.024H528.177M536.478 190.747L533.186 192.742M527.1 189.087C527.39 189.087 527.668 189.202 527.873 189.407C528.079 189.612 528.194 189.891 528.194 190.181C528.194 190.471 528.079 190.749 527.873 190.954C527.668 191.159 527.39 191.274 527.1 191.274C526.81 191.274 526.532 191.159 526.327 190.954C526.122 190.749 526.006 190.471 526.006 190.181C526.006 189.891 526.122 189.612 526.327 189.407C526.532 189.202 526.81 189.087 527.1 189.087ZM527.1 189.087V185.648M537.413 189.087C537.703 189.087 537.981 189.202 538.186 189.407C538.391 189.612 538.506 189.891 538.506 190.181C538.506 190.471 538.391 190.749 538.186 190.954C537.981 191.159 537.703 191.274 537.413 191.274C537.122 191.274 536.844 191.159 536.639 190.954C536.434 190.749 536.319 190.471 536.319 190.181C536.319 189.891 536.434 189.612 536.639 189.407C536.844 189.202 537.122 189.087 537.413 189.087ZM537.413 189.087V185.648M531.849 182.44L527.803 189.356M532.664 182.44L536.709 189.356M531.321 181.998L528.034 183.989M528.034 190.747L531.326 192.742M533.192 181.998L536.478 183.989M532.256 182.524C532.546 182.524 532.825 182.409 533.03 182.204C533.235 181.999 533.35 181.721 533.35 181.431C533.35 181.141 533.235 180.862 533.03 180.657C532.825 180.452 532.546 180.337 532.256 180.337C531.966 180.337 531.688 180.452 531.483 180.657C531.278 180.862 531.163 181.141 531.163 181.431C531.163 181.721 531.278 181.999 531.483 182.204C531.688 182.409 531.966 182.524 532.256 182.524ZM527.1 185.649C527.39 185.649 527.668 185.534 527.873 185.329C528.079 185.124 528.194 184.846 528.194 184.556C528.194 184.266 528.079 183.987 527.873 183.782C527.668 183.577 527.39 183.462 527.1 183.462C526.81 183.462 526.532 183.577 526.327 183.782C526.122 183.987 526.006 184.266 526.006 184.556C526.006 184.846 526.122 185.124 526.327 185.329C526.532 185.534 526.81 185.649 527.1 185.649ZM537.413 185.649C537.703 185.649 537.981 185.534 538.186 185.329C538.391 185.124 538.506 184.846 538.506 184.556C538.506 184.266 538.391 183.987 538.186 183.782C537.981 183.577 537.703 183.462 537.413 183.462C537.122 183.462 536.844 183.577 536.639 183.782C536.434 183.987 536.319 184.266 536.319 184.556C536.319 184.846 536.434 185.124 536.639 185.329C536.844 185.534 537.122 185.649 537.413 185.649ZM532.256 194.399C532.546 194.399 532.825 194.284 533.03 194.079C533.235 193.874 533.35 193.596 533.35 193.306C533.35 193.016 533.235 192.737 533.03 192.532C532.825 192.327 532.546 192.212 532.256 192.212C531.966 192.212 531.688 192.327 531.483 192.532C531.278 192.737 531.163 193.016 531.163 193.306C531.163 193.596 531.278 193.874 531.483 194.079C531.688 194.284 531.966 194.399 532.256 194.399Z" stroke="#25855A" stroke-linecap="round" stroke-linejoin="round"/>
</g>
<path d="M558.404 188.801C558.404 189.335 558.269 189.808 557.997 190.221C557.731 190.63 557.342 190.953 556.831 191.188C556.324 191.419 555.709 191.535 554.984 191.535C554.282 191.535 553.655 191.428 553.104 191.215C552.553 191.001 552.084 190.708 551.697 190.335L552.451 189.488C552.771 189.786 553.137 190.021 553.551 190.195C553.964 190.368 554.446 190.455 554.997 190.455C555.357 190.455 555.691 190.397 555.997 190.281C556.309 190.161 556.557 189.984 556.744 189.748C556.935 189.508 557.031 189.208 557.031 188.848C557.031 188.564 556.973 188.321 556.857 188.121C556.746 187.917 556.549 187.737 556.264 187.581C555.98 187.426 555.582 187.273 555.071 187.121C554.449 186.939 553.915 186.733 553.471 186.501C553.031 186.266 552.693 185.984 552.457 185.655C552.226 185.321 552.111 184.913 552.111 184.428C552.111 183.953 552.242 183.535 552.504 183.175C552.766 182.81 553.126 182.526 553.584 182.321C554.042 182.117 554.569 182.015 555.164 182.015C555.809 182.015 556.371 182.108 556.851 182.295C557.335 182.481 557.771 182.746 558.157 183.088L557.424 183.915C557.095 183.626 556.742 183.417 556.364 183.288C555.991 183.155 555.611 183.088 555.224 183.088C554.735 183.088 554.32 183.195 553.977 183.408C553.635 183.617 553.464 183.937 553.464 184.368C553.464 184.626 553.533 184.846 553.671 185.028C553.809 185.206 554.04 185.37 554.364 185.521C554.693 185.673 555.142 185.833 555.711 186.001C556.204 186.148 556.653 186.328 557.057 186.541C557.466 186.75 557.793 187.035 558.037 187.395C558.282 187.75 558.404 188.219 558.404 188.801ZM566.282 182.181V188.375C566.282 188.997 566.156 189.546 565.902 190.021C565.653 190.497 565.296 190.868 564.829 191.135C564.367 191.401 563.813 191.535 563.169 191.535C562.52 191.535 561.964 191.401 561.502 191.135C561.04 190.868 560.687 190.497 560.442 190.021C560.202 189.546 560.082 188.997 560.082 188.375V182.181H561.402V188.275C561.402 189.715 561.991 190.435 563.169 190.435C564.356 190.435 564.949 189.715 564.949 188.275V182.181H566.282ZM574.44 188.735C574.44 189.241 574.34 189.664 574.14 190.001C573.945 190.339 573.678 190.608 573.34 190.808C573.007 191.008 572.631 191.153 572.214 191.241C571.8 191.326 571.376 191.368 570.94 191.368H568.38V182.181H570.747C571.16 182.181 571.562 182.219 571.954 182.295C572.345 182.366 572.698 182.49 573.014 182.668C573.329 182.841 573.578 183.079 573.76 183.381C573.947 183.679 574.04 184.053 574.04 184.501C574.04 184.888 573.958 185.219 573.794 185.495C573.634 185.766 573.425 185.986 573.167 186.155C572.909 186.319 572.634 186.435 572.34 186.501C572.674 186.559 573 186.666 573.32 186.821C573.645 186.973 573.911 187.201 574.12 187.508C574.334 187.81 574.44 188.219 574.44 188.735ZM572.694 184.588C572.694 184.09 572.538 183.737 572.227 183.528C571.92 183.315 571.496 183.208 570.954 183.208H569.7V186.048H571.06C571.589 186.048 571.994 185.935 572.274 185.708C572.554 185.477 572.694 185.104 572.694 184.588ZM573.054 188.755C573.054 188.315 572.967 187.975 572.794 187.735C572.625 187.49 572.396 187.321 572.107 187.228C571.822 187.135 571.507 187.088 571.16 187.088H569.7V190.308H571.1C571.398 190.308 571.696 190.27 571.994 190.195C572.296 190.115 572.547 189.964 572.747 189.741C572.951 189.519 573.054 189.19 573.054 188.755ZM579.385 191.535C578.261 191.535 577.372 191.137 576.718 190.341C576.065 189.546 575.738 188.355 575.738 186.768C575.738 185.977 575.845 185.286 576.058 184.695C576.272 184.099 576.561 183.604 576.925 183.208C577.294 182.808 577.712 182.51 578.178 182.315C578.649 182.115 579.141 182.015 579.652 182.015C580.261 182.015 580.767 182.104 581.172 182.281C581.581 182.459 581.965 182.715 582.325 183.048L581.552 183.848C581.005 183.341 580.378 183.088 579.672 183.088C579.236 183.088 578.825 183.204 578.438 183.435C578.052 183.666 577.738 184.05 577.498 184.588C577.258 185.126 577.138 185.853 577.138 186.768C577.138 188.079 577.336 189.024 577.732 189.601C578.127 190.175 578.709 190.461 579.478 190.461C580.065 190.461 580.614 190.321 581.125 190.041V187.355H579.425L579.272 186.301H582.425V190.715C582.003 190.95 581.552 191.146 581.072 191.301C580.596 191.457 580.034 191.535 579.385 191.535ZM590.396 184.788C590.396 185.477 590.185 186.033 589.763 186.455C589.345 186.873 588.83 187.161 588.216 187.321L590.89 191.368H589.323L586.903 187.495H585.763V191.368H584.436V182.181H586.883C588.034 182.181 588.907 182.401 589.503 182.841C590.099 183.277 590.396 183.926 590.396 184.788ZM588.99 184.788C588.99 184.224 588.825 183.817 588.496 183.568C588.172 183.319 587.672 183.195 586.996 183.195H585.763V186.488H587.01C587.641 186.488 588.127 186.359 588.47 186.101C588.816 185.839 588.99 185.401 588.99 184.788ZM596.881 189.081H593.401L592.708 191.368H591.381L594.341 182.181H596.008L598.974 191.368H597.574L596.881 189.081ZM593.708 188.021H596.574L595.148 183.248L593.708 188.021ZM606.639 185.028C606.639 185.744 606.486 186.321 606.179 186.761C605.877 187.197 605.457 187.515 604.919 187.715C604.381 187.915 603.766 188.015 603.072 188.015H601.926V191.368H600.599V182.181H603.032C604.152 182.181 605.032 182.415 605.672 182.881C606.317 183.344 606.639 184.059 606.639 185.028ZM605.239 185.041C605.239 184.366 605.044 183.89 604.652 183.615C604.266 183.339 603.768 183.201 603.159 183.201H601.926V186.975H603.139C603.548 186.975 603.91 186.917 604.226 186.801C604.541 186.686 604.788 186.488 604.966 186.208C605.148 185.928 605.239 185.539 605.239 185.041ZM612.804 191.368V187.088H609.537V191.368H608.217V182.181H609.537V186.001H612.804V182.181H614.124V191.368H612.804ZM630.427 188.735C630.427 189.241 630.327 189.664 630.127 190.001C629.931 190.339 629.664 190.608 629.327 190.808C628.993 191.008 628.618 191.153 628.2 191.241C627.787 191.326 627.362 191.368 626.927 191.368H624.367V182.181H626.733C627.147 182.181 627.549 182.219 627.94 182.295C628.331 182.366 628.684 182.49 629 182.668C629.315 182.841 629.564 183.079 629.747 183.381C629.933 183.679 630.027 184.053 630.027 184.501C630.027 184.888 629.944 185.219 629.78 185.495C629.62 185.766 629.411 185.986 629.153 186.155C628.895 186.319 628.62 186.435 628.327 186.501C628.66 186.559 628.987 186.666 629.307 186.821C629.631 186.973 629.898 187.201 630.107 187.508C630.32 187.81 630.427 188.219 630.427 188.735ZM628.68 184.588C628.68 184.09 628.524 183.737 628.213 183.528C627.907 183.315 627.482 183.208 626.94 183.208H625.687V186.048H627.047C627.575 186.048 627.98 185.935 628.26 185.708C628.54 185.477 628.68 185.104 628.68 184.588ZM629.04 188.755C629.04 188.315 628.953 187.975 628.78 187.735C628.611 187.49 628.382 187.321 628.093 187.228C627.809 187.135 627.493 187.088 627.147 187.088H625.687V190.308H627.087C627.384 190.308 627.682 190.27 627.98 190.195C628.282 190.115 628.533 189.964 628.733 189.741C628.938 189.519 629.04 189.19 629.04 188.755Z" fill="#25855A"/>
<path d="M88.4546 138.368L179.098 138.368" stroke="#467B95" stroke-width="2" stroke-dasharray="4 4"/>
<path d="M350.063 126.486H397.726C404.353 126.486 409.726 121.113 409.726 114.486V102.477C409.726 95.8491 415.098 90.4766 421.726 90.4766H474.361" stroke="#AF9200" stroke-width="2"/>
<path d="M350.063 126.486H397.726C404.353 126.486 409.726 121.113 409.726 114.486V102.477C409.726 95.8491 415.098 90.4766 421.726 90.4766H474.361" stroke="#AF9200" stroke-width="2"/>
<path d="M350.063 150.476H397.726C404.353 150.476 409.726 155.849 409.726 162.476V174.485C409.726 181.113 415.098 186.485 421.726 186.485H474.361" stroke="#25855A" stroke-width="2"/>
<defs>
<clipPath id="clip0_451_2298">
<rect width="16" height="16" fill="white" transform="translate(14.8398 139.869)"/>
</clipPath>
<clipPath id="clip1_451_2298">
<rect width="13.3333" height="13.3333" fill="white" transform="translate(37.5065 141.203)"/>
</clipPath>
<clipPath id="clip2_451_2298">
<rect width="16" height="16" fill="white" transform="translate(58.8398 139.869)"/>
</clipPath>
<clipPath id="clip3_451_2298">
<rect width="16" height="16" fill="white" transform="translate(196.782 130.801)"/>
</clipPath>
<clipPath id="clip4_451_2298">
<rect width="16" height="16" fill="white" transform="translate(524.256 85.1729)"/>
</clipPath>
<clipPath id="clip5_451_2298">
<rect width="16" height="16" fill="white" transform="translate(524.256 179.368)"/>
</clipPath>
</defs>
</svg>
