<svg width="682" height="168" viewBox="0 0 682 168" fill="none" xmlns="http://www.w3.org/2000/svg">
<rect x="1.58984" y="47.2129" width="86.5" height="70.5" rx="5.25" fill="#FDFDFD"/>
<rect x="1.58984" y="47.2129" width="86.5" height="70.5" rx="5.25" stroke="#467B95" stroke-width="1.5"/>
<path d="M19.6132 66.6096C20.2221 66.6096 20.7332 66.6873 21.1465 66.8429C21.5643 66.9984 21.9554 67.2251 22.3198 67.5229L21.6065 68.3629C21.3221 68.1273 21.0198 67.9562 20.6998 67.8496C20.3798 67.7384 20.0443 67.6829 19.6932 67.6829C19.2087 67.6829 18.7621 67.8007 18.3532 68.0362C17.9443 68.2718 17.6154 68.6584 17.3665 69.1962C17.1176 69.734 16.9932 70.4562 16.9932 71.3629C16.9932 72.2473 17.111 72.9584 17.3465 73.4962C17.5865 74.0296 17.9087 74.4184 18.3132 74.6629C18.7221 74.9029 19.1776 75.0229 19.6798 75.0229C20.1821 75.0229 20.5976 74.9451 20.9265 74.7896C21.2598 74.6296 21.5487 74.4473 21.7932 74.2429L22.4532 75.0896C22.1643 75.374 21.7887 75.6184 21.3265 75.8229C20.8687 76.0273 20.3087 76.1296 19.6465 76.1296C18.8865 76.1296 18.2021 75.9473 17.5932 75.5829C16.9887 75.2184 16.5087 74.6829 16.1532 73.9762C15.7976 73.2651 15.6198 72.394 15.6198 71.3629C15.6198 70.3318 15.7998 69.4629 16.1598 68.7562C16.5243 68.0496 17.0087 67.5162 17.6132 67.1562C18.2221 66.7918 18.8887 66.6096 19.6132 66.6096ZM24.5512 75.9629V66.7762H25.8779V74.8162H30.0379L29.8912 75.9629H24.5512ZM37.5226 66.7762V67.8096H35.5026V74.9229H37.5226V75.9629H32.1493V74.9229H34.1693V67.8096H32.1493V66.7762H37.5226ZM41.7607 67.8162V70.7696H45.134V71.8162H41.7607V74.9296H45.8873V75.9629H40.434V66.7762H45.7873L45.634 67.8162H41.7607ZM51.9987 75.9629L48.8987 67.9962C48.9076 68.1518 48.9254 68.4184 48.952 68.7962C48.9831 69.1696 49.012 69.6007 49.0387 70.0896C49.0654 70.574 49.0787 71.0584 49.0787 71.5429V75.9629H47.8787V66.7762H49.632L52.7654 74.7629C52.7565 74.6118 52.7365 74.3607 52.7054 74.0096C52.6743 73.654 52.6454 73.234 52.6187 72.7496C52.5965 72.2651 52.5854 71.7473 52.5854 71.1962V66.7762H53.7854V75.9629H51.9987ZM59.4701 67.8762V75.9629H58.1501V67.8762H55.3234V66.7762H62.3434L62.2034 67.8762H59.4701ZM70.0481 73.3962C70.0481 73.9296 69.9126 74.4029 69.6415 74.8162C69.3748 75.2251 68.9859 75.5473 68.4748 75.7829C67.9681 76.014 67.3526 76.1296 66.6281 76.1296C65.9259 76.1296 65.2992 76.0229 64.7481 75.8096C64.197 75.5962 63.7281 75.3029 63.3415 74.9296L64.0948 74.0829C64.4148 74.3807 64.7815 74.6162 65.1948 74.7896C65.6081 74.9629 66.0903 75.0496 66.6415 75.0496C67.0015 75.0496 67.3348 74.9918 67.6415 74.8762C67.9526 74.7562 68.2015 74.5784 68.3881 74.3429C68.5792 74.1029 68.6748 73.8029 68.6748 73.4429C68.6748 73.1584 68.617 72.9162 68.5015 72.7162C68.3903 72.5118 68.1926 72.3318 67.9081 72.1762C67.6237 72.0207 67.2259 71.8673 66.7148 71.7162C66.0926 71.534 65.5592 71.3273 65.1148 71.0962C64.6748 70.8607 64.337 70.5784 64.1015 70.2496C63.8703 69.9162 63.7548 69.5073 63.7548 69.0229C63.7548 68.5473 63.8859 68.1296 64.1481 67.7696C64.4103 67.4051 64.7703 67.1207 65.2281 66.9162C65.6859 66.7118 66.2126 66.6096 66.8081 66.6096C67.4526 66.6096 68.0148 66.7029 68.4948 66.8896C68.9792 67.0762 69.4148 67.3407 69.8015 67.6829L69.0681 68.5096C68.7392 68.2207 68.3859 68.0118 68.0081 67.8829C67.6348 67.7496 67.2548 67.6829 66.8681 67.6829C66.3792 67.6829 65.9637 67.7896 65.6215 68.0029C65.2792 68.2118 65.1081 68.5318 65.1081 68.9629C65.1081 69.2207 65.177 69.4407 65.3148 69.6229C65.4526 69.8007 65.6837 69.9651 66.0081 70.1162C66.337 70.2673 66.7859 70.4273 67.3548 70.5962C67.8481 70.7429 68.297 70.9229 68.7015 71.1362C69.1103 71.3451 69.437 71.6296 69.6815 71.9896C69.9259 72.3451 70.0481 72.814 70.0481 73.3962Z" fill="#467B95"/>
<g clip-path="url(#clip0_451_2324)">
<path d="M26.1112 91.8771C26.4988 92.6869 26.8043 93.5334 27.023 94.404C28.763 93.8921 29.8712 93.0509 29.8712 92.029C29.8712 90.9871 28.7212 90.1321 26.9218 89.624" stroke="#467B95" stroke-linecap="round" stroke-linejoin="round"/>
<path d="M19.5605 91.877C19.2233 91.1526 18.9514 90.3996 18.748 89.627C16.9537 90.1351 15.8105 90.9888 15.8105 92.0288C15.8105 93.0488 16.9149 93.8895 18.6499 94.4038" stroke="#467B95" stroke-linecap="round" stroke-linejoin="round"/>
<path d="M21.1055 89.2027C21.6137 88.4626 22.1947 87.7752 22.8399 87.1508C21.5274 85.9008 20.2443 85.3615 19.3593 85.8721C18.4568 86.3927 18.2912 87.8165 18.7512 89.629" stroke="#467B95" stroke-linecap="round" stroke-linejoin="round"/>
<path d="M24.3811 94.8755C23.9226 95.5294 23.4068 96.1412 22.8398 96.7037C24.1773 98.003 25.4898 98.5687 26.3905 98.0487C27.2736 97.5387 27.4492 96.1624 27.0248 94.4043" stroke="#467B95" stroke-linecap="round" stroke-linejoin="round"/>
<path d="M21.2917 94.8741C20.3968 94.8051 19.5111 94.6464 18.648 94.4004C18.2205 96.1635 18.398 97.5435 19.2805 98.0548C20.1823 98.5754 21.498 98.0073 22.838 96.7029" stroke="#467B95" stroke-linecap="round" stroke-linejoin="round"/>
<path d="M24.5673 89.2026C25.3631 89.2731 26.1511 89.4145 26.9217 89.6251C27.3786 87.817 27.2123 86.3976 26.3117 85.8751C25.428 85.3676 24.1486 85.9013 22.8398 87.1513" stroke="#467B95" stroke-linecap="round" stroke-linejoin="round"/>
<path d="M24.5674 89.2019C24.0162 89.1494 23.4424 89.1182 22.8399 89.1182C22.2374 89.1182 21.6593 89.1494 21.1055 89.2025C20.8212 89.6119 20.543 90.0475 20.2749 90.5107C20.0068 90.9738 19.7749 91.4288 19.5605 91.8775C19.7905 92.3813 20.0518 92.8957 20.3518 93.4157C20.6518 93.9357 20.9693 94.4225 21.2893 94.875C22.3172 94.9628 23.3507 94.963 24.3787 94.8757C25.0519 93.935 25.6317 92.9308 26.1099 91.8775C25.6735 90.9431 25.1574 90.0479 24.5674 89.2019Z" stroke="#467B95" stroke-linecap="round" stroke-linejoin="round"/>
<path d="M21.9023 92.0293C21.9023 92.2779 22.0011 92.5164 22.1769 92.6922C22.3527 92.868 22.5912 92.9668 22.8398 92.9668C23.0885 92.9668 23.3269 92.868 23.5028 92.6922C23.6786 92.5164 23.7773 92.2779 23.7773 92.0293C23.7773 91.7807 23.6786 91.5422 23.5028 91.3664C23.3269 91.1906 23.0885 91.0918 22.8398 91.0918C22.5912 91.0918 22.3527 91.1906 22.1769 91.3664C22.0011 91.5422 21.9023 91.7807 21.9023 92.0293Z" stroke="#467B95" stroke-linecap="round" stroke-linejoin="round"/>
</g>
<g clip-path="url(#clip1_451_2324)">
<path d="M38.3138 86.1035V97.8223L50.0326 86.1035H38.3138Z" stroke="#467B95" stroke-linecap="round" stroke-linejoin="round"/>
<path d="M44.1732 91.9629L50.0326 97.8223H38.3138" stroke="#467B95" stroke-linecap="round" stroke-linejoin="round"/>
<path d="M44.1732 86.1035L38.4388 91.8379" stroke="#467B95" stroke-linecap="round" stroke-linejoin="round"/>
</g>
<g clip-path="url(#clip2_451_2324)">
<path d="M66.5335 91.3371C64.0898 89.8184 61.921 86.4371 61.921 86.4371C61.921 86.4371 63.7148 91.1559 67.0085 94.2559C65.9474 94.3147 64.8864 94.1398 63.9004 93.7434C62.9143 93.3471 62.0274 92.739 61.3023 91.9621C60.8435 91.5036 60.4388 90.994 60.096 90.4434C60.0739 90.4162 60.0427 90.3981 60.0082 90.3923C59.9737 90.3866 59.9382 90.3936 59.9085 90.4121C59.8742 90.4301 59.8466 90.4587 59.8298 90.4936C59.8129 90.5284 59.8076 90.5678 59.8148 90.6059C60.2475 92.1592 61.0818 93.5711 62.2335 94.6996C64.896 97.3621 68.5648 98.0996 70.896 96.5746C71.3458 96.712 71.8088 96.8021 72.2773 96.8434C73.4898 97.4684 73.4898 97.7559 73.4898 97.7559C73.6658 97.5497 73.7863 97.302 73.8399 97.0362C73.8935 96.7704 73.8784 96.4954 73.796 96.2371C73.8608 95.9513 73.8355 95.6525 73.7236 95.3817C73.6117 95.1108 73.4186 94.8813 73.171 94.7246L72.6148 94.3809C73.4585 92.0809 72.6148 88.9684 70.271 86.6309C70.1148 86.4684 69.9523 86.3184 69.7835 86.1746C69.755 86.1496 69.7184 86.1357 69.6804 86.1357C69.6424 86.1357 69.6058 86.1496 69.5773 86.1746C69.5481 86.1979 69.5279 86.2304 69.5199 86.2669C69.512 86.3033 69.5168 86.3413 69.5335 86.3746C70.8523 88.4684 71.046 90.8621 69.971 92.4871C67.9577 90.7465 66.2249 88.7059 64.8335 86.4371" stroke="#467B95" stroke-linecap="round" stroke-linejoin="round"/>
</g>
<rect x="180.996" y="47.6445" width="170.5" height="70.5" rx="35.25" fill="#FDFDFD"/>
<rect x="180.996" y="47.6445" width="170.5" height="70.5" rx="35.25" stroke="#B03900" stroke-width="1.5"/>
<g clip-path="url(#clip3_451_2324)">
<path d="M200.644 83.7893C203.237 84.6018 204.782 86.1643 204.782 89.1137M204.782 89.1137V89.9262M204.782 89.1137C204.782 86.1643 206.326 84.6018 208.919 83.7893M204.782 89.1137V79.1443M203.314 79.1443C203.253 79.1443 203.193 79.1281 203.14 79.0975C203.087 79.0669 203.044 79.0229 203.014 78.97C202.983 78.9171 202.968 78.8571 202.968 78.7962C202.969 78.7353 202.985 78.6755 203.016 78.6231L204.484 76.0193C204.515 75.9676 204.558 75.9248 204.61 75.895C204.663 75.8653 204.722 75.8496 204.782 75.8496C204.842 75.8496 204.901 75.8653 204.953 75.895C205.005 75.9248 205.049 75.9676 205.079 76.0193L206.548 78.6224C206.579 78.675 206.595 78.7348 206.596 78.7958C206.596 78.8568 206.58 78.9168 206.55 78.9698C206.52 79.0228 206.476 79.0668 206.423 79.0975C206.371 79.1281 206.311 79.1443 206.25 79.1443H203.314ZM201.289 82.2318C201.312 82.1754 201.32 82.1139 201.312 82.0534C201.304 81.993 201.28 81.9357 201.243 81.8875C201.205 81.8393 201.156 81.8017 201.1 81.7787C201.043 81.7556 200.981 81.7479 200.921 81.7562L198.046 82.1606C197.986 82.1688 197.93 82.1925 197.882 82.2294C197.834 82.2663 197.797 82.315 197.774 82.3708C197.751 82.4265 197.743 82.4873 197.751 82.5472C197.758 82.607 197.781 82.6637 197.818 82.7118L199.563 85.0287C199.6 85.0774 199.649 85.1154 199.705 85.1391C199.761 85.1627 199.823 85.1711 199.883 85.1634C199.944 85.1557 200.001 85.1321 200.05 85.095C200.098 85.058 200.136 85.0088 200.16 84.9524L200.722 83.5924L201.289 82.2318ZM208.274 82.2318C208.251 82.1754 208.243 82.1139 208.251 82.0534C208.259 81.993 208.283 81.9357 208.321 81.8875C208.358 81.8393 208.407 81.8017 208.464 81.7787C208.52 81.7556 208.582 81.7479 208.642 81.7562L211.517 82.1606C211.577 82.1688 211.634 82.1925 211.681 82.2294C211.729 82.2663 211.766 82.315 211.789 82.3708C211.812 82.4265 211.821 82.4873 211.813 82.5472C211.805 82.607 211.782 82.6637 211.745 82.7118L210 85.0287C209.964 85.0774 209.915 85.1154 209.858 85.1391C209.802 85.1627 209.74 85.1711 209.68 85.1634C209.619 85.1557 209.562 85.1321 209.513 85.095C209.465 85.058 209.427 85.0088 209.404 84.9524L208.841 83.5924L208.274 82.2318Z" stroke="#B03900" stroke-linecap="round" stroke-linejoin="round"/>
</g>
<path d="M227.93 87.5612C226.805 87.5612 225.917 87.1634 225.263 86.3679C224.61 85.5723 224.283 84.3812 224.283 82.7945C224.283 82.0034 224.39 81.3123 224.603 80.7212C224.817 80.1256 225.105 79.6301 225.47 79.2345C225.839 78.8345 226.257 78.5368 226.723 78.3412C227.194 78.1412 227.685 78.0412 228.197 78.0412C228.805 78.0412 229.312 78.1301 229.717 78.3079C230.125 78.4856 230.51 78.7412 230.87 79.0745L230.097 79.8745C229.55 79.3679 228.923 79.1145 228.217 79.1145C227.781 79.1145 227.37 79.2301 226.983 79.4612C226.597 79.6923 226.283 80.0768 226.043 80.6145C225.803 81.1523 225.683 81.879 225.683 82.7945C225.683 84.1056 225.881 85.0501 226.277 85.6279C226.672 86.2012 227.254 86.4879 228.023 86.4879C228.61 86.4879 229.159 86.3479 229.67 86.0679V83.3812H227.97L227.817 82.3279H230.97V86.7412C230.548 86.9768 230.097 87.1723 229.617 87.3279C229.141 87.4834 228.579 87.5612 227.93 87.5612ZM238.941 80.8145C238.941 81.5034 238.73 82.059 238.308 82.4812C237.89 82.899 237.375 83.1879 236.761 83.3479L239.435 87.3945H237.868L235.448 83.5212H234.308V87.3945H232.981V78.2079H235.428C236.579 78.2079 237.452 78.4279 238.048 78.8679C238.643 79.3034 238.941 79.9523 238.941 80.8145ZM237.535 80.8145C237.535 80.2501 237.37 79.8434 237.041 79.5945C236.717 79.3456 236.217 79.2212 235.541 79.2212H234.308V82.5145H235.555C236.186 82.5145 236.672 82.3856 237.015 82.1279C237.361 81.8656 237.535 81.4279 237.535 80.8145ZM245.426 85.1079H241.946L241.253 87.3945H239.926L242.886 78.2079H244.553L247.519 87.3945H246.119L245.426 85.1079ZM242.253 84.0479H245.119L243.693 79.2745L242.253 84.0479ZM255.184 81.0545C255.184 81.7701 255.031 82.3479 254.724 82.7879C254.422 83.2234 254.002 83.5412 253.464 83.7412C252.926 83.9412 252.311 84.0412 251.617 84.0412H250.471V87.3945H249.144V78.2079H251.577C252.697 78.2079 253.577 78.4412 254.217 78.9079C254.862 79.3701 255.184 80.0856 255.184 81.0545ZM253.784 81.0679C253.784 80.3923 253.588 79.9168 253.197 79.6412C252.811 79.3656 252.313 79.2279 251.704 79.2279H250.471V83.0012H251.684C252.093 83.0012 252.455 82.9434 252.771 82.8279C253.086 82.7123 253.333 82.5145 253.511 82.2345C253.693 81.9545 253.784 81.5656 253.784 81.0679ZM261.349 87.3945V83.1145H258.082V87.3945H256.762V78.2079H258.082V82.0279H261.349V78.2079H262.669V87.3945H261.349ZM271.147 82.8079C271.147 83.7412 271.018 84.5656 270.76 85.2812C270.502 85.9968 270.118 86.5568 269.607 86.9612C269.1 87.3612 268.469 87.5612 267.713 87.5612C266.958 87.5612 266.325 87.3656 265.813 86.9745C265.307 86.579 264.925 86.0256 264.667 85.3145C264.409 84.6034 264.28 83.7723 264.28 82.8212C264.28 81.8834 264.409 81.0568 264.667 80.3412C264.925 79.6212 265.307 79.059 265.813 78.6545C266.325 78.2456 266.958 78.0412 267.713 78.0412C268.469 78.0412 269.1 78.239 269.607 78.6345C270.118 79.0301 270.502 79.5856 270.76 80.3012C271.018 81.0168 271.147 81.8523 271.147 82.8079ZM269.767 82.8079C269.767 81.599 269.607 80.6812 269.287 80.0545C268.971 79.4279 268.447 79.1145 267.713 79.1145C266.98 79.1145 266.453 79.4301 266.133 80.0612C265.818 80.6923 265.66 81.6123 265.66 82.8212C265.66 84.0256 265.822 84.939 266.147 85.5612C266.476 86.179 266.998 86.4879 267.713 86.4879C268.447 86.4879 268.971 86.1768 269.287 85.5545C269.607 84.9279 269.767 84.0123 269.767 82.8079ZM278.931 84.8279C278.931 85.3612 278.796 85.8345 278.525 86.2479C278.258 86.6568 277.869 86.979 277.358 87.2145C276.851 87.4456 276.236 87.5612 275.511 87.5612C274.809 87.5612 274.183 87.4545 273.631 87.2412C273.08 87.0279 272.611 86.7345 272.225 86.3612L272.978 85.5145C273.298 85.8123 273.665 86.0479 274.078 86.2212C274.491 86.3945 274.974 86.4812 275.525 86.4812C275.885 86.4812 276.218 86.4234 276.525 86.3079C276.836 86.1879 277.085 86.0101 277.271 85.7745C277.463 85.5345 277.558 85.2345 277.558 84.8745C277.558 84.5901 277.5 84.3479 277.385 84.1479C277.274 83.9434 277.076 83.7634 276.791 83.6079C276.507 83.4523 276.109 83.299 275.598 83.1479C274.976 82.9656 274.443 82.759 273.998 82.5279C273.558 82.2923 273.22 82.0101 272.985 81.6812C272.754 81.3479 272.638 80.939 272.638 80.4545C272.638 79.979 272.769 79.5612 273.031 79.2012C273.294 78.8368 273.654 78.5523 274.111 78.3479C274.569 78.1434 275.096 78.0412 275.691 78.0412C276.336 78.0412 276.898 78.1345 277.378 78.3212C277.863 78.5079 278.298 78.7723 278.685 79.1145L277.951 79.9412C277.623 79.6523 277.269 79.4434 276.891 79.3145C276.518 79.1812 276.138 79.1145 275.751 79.1145C275.263 79.1145 274.847 79.2212 274.505 79.4345C274.163 79.6434 273.991 79.9634 273.991 80.3945C273.991 80.6523 274.06 80.8723 274.198 81.0545C274.336 81.2323 274.567 81.3968 274.891 81.5479C275.22 81.699 275.669 81.859 276.238 82.0279C276.731 82.1745 277.18 82.3545 277.585 82.5679C277.994 82.7768 278.32 83.0612 278.565 83.4212C278.809 83.7768 278.931 84.2456 278.931 84.8279ZM294.928 80.8145C294.928 81.5034 294.716 82.059 294.294 82.4812C293.876 82.899 293.361 83.1879 292.748 83.3479L295.421 87.3945H293.854L291.434 83.5212H290.294V87.3945H288.968V78.2079H291.414C292.565 78.2079 293.439 78.4279 294.034 78.8679C294.63 79.3034 294.928 79.9523 294.928 80.8145ZM293.521 80.8145C293.521 80.2501 293.356 79.8434 293.028 79.5945C292.703 79.3456 292.203 79.2212 291.528 79.2212H290.294V82.5145H291.541C292.172 82.5145 292.659 82.3856 293.001 82.1279C293.348 81.8656 293.521 81.4279 293.521 80.8145ZM303.139 82.8079C303.139 83.7412 303.01 84.5656 302.752 85.2812C302.495 85.9968 302.11 86.5568 301.599 86.9612C301.092 87.3612 300.461 87.5612 299.706 87.5612C298.95 87.5612 298.317 87.3656 297.806 86.9745C297.299 86.579 296.917 86.0256 296.659 85.3145C296.401 84.6034 296.272 83.7723 296.272 82.8212C296.272 81.8834 296.401 81.0568 296.659 80.3412C296.917 79.6212 297.299 79.059 297.806 78.6545C298.317 78.2456 298.95 78.0412 299.706 78.0412C300.461 78.0412 301.092 78.239 301.599 78.6345C302.11 79.0301 302.495 79.5856 302.752 80.3012C303.01 81.0168 303.139 81.8523 303.139 82.8079ZM301.759 82.8079C301.759 81.599 301.599 80.6812 301.279 80.0545C300.963 79.4279 300.439 79.1145 299.706 79.1145C298.972 79.1145 298.446 79.4301 298.126 80.0612C297.81 80.6923 297.652 81.6123 297.652 82.8212C297.652 84.0256 297.815 84.939 298.139 85.5612C298.468 86.179 298.99 86.4879 299.706 86.4879C300.439 86.4879 300.963 86.1768 301.279 85.5545C301.599 84.9279 301.759 84.0123 301.759 82.8079ZM310.804 78.2079V84.4012C310.804 85.0234 310.677 85.5723 310.424 86.0479C310.175 86.5234 309.817 86.8945 309.35 87.1612C308.888 87.4279 308.335 87.5612 307.69 87.5612C307.041 87.5612 306.486 87.4279 306.024 87.1612C305.561 86.8945 305.208 86.5234 304.964 86.0479C304.724 85.5723 304.604 85.0234 304.604 84.4012V78.2079H305.924V84.3012C305.924 85.7412 306.513 86.4612 307.69 86.4612C308.877 86.4612 309.47 85.7412 309.47 84.3012V78.2079H310.804ZM316.342 79.3079V87.3945H315.022V79.3079H312.195V78.2079H319.215L319.075 79.3079H316.342ZM322.626 79.2479V82.2012H326V83.2479H322.626V86.3612H326.753V87.3945H321.3V78.2079H326.653L326.5 79.2479H322.626ZM334.918 80.8145C334.918 81.5034 334.707 82.059 334.284 82.4812C333.867 82.899 333.351 83.1879 332.738 83.3479L335.411 87.3945H333.844L331.424 83.5212H330.284V87.3945H328.958V78.2079H331.404C332.556 78.2079 333.429 78.4279 334.024 78.8679C334.62 79.3034 334.918 79.9523 334.918 80.8145ZM333.511 80.8145C333.511 80.2501 333.347 79.8434 333.018 79.5945C332.693 79.3456 332.193 79.2212 331.518 79.2212H330.284V82.5145H331.531C332.162 82.5145 332.649 82.3856 332.991 82.1279C333.338 81.8656 333.511 81.4279 333.511 80.8145Z" fill="#B03900"/>
<rect x="474.47" y="1.64453" width="206.5" height="71.2449" rx="5.25" fill="#FDFDFD"/>
<rect x="474.47" y="1.64453" width="206.5" height="71.2449" rx="5.25" stroke="#AF9200" stroke-width="1.5"/>
<g clip-path="url(#clip4_451_2324)">
<path d="M536.328 39.9229H528.177M536.478 40.6454L533.186 42.6404M527.1 38.9854C527.39 38.9854 527.668 39.1006 527.873 39.3057C528.079 39.5108 528.194 39.789 528.194 40.0791C528.194 40.3692 528.079 40.6474 527.873 40.8525C527.668 41.0576 527.39 41.1729 527.1 41.1729C526.81 41.1729 526.532 41.0576 526.327 40.8525C526.122 40.6474 526.006 40.3692 526.006 40.0791C526.006 39.789 526.122 39.5108 526.327 39.3057C526.532 39.1006 526.81 38.9854 527.1 38.9854ZM527.1 38.9854V35.546M537.413 38.9854C537.703 38.9854 537.981 39.1006 538.186 39.3057C538.391 39.5108 538.506 39.789 538.506 40.0791C538.506 40.3692 538.391 40.6474 538.186 40.8525C537.981 41.0576 537.703 41.1729 537.413 41.1729C537.122 41.1729 536.844 41.0576 536.639 40.8525C536.434 40.6474 536.319 40.3692 536.319 40.0791C536.319 39.789 536.434 39.5108 536.639 39.3057C536.844 39.1006 537.122 38.9854 537.413 38.9854ZM537.413 38.9854V35.546M531.849 32.3385L527.803 39.2541M532.664 32.3385L536.709 39.2547M531.321 31.896L528.034 33.8879M528.034 40.6454L531.326 42.6404M533.192 31.896L536.478 33.8879M532.256 32.4229C532.546 32.4229 532.825 32.3076 533.03 32.1025C533.235 31.8974 533.35 31.6192 533.35 31.3291C533.35 31.039 533.235 30.7608 533.03 30.5557C532.825 30.3506 532.546 30.2354 532.256 30.2354C531.966 30.2354 531.688 30.3506 531.483 30.5557C531.278 30.7608 531.163 31.039 531.163 31.3291C531.163 31.6192 531.278 31.8974 531.483 32.1025C531.688 32.3076 531.966 32.4229 532.256 32.4229ZM527.1 35.5479C527.39 35.5479 527.668 35.4326 527.873 35.2275C528.079 35.0224 528.194 34.7442 528.194 34.4541C528.194 34.164 528.079 33.8858 527.873 33.6807C527.668 33.4756 527.39 33.3604 527.1 33.3604C526.81 33.3604 526.532 33.4756 526.327 33.6807C526.122 33.8858 526.006 34.164 526.006 34.4541C526.006 34.7442 526.122 35.0224 526.327 35.2275C526.532 35.4326 526.81 35.5479 527.1 35.5479ZM537.413 35.5479C537.703 35.5479 537.981 35.4326 538.186 35.2275C538.391 35.0224 538.506 34.7442 538.506 34.4541C538.506 34.164 538.391 33.8858 538.186 33.6807C537.981 33.4756 537.703 33.3604 537.413 33.3604C537.122 33.3604 536.844 33.4756 536.639 33.6807C536.434 33.8858 536.319 34.164 536.319 34.4541C536.319 34.7442 536.434 35.0224 536.639 35.2275C536.844 35.4326 537.122 35.5479 537.413 35.5479ZM532.256 44.2979C532.546 44.2979 532.825 44.1826 533.03 43.9775C533.235 43.7724 533.35 43.4942 533.35 43.2041C533.35 42.914 533.235 42.6358 533.03 42.4307C532.825 42.2256 532.546 42.1104 532.256 42.1104C531.966 42.1104 531.688 42.2256 531.483 42.4307C531.278 42.6358 531.163 42.914 531.163 43.2041C531.163 43.4942 531.278 43.7724 531.483 43.9775C531.688 44.1826 531.966 44.2979 532.256 44.2979Z" stroke="#AF9200" stroke-linecap="round" stroke-linejoin="round"/>
</g>
<path d="M558.404 38.6999C558.404 39.2333 558.269 39.7066 557.997 40.1199C557.731 40.5288 557.342 40.851 556.831 41.0866C556.324 41.3177 555.709 41.4333 554.984 41.4333C554.282 41.4333 553.655 41.3266 553.104 41.1133C552.553 40.8999 552.084 40.6066 551.697 40.2333L552.451 39.3866C552.771 39.6844 553.137 39.9199 553.551 40.0933C553.964 40.2666 554.446 40.3533 554.997 40.3533C555.357 40.3533 555.691 40.2955 555.997 40.1799C556.309 40.0599 556.557 39.8822 556.744 39.6466C556.935 39.4066 557.031 39.1066 557.031 38.7466C557.031 38.4622 556.973 38.2199 556.857 38.0199C556.746 37.8155 556.549 37.6355 556.264 37.4799C555.98 37.3244 555.582 37.171 555.071 37.0199C554.449 36.8377 553.915 36.631 553.471 36.3999C553.031 36.1644 552.693 35.8822 552.457 35.5533C552.226 35.2199 552.111 34.811 552.111 34.3266C552.111 33.851 552.242 33.4333 552.504 33.0733C552.766 32.7088 553.126 32.4244 553.584 32.2199C554.042 32.0155 554.569 31.9133 555.164 31.9133C555.809 31.9133 556.371 32.0066 556.851 32.1933C557.335 32.3799 557.771 32.6444 558.157 32.9866L557.424 33.8133C557.095 33.5244 556.742 33.3155 556.364 33.1866C555.991 33.0533 555.611 32.9866 555.224 32.9866C554.735 32.9866 554.32 33.0933 553.977 33.3066C553.635 33.5155 553.464 33.8355 553.464 34.2666C553.464 34.5244 553.533 34.7444 553.671 34.9266C553.809 35.1044 554.04 35.2688 554.364 35.4199C554.693 35.571 555.142 35.731 555.711 35.8999C556.204 36.0466 556.653 36.2266 557.057 36.4399C557.466 36.6488 557.793 36.9333 558.037 37.2933C558.282 37.6488 558.404 38.1177 558.404 38.6999ZM566.282 32.0799V38.2733C566.282 38.8955 566.156 39.4444 565.902 39.9199C565.653 40.3955 565.296 40.7666 564.829 41.0333C564.367 41.2999 563.813 41.4333 563.169 41.4333C562.52 41.4333 561.964 41.2999 561.502 41.0333C561.04 40.7666 560.687 40.3955 560.442 39.9199C560.202 39.4444 560.082 38.8955 560.082 38.2733V32.0799H561.402V38.1733C561.402 39.6133 561.991 40.3333 563.169 40.3333C564.356 40.3333 564.949 39.6133 564.949 38.1733V32.0799H566.282ZM574.44 38.6333C574.44 39.1399 574.34 39.5622 574.14 39.8999C573.945 40.2377 573.678 40.5066 573.34 40.7066C573.007 40.9066 572.631 41.051 572.214 41.1399C571.8 41.2244 571.376 41.2666 570.94 41.2666H568.38V32.0799H570.747C571.16 32.0799 571.562 32.1177 571.954 32.1933C572.345 32.2644 572.698 32.3888 573.014 32.5666C573.329 32.7399 573.578 32.9777 573.76 33.2799C573.947 33.5777 574.04 33.951 574.04 34.3999C574.04 34.7866 573.958 35.1177 573.794 35.3933C573.634 35.6644 573.425 35.8844 573.167 36.0533C572.909 36.2177 572.634 36.3333 572.34 36.3999C572.674 36.4577 573 36.5644 573.32 36.7199C573.645 36.871 573.911 37.0999 574.12 37.4066C574.334 37.7088 574.44 38.1177 574.44 38.6333ZM572.694 34.4866C572.694 33.9888 572.538 33.6355 572.227 33.4266C571.92 33.2133 571.496 33.1066 570.954 33.1066H569.7V35.9466H571.06C571.589 35.9466 571.994 35.8333 572.274 35.6066C572.554 35.3755 572.694 35.0022 572.694 34.4866ZM573.054 38.6533C573.054 38.2133 572.967 37.8733 572.794 37.6333C572.625 37.3888 572.396 37.2199 572.107 37.1266C571.822 37.0333 571.507 36.9866 571.16 36.9866H569.7V40.2066H571.1C571.398 40.2066 571.696 40.1688 571.994 40.0933C572.296 40.0133 572.547 39.8622 572.747 39.6399C572.951 39.4177 573.054 39.0888 573.054 38.6533ZM579.385 41.4333C578.261 41.4333 577.372 41.0355 576.718 40.2399C576.065 39.4444 575.738 38.2533 575.738 36.6666C575.738 35.8755 575.845 35.1844 576.058 34.5933C576.272 33.9977 576.561 33.5022 576.925 33.1066C577.294 32.7066 577.712 32.4088 578.178 32.2133C578.649 32.0133 579.141 31.9133 579.652 31.9133C580.261 31.9133 580.767 32.0022 581.172 32.1799C581.581 32.3577 581.965 32.6133 582.325 32.9466L581.552 33.7466C581.005 33.2399 580.378 32.9866 579.672 32.9866C579.236 32.9866 578.825 33.1022 578.438 33.3333C578.052 33.5644 577.738 33.9488 577.498 34.4866C577.258 35.0244 577.138 35.751 577.138 36.6666C577.138 37.9777 577.336 38.9222 577.732 39.4999C578.127 40.0733 578.709 40.3599 579.478 40.3599C580.065 40.3599 580.614 40.2199 581.125 39.9399V37.2533H579.425L579.272 36.1999H582.425V40.6133C582.003 40.8488 581.552 41.0444 581.072 41.1999C580.596 41.3555 580.034 41.4333 579.385 41.4333ZM590.396 34.6866C590.396 35.3755 590.185 35.931 589.763 36.3533C589.345 36.771 588.83 37.0599 588.216 37.2199L590.89 41.2666H589.323L586.903 37.3933H585.763V41.2666H584.436V32.0799H586.883C588.034 32.0799 588.907 32.2999 589.503 32.7399C590.099 33.1755 590.396 33.8244 590.396 34.6866ZM588.99 34.6866C588.99 34.1222 588.825 33.7155 588.496 33.4666C588.172 33.2177 587.672 33.0933 586.996 33.0933H585.763V36.3866H587.01C587.641 36.3866 588.127 36.2577 588.47 35.9999C588.816 35.7377 588.99 35.2999 588.99 34.6866ZM596.881 38.9799H593.401L592.708 41.2666H591.381L594.341 32.0799H596.008L598.974 41.2666H597.574L596.881 38.9799ZM593.708 37.9199H596.574L595.148 33.1466L593.708 37.9199ZM606.639 34.9266C606.639 35.6422 606.486 36.2199 606.179 36.6599C605.877 37.0955 605.457 37.4133 604.919 37.6133C604.381 37.8133 603.766 37.9133 603.072 37.9133H601.926V41.2666H600.599V32.0799H603.032C604.152 32.0799 605.032 32.3133 605.672 32.7799C606.317 33.2422 606.639 33.9577 606.639 34.9266ZM605.239 34.9399C605.239 34.2644 605.044 33.7888 604.652 33.5133C604.266 33.2377 603.768 33.0999 603.159 33.0999H601.926V36.8733H603.139C603.548 36.8733 603.91 36.8155 604.226 36.6999C604.541 36.5844 604.788 36.3866 604.966 36.1066C605.148 35.8266 605.239 35.4377 605.239 34.9399ZM612.804 41.2666V36.9866H609.537V41.2666H608.217V32.0799H609.537V35.8999H612.804V32.0799H614.124V41.2666H612.804ZM628.873 38.9799H625.393L624.7 41.2666H623.373L626.333 32.0799H628L630.967 41.2666H629.567L628.873 38.9799ZM625.7 37.9199H628.567L627.14 33.1466L625.7 37.9199Z" fill="#AF9200"/>
<rect x="474.47" y="95.8398" width="206.5" height="71.2449" rx="5.25" fill="#FDFDFD"/>
<rect x="474.47" y="95.8398" width="206.5" height="71.2449" rx="5.25" stroke="#25855A" stroke-width="1.5"/>
<g clip-path="url(#clip5_451_2324)">
<path d="M536.328 134.118H528.177M536.478 134.841L533.186 136.836M527.1 133.181C527.39 133.181 527.668 133.296 527.873 133.501C528.079 133.706 528.194 133.984 528.194 134.274C528.194 134.564 528.079 134.843 527.873 135.048C527.668 135.253 527.39 135.368 527.1 135.368C526.81 135.368 526.532 135.253 526.327 135.048C526.122 134.843 526.006 134.564 526.006 134.274C526.006 133.984 526.122 133.706 526.327 133.501C526.532 133.296 526.81 133.181 527.1 133.181ZM527.1 133.181V129.741M537.413 133.181C537.703 133.181 537.981 133.296 538.186 133.501C538.391 133.706 538.506 133.984 538.506 134.274C538.506 134.564 538.391 134.843 538.186 135.048C537.981 135.253 537.703 135.368 537.413 135.368C537.122 135.368 536.844 135.253 536.639 135.048C536.434 134.843 536.319 134.564 536.319 134.274C536.319 133.984 536.434 133.706 536.639 133.501C536.844 133.296 537.122 133.181 537.413 133.181ZM537.413 133.181V129.741M531.849 126.534L527.803 133.449M532.664 126.534L536.709 133.45M531.321 126.091L528.034 128.083M528.034 134.841L531.326 136.836M533.192 126.091L536.478 128.083M532.256 126.618C532.546 126.618 532.825 126.503 533.03 126.298C533.235 126.093 533.35 125.814 533.35 125.524C533.35 125.234 533.235 124.956 533.03 124.751C532.825 124.546 532.546 124.431 532.256 124.431C531.966 124.431 531.688 124.546 531.483 124.751C531.278 124.956 531.163 125.234 531.163 125.524C531.163 125.814 531.278 126.093 531.483 126.298C531.688 126.503 531.966 126.618 532.256 126.618ZM527.1 129.743C527.39 129.743 527.668 129.628 527.873 129.423C528.079 129.218 528.194 128.939 528.194 128.649C528.194 128.359 528.079 128.081 527.873 127.876C527.668 127.671 527.39 127.556 527.1 127.556C526.81 127.556 526.532 127.671 526.327 127.876C526.122 128.081 526.006 128.359 526.006 128.649C526.006 128.939 526.122 129.218 526.327 129.423C526.532 129.628 526.81 129.743 527.1 129.743ZM537.413 129.743C537.703 129.743 537.981 129.628 538.186 129.423C538.391 129.218 538.506 128.939 538.506 128.649C538.506 128.359 538.391 128.081 538.186 127.876C537.981 127.671 537.703 127.556 537.413 127.556C537.122 127.556 536.844 127.671 536.639 127.876C536.434 128.081 536.319 128.359 536.319 128.649C536.319 128.939 536.434 129.218 536.639 129.423C536.844 129.628 537.122 129.743 537.413 129.743ZM532.256 138.493C532.546 138.493 532.825 138.378 533.03 138.173C533.235 137.968 533.35 137.689 533.35 137.399C533.35 137.109 533.235 136.831 533.03 136.626C532.825 136.421 532.546 136.306 532.256 136.306C531.966 136.306 531.688 136.421 531.483 136.626C531.278 136.831 531.163 137.109 531.163 137.399C531.163 137.689 531.278 137.968 531.483 138.173C531.688 138.378 531.966 138.493 532.256 138.493Z" stroke="#25855A" stroke-linecap="round" stroke-linejoin="round"/>
</g>
<path d="M558.404 132.895C558.404 133.429 558.269 133.902 557.997 134.315C557.731 134.724 557.342 135.046 556.831 135.282C556.324 135.513 555.709 135.629 554.984 135.629C554.282 135.629 553.655 135.522 553.104 135.309C552.553 135.095 552.084 134.802 551.697 134.429L552.451 133.582C552.771 133.88 553.137 134.115 553.551 134.289C553.964 134.462 554.446 134.549 554.997 134.549C555.357 134.549 555.691 134.491 555.997 134.375C556.309 134.255 556.557 134.077 556.744 133.842C556.935 133.602 557.031 133.302 557.031 132.942C557.031 132.657 556.973 132.415 556.857 132.215C556.746 132.011 556.549 131.831 556.264 131.675C555.98 131.52 555.582 131.366 555.071 131.215C554.449 131.033 553.915 130.826 553.471 130.595C553.031 130.36 552.693 130.077 552.457 129.749C552.226 129.415 552.111 129.006 552.111 128.522C552.111 128.046 552.242 127.629 552.504 127.269C552.766 126.904 553.126 126.62 553.584 126.415C554.042 126.211 554.569 126.109 555.164 126.109C555.809 126.109 556.371 126.202 556.851 126.389C557.335 126.575 557.771 126.84 558.157 127.182L557.424 128.009C557.095 127.72 556.742 127.511 556.364 127.382C555.991 127.249 555.611 127.182 555.224 127.182C554.735 127.182 554.32 127.289 553.977 127.502C553.635 127.711 553.464 128.031 553.464 128.462C553.464 128.72 553.533 128.94 553.671 129.122C553.809 129.3 554.04 129.464 554.364 129.615C554.693 129.766 555.142 129.926 555.711 130.095C556.204 130.242 556.653 130.422 557.057 130.635C557.466 130.844 557.793 131.129 558.037 131.489C558.282 131.844 558.404 132.313 558.404 132.895ZM566.282 126.275V132.469C566.282 133.091 566.156 133.64 565.902 134.115C565.653 134.591 565.296 134.962 564.829 135.229C564.367 135.495 563.813 135.629 563.169 135.629C562.52 135.629 561.964 135.495 561.502 135.229C561.04 134.962 560.687 134.591 560.442 134.115C560.202 133.64 560.082 133.091 560.082 132.469V126.275H561.402V132.369C561.402 133.809 561.991 134.529 563.169 134.529C564.356 134.529 564.949 133.809 564.949 132.369V126.275H566.282ZM574.44 132.829C574.44 133.335 574.34 133.757 574.14 134.095C573.945 134.433 573.678 134.702 573.34 134.902C573.007 135.102 572.631 135.246 572.214 135.335C571.8 135.42 571.376 135.462 570.94 135.462H568.38V126.275H570.747C571.16 126.275 571.562 126.313 571.954 126.389C572.345 126.46 572.698 126.584 573.014 126.762C573.329 126.935 573.578 127.173 573.76 127.475C573.947 127.773 574.04 128.146 574.04 128.595C574.04 128.982 573.958 129.313 573.794 129.589C573.634 129.86 573.425 130.08 573.167 130.249C572.909 130.413 572.634 130.529 572.34 130.595C572.674 130.653 573 130.76 573.32 130.915C573.645 131.066 573.911 131.295 574.12 131.602C574.334 131.904 574.44 132.313 574.44 132.829ZM572.694 128.682C572.694 128.184 572.538 127.831 572.227 127.622C571.92 127.409 571.496 127.302 570.954 127.302H569.7V130.142H571.06C571.589 130.142 571.994 130.029 572.274 129.802C572.554 129.571 572.694 129.197 572.694 128.682ZM573.054 132.849C573.054 132.409 572.967 132.069 572.794 131.829C572.625 131.584 572.396 131.415 572.107 131.322C571.822 131.229 571.507 131.182 571.16 131.182H569.7V134.402H571.1C571.398 134.402 571.696 134.364 571.994 134.289C572.296 134.209 572.547 134.057 572.747 133.835C572.951 133.613 573.054 133.284 573.054 132.849ZM579.385 135.629C578.261 135.629 577.372 135.231 576.718 134.435C576.065 133.64 575.738 132.449 575.738 130.862C575.738 130.071 575.845 129.38 576.058 128.789C576.272 128.193 576.561 127.697 576.925 127.302C577.294 126.902 577.712 126.604 578.178 126.409C578.649 126.209 579.141 126.109 579.652 126.109C580.261 126.109 580.767 126.197 581.172 126.375C581.581 126.553 581.965 126.809 582.325 127.142L581.552 127.942C581.005 127.435 580.378 127.182 579.672 127.182C579.236 127.182 578.825 127.297 578.438 127.529C578.052 127.76 577.738 128.144 577.498 128.682C577.258 129.22 577.138 129.946 577.138 130.862C577.138 132.173 577.336 133.117 577.732 133.695C578.127 134.269 578.709 134.555 579.478 134.555C580.065 134.555 580.614 134.415 581.125 134.135V131.449H579.425L579.272 130.395H582.425V134.809C582.003 135.044 581.552 135.24 581.072 135.395C580.596 135.551 580.034 135.629 579.385 135.629ZM590.396 128.882C590.396 129.571 590.185 130.126 589.763 130.549C589.345 130.966 588.83 131.255 588.216 131.415L590.89 135.462H589.323L586.903 131.589H585.763V135.462H584.436V126.275H586.883C588.034 126.275 588.907 126.495 589.503 126.935C590.099 127.371 590.396 128.02 590.396 128.882ZM588.99 128.882C588.99 128.317 588.825 127.911 588.496 127.662C588.172 127.413 587.672 127.289 586.996 127.289H585.763V130.582H587.01C587.641 130.582 588.127 130.453 588.47 130.195C588.816 129.933 588.99 129.495 588.99 128.882ZM596.881 133.175H593.401L592.708 135.462H591.381L594.341 126.275H596.008L598.974 135.462H597.574L596.881 133.175ZM593.708 132.115H596.574L595.148 127.342L593.708 132.115ZM606.639 129.122C606.639 129.837 606.486 130.415 606.179 130.855C605.877 131.291 605.457 131.609 604.919 131.809C604.381 132.009 603.766 132.109 603.072 132.109H601.926V135.462H600.599V126.275H603.032C604.152 126.275 605.032 126.509 605.672 126.975C606.317 127.437 606.639 128.153 606.639 129.122ZM605.239 129.135C605.239 128.46 605.044 127.984 604.652 127.709C604.266 127.433 603.768 127.295 603.159 127.295H601.926V131.069H603.139C603.548 131.069 603.91 131.011 604.226 130.895C604.541 130.78 604.788 130.582 604.966 130.302C605.148 130.022 605.239 129.633 605.239 129.135ZM612.804 135.462V131.182H609.537V135.462H608.217V126.275H609.537V130.095H612.804V126.275H614.124V135.462H612.804ZM630.427 132.829C630.427 133.335 630.327 133.757 630.127 134.095C629.931 134.433 629.664 134.702 629.327 134.902C628.993 135.102 628.618 135.246 628.2 135.335C627.787 135.42 627.362 135.462 626.927 135.462H624.367V126.275H626.733C627.147 126.275 627.549 126.313 627.94 126.389C628.331 126.46 628.684 126.584 629 126.762C629.315 126.935 629.564 127.173 629.747 127.475C629.933 127.773 630.027 128.146 630.027 128.595C630.027 128.982 629.944 129.313 629.78 129.589C629.62 129.86 629.411 130.08 629.153 130.249C628.895 130.413 628.62 130.529 628.327 130.595C628.66 130.653 628.987 130.76 629.307 130.915C629.631 131.066 629.898 131.295 630.107 131.602C630.32 131.904 630.427 132.313 630.427 132.829ZM628.68 128.682C628.68 128.184 628.524 127.831 628.213 127.622C627.907 127.409 627.482 127.302 626.94 127.302H625.687V130.142H627.047C627.575 130.142 627.98 130.029 628.26 129.802C628.54 129.571 628.68 129.197 628.68 128.682ZM629.04 132.849C629.04 132.409 628.953 132.069 628.78 131.829C628.611 131.584 628.382 131.415 628.093 131.322C627.809 131.229 627.493 131.182 627.147 131.182H625.687V134.402H627.087C627.384 134.402 627.682 134.364 627.98 134.289C628.282 134.209 628.533 134.057 628.733 133.835C628.938 133.613 629.04 133.284 629.04 132.849Z" fill="#25855A"/>
<path d="M88.4546 82.4619L179.098 82.4619" stroke="#467B95" stroke-width="2" stroke-dasharray="4 4"/>
<path d="M350.063 70.5796H397.726C404.353 70.5796 409.726 65.207 409.726 58.5796V46.5703C409.726 39.9429 415.098 34.5703 421.726 34.5703H474.361" stroke="#AF9200" stroke-width="2"/>
<path d="M350.063 70.5796H397.726C404.353 70.5796 409.726 65.207 409.726 58.5796V46.5703C409.726 39.9429 415.098 34.5703 421.726 34.5703H474.361" stroke="#AF9200" stroke-width="2"/>
<path d="M350.063 94.5698H397.726C404.353 94.5698 409.726 99.9424 409.726 106.57V118.579C409.726 125.207 415.098 130.579 421.726 130.579H474.361" stroke="#25855A" stroke-width="2"/>
<defs>
<clipPath id="clip0_451_2324">
<rect width="16" height="16" fill="white" transform="translate(14.8398 83.9629)"/>
</clipPath>
<clipPath id="clip1_451_2324">
<rect width="13.3333" height="13.3333" fill="white" transform="translate(37.5065 85.2969)"/>
</clipPath>
<clipPath id="clip2_451_2324">
<rect width="16" height="16" fill="white" transform="translate(58.8398 83.9629)"/>
</clipPath>
<clipPath id="clip3_451_2324">
<rect width="16" height="16" fill="white" transform="translate(196.782 74.8945)"/>
</clipPath>
<clipPath id="clip4_451_2324">
<rect width="16" height="16" fill="white" transform="translate(524.256 29.2666)"/>
</clipPath>
<clipPath id="clip5_451_2324">
<rect width="16" height="16" fill="white" transform="translate(524.256 123.462)"/>
</clipPath>
</defs>
</svg>
