<svg version="1.1" viewBox="0.0 0.0 524.1443569553805 357.4278215223097" fill="white" stroke="none"
     stroke-linecap="square" stroke-miterlimit="10"
     xmlns="http://www.w3.org/2000/svg">
    <rect width="100%" height="100%" fill="white"/>
    <clipPath id="p.0">
        <path d="m0 0l524.14435 0l0 357.42783l-524.14435 0l0 -357.42783z" clip-rule="nonzero"/>
    </clipPath>
    <g clip-path="url(#p.0)">
        <path fill="#000000" fill-opacity="0.0" d="m0 0l524.14435 0l0 357.42783l-524.14435 0z" fill-rule="evenodd"/>
        <path fill="#000000" fill-opacity="0.0"
              d="m224.0 95.27084l0 0c0 -13.965401 11.3211975 -25.28659 25.28659 -25.28659l101.14334 0l0 0c6.706421 0 13.138184 2.664116 17.88034 7.406273c4.742157 4.742157 7.40625 11.173897 7.40625 17.880318l0 141.42682c0 13.965393 -11.321167 25.28659 -25.28659 25.28659l-101.14334 0c-13.965393 0 -25.28659 -11.3211975 -25.28659 -25.28659z"
              fill-rule="evenodd"/>
        <path stroke="#000000" stroke-width="1.0" stroke-linejoin="round" stroke-linecap="butt"
              d="m224.0 95.27084l0 0c0 -13.965401 11.3211975 -25.28659 25.28659 -25.28659l101.14334 0l0 0c6.706421 0 13.138184 2.664116 17.88034 7.406273c4.742157 4.742157 7.40625 11.173897 7.40625 17.880318l0 141.42682c0 13.965393 -11.321167 25.28659 -25.28659 25.28659l-101.14334 0c-13.965393 0 -25.28659 -11.3211975 -25.28659 -25.28659z"
              fill-rule="evenodd"/>
        <path fill="#000000" fill-opacity="0.0"
              d="m92.47507 142.31117l0 0c0 -4.038574 3.2739105 -7.3124847 7.312477 -7.3124847l105.94196 0c1.9393921 0 3.799347 0.77041626 5.1707153 2.1417694c1.3713531 1.3713684 2.1417694 3.2313232 2.1417694 5.1707153l0 29.249054c0 4.038574 -3.2739105 7.3124695 -7.3124847 7.3124695l-105.94196 0c-4.0385666 0 -7.312477 -3.2738953 -7.312477 -7.3124695z"
              fill-rule="evenodd"/>
        <path stroke="#000000" stroke-width="1.0" stroke-linejoin="round" stroke-linecap="butt"
              d="m92.47507 142.31117l0 0c0 -4.038574 3.2739105 -7.3124847 7.312477 -7.3124847l105.94196 0c1.9393921 0 3.799347 0.77041626 5.1707153 2.1417694c1.3713531 1.3713684 2.1417694 3.2313232 2.1417694 5.1707153l0 29.249054c0 4.038574 -3.2739105 7.3124695 -7.3124847 7.3124695l-105.94196 0c-4.0385666 0 -7.312477 -3.2738953 -7.312477 -7.3124695z"
              fill-rule="evenodd"/>
        <path fill="#000000" fill-opacity="0.0"
              d="m275.87653 97.73951l0 0c0 -1.8235931 1.4783325 -3.3019104 3.3019104 -3.3019104l44.892273 0c0.8757019 0 1.7155457 0.34788513 2.3347778 0.9671097c0.6192322 0.61922455 0.96710205 1.4590759 0.96710205 2.3348007l0 13.207214c0 1.8235931 -1.478302 3.3019028 -3.30188 3.3019028l-44.892273 0l0 0c-1.8235779 0 -3.3019104 -1.4783096 -3.3019104 -3.3019028z"
              fill-rule="evenodd"/>
        <path stroke="#000000" stroke-width="1.0" stroke-linejoin="round" stroke-linecap="butt"
              d="m275.87653 97.73951l0 0c0 -1.8235931 1.4783325 -3.3019104 3.3019104 -3.3019104l44.892273 0c0.8757019 0 1.7155457 0.34788513 2.3347778 0.9671097c0.6192322 0.61922455 0.96710205 1.4590759 0.96710205 2.3348007l0 13.207214c0 1.8235931 -1.478302 3.3019028 -3.30188 3.3019028l-44.892273 0l0 0c-1.8235779 0 -3.3019104 -1.4783096 -3.3019104 -3.3019028z"
              fill-rule="evenodd"/>
        <path fill="#000000"
              d="m289.08746 105.17937l0.71875 -0.0625q0.046875 0.4375 0.234375 0.71875q0.1875 0.265625 0.578125 0.4375q0.390625 0.171875 0.875 0.171875q0.4375 0 0.765625 -0.125q0.328125 -0.140625 0.484375 -0.359375q0.171875 -0.234375 0.171875 -0.5q0 -0.265625 -0.15625 -0.46875q-0.15625 -0.203125 -0.515625 -0.328125q-0.234375 -0.09375 -1.03125 -0.28125q-0.78125 -0.1875 -1.09375 -0.359375q-0.40625 -0.21875 -0.609375 -0.53125q-0.203125 -0.328125 -0.203125 -0.71875q0 -0.4375 0.25 -0.8125q0.25 -0.375 0.71875 -0.5625q0.46875 -0.203125 1.046875 -0.203125q0.640625 0 1.125 0.203125q0.484375 0.203125 0.75 0.609375q0.265625 0.390625 0.28125 0.90625l-0.734375 0.046875q-0.046875 -0.546875 -0.390625 -0.8125q-0.34375 -0.28125 -1.0 -0.28125q-0.6875 0 -1.0 0.25q-0.3125 0.25 -0.3125 0.609375q0 0.3125 0.21875 0.5q0.21875 0.203125 1.140625 0.421875q0.921875 0.203125 1.265625 0.359375q0.5 0.234375 0.734375 0.59375q0.25 0.34375 0.25 0.796875q0 0.46875 -0.265625 0.875q-0.265625 0.390625 -0.75 0.625q-0.484375 0.21875 -1.109375 0.21875q-0.765625 0 -1.296875 -0.21875q-0.53125 -0.234375 -0.828125 -0.6875q-0.296875 -0.453125 -0.3125 -1.03125zm7.0390625 1.21875l0.109375 0.609375q-0.296875 0.078125 -0.53125 0.078125q-0.390625 0 -0.609375 -0.125q-0.203125 -0.125 -0.296875 -0.3125q-0.078125 -0.203125 -0.078125 -0.84375l0 -2.390625l-0.515625 0l0 -0.546875l0.515625 0l0 -1.015625l0.703125 -0.421875l0 1.4375l0.703125 0l0 0.546875l-0.703125 0l0 2.4375q0 0.296875 0.03125 0.390625q0.046875 0.078125 0.125 0.125q0.078125 0.046875 0.234375 0.046875q0.125 0 0.3125 -0.015625zm3.3945312 0.109375q-0.390625 0.328125 -0.75 0.46875q-0.359375 0.140625 -0.78125 0.140625q-0.671875 0 -1.046875 -0.328125q-0.359375 -0.34375 -0.359375 -0.859375q0 -0.3125 0.125 -0.5625q0.140625 -0.25 0.359375 -0.390625q0.234375 -0.15625 0.515625 -0.234375q0.203125 -0.0625 0.625 -0.109375q0.859375 -0.109375 1.25 -0.25q0.015625 -0.140625 0.015625 -0.171875q0 -0.4375 -0.203125 -0.609375q-0.265625 -0.234375 -0.796875 -0.234375q-0.5 0 -0.734375 0.171875q-0.234375 0.171875 -0.359375 0.609375l-0.6875 -0.09375q0.09375 -0.4375 0.3125 -0.703125q0.21875 -0.28125 0.625 -0.421875q0.40625 -0.15625 0.9375 -0.15625q0.53125 0 0.859375 0.125q0.34375 0.125 0.5 0.328125q0.15625 0.1875 0.21875 0.46875q0.03125 0.1875 0.03125 0.65625l0 0.9375q0 0.96875 0.046875 1.234375q0.046875 0.265625 0.171875 0.5l-0.734375 0q-0.109375 -0.21875 -0.140625 -0.515625zm-0.0625 -1.5625q-0.375 0.15625 -1.140625 0.265625q-0.4375 0.0625 -0.625 0.140625q-0.171875 0.078125 -0.265625 0.234375q-0.09375 0.140625 -0.09375 0.328125q0 0.28125 0.203125 0.46875q0.21875 0.1875 0.625 0.1875q0.40625 0 0.71875 -0.171875q0.328125 -0.1875 0.46875 -0.5q0.109375 -0.234375 0.109375 -0.703125l0 -0.25zm1.7929688 2.078125l0 -4.15625l0.640625 0l0 0.640625q0.234375 -0.453125 0.4375 -0.59375q0.21875 -0.140625 0.453125 -0.140625q0.359375 0 0.734375 0.234375l-0.25 0.65625q-0.25 -0.15625 -0.515625 -0.15625q-0.234375 0 -0.421875 0.140625q-0.171875 0.140625 -0.25 0.375q-0.125 0.375 -0.125 0.828125l0 2.171875l-0.703125 0zm4.2109375 -0.625l0.109375 0.609375q-0.296875 0.078125 -0.53125 0.078125q-0.390625 0 -0.609375 -0.125q-0.203125 -0.125 -0.296875 -0.3125q-0.078125 -0.203125 -0.078125 -0.84375l0 -2.390625l-0.515625 0l0 -0.546875l0.515625 0l0 -1.015625l0.703125 -0.421875l0 1.4375l0.703125 0l0 0.546875l-0.703125 0l0 2.4375q0 0.296875 0.03125 0.390625q0.046875 0.078125 0.125 0.125q0.078125 0.046875 0.234375 0.046875q0.125 0 0.3125 -0.015625zm3.4101562 0.625l0 -0.609375q-0.484375 0.703125 -1.3125 0.703125q-0.375 0 -0.703125 -0.140625q-0.3125 -0.140625 -0.46875 -0.34375q-0.140625 -0.21875 -0.203125 -0.53125q-0.046875 -0.203125 -0.046875 -0.65625l0 -2.578125l0.703125 0l0 2.3125q0 0.546875 0.046875 0.734375q0.0625 0.28125 0.265625 0.4375q0.21875 0.15625 0.546875 0.15625q0.3125 0 0.578125 -0.15625q0.28125 -0.171875 0.390625 -0.4375q0.125 -0.28125 0.125 -0.8125l0 -2.234375l0.703125 0l0 4.15625l-0.625 0zm1.7304688 1.59375l0 -5.75l0.640625 0l0 0.546875q0.21875 -0.3125 0.5 -0.46875q0.296875 -0.171875 0.703125 -0.171875q0.53125 0 0.9375 0.28125q0.40625 0.265625 0.609375 0.765625q0.203125 0.5 0.203125 1.09375q0 0.640625 -0.234375 1.15625q-0.21875 0.5 -0.65625 0.78125q-0.4375 0.265625 -0.90625 0.265625q-0.359375 0 -0.640625 -0.140625q-0.28125 -0.15625 -0.453125 -0.390625l0 2.03125l-0.703125 0zm0.640625 -3.640625q0 0.796875 0.3125 1.1875q0.328125 0.375 0.796875 0.375q0.46875 0 0.796875 -0.390625q0.328125 -0.40625 0.328125 -1.234375q0 -0.796875 -0.328125 -1.1875q-0.3125 -0.390625 -0.765625 -0.390625q-0.453125 0 -0.796875 0.421875q-0.34375 0.40625 -0.34375 1.21875z"
              fill-rule="nonzero"/>
        <path fill="#000000" fill-opacity="0.0"
              d="m58.72441 156.962c8.385826 0 12.578735 0.023620605 16.771652 0.04724121c4.192917 0.023620605 8.385826 0.04724121 16.771652 0.04724121"
              fill-rule="evenodd"/>
        <path stroke="#000000" stroke-width="1.0" stroke-linejoin="round" stroke-linecap="butt"
              d="m58.72441 156.962c8.385826 0 12.578735 0.023620605 16.771652 0.04724121c4.192917 0.023620605 8.385826 0.04724121 16.771652 0.04724121"
              fill-rule="evenodd"/>
        <path fill="#cfe2f3"
              d="m104.91863 150.9357l6.0 0l0 -6.0l12.0 0l0 6.0l6.0000076 0l0 12.0l-6.0000076 0l0 6.0l-12.0 0l0 -6.0l-6.0 0z"
              fill-rule="evenodd"/>
        <path stroke="#000000" stroke-width="1.0" stroke-linejoin="round" stroke-linecap="butt"
              d="m104.91863 150.9357l6.0 0l0 -6.0l12.0 0l0 6.0l6.0000076 0l0 12.0l-6.0000076 0l0 6.0l-12.0 0l0 -6.0l-6.0 0z"
              fill-rule="evenodd"/>
        <path fill="#cfe2f3" d="m141.3622 144.9357l24.0 0l0 24.0l-24.0 0z" fill-rule="evenodd"/>
        <path stroke="#000000" stroke-width="1.0" stroke-linejoin="round" stroke-linecap="butt"
              d="m141.3622 144.9357l24.0 0l0 24.0l-24.0 0z" fill-rule="evenodd"/>
        <path fill="#cfe2f3" d="m34.72441 90.34777l24.0 0l0 24.0l-24.0 0z" fill-rule="evenodd"/>
        <path stroke="#000000" stroke-width="1.0" stroke-linejoin="round" stroke-linecap="butt"
              d="m34.72441 90.34777l24.0 0l0 24.0l-24.0 0z" fill-rule="evenodd"/>
        <path fill="#000000" fill-opacity="0.0"
              d="m92.47507 156.9357c-8.4377365 0 -12.655006 -13.645676 -16.875473 -27.291336c-4.2204742 -13.645676 -8.444153 -27.291344 -16.88831 -27.291344"
              fill-rule="evenodd"/>
        <path stroke="#000000" stroke-width="1.0" stroke-linejoin="round" stroke-linecap="butt"
              d="m92.47507 156.9357c-8.4377365 0 -12.655006 -13.645676 -16.875473 -27.291336c-4.2204742 -13.645676 -8.444153 -27.291344 -16.88831 -27.291344"
              fill-rule="evenodd"/>
        <path fill="#cfe2f3"
              d="m34.72441 202.52362l5.7637787 0l0 -5.7637787l12.472439 0l0 5.7637787l5.7637825 0l0 11.527557l-5.7637825 0l0 5.7637787l-12.472439 0l0 -5.7637787l-5.7637787 0z"
              fill-rule="evenodd"/>
        <path stroke="#000000" stroke-width="1.0" stroke-linejoin="round" stroke-linecap="butt"
              d="m34.72441 202.52362l5.7637787 0l0 -5.7637787l12.472439 0l0 5.7637787l5.7637825 0l0 11.527557l-5.7637825 0l0 5.7637787l-12.472439 0l0 -5.7637787l-5.7637787 0z"
              fill-rule="evenodd"/>
        <path fill="#cfe2f3"
              d="m428.8714 221.98425l0 0c0 -6.627411 5.372589 -12.0 12.0 -12.0l0 0c3.1825867 0 6.234833 1.2642822 8.48526 3.5147247c2.2504578 2.2504272 3.51474 5.3026733 3.51474 8.485275l0 0c0 6.627411 -5.372589 12.0 -12.0 12.0l0 0c-6.627411 0 -12.0 -5.372589 -12.0 -12.0z"
              fill-rule="evenodd"/>
        <path stroke="#000000" stroke-width="1.0" stroke-linejoin="round" stroke-linecap="butt"
              d="m428.8714 221.98425l0 0c0 -6.627411 5.372589 -12.0 12.0 -12.0l0 0c3.1825867 0 6.234833 1.2642822 8.48526 3.5147247c2.2504578 2.2504272 3.51474 5.3026733 3.51474 8.485275l0 0c0 6.627411 -5.372589 12.0 -12.0 12.0l0 0c-6.627411 0 -12.0 -5.372589 -12.0 -12.0z"
              fill-rule="evenodd"/>
        <path fill="#000000" fill-opacity="0.0" d="m232.0 46.575993l90.299225 0l0 32.31496l-90.299225 0z"
              fill-rule="evenodd"/>
        <path fill="#000000"
              d="m241.48438 63.36287l0.953125 -0.078125q0.0625 0.5625 0.3125 0.9375q0.25 0.359375 0.765625 0.59375q0.515625 0.21875 1.171875 0.21875q0.578125 0 1.015625 -0.171875q0.4375 -0.171875 0.65625 -0.46875q0.21875 -0.296875 0.21875 -0.65625q0 -0.359375 -0.21875 -0.625q-0.203125 -0.265625 -0.671875 -0.4375q-0.3125 -0.125 -1.359375 -0.375q-1.046875 -0.25 -1.46875 -0.484375q-0.546875 -0.28125 -0.828125 -0.703125q-0.265625 -0.421875 -0.265625 -0.953125q0 -0.578125 0.328125 -1.078125q0.328125 -0.5 0.953125 -0.765625q0.640625 -0.265625 1.40625 -0.265625q0.84375 0 1.484375 0.28125q0.65625 0.265625 1.0 0.796875q0.359375 0.53125 0.390625 1.203125l-0.96875 0.078125q-0.078125 -0.71875 -0.53125 -1.09375q-0.453125 -0.375 -1.328125 -0.375q-0.921875 0 -1.34375 0.34375q-0.40625 0.328125 -0.40625 0.8125q0 0.40625 0.296875 0.671875q0.28125 0.265625 1.515625 0.546875q1.234375 0.28125 1.6875 0.484375q0.671875 0.3125 0.984375 0.78125q0.3125 0.46875 0.3125 1.078125q0 0.609375 -0.34375 1.15625q-0.34375 0.53125 -1.0 0.828125q-0.65625 0.296875 -1.46875 0.296875q-1.046875 0 -1.75 -0.296875q-0.6875 -0.296875 -1.09375 -0.90625q-0.390625 -0.609375 -0.40625 -1.375zm9.3732605 1.609375l0.125 0.828125q-0.390625 0.09375 -0.703125 0.09375q-0.5 0 -0.78125 -0.15625q-0.28125 -0.171875 -0.40625 -0.4375q-0.109375 -0.265625 -0.109375 -1.109375l0 -3.171875l-0.6875 0l0 -0.734375l0.6875 0l0 -1.359375l0.9375 -0.5625l0 1.921875l0.9375 0l0 0.734375l-0.9375 0l0 3.234375q0 0.390625 0.046875 0.515625q0.046875 0.109375 0.15625 0.1875q0.109375 0.0625 0.328125 0.0625q0.15625 0 0.40625 -0.046875zm4.5231476 0.15625q-0.53125 0.453125 -1.015625 0.640625q-0.46875 0.171875 -1.015625 0.171875q-0.921875 0 -1.40625 -0.4375q-0.484375 -0.453125 -0.484375 -1.140625q0 -0.40625 0.171875 -0.734375q0.1875 -0.34375 0.484375 -0.546875q0.3125 -0.203125 0.6875 -0.3125q0.265625 -0.0625 0.828125 -0.140625q1.125 -0.125 1.671875 -0.3125q0 -0.203125 0 -0.25q0 -0.578125 -0.265625 -0.8125q-0.359375 -0.3125 -1.0625 -0.3125q-0.65625 0 -0.984375 0.234375q-0.3125 0.234375 -0.453125 0.8125l-0.921875 -0.125q0.125 -0.578125 0.40625 -0.9375q0.296875 -0.375 0.828125 -0.5625q0.546875 -0.203125 1.25 -0.203125q0.71875 0 1.15625 0.171875q0.4375 0.171875 0.640625 0.421875q0.21876526 0.25 0.29689026 0.640625q0.046875 0.234375 0.046875 0.859375l0 1.25q0 1.296875 0.0625 1.65625q0.0625 0.34375 0.234375 0.65625l-0.96876526 0q-0.15625 -0.296875 -0.1875 -0.6875zm-0.078125 -2.078125q-0.515625 0.203125 -1.53125 0.34375q-0.578125 0.078125 -0.828125 0.1875q-0.234375 0.109375 -0.359375 0.3125q-0.125 0.1875 -0.125 0.4375q0 0.375 0.28125 0.625q0.28125 0.25 0.828125 0.25q0.53125 0 0.953125 -0.234375q0.421875 -0.234375 0.625 -0.65625q0.15625 -0.3125 0.15625 -0.9375l0 -0.328125zm4.4421234 1.921875l0.125 0.828125q-0.390625 0.09375 -0.703125 0.09375q-0.5 0 -0.78125 -0.15625q-0.28125 -0.171875 -0.40625 -0.4375q-0.109375 -0.265625 -0.109375 -1.109375l0 -3.171875l-0.6875 0l0 -0.734375l0.6875 0l0 -1.359375l0.9375 -0.5625l0 1.921875l0.9375 0l0 0.734375l-0.9375 0l0 3.234375q0 0.390625 0.046875 0.515625q0.046875 0.109375 0.15625 0.1875q0.109375 0.0625 0.328125 0.0625q0.15625 0 0.40625 -0.046875zm4.695038 -0.9375l0.96875 0.125q-0.234375 0.84375 -0.859375 1.3125q-0.609375 0.46875 -1.578125 0.46875q-1.203125 0 -1.921875 -0.75q-0.703125 -0.75 -0.703125 -2.09375q0 -1.390625 0.71875 -2.15625q0.71875 -0.78125 1.859375 -0.78125q1.109375 0 1.8125 0.765625q0.703125 0.75 0.703125 2.125q0 0.078125 0 0.234375l-4.125 0q0.046875 0.921875 0.515625 1.40625q0.46875 0.484375 1.15625 0.484375q0.515625 0 0.875 -0.265625q0.359375 -0.28125 0.578125 -0.875zm-3.078125 -1.515625l3.09375 0q-0.0625 -0.6875 -0.359375 -1.046875q-0.453125 -0.53125 -1.15625 -0.53125q-0.640625 0 -1.09375 0.4375q-0.4375 0.421875 -0.484375 1.140625zm8.184021 3.296875l0 -5.53125l0.84375 0l0 0.78125q0.25 -0.40625 0.6875 -0.65625q0.4375 -0.25 0.984375 -0.25q0.609375 0 1.0 0.265625q0.390625 0.25 0.5625 0.703125q0.65625 -0.96875 1.703125 -0.96875q0.828125 0 1.265625 0.46875q0.4375 0.453125 0.4375 1.390625l0 3.796875l-0.921875 0l0 -3.484375q0 -0.5625 -0.09375 -0.796875q-0.09375 -0.25 -0.34375 -0.40625q-0.234375 -0.15625 -0.546875 -0.15625q-0.59375 0 -0.984375 0.390625q-0.375 0.390625 -0.375 1.25l0 3.203125l-0.9375 0l0 -3.59375q0 -0.625 -0.234375 -0.9375q-0.21875 -0.3125 -0.75 -0.3125q-0.390625 0 -0.734375 0.21875q-0.328125 0.203125 -0.484375 0.609375q-0.140625 0.390625 -0.140625 1.15625l0 2.859375l-0.9375 0zm12.486084 -0.6875q-0.53125 0.453125 -1.015625 0.640625q-0.46875 0.171875 -1.015625 0.171875q-0.921875 0 -1.40625 -0.4375q-0.484375 -0.453125 -0.484375 -1.140625q0 -0.40625 0.171875 -0.734375q0.1875 -0.34375 0.484375 -0.546875q0.3125 -0.203125 0.6875 -0.3125q0.265625 -0.0625 0.828125 -0.140625q1.125 -0.125 1.671875 -0.3125q0 -0.203125 0 -0.25q0 -0.578125 -0.265625 -0.8125q-0.359375 -0.3125 -1.0625 -0.3125q-0.65625 0 -0.984375 0.234375q-0.3125 0.234375 -0.453125 0.8125l-0.921875 -0.125q0.125 -0.578125 0.40625 -0.9375q0.296875 -0.375 0.828125 -0.5625q0.546875 -0.203125 1.25 -0.203125q0.71875 0 1.15625 0.171875q0.4375 0.171875 0.640625 0.421875q0.21875 0.25 0.296875 0.640625q0.046875 0.234375 0.046875 0.859375l0 1.25q0 1.296875 0.0625 1.65625q0.0625 0.34375 0.234375 0.65625l-0.96875 0q-0.15625 -0.296875 -0.1875 -0.6875zm-0.078125 -2.078125q-0.515625 0.203125 -1.53125 0.34375q-0.578125 0.078125 -0.828125 0.1875q-0.234375 0.109375 -0.359375 0.3125q-0.125 0.1875 -0.125 0.4375q0 0.375 0.28125 0.625q0.28125 0.25 0.828125 0.25q0.53125 0 0.953125 -0.234375q0.421875 -0.234375 0.625 -0.65625q0.15625 -0.3125 0.15625 -0.9375l0 -0.328125zm6.0046387 0.734375l0.921875 0.125q-0.15625 0.953125 -0.78125 1.5q-0.625 0.53125 -1.53125 0.53125q-1.125 0 -1.8125 -0.734375q-0.6875 -0.75 -0.6875 -2.125q0 -0.90625 0.296875 -1.578125q0.296875 -0.671875 0.890625 -1.0q0.609375 -0.34375 1.328125 -0.34375q0.890625 0 1.46875 0.46875q0.578125 0.453125 0.734375 1.28125l-0.90625 0.140625q-0.140625 -0.546875 -0.46875 -0.828125q-0.328125 -0.28125 -0.796875 -0.28125q-0.703125 0 -1.15625 0.515625q-0.4375 0.5 -0.4375 1.59375q0 1.109375 0.421875 1.625q0.4375 0.5 1.125 0.5q0.546875 0 0.90625 -0.34375q0.375 -0.34375 0.484375 -1.046875zm1.71875 2.03125l0 -7.625l0.9375 0l0 2.734375q0.65625 -0.765625 1.65625 -0.765625q0.609375 0 1.0625 0.25q0.453125 0.234375 0.640625 0.671875q0.203125 0.421875 0.203125 1.234375l0 3.5l-0.9375 0l0 -3.5q0 -0.703125 -0.3125 -1.015625q-0.296875 -0.328125 -0.859375 -0.328125q-0.40625 0 -0.78125 0.21875q-0.359375 0.21875 -0.515625 0.59375q-0.15625 0.359375 -0.15625 1.015625l0 3.015625l-0.9375 0zm5.9265137 -6.546875l0 -1.078125l0.9375 0l0 1.078125l-0.9375 0zm0 6.546875l0 -5.53125l0.9375 0l0 5.53125l-0.9375 0zm2.3674622 0l0 -5.53125l0.84375 0l0 0.796875q0.609375 -0.921875 1.75 -0.921875q0.5 0 0.921875 0.1875q0.421875 0.171875 0.625 0.46875q0.21875 0.296875 0.296875 0.6875q0.046875 0.265625 0.046875 0.921875l0 3.390625l-0.9375 0l0 -3.359375q0 -0.578125 -0.109375 -0.859375q-0.109375 -0.28125 -0.390625 -0.453125q-0.265625 -0.171875 -0.640625 -0.171875q-0.59375 0 -1.03125 0.390625q-0.4375 0.375 -0.4375 1.4375l0 3.015625l-0.9375 0zm9.707733 -1.78125l0.96875 0.125q-0.234375 0.84375 -0.859375 1.3125q-0.609375 0.46875 -1.578125 0.46875q-1.203125 0 -1.921875 -0.75q-0.703125 -0.75 -0.703125 -2.09375q0 -1.390625 0.71875 -2.15625q0.71875 -0.78125 1.859375 -0.78125q1.109375 0 1.8125 0.765625q0.703125 0.75 0.703125 2.125q0 0.078125 0 0.234375l-4.125 0q0.046875 0.921875 0.515625 1.40625q0.46875 0.484375 1.15625 0.484375q0.515625 0 0.875 -0.265625q0.359375 -0.28125 0.578125 -0.875zm-3.078125 -1.515625l3.09375 0q-0.0625 -0.6875 -0.359375 -1.046875q-0.453125 -0.53125 -1.15625 -0.53125q-0.640625 0 -1.09375 0.4375q-0.4375 0.421875 -0.484375 1.140625z"
              fill-rule="nonzero"/>
        <path fill="#000000" fill-opacity="0.0" d="m24.580053 56.468502l72.0 0l0 32.31496l-72.0 0z"
              fill-rule="evenodd"/>
        <path fill="#000000"
              d="m39.845676 73.03663l1.015625 0.25q-0.328125 1.25 -1.15625 1.90625q-0.8125 0.640625 -2.015625 0.640625q-1.234375 0 -2.0 -0.5q-0.765625 -0.5 -1.171875 -1.453125q-0.40625 -0.953125 -0.40625 -2.046875q0 -1.1875 0.453125 -2.078125q0.453125 -0.890625 1.296875 -1.34375q0.84375 -0.46875 1.84375 -0.46875q1.15625 0 1.9375 0.59375q0.78125 0.578125 1.078125 1.640625l-0.984375 0.234375q-0.265625 -0.84375 -0.78125 -1.21875q-0.5 -0.375 -1.265625 -0.375q-0.875 0 -1.46875 0.421875q-0.59375 0.421875 -0.828125 1.140625q-0.234375 0.703125 -0.234375 1.453125q0 0.96875 0.28125 1.703125q0.28125 0.71875 0.875 1.078125q0.59375 0.359375 1.296875 0.359375q0.84375 0 1.4375 -0.484375q0.59375 -0.5 0.796875 -1.453125zm1.7893524 -0.09375q0 -1.53125 0.84375 -2.265625q0.71875 -0.625 1.734375 -0.625q1.140625 0 1.859375 0.75q0.734375 0.75 0.734375 2.0625q0 1.0625 -0.328125 1.6875q-0.3125 0.609375 -0.921875 0.953125q-0.609375 0.328125 -1.34375 0.328125q-1.15625 0 -1.875 -0.734375q-0.703125 -0.75 -0.703125 -2.15625zm0.953125 0q0 1.0625 0.46875 1.59375q0.46875 0.53125 1.15625 0.53125q0.703125 0 1.15625 -0.53125q0.46875 -0.53125 0.46875 -1.625q0 -1.015625 -0.46875 -1.546875q-0.453125 -0.53125 -1.15625 -0.53125q-0.6875 0 -1.15625 0.53125q-0.46875 0.515625 -0.46875 1.578125zm5.3171234 2.765625l0 -5.53125l0.84375 0l0 0.796875q0.609375 -0.921875 1.75 -0.921875q0.5 0 0.921875 0.1875q0.421875 0.171875 0.625 0.46875q0.21875 0.296875 0.296875 0.6875q0.046875 0.265625 0.046875 0.921875l0 3.390625l-0.9375 0l0 -3.359375q0 -0.578125 -0.109375 -0.859375q-0.109375 -0.28125 -0.390625 -0.453125q-0.265625 -0.171875 -0.640625 -0.171875q-0.59375 0 -1.03125 0.390625q-0.4375 0.375 -0.4375 1.4375l0 3.015625l-0.9375 0zm6.1452484 0l0 -4.796875l-0.828125 0l0 -0.734375l0.828125 0l0 -0.578125q0 -0.5625 0.109375 -0.828125q0.125 -0.375 0.46875 -0.59375q0.34375 -0.234375 0.953125 -0.234375q0.390625 0 0.875 0.09375l-0.140625 0.828125q-0.296875 -0.0625 -0.546875 -0.0625q-0.421875 0 -0.609375 0.1875q-0.171875 0.1875 -0.171875 0.6875l0 0.5l1.078125 0l0 0.734375l-1.078125 0l0 4.796875l-0.9375 0zm2.7418976 -6.546875l0 -1.078125l0.9375 0l0 1.078125l-0.9375 0zm0 6.546875l0 -5.53125l0.9375 0l0 5.53125l-0.9375 0zm2.1956024 0.453125l0.90625 0.140625q0.0625 0.421875 0.328125 0.609375q0.34375 0.265625 0.9375 0.265625q0.65625 0 1.0 -0.265625q0.359375 -0.25 0.484375 -0.71875q0.078125 -0.296875 0.078125 -1.203125q-0.625 0.71875 -1.53125 0.71875q-1.140625 0 -1.765625 -0.8125q-0.625 -0.828125 -0.625 -1.984375q0 -0.78125 0.28125 -1.453125q0.296875 -0.671875 0.828125 -1.03125q0.546875 -0.375 1.28125 -0.375q0.984375 0 1.609375 0.796875l0 -0.671875l0.875 0l0 4.78125q0 1.296875 -0.265625 1.828125q-0.265625 0.546875 -0.84375 0.859375q-0.5625 0.3125 -1.390625 0.3125q-0.984375 0 -1.59375 -0.453125q-0.609375 -0.4375 -0.59375 -1.34375zm0.78125 -3.3125q0 1.078125 0.421875 1.578125q0.4375 0.5 1.078125 0.5q0.65625 0 1.09375 -0.484375q0.4375 -0.5 0.4375 -1.5625q0 -1.015625 -0.453125 -1.53125q-0.453125 -0.515625 -1.09375 -0.515625q-0.609375 0 -1.046875 0.515625q-0.4375 0.5 -0.4375 1.5z"
              fill-rule="nonzero"/>
        <path fill="#000000" fill-opacity="0.0" d="m415.78152 183.00525l72.0 0l0 32.314957l-72.0 0z"
              fill-rule="evenodd"/>
        <path fill="#000000"
              d="m425.29715 198.5265q0 -1.890625 1.015625 -2.96875q1.03125 -1.078125 2.640625 -1.078125q1.046875 0 1.890625 0.515625q0.859375 0.5 1.296875 1.40625q0.453125 0.890625 0.453125 2.046875q0 1.15625 -0.46875 2.078125q-0.46875 0.90625 -1.328125 1.375q-0.859375 0.46875 -1.859375 0.46875q-1.078125 0 -1.921875 -0.515625q-0.84375 -0.515625 -1.28125 -1.40625q-0.4375 -0.90625 -0.4375 -1.921875zm1.046875 0.015625q0 1.375 0.734375 2.171875q0.734375 0.796875 1.859375 0.796875q1.140625 0 1.875 -0.796875q0.734375 -0.8125 0.734375 -2.28125q0 -0.921875 -0.3125 -1.609375q-0.3125 -0.703125 -0.921875 -1.078125q-0.609375 -0.390625 -1.359375 -0.390625q-1.078125 0 -1.84375 0.734375q-0.765625 0.734375 -0.765625 2.453125zm11.054413 3.703125l0 -0.8125q-0.65625 0.9375 -1.75 0.9375q-0.5 0 -0.921875 -0.1875q-0.421875 -0.1875 -0.625 -0.46875q-0.203125 -0.28125 -0.296875 -0.703125q-0.046875 -0.265625 -0.046875 -0.875l0 -3.421875l0.9375 0l0 3.0625q0 0.734375 0.046875 1.0q0.09375 0.359375 0.375 0.578125q0.296875 0.203125 0.703125 0.203125q0.421875 0 0.796875 -0.203125q0.375 -0.21875 0.515625 -0.59375q0.15625 -0.375 0.15625 -1.078125l0 -2.96875l0.9375 0l0 5.53125l-0.828125 0zm4.348358 -0.84375l0.125 0.828125q-0.390625 0.09375 -0.703125 0.09375q-0.5 0 -0.78125 -0.15625q-0.28125 -0.171875 -0.40625 -0.4375q-0.109375 -0.265625 -0.109375 -1.109375l0 -3.171875l-0.6875 0l0 -0.734375l0.6875 0l0 -1.359375l0.9375 -0.5625l0 1.921875l0.9375 0l0 0.734375l-0.9375 0l0 3.234375q0 0.390625 0.046875 0.515625q0.046875 0.109375 0.15625 0.1875q0.109375 0.0625 0.328125 0.0625q0.15625 0 0.40625 -0.046875zm0.91378784 2.96875l0 -7.65625l0.859375 0l0 0.71875q0.296875 -0.421875 0.671875 -0.625q0.390625 -0.21875 0.921875 -0.21875q0.703125 0 1.25 0.375q0.546875 0.359375 0.8125 1.03125q0.28125 0.65625 0.28125 1.453125q0 0.84375 -0.3125 1.53125q-0.296875 0.671875 -0.875 1.03125q-0.578125 0.359375 -1.21875 0.359375q-0.46875 0 -0.84375 -0.1875q-0.375 -0.203125 -0.609375 -0.515625l0 2.703125l-0.9375 0zm0.84375 -4.859375q0 1.0625 0.4375 1.578125q0.4375 0.515625 1.046875 0.515625q0.625 0 1.0625 -0.53125q0.453125 -0.53125 0.453125 -1.640625q0 -1.046875 -0.4375 -1.578125q-0.4375 -0.53125 -1.046875 -0.53125q-0.59375 0 -1.0625 0.5625q-0.453125 0.5625 -0.453125 1.625zm8.707733 2.734375l0 -0.8125q-0.65625 0.9375 -1.75 0.9375q-0.5 0 -0.921875 -0.1875q-0.421875 -0.1875 -0.625 -0.46875q-0.203125 -0.28125 -0.296875 -0.703125q-0.046875 -0.265625 -0.046875 -0.875l0 -3.421875l0.9375 0l0 3.0625q0 0.734375 0.046875 1.0q0.09375 0.359375 0.375 0.578125q0.296875 0.203125 0.703125 0.203125q0.421875 0 0.796875 -0.203125q0.375 -0.21875 0.515625 -0.59375q0.15625 -0.375 0.15625 -1.078125l0 -2.96875l0.9375 0l0 5.53125l-0.828125 0zm4.3483887 -0.84375l0.125 0.828125q-0.390625 0.09375 -0.703125 0.09375q-0.5 0 -0.78125 -0.15625q-0.28125 -0.171875 -0.40625 -0.4375q-0.109375 -0.265625 -0.109375 -1.109375l0 -3.171875l-0.6875 0l0 -0.734375l0.6875 0l0 -1.359375l0.9375 -0.5625l0 1.921875l0.9375 0l0 0.734375l-0.9375 0l0 3.234375q0 0.390625 0.046875 0.515625q0.046875 0.109375 0.15625 0.1875q0.109375 0.0625 0.328125 0.0625q0.15625 0 0.40625 -0.046875z"
              fill-rule="nonzero"/>
        <path fill="#000000" fill-opacity="0.0" d="m92.488106 285.98425l120.568 0" fill-rule="evenodd"/>
        <path stroke="#000000" stroke-width="1.0" stroke-linejoin="round" stroke-linecap="butt"
              d="m92.488106 285.98425l120.568 0" fill-rule="evenodd"/>
        <path fill="#000000" fill-opacity="0.0" d="m92.488106 277.98425l0 8.0" fill-rule="evenodd"/>
        <path stroke="#000000" stroke-width="1.0" stroke-linejoin="round" stroke-linecap="butt"
              d="m92.488106 277.98425l0 8.0" fill-rule="evenodd"/>
        <path fill="#000000" fill-opacity="0.0" d="m213.0561 277.98425l0 8.0" fill-rule="evenodd"/>
        <path stroke="#000000" stroke-width="1.0" stroke-linejoin="round" stroke-linecap="butt"
              d="m213.0561 277.98425l0 8.0" fill-rule="evenodd"/>
        <path fill="#000000" fill-opacity="0.0" d="m232.0 285.98425l136.0 0" fill-rule="evenodd"/>
        <path stroke="#000000" stroke-width="1.0" stroke-linejoin="round" stroke-linecap="butt"
              d="m232.0 285.98425l136.0 0" fill-rule="evenodd"/>
        <path fill="#000000" fill-opacity="0.0" d="m232.0 277.98425l0 8.0" fill-rule="evenodd"/>
        <path stroke="#000000" stroke-width="1.0" stroke-linejoin="round" stroke-linecap="butt"
              d="m232.0 277.98425l0 8.0" fill-rule="evenodd"/>
        <path fill="#000000" fill-opacity="0.0" d="m368.0 277.98425l0 8.0" fill-rule="evenodd"/>
        <path stroke="#000000" stroke-width="1.0" stroke-linejoin="round" stroke-linecap="butt"
              d="m368.0 277.98425l0 8.0" fill-rule="evenodd"/>
        <path fill="#000000" fill-opacity="0.0" d="m136.75754 293.98425l32.0 0l0 42.015747l-32.0 0z"
              fill-rule="evenodd"/>
        <path fill="#000000"
              d="m156.96031 319.3261l0 1.578125l-8.828125 0q-0.015625 -0.59375 0.1875 -1.140625q0.34375 -0.90625 1.078125 -1.78125q0.75 -0.875 2.15625 -2.015625q2.171875 -1.78125 2.9375 -2.828125q0.765625 -1.046875 0.765625 -1.96875q0 -0.984375 -0.703125 -1.640625q-0.6875 -0.671875 -1.8125 -0.671875q-1.1875 0 -1.90625 0.71875q-0.703125 0.703125 -0.703125 1.953125l-1.6875 -0.171875q0.171875 -1.890625 1.296875 -2.875q1.140625 -0.984375 3.03125 -0.984375q1.921875 0 3.046875 1.0625q1.125 1.0625 1.125 2.640625q0 0.796875 -0.328125 1.578125q-0.328125 0.78125 -1.09375 1.640625q-0.75 0.84375 -2.53125 2.34375q-1.46875 1.234375 -1.890625 1.6875q-0.421875 0.4375 -0.6875 0.875l6.546875 0z"
              fill-rule="nonzero"/>
        <path fill="#000000" fill-opacity="0.0" d="m284.6409 293.06036l32.0 0l0 42.015747l-32.0 0z"
              fill-rule="evenodd"/>
        <path fill="#000000"
              d="m296.23428 316.44913l1.640625 -0.21875q0.28125 1.40625 0.953125 2.015625q0.6875 0.609375 1.65625 0.609375q1.15625 0 1.953125 -0.796875q0.796875 -0.796875 0.796875 -1.984375q0 -1.125 -0.734375 -1.859375q-0.734375 -0.734375 -1.875 -0.734375q-0.46875 0 -1.15625 0.171875l0.1875 -1.4375q0.15625 0.015625 0.265625 0.015625q1.046875 0 1.875 -0.546875q0.84375 -0.546875 0.84375 -1.671875q0 -0.90625 -0.609375 -1.5q-0.609375 -0.59375 -1.578125 -0.59375q-0.953125 0 -1.59375 0.609375q-0.640625 0.59375 -0.8125 1.796875l-1.640625 -0.296875q0.296875 -1.640625 1.359375 -2.546875q1.0625 -0.90625 2.65625 -0.90625q1.09375 0 2.0 0.46875q0.921875 0.46875 1.40625 1.28125q0.5 0.8125 0.5 1.71875q0 0.859375 -0.46875 1.578125q-0.46875 0.703125 -1.375 1.125q1.1875 0.28125 1.84375 1.140625q0.65625 0.859375 0.65625 2.15625q0 1.734375 -1.28125 2.953125q-1.265625 1.21875 -3.21875 1.21875q-1.765625 0 -2.921875 -1.046875q-1.15625 -1.046875 -1.328125 -2.71875z"
              fill-rule="nonzero"/>
        <path fill="#cfe2f3"
              d="m34.72441 147.362l0 0c0 1.3254852 2.6862907 2.4000092 6.0 2.4000092c3.3137054 0 6.0 -1.0745239 6.0 -2.4000092l0 0c0 -1.3254852 2.6862907 -2.399994 6.0 -2.399994c3.3137054 0 6.0 1.0745087 6.0 2.399994l0 19.200012c0 -1.3254852 -2.6862946 -2.4000092 -6.0 -2.4000092c-3.3137093 0 -6.0 1.0745239 -6.0 2.4000092c0 1.32547 -2.6862946 2.399994 -6.0 2.399994c-3.3137093 0 -6.0 -1.0745239 -6.0 -2.399994z"
              fill-rule="evenodd"/>
        <path stroke="#000000" stroke-width="1.0" stroke-linejoin="round" stroke-linecap="butt"
              d="m34.72441 147.362l0 0c0 1.3254852 2.6862907 2.4000092 6.0 2.4000092c3.3137054 0 6.0 -1.0745239 6.0 -2.4000092l0 0c0 -1.3254852 2.6862907 -2.399994 6.0 -2.399994c3.3137054 0 6.0 1.0745087 6.0 2.399994l0 19.200012c0 -1.3254852 -2.6862946 -2.4000092 -6.0 -2.4000092c-3.3137093 0 -6.0 1.0745239 -6.0 2.4000092c0 1.32547 -2.6862946 2.399994 -6.0 2.399994c-3.3137093 0 -6.0 -1.0745239 -6.0 -2.399994z"
              fill-rule="evenodd"/>
        <path fill="#000000" fill-opacity="0.0" d="m30.015749 285.98425l40.0 0" fill-rule="evenodd"/>
        <path stroke="#000000" stroke-width="1.0" stroke-linejoin="round" stroke-linecap="butt"
              d="m30.015749 285.98425l40.0 0" fill-rule="evenodd"/>
        <path fill="#000000" fill-opacity="0.0" d="m30.015749 277.98425l0 8.0" fill-rule="evenodd"/>
        <path stroke="#000000" stroke-width="1.0" stroke-linejoin="round" stroke-linecap="butt"
              d="m30.015749 277.98425l0 8.0" fill-rule="evenodd"/>
        <path fill="#000000" fill-opacity="0.0" d="m70.01575 277.98425l0 8.0" fill-rule="evenodd"/>
        <path stroke="#000000" stroke-width="1.0" stroke-linejoin="round" stroke-linecap="butt"
              d="m70.01575 277.98425l0 8.0" fill-rule="evenodd"/>
        <path fill="#000000" fill-opacity="0.0" d="m34.014763 292.25198l32.0 0l0 42.015747l-32.0 0z"
              fill-rule="evenodd"/>
        <path fill="#000000"
              d="m51.78003 319.17197l-1.640625 0l0 -10.453125q-0.59375 0.5625 -1.5625 1.140625q-0.953125 0.5625 -1.71875 0.84375l0 -1.59375q1.375 -0.640625 2.40625 -1.5625q1.03125 -0.921875 1.453125 -1.78125l1.0625 0l0 13.40625z"
              fill-rule="nonzero"/>
        <path fill="#000000" fill-opacity="0.0" d="m424.0 285.98425l40.0 0" fill-rule="evenodd"/>
        <path stroke="#000000" stroke-width="1.0" stroke-linejoin="round" stroke-linecap="butt"
              d="m424.0 285.98425l40.0 0" fill-rule="evenodd"/>
        <path fill="#000000" fill-opacity="0.0" d="m424.0 277.98425l0 8.0" fill-rule="evenodd"/>
        <path stroke="#000000" stroke-width="1.0" stroke-linejoin="round" stroke-linecap="butt"
              d="m424.0 277.98425l0 8.0" fill-rule="evenodd"/>
        <path fill="#000000" fill-opacity="0.0" d="m464.0 277.98425l0 8.0" fill-rule="evenodd"/>
        <path stroke="#000000" stroke-width="1.0" stroke-linejoin="round" stroke-linecap="butt"
              d="m464.0 277.98425l0 8.0" fill-rule="evenodd"/>
        <path fill="#000000" fill-opacity="0.0" d="m428.9203 293.98425l32.0 0l0 42.015747l-32.0 0z"
              fill-rule="evenodd"/>
        <path fill="#000000"
              d="m440.51367 317.40424l1.71875 -0.140625q0.1875 1.25 0.875 1.890625q0.703125 0.625 1.6875 0.625q1.1875 0 2.0 -0.890625q0.828125 -0.890625 0.828125 -2.359375q0 -1.40625 -0.796875 -2.21875q-0.78125 -0.8125 -2.0625 -0.8125q-0.78125 0 -1.421875 0.359375q-0.640625 0.359375 -1.0 0.9375l-1.546875 -0.203125l1.296875 -6.859375l6.640625 0l0 1.5625l-5.328125 0l-0.71875 3.59375q1.203125 -0.84375 2.515625 -0.84375q1.75 0 2.953125 1.21875q1.203125 1.203125 1.203125 3.109375q0 1.8125 -1.046875 3.140625q-1.296875 1.625 -3.515625 1.625q-1.8125 0 -2.96875 -1.015625q-1.15625 -1.03125 -1.3125 -2.71875z"
              fill-rule="nonzero"/>
        <path fill="#000000" fill-opacity="0.0" d="m24.580053 123.08405l72.0 0l0 32.314964l-72.0 0z"
              fill-rule="evenodd"/>
        <path fill="#000000"
              d="m34.064426 139.87093l0.953125 -0.078125q0.0625 0.5625 0.3125 0.9375q0.25 0.359375 0.765625 0.59375q0.515625 0.21875 1.171875 0.21875q0.578125 0 1.015625 -0.171875q0.4375 -0.171875 0.65625 -0.46875q0.21875 -0.296875 0.21875 -0.65625q0 -0.359375 -0.21875 -0.625q-0.203125 -0.265625 -0.671875 -0.4375q-0.3125 -0.125 -1.359375 -0.375q-1.046875 -0.25 -1.46875 -0.484375q-0.546875 -0.28125 -0.828125 -0.703125q-0.265625 -0.421875 -0.265625 -0.953125q0 -0.578125 0.328125 -1.078125q0.328125 -0.5 0.953125 -0.765625q0.640625 -0.265625 1.40625 -0.265625q0.84375 0 1.484375 0.28125q0.65625 0.265625 1.0 0.796875q0.359375 0.53125 0.390625 1.203125l-0.96875 0.078125q-0.078125 -0.71875 -0.53125 -1.09375q-0.453125 -0.375 -1.328125 -0.375q-0.921875 0 -1.34375 0.34375q-0.40625 0.328125 -0.40625 0.8125q0 0.40625 0.296875 0.671875q0.28125 0.265625 1.515625 0.546875q1.234375 0.28125 1.6875 0.484375q0.671875 0.3125 0.984375 0.78125q0.3125 0.46875 0.3125 1.078125q0 0.609375 -0.34375 1.15625q-0.34375 0.53125 -1.0 0.828125q-0.65625 0.296875 -1.46875 0.296875q-1.046875 0 -1.75 -0.296875q-0.6875 -0.296875 -1.09375 -0.90625q-0.390625 -0.609375 -0.40625 -1.375zm10.9357605 0.421875l0.921875 0.125q-0.15625 0.953125 -0.78125 1.5q-0.625 0.53125 -1.53125 0.53125q-1.125 0 -1.8125 -0.734375q-0.6875 -0.75 -0.6875 -2.125q0 -0.90625 0.296875 -1.578125q0.296875 -0.671875 0.890625 -1.0q0.609375 -0.34375 1.328125 -0.34375q0.890625 0 1.46875 0.46875q0.578125 0.453125 0.734375 1.28125l-0.90625 0.140625q-0.140625 -0.546875 -0.46875 -0.828125q-0.328125 -0.28125 -0.796875 -0.28125q-0.703125 0 -1.15625 0.515625q-0.4375 0.5 -0.4375 1.59375q0 1.109375 0.421875 1.625q0.4375 0.5 1.125 0.5q0.546875 0 0.90625 -0.34375q0.375 -0.34375 0.484375 -1.046875zm1.71875 2.03125l0 -7.625l0.9375 0l0 2.734375q0.65625 -0.765625 1.65625 -0.765625q0.609375 0 1.0625 0.25q0.453125 0.234375 0.640625 0.671875q0.203125 0.421875 0.203125 1.234375l0 3.5l-0.9375 0l0 -3.5q0 -0.703125 -0.3125 -1.015625q-0.296875 -0.328125 -0.859375 -0.328125q-0.40625 0 -0.78125 0.21875q-0.359375 0.21875 -0.515625 0.59375q-0.15625 0.359375 -0.15625 1.015625l0 3.015625l-0.9375 0zm9.707748 -1.78125l0.96875 0.125q-0.234375 0.84375 -0.859375 1.3125q-0.609375 0.46875 -1.578125 0.46875q-1.203125 0 -1.921875 -0.75q-0.703125 -0.75 -0.703125 -2.09375q0 -1.390625 0.71875 -2.15625q0.71875 -0.78125 1.859375 -0.78125q1.109375 0 1.8125 0.765625q0.703125 0.75 0.703125 2.125q0 0.078125 0 0.234375l-4.125 0q0.046875 0.921875 0.515625 1.40625q0.46875 0.484375 1.15625 0.484375q0.515625 0 0.875 -0.265625q0.359375 -0.28125 0.578125 -0.875zm-3.078125 -1.515625l3.09375 0q-0.0625 -0.6875 -0.359375 -1.046875q-0.453125 -0.53125 -1.15625 -0.53125q-0.640625 0 -1.09375 0.4375q-0.4375 0.421875 -0.484375 1.140625zm5.2233734 3.296875l0 -5.53125l0.84375 0l0 0.78125q0.25 -0.40625 0.6875 -0.65625q0.4375 -0.25 0.984375 -0.25q0.609375 0 1.0 0.265625q0.390625 0.25 0.5625 0.703125q0.65625 -0.96875 1.7031288 -0.96875q0.828125 0 1.265625 0.46875q0.4375 0.453125 0.4375 1.390625l0 3.796875l-0.921875 0l0 -3.484375q0 -0.5625 -0.09375 -0.796875q-0.09375 -0.25 -0.34375 -0.40625q-0.234375 -0.15625 -0.546875 -0.15625q-0.5937538 0 -0.9843788 0.390625q-0.375 0.390625 -0.375 1.25l0 3.203125l-0.9375 0l0 -3.59375q0 -0.625 -0.234375 -0.9375q-0.21875 -0.3125 -0.75 -0.3125q-0.390625 0 -0.734375 0.21875q-0.328125 0.203125 -0.484375 0.609375q-0.140625 0.390625 -0.140625 1.15625l0 2.859375l-0.9375 0zm12.486118 -0.6875q-0.53125 0.453125 -1.015625 0.640625q-0.46875 0.171875 -1.015625 0.171875q-0.921875 0 -1.40625 -0.4375q-0.484375 -0.453125 -0.484375 -1.140625q0 -0.40625 0.171875 -0.734375q0.1875 -0.34375 0.484375 -0.546875q0.3125 -0.203125 0.6875 -0.3125q0.265625 -0.0625 0.828125 -0.140625q1.125 -0.125 1.671875 -0.3125q0 -0.203125 0 -0.25q0 -0.578125 -0.265625 -0.8125q-0.359375 -0.3125 -1.0625 -0.3125q-0.65625 0 -0.984375 0.234375q-0.3125 0.234375 -0.453125 0.8125l-0.921875 -0.125q0.125 -0.578125 0.40625 -0.9375q0.296875 -0.375 0.828125 -0.5625q0.546875 -0.203125 1.25 -0.203125q0.71875 0 1.15625 0.171875q0.4375 0.171875 0.640625 0.421875q0.21875 0.25 0.296875 0.640625q0.046875 0.234375 0.046875 0.859375l0 1.25q0 1.296875 0.0625 1.65625q0.0625 0.34375 0.234375 0.65625l-0.96875 0q-0.15625 -0.296875 -0.1875 -0.6875zm-0.078125 -2.078125q-0.515625 0.203125 -1.53125 0.34375q-0.578125 0.078125 -0.828125 0.1875q-0.234375 0.109375 -0.359375 0.3125q-0.125 0.1875 -0.125 0.4375q0 0.375 0.28125 0.625q0.28125 0.25 0.828125 0.25q0.53125 0 0.953125 -0.234375q0.421875 -0.234375 0.625 -0.65625q0.15625 -0.3125 0.15625 -0.9375l0 -0.328125z"
              fill-rule="nonzero"/>
        <path fill="#000000" fill-opacity="0.0" d="m24.580053 171.94388l72.0 0l0 32.314957l-72.0 0z"
              fill-rule="evenodd"/>
        <path fill="#000000"
              d="m34.064426 188.73076l0.953125 -0.078125q0.0625 0.5625 0.3125 0.9375q0.25 0.359375 0.765625 0.59375q0.515625 0.21875 1.171875 0.21875q0.578125 0 1.015625 -0.171875q0.4375 -0.171875 0.65625 -0.46875q0.21875 -0.296875 0.21875 -0.65625q0 -0.359375 -0.21875 -0.625q-0.203125 -0.265625 -0.671875 -0.4375q-0.3125 -0.125 -1.359375 -0.375q-1.046875 -0.25 -1.46875 -0.484375q-0.546875 -0.28125 -0.828125 -0.703125q-0.265625 -0.421875 -0.265625 -0.953125q0 -0.578125 0.328125 -1.078125q0.328125 -0.5 0.953125 -0.765625q0.640625 -0.265625 1.40625 -0.265625q0.84375 0 1.484375 0.28125q0.65625 0.265625 1.0 0.796875q0.359375 0.53125 0.390625 1.203125l-0.96875 0.078125q-0.078125 -0.71875 -0.53125 -1.09375q-0.453125 -0.375 -1.328125 -0.375q-0.921875 0 -1.34375 0.34375q-0.40625 0.328125 -0.40625 0.8125q0 0.40625 0.296875 0.671875q0.28125 0.265625 1.515625 0.546875q1.234375 0.28125 1.6875 0.484375q0.671875 0.3125 0.984375 0.78125q0.3125 0.46875 0.3125 1.078125q0 0.609375 -0.34375 1.15625q-0.34375 0.53125 -1.0 0.828125q-0.65625 0.296875 -1.46875 0.296875q-1.046875 0 -1.75 -0.296875q-0.6875 -0.296875 -1.09375 -0.90625q-0.390625 -0.609375 -0.40625 -1.375zm7.3263855 2.453125l0 -7.625l0.9375 0l0 2.734375q0.65625 -0.765625 1.65625 -0.765625q0.609375 0 1.0625 0.25q0.453125 0.234375 0.640625 0.671875q0.203125 0.421875 0.203125 1.234375l0 3.5l-0.9375 0l0 -3.5q0 -0.703125 -0.3125 -1.015625q-0.296875 -0.328125 -0.859375 -0.328125q-0.40625 0 -0.78125 0.21875q-0.359375 0.21875 -0.515625 0.59375q-0.15625 0.359375 -0.15625 1.015625l0 3.015625l-0.9375 0zm9.551498 0l0 -0.8125q-0.65625 0.9375 -1.75 0.9375q-0.5 0 -0.921875 -0.1875q-0.421875 -0.1875 -0.625 -0.46875q-0.203125 -0.28125 -0.296875 -0.703125q-0.046875 -0.265625 -0.046875 -0.875l0 -3.421875l0.9375 0l0 3.0625q0 0.734375 0.046875 1.0q0.09375 0.359375 0.375 0.578125q0.296875 0.203125 0.703125 0.203125q0.421875 0 0.796875 -0.203125q0.375 -0.21875 0.515625 -0.59375q0.15625 -0.375 0.15625 -1.078125l0 -2.96875l0.9375 0l0 5.53125l-0.828125 0zm4.3483734 -0.84375l0.125 0.828125q-0.390625 0.09375 -0.703125 0.09375q-0.5 0 -0.78125 -0.15625q-0.28125 -0.171875 -0.40625 -0.4375q-0.109375 -0.265625 -0.109375 -1.109375l0 -3.171875l-0.6875 0l0 -0.734375l0.6875 0l0 -1.359375l0.9375 -0.5625l0 1.921875l0.9375 0l0 0.734375l-0.9375 0l0 3.234375q0 0.390625 0.046875 0.515625q0.046875 0.109375 0.15625 0.1875q0.109375 0.0625 0.328125 0.0625q0.15625 0 0.40625 -0.046875zm4.4918976 0.84375l0 -0.703125q-0.515625 0.828125 -1.546875 0.828125q-0.65625 0 -1.21875 -0.359375q-0.546875 -0.375 -0.859375 -1.015625q-0.296875 -0.65625 -0.296875 -1.5q0 -0.828125 0.28125 -1.5q0.28125 -0.6875 0.828125 -1.046875q0.546875 -0.359375 1.234375 -0.359375q0.5 0 0.890625 0.21875q0.390625 0.203125 0.625 0.546875l0 -2.734375l0.9375 0l0 7.625l-0.875 0zm-2.953125 -2.75q0 1.046875 0.4375 1.578125q0.453125 0.53125 1.0625 0.53125q0.609375 0 1.03125 -0.5q0.4375 -0.515625 0.4375 -1.53125q0 -1.140625 -0.4375 -1.671875q-0.4375 -0.53125 -1.078125 -0.53125q-0.609375 0 -1.03125 0.515625q-0.421875 0.5 -0.421875 1.609375zm4.9577484 -0.015625q0 -1.53125 0.84375 -2.265625q0.71875 -0.625 1.7343788 -0.625q1.140625 0 1.859375 0.75q0.734375 0.75 0.734375 2.0625q0 1.0625 -0.328125 1.6875q-0.3125 0.609375 -0.921875 0.953125q-0.609375 0.328125 -1.34375 0.328125q-1.1562538 0 -1.8750038 -0.734375q-0.703125 -0.75 -0.703125 -2.15625zm0.953125 0q0 1.0625 0.46875 1.59375q0.46875 0.53125 1.1562538 0.53125q0.703125 0 1.15625 -0.53125q0.46875 -0.53125 0.46875 -1.625q0 -1.015625 -0.46875 -1.546875q-0.453125 -0.53125 -1.15625 -0.53125q-0.6875038 0 -1.1562538 0.53125q-0.46875 0.515625 -0.46875 1.578125zm6.332752 2.765625l-1.6875 -5.53125l0.96875 0l0.875 3.1875l0.328125 1.1875q0.03125 -0.078125 0.296875 -1.140625l0.875 -3.234375l0.953125 0l0.828125 3.203125l0.28125 1.0625l0.3125 -1.0625l0.953125 -3.203125l0.90625 0l-1.71875 5.53125l-0.984375 0l-0.875 -3.3125l-0.21875 -0.9375l-1.109375 4.25l-0.984375 0zm6.6799774 0l0 -5.53125l0.84375 0l0 0.796875q0.609375 -0.921875 1.75 -0.921875q0.5 0 0.921875 0.1875q0.421875 0.171875 0.625 0.46875q0.21875 0.296875 0.296875 0.6875q0.046875 0.265625 0.046875 0.921875l0 3.390625l-0.9375 0l0 -3.359375q0 -0.578125 -0.109375 -0.859375q-0.109375 -0.28125 -0.390625 -0.453125q-0.265625 -0.171875 -0.640625 -0.171875q-0.59375 0 -1.03125 0.390625q-0.4375 0.375 -0.4375 1.4375l0 3.015625l-0.9375 0z"
              fill-rule="nonzero"/>
        <path fill="#000000" fill-opacity="0.0"
              d="m58.72441 208.2874c8.4377365 0 12.654999 -12.8346405 16.875473 -25.669296c4.2204742 -12.8346405 8.444153 -25.669281 16.888306 -25.669281"
              fill-rule="evenodd"/>
        <path stroke="#000000" stroke-width="1.0" stroke-linejoin="round" stroke-linecap="butt"
              d="m58.72441 208.2874c8.4377365 0 12.654999 -12.8346405 16.875473 -25.669296c4.2204742 -12.8346405 8.444153 -25.669281 16.888306 -25.669281"
              fill-rule="evenodd"/>
        <path fill="#cfe2f3" d="m176.45932 144.9357l24.0 0l0 24.0l-24.0 0z" fill-rule="evenodd"/>
        <path stroke="#000000" stroke-width="1.0" stroke-linejoin="round" stroke-linecap="butt"
              d="m176.45932 144.9357l24.0 0l0 24.0l-24.0 0z" fill-rule="evenodd"/>
        <path fill="#000000" fill-opacity="0.0"
              d="m275.90802 137.834l0 0c0 -1.8235931 1.4783325 -3.3019104 3.3019104 -3.3019104l44.892273 0c0.8757019 0 1.7155457 0.34788513 2.3347778 0.96710205c0.6192322 0.6192322 0.96710205 1.4590912 0.96710205 2.3348083l0 13.207214c0 1.8235931 -1.478302 3.3018951 -3.30188 3.3018951l-44.892273 0l0 0c-1.8235779 0 -3.3019104 -1.478302 -3.3019104 -3.3018951z"
              fill-rule="evenodd"/>
        <path stroke="#000000" stroke-width="1.0" stroke-linejoin="round" stroke-linecap="butt"
              d="m275.90802 137.834l0 0c0 -1.8235931 1.4783325 -3.3019104 3.3019104 -3.3019104l44.892273 0c0.8757019 0 1.7155457 0.34788513 2.3347778 0.96710205c0.6192322 0.6192322 0.96710205 1.4590912 0.96710205 2.3348083l0 13.207214c0 1.8235931 -1.478302 3.3018951 -3.30188 3.3018951l-44.892273 0l0 0c-1.8235779 0 -3.3019104 -1.478302 -3.3019104 -3.3018951z"
              fill-rule="evenodd"/>
        <path fill="#000000"
              d="m287.38068 147.1176l0 -5.734375l2.546875 0q0.765625 0 1.15625 0.15625q0.40625 0.15625 0.640625 0.546875q0.234375 0.390625 0.234375 0.859375q0 0.609375 -0.390625 1.03125q-0.390625 0.421875 -1.21875 0.53125q0.296875 0.140625 0.453125 0.28125q0.34375 0.3125 0.640625 0.765625l0.984375 1.5625l-0.953125 0l-0.75 -1.1875q-0.328125 -0.515625 -0.546875 -0.78125q-0.21875 -0.28125 -0.390625 -0.390625q-0.171875 -0.109375 -0.34375 -0.15625q-0.125 -0.03125 -0.421875 -0.03125l-0.875 0l0 2.546875l-0.765625 0zm0.765625 -3.203125l1.625 0q0.515625 0 0.8125 -0.109375q0.296875 -0.109375 0.4375 -0.34375q0.15625 -0.234375 0.15625 -0.515625q0 -0.40625 -0.296875 -0.65625q-0.28125 -0.265625 -0.921875 -0.265625l-1.8125 0l0 1.890625zm7.6367188 3.203125l0 -0.609375q-0.484375 0.703125 -1.3125 0.703125q-0.375 0 -0.703125 -0.140625q-0.3125 -0.140625 -0.46875 -0.34375q-0.140625 -0.21875 -0.203125 -0.53125q-0.046875 -0.203125 -0.046875 -0.65625l0 -2.578125l0.703125 0l0 2.3125q0 0.546875 0.046875 0.734375q0.0625 0.28125 0.265625 0.4375q0.21875 0.15625 0.546875 0.15625q0.3125 0 0.578125 -0.15625q0.28125 -0.171875 0.390625 -0.4375q0.125 -0.28125 0.125 -0.8125l0 -2.234375l0.703125 0l0 4.15625l-0.625 0zm1.7304688 0l0 -4.15625l0.625 0l0 0.59375q0.46875 -0.6875 1.328125 -0.6875q0.375 0 0.6875 0.140625q0.3125 0.140625 0.46875 0.359375q0.15625 0.21875 0.21875 0.515625q0.046875 0.1875 0.046875 0.6875l0 2.546875l-0.703125 0l0 -2.53125q0 -0.421875 -0.09375 -0.625q-0.078125 -0.21875 -0.296875 -0.34375q-0.203125 -0.140625 -0.484375 -0.140625q-0.4375 0 -0.765625 0.296875q-0.328125 0.28125 -0.328125 1.078125l0 2.265625l-0.703125 0zm4.4492188 0l0 -4.15625l0.625 0l0 0.59375q0.46875 -0.6875 1.328125 -0.6875q0.375 0 0.6875 0.140625q0.3125 0.140625 0.46875 0.359375q0.15625 0.21875 0.21875 0.515625q0.046875 0.1875 0.046875 0.6875l0 2.546875l-0.703125 0l0 -2.53125q0 -0.421875 -0.09375 -0.625q-0.078125 -0.21875 -0.296875 -0.34375q-0.203125 -0.140625 -0.484375 -0.140625q-0.4375 0 -0.765625 0.296875q-0.328125 0.28125 -0.328125 1.078125l0 2.265625l-0.703125 0zm4.4492188 -4.921875l0 -0.8125l0.703125 0l0 0.8125l-0.703125 0zm0 4.921875l0 -4.15625l0.703125 0l0 4.15625l-0.703125 0zm1.7773438 0l0 -4.15625l0.625 0l0 0.59375q0.46875 -0.6875 1.328125 -0.6875q0.375 0 0.6875 0.140625q0.3125 0.140625 0.46875 0.359375q0.15625 0.21875 0.21875 0.515625q0.046875 0.1875 0.046875 0.6875l0 2.546875l-0.703125 0l0 -2.53125q0 -0.421875 -0.09375 -0.625q-0.078125 -0.21875 -0.296875 -0.34375q-0.203125 -0.140625 -0.484375 -0.140625q-0.4375 0 -0.765625 0.296875q-0.328125 0.28125 -0.328125 1.078125l0 2.265625l-0.703125 0zm4.3242188 0.34375l0.671875 0.109375q0.046875 0.3125 0.25 0.453125q0.25 0.203125 0.703125 0.203125q0.5 0 0.765625 -0.203125q0.265625 -0.1875 0.359375 -0.546875q0.046875 -0.21875 0.046875 -0.90625q-0.46875 0.546875 -1.15625 0.546875q-0.84375 0 -1.3125 -0.609375q-0.46875 -0.625 -0.46875 -1.484375q0 -0.59375 0.203125 -1.09375q0.21875 -0.515625 0.625 -0.78125q0.40625 -0.28125 0.96875 -0.28125q0.734375 0 1.203125 0.59375l0 -0.5l0.65625 0l0 3.59375q0 0.96875 -0.203125 1.375q-0.203125 0.40625 -0.625 0.640625q-0.421875 0.234375 -1.046875 0.234375q-0.75 0 -1.203125 -0.34375q-0.453125 -0.328125 -0.4375 -1.0zm0.578125 -2.5q0 0.828125 0.3125 1.203125q0.328125 0.375 0.828125 0.375q0.484375 0 0.8125 -0.375q0.328125 -0.375 0.328125 -1.171875q0 -0.765625 -0.34375 -1.140625q-0.34375 -0.390625 -0.8125 -0.390625q-0.46875 0 -0.796875 0.375q-0.328125 0.375 -0.328125 1.125z"
              fill-rule="nonzero"/>
        <path fill="#000000" fill-opacity="0.0"
              d="m231.8371 201.834l0 0c0 -1.8235931 1.4783173 -3.3019104 3.3019104 -3.3019104l48.95523 0c0.8757324 0 1.7155762 0.34788513 2.3348083 0.96710205c0.6192322 0.6192322 0.96710205 1.4590912 0.96710205 2.3348083l0 13.207214c0 1.8235931 -1.478302 3.3018951 -3.3019104 3.3018951l-48.95523 0c-1.8235931 0 -3.3019104 -1.478302 -3.3019104 -3.3018951z"
              fill-rule="evenodd"/>
        <path stroke="#000000" stroke-width="1.0" stroke-linejoin="round" stroke-linecap="butt"
              d="m231.8371 201.834l0 0c0 -1.8235931 1.4783173 -3.3019104 3.3019104 -3.3019104l48.95523 0c0.8757324 0 1.7155762 0.34788513 2.3348083 0.96710205c0.6192322 0.6192322 0.96710205 1.4590912 0.96710205 2.3348083l0 13.207214c0 1.8235931 -1.478302 3.3018951 -3.3019104 3.3018951l-48.95523 0c-1.8235931 0 -3.3019104 -1.478302 -3.3019104 -3.3018951z"
              fill-rule="evenodd"/>
        <path fill="#000000"
              d="m245.07365 209.27385l0.71875 -0.0625q0.046875 0.4375 0.234375 0.71875q0.1875 0.265625 0.578125 0.4375q0.390625 0.171875 0.875 0.171875q0.4375 0 0.765625 -0.125q0.328125 -0.140625 0.484375 -0.359375q0.171875 -0.234375 0.171875 -0.5q0 -0.265625 -0.15625 -0.46875q-0.15625 -0.203125 -0.515625 -0.328125q-0.234375 -0.09375 -1.03125 -0.28125q-0.78125 -0.1875 -1.09375 -0.359375q-0.40625 -0.21875 -0.609375 -0.53125q-0.203125 -0.328125 -0.203125 -0.71875q0 -0.4375 0.25 -0.8125q0.25 -0.375 0.71875 -0.5625q0.46875 -0.203125 1.046875 -0.203125q0.640625 0 1.125 0.203125q0.484375 0.203125 0.75 0.609375q0.265625 0.390625 0.28125 0.90625l-0.734375 0.046875q-0.046875 -0.546875 -0.390625 -0.8125q-0.34375 -0.28125 -1.0 -0.28125q-0.6875 0 -1.0 0.25q-0.3125 0.25 -0.3125 0.609375q0 0.3125 0.21875 0.5q0.21875 0.203125 1.140625 0.421875q0.921875 0.203125 1.265625 0.359375q0.5 0.234375 0.734375 0.59375q0.25 0.34375 0.25 0.796875q0 0.46875 -0.265625 0.875q-0.265625 0.390625 -0.75 0.625q-0.484375 0.21875 -1.109375 0.21875q-0.765625 0 -1.296875 -0.21875q-0.53125 -0.234375 -0.828125 -0.6875q-0.296875 -0.453125 -0.3125 -1.03125zm7.0390625 1.21875l0.109375 0.609375q-0.296875 0.078125 -0.53125 0.078125q-0.390625 0 -0.609375 -0.125q-0.203125 -0.125 -0.296875 -0.3125q-0.078125 -0.203125 -0.078125 -0.84375l0 -2.390625l-0.515625 0l0 -0.546875l0.515625 0l0 -1.015625l0.703125 -0.421875l0 1.4375l0.703125 0l0 0.546875l-0.703125 0l0 2.4375q0 0.296875 0.03125 0.390625q0.046875 0.078125 0.125 0.125q0.078125 0.046875 0.234375 0.046875q0.125 0 0.3125 -0.015625zm0.42578125 -1.453125q0 -1.15625 0.640625 -1.703125q0.53125 -0.46875 1.3125 -0.46875q0.84375 0 1.390625 0.5625q0.54689026 0.5625 0.54689026 1.546875q0 0.8125 -0.25 1.265625q-0.23439026 0.453125 -0.70314026 0.71875q-0.453125 0.25 -0.984375 0.25q-0.875 0 -1.421875 -0.5625q-0.53125 -0.5625 -0.53125 -1.609375zm0.71875 0q0 0.796875 0.34375 1.203125q0.359375 0.390625 0.890625 0.390625q0.515625 0 0.859375 -0.390625q0.359375 -0.40625 0.359375 -1.21875q0 -0.78125 -0.359375 -1.171875q-0.34375 -0.390625 -0.859375 -0.390625q-0.53125 0 -0.890625 0.390625q-0.34375 0.390625 -0.34375 1.1875zm3.996109 3.671875l0 -5.75l0.640625 0l0 0.546875q0.21875 -0.3125 0.5 -0.46875q0.296875 -0.171875 0.703125 -0.171875q0.53125 0 0.9375 0.28125q0.40625 0.265625 0.609375 0.765625q0.203125 0.5 0.203125 1.09375q0 0.640625 -0.234375 1.15625q-0.21875 0.5 -0.65625 0.78125q-0.4375 0.265625 -0.90625 0.265625q-0.359375 0 -0.640625 -0.140625q-0.28125 -0.15625 -0.453125 -0.390625l0 2.03125l-0.703125 0zm0.640625 -3.640625q0 0.796875 0.3125 1.1875q0.328125 0.375 0.796875 0.375q0.46875 0 0.796875 -0.390625q0.328125 -0.40625 0.328125 -1.234375q0 -0.796875 -0.328125 -1.1875q-0.3125 -0.390625 -0.765625 -0.390625q-0.453125 0 -0.796875 0.421875q-0.34375 0.40625 -0.34375 1.21875zm3.8085938 3.640625l0 -5.75l0.640625 0l0 0.546875q0.21875 -0.3125 0.5 -0.46875q0.296875 -0.171875 0.703125 -0.171875q0.53125 0 0.9375 0.28125q0.40625 0.265625 0.609375 0.765625q0.203125 0.5 0.203125 1.09375q0 0.640625 -0.234375 1.15625q-0.21875 0.5 -0.65625 0.78125q-0.4375 0.265625 -0.90625 0.265625q-0.359375 0 -0.640625 -0.140625q-0.28125 -0.15625 -0.453125 -0.390625l0 2.03125l-0.703125 0zm0.640625 -3.640625q0 0.796875 0.3125 1.1875q0.328125 0.375 0.796875 0.375q0.46875 0 0.796875 -0.390625q0.328125 -0.40625 0.328125 -1.234375q0 -0.796875 -0.328125 -1.1875q-0.3125 -0.390625 -0.765625 -0.390625q-0.453125 0 -0.796875 0.421875q-0.34375 0.40625 -0.34375 1.21875zm6.6523438 0.703125l0.71875 0.09375q-0.171875 0.640625 -0.640625 1.0q-0.453125 0.34375 -1.1875 0.34375q-0.90625 0 -1.4375 -0.5625q-0.53125 -0.5625 -0.53125 -1.578125q0 -1.046875 0.53125 -1.625q0.546875 -0.578125 1.40625 -0.578125q0.828125 0 1.359375 0.578125q0.53125 0.5625 0.53125 1.59375q0 0.0625 -0.015625 0.1875l-3.09375 0q0.046875 0.671875 0.390625 1.046875q0.34375 0.359375 0.875 0.359375q0.375 0 0.640625 -0.203125q0.28125 -0.203125 0.453125 -0.65625zm-2.3125 -1.125l2.3125 0q-0.046875 -0.53125 -0.265625 -0.796875q-0.328125 -0.40625 -0.875 -0.40625q-0.484375 0 -0.8125 0.328125q-0.328125 0.328125 -0.359375 0.875zm6.6054688 2.46875l0 -0.53125q-0.390625 0.625 -1.15625 0.625q-0.5 0 -0.921875 -0.265625q-0.40625 -0.28125 -0.640625 -0.765625q-0.21875 -0.5 -0.21875 -1.140625q0 -0.609375 0.203125 -1.109375q0.203125 -0.515625 0.609375 -0.78125q0.421875 -0.28125 0.9375 -0.28125q0.375 0 0.65625 0.171875q0.296875 0.15625 0.484375 0.40625l0 -2.0625l0.703125 0l0 5.734375l-0.65625 0zm-2.21875 -2.078125q0 0.796875 0.328125 1.203125q0.34375 0.390625 0.796875 0.390625q0.46875 0 0.78125 -0.375q0.328125 -0.375 0.328125 -1.15625q0 -0.84375 -0.328125 -1.234375q-0.328125 -0.40625 -0.8125 -0.40625q-0.46875 0 -0.78125 0.390625q-0.3125 0.375 -0.3125 1.1875z"
              fill-rule="nonzero"/>
        <path fill="#000000" fill-opacity="0.0"
              d="m312.92267 201.834l0 0c0 -1.8235931 1.4783325 -3.3019104 3.3019104 -3.3019104l48.95526 0c0.8757019 0 1.7155762 0.34788513 2.3347778 0.96710205c0.6192322 0.6192322 0.96713257 1.4590912 0.96713257 2.3348083l0 13.207214c0 1.8235931 -1.4783325 3.3018951 -3.3019104 3.3018951l-48.95526 0c-1.8235779 0 -3.3019104 -1.478302 -3.3019104 -3.3018951z"
              fill-rule="evenodd"/>
        <path stroke="#000000" stroke-width="1.0" stroke-linejoin="round" stroke-linecap="butt"
              d="m312.92267 201.834l0 0c0 -1.8235931 1.4783325 -3.3019104 3.3019104 -3.3019104l48.95526 0c0.8757019 0 1.7155762 0.34788513 2.3347778 0.96710205c0.6192322 0.6192322 0.96713257 1.4590912 0.96713257 2.3348083l0 13.207214c0 1.8235931 -1.4783325 3.3018951 -3.3019104 3.3018951l-48.95526 0c-1.8235779 0 -3.3019104 -1.478302 -3.3019104 -3.3018951z"
              fill-rule="evenodd"/>
        <path fill="#000000"
              d="m328.00494 211.1176l0 -5.734375l4.140625 0l0 0.6875l-3.390625 0l0 1.75l3.171875 0l0 0.671875l-3.171875 0l0 1.953125l3.515625 0l0 0.671875l-4.265625 0zm5.2109375 0l0 -4.15625l0.640625 0l0 0.640625q0.234375 -0.453125 0.4375 -0.59375q0.21875 -0.140625 0.453125 -0.140625q0.359375 0 0.734375 0.234375l-0.25 0.65625q-0.25 -0.15625 -0.515625 -0.15625q-0.234375 0 -0.421875 0.140625q-0.171875 0.140625 -0.25 0.375q-0.125 0.375 -0.125 0.828125l0 2.171875l-0.703125 0zm2.6640625 0l0 -4.15625l0.640625 0l0 0.640625q0.234375 -0.453125 0.4375 -0.59375q0.21875 -0.140625 0.453125 -0.140625q0.359375 0 0.734375 0.234375l-0.25 0.65625q-0.25 -0.15625 -0.515625 -0.15625q-0.234375 0 -0.421875 0.140625q-0.171875 0.140625 -0.25 0.375q-0.125 0.375 -0.125 0.828125l0 2.171875l-0.703125 0zm2.4140625 -2.078125q0 -1.15625 0.640625 -1.703125q0.53125 -0.46875 1.3125 -0.46875q0.84375 0 1.390625 0.5625q0.546875 0.5625 0.546875 1.546875q0 0.8125 -0.25 1.265625q-0.234375 0.453125 -0.703125 0.71875q-0.453125 0.25 -0.984375 0.25q-0.875 0 -1.421875 -0.5625q-0.53125 -0.5625 -0.53125 -1.609375zm0.71875 0q0 0.796875 0.34375 1.203125q0.359375 0.390625 0.890625 0.390625q0.515625 0 0.859375 -0.390625q0.359375 -0.40625 0.359375 -1.21875q0 -0.78125 -0.359375 -1.171875q-0.34375 -0.390625 -0.859375 -0.390625q-0.53125 0 -0.890625 0.390625q-0.34375 0.390625 -0.34375 1.1875zm3.9804688 2.078125l0 -4.15625l0.640625 0l0 0.640625q0.234375 -0.453125 0.4375 -0.59375q0.21875 -0.140625 0.453125 -0.140625q0.359375 0 0.734375 0.234375l-0.25 0.65625q-0.25 -0.15625 -0.515625 -0.15625q-0.234375 0 -0.421875 0.140625q-0.171875 0.140625 -0.25 0.375q-0.125 0.375 -0.125 0.828125l0 2.171875l-0.703125 0zm5.5234375 -1.34375l0.71875 0.09375q-0.171875 0.640625 -0.640625 1.0q-0.453125 0.34375 -1.1875 0.34375q-0.90625 0 -1.4375 -0.5625q-0.53125 -0.5625 -0.53125 -1.578125q0 -1.046875 0.53125 -1.625q0.546875 -0.578125 1.40625 -0.578125q0.828125 0 1.359375 0.578125q0.53125 0.5625 0.53125 1.59375q0 0.0625 -0.015625 0.1875l-3.09375 0q0.046875 0.671875 0.390625 1.046875q0.34375 0.359375 0.875 0.359375q0.375 0 0.640625 -0.203125q0.28125 -0.203125 0.453125 -0.65625zm-2.3125 -1.125l2.3125 0q-0.046875 -0.53125 -0.265625 -0.796875q-0.328125 -0.40625 -0.875 -0.40625q-0.484375 0 -0.8125 0.328125q-0.328125 0.328125 -0.359375 0.875zm6.6054688 2.46875l0 -0.53125q-0.390625 0.625 -1.15625 0.625q-0.5 0 -0.921875 -0.265625q-0.40625 -0.28125 -0.640625 -0.765625q-0.21875 -0.5 -0.21875 -1.140625q0 -0.609375 0.203125 -1.109375q0.203125 -0.515625 0.609375 -0.78125q0.421875 -0.28125 0.9375 -0.28125q0.375 0 0.65625 0.171875q0.296875 0.15625 0.484375 0.40625l0 -2.0625l0.703125 0l0 5.734375l-0.65625 0zm-2.21875 -2.078125q0 0.796875 0.328125 1.203125q0.34375 0.390625 0.796875 0.390625q0.46875 0 0.78125 -0.375q0.328125 -0.375 0.328125 -1.15625q0 -0.84375 -0.328125 -1.234375q-0.328125 -0.40625 -0.8125 -0.40625q-0.46875 0 -0.78125 0.390625q-0.3125 0.375 -0.3125 1.1875z"
              fill-rule="nonzero"/>
        <path fill="#000000" fill-opacity="0.0" d="m301.62457 114.24863l0 10.141731l0.06298828 0l0 10.141731"
              fill-rule="evenodd"/>
        <path stroke="#000000" stroke-width="1.0" stroke-linejoin="round" stroke-linecap="butt"
              d="m301.62457 114.24863l0 10.141731l0.06298828 0l0 6.714653" fill-rule="evenodd"/>
        <path fill="#000000" stroke="#000000" stroke-width="1.0" stroke-linecap="butt"
              d="m301.68756 131.10501l-1.1245728 -1.124588l1.1245728 3.0897675l1.1245728 -3.0897675z"
              fill-rule="evenodd"/>
        <path fill="#000000" fill-opacity="0.0" d="m301.65607 154.34311l0 22.094498l39.055115 0l0 22.094482"
              fill-rule="evenodd"/>
        <path stroke="#000000" stroke-width="1.0" stroke-linejoin="round" stroke-linecap="butt"
              d="m301.65607 154.34311l0 22.094498l39.055115 0l0 18.667404" fill-rule="evenodd"/>
        <path fill="#000000" stroke="#000000" stroke-width="1.0" stroke-linecap="butt"
              d="m340.71118 195.10501l-1.1245728 -1.124588l1.1245728 3.0897675l1.1245728 -3.0897675z"
              fill-rule="evenodd"/>
        <path fill="#000000" fill-opacity="0.0" d="m301.65607 154.34311l0 22.094498l-42.04724 0l0 22.094482"
              fill-rule="evenodd"/>
        <path stroke="#000000" stroke-width="1.0" stroke-linejoin="round" stroke-linecap="butt"
              d="m301.65607 154.34311l0 22.094498l-42.04724 0l0 18.667404" fill-rule="evenodd"/>
        <path fill="#000000" stroke="#000000" stroke-width="1.0" stroke-linecap="butt"
              d="m259.60883 195.10501l-1.1245728 -1.124588l1.1245728 3.0897675l1.1245728 -3.0897675z"
              fill-rule="evenodd"/>
        <path fill="#000000" fill-opacity="0.0" d="m376.20996 221.92126l26.330719 0l0 0.06298828l26.330719 0"
              fill-rule="evenodd"/>
        <path stroke="#000000" stroke-width="1.0" stroke-linejoin="round" stroke-linecap="butt"
              d="m376.20996 221.92126l26.330719 0l0 0.06298828l26.330719 0" fill-rule="evenodd"/>
        <path fill="#000000" fill-opacity="0.0"
              d="m395.9449 113.257385l0 0c0 -4.5256424 3.6687622 -8.194389 8.194397 -8.194389l48.587585 0c2.1732788 0 4.2575684 0.86333466 5.7943115 2.4000778c1.5367432 1.5367432 2.4000854 3.6210175 2.4000854 5.7943115l0 32.776566c0 4.52565 -3.6687622 8.194397 -8.194397 8.194397l-48.587585 0l0 0c-4.525635 0 -8.194397 -3.668747 -8.194397 -8.194397z"
              fill-rule="evenodd"/>
        <path stroke="#000000" stroke-width="1.0" stroke-linejoin="round" stroke-linecap="butt"
              d="m395.9449 113.257385l0 0c0 -4.5256424 3.6687622 -8.194389 8.194397 -8.194389l48.587585 0c2.1732788 0 4.2575684 0.86333466 5.7943115 2.4000778c1.5367432 1.5367432 2.4000854 3.6210175 2.4000854 5.7943115l0 32.776566c0 4.52565 -3.6687622 8.194397 -8.194397 8.194397l-48.587585 0l0 0c-4.525635 0 -8.194397 -3.668747 -8.194397 -8.194397z"
              fill-rule="evenodd"/>
        <path fill="#000000" fill-opacity="0.0" d="m392.77954 80.21045l80.724396 0l0 32.314957l-80.724396 0z"
              fill-rule="evenodd"/>
        <path fill="#000000"
              d="m402.63892 99.45045l0 -7.625l1.0 0l0 3.125l3.96875 0l0 -3.125l1.015625 0l0 7.625l-1.015625 0l0 -3.59375l-3.96875 0l0 3.59375l-1.0 0zm9.586212 -0.84375l0.125 0.828125q-0.390625 0.09375 -0.703125 0.09375q-0.5 0 -0.78125 -0.15625q-0.28125 -0.171875 -0.40625 -0.4375q-0.109375 -0.265625 -0.109375 -1.109375l0 -3.171875l-0.6875 0l0 -0.734375l0.6875 0l0 -1.359375l0.9375 -0.5625l0 1.921875l0.9375 0l0 0.734375l-0.9375 0l0 3.234375q0 0.390625 0.046875 0.515625q0.046875 0.109375 0.15625 0.1875q0.109375 0.0625 0.328125 0.0625q0.15625 0 0.40625 -0.046875zm2.9606628 0l0.125 0.828125q-0.390625 0.09375 -0.703125 0.09375q-0.5 0 -0.78125 -0.15625q-0.28125 -0.171875 -0.40625 -0.4375q-0.109375 -0.265625 -0.109375 -1.109375l0 -3.171875l-0.6875 0l0 -0.734375l0.6875 0l0 -1.359375l0.9375 -0.5625l0 1.921875l0.9375 0l0 0.734375l-0.9375 0l0 3.234375q0 0.390625 0.046875 0.515625q0.046875 0.109375 0.15625 0.1875q0.109375 0.0625 0.328125 0.0625q0.15625 0 0.40625 -0.046875zm0.9137573 2.96875l0 -7.65625l0.859375 0l0 0.71875q0.296875 -0.421875 0.671875 -0.625q0.390625 -0.21875 0.921875 -0.21875q0.703125 0 1.25 0.375q0.546875 0.359375 0.8125 1.03125q0.28125 0.65625 0.28125 1.453125q0 0.84375 -0.3125 1.53125q-0.296875 0.671875 -0.875 1.03125q-0.578125 0.359375 -1.21875 0.359375q-0.46875 0 -0.84375 -0.1875q-0.375 -0.203125 -0.609375 -0.515625l0 2.703125l-0.9375 0zm0.84375 -4.859375q0 1.0625 0.4375 1.578125q0.4375 0.515625 1.046875 0.515625q0.625 0 1.0625 -0.53125q0.453125 -0.53125 0.453125 -1.640625q0 -1.046875 -0.4375 -1.578125q-0.4375 -0.53125 -1.046875 -0.53125q-0.59375 0 -1.0625 0.5625q-0.453125 0.5625 -0.453125 1.625zm7.668396 1.078125l0.921875 -0.140625q0.078125 0.5625 0.4375 0.859375q0.359375 0.296875 1.0 0.296875q0.640625 0 0.953125 -0.265625q0.3125 -0.265625 0.3125 -0.625q0 -0.3125 -0.28125 -0.5q-0.1875 -0.125 -0.953125 -0.3125q-1.03125 -0.265625 -1.4375 -0.453125q-0.390625 -0.1875 -0.59375 -0.515625q-0.203125 -0.34375 -0.203125 -0.75q0 -0.359375 0.171875 -0.671875q0.171875 -0.328125 0.453125 -0.53125q0.21875 -0.15625 0.59375 -0.265625q0.390625 -0.125 0.8125 -0.125q0.65625 0 1.140625 0.1875q0.5 0.1875 0.734375 0.515625q0.234375 0.3125 0.3125 0.859375l-0.90625 0.125q-0.0625 -0.4375 -0.375 -0.671875q-0.296875 -0.234375 -0.828125 -0.234375q-0.65625 0 -0.9375 0.21875q-0.265625 0.203125 -0.265625 0.484375q0 0.1875 0.109375 0.328125q0.125 0.15625 0.359375 0.25q0.140625 0.0625 0.828125 0.25q1.0 0.265625 1.390625 0.4375q0.390625 0.15625 0.609375 0.484375q0.234375 0.3125 0.234375 0.796875q0 0.46875 -0.28125 0.890625q-0.265625 0.40625 -0.78125 0.640625q-0.515625 0.21875 -1.171875 0.21875q-1.078125 0 -1.640625 -0.4375q-0.5625 -0.453125 -0.71875 -1.34375zm9.484375 -0.125l0.96875 0.125q-0.234375 0.84375 -0.859375 1.3125q-0.609375 0.46875 -1.578125 0.46875q-1.203125 0 -1.921875 -0.75q-0.703125 -0.75 -0.703125 -2.09375q0 -1.390625 0.71875 -2.15625q0.71875 -0.78125 1.859375 -0.78125q1.109375 0 1.8125 0.765625q0.703125 0.75 0.703125 2.125q0 0.078125 0 0.234375l-4.125 0q0.046875 0.921875 0.515625 1.40625q0.46875 0.484375 1.15625 0.484375q0.515625 0 0.875 -0.265625q0.359375 -0.28125 0.578125 -0.875zm-3.078125 -1.515625l3.09375 0q-0.0625 -0.6875 -0.359375 -1.046875q-0.453125 -0.53125 -1.15625 -0.53125q-0.640625 0 -1.09375 0.4375q-0.4375 0.421875 -0.484375 1.140625zm5.2077637 3.296875l0 -5.53125l0.84375 0l0 0.84375q0.328125 -0.59375 0.59375 -0.78125q0.28125 -0.1875 0.609375 -0.1875q0.46875 0 0.953125 0.3125l-0.3125 0.859375q-0.34375 -0.203125 -0.6875 -0.203125q-0.3125 0 -0.5625 0.1875q-0.234375 0.1875 -0.34375 0.515625q-0.15625 0.5 -0.15625 1.09375l0 2.890625l-0.9375 0zm5.0954895 0l-2.09375 -5.53125l0.984375 0l1.1875 3.3125q0.1875 0.53125 0.359375 1.109375q0.109375 -0.4375 0.34375 -1.046875l1.21875 -3.375l0.96875 0l-2.09375 5.53125l-0.875 0zm7.578125 -1.78125l0.96875 0.125q-0.234375 0.84375 -0.859375 1.3125q-0.609375 0.46875 -1.578125 0.46875q-1.203125 0 -1.921875 -0.75q-0.703125 -0.75 -0.703125 -2.09375q0 -1.390625 0.71875 -2.15625q0.71875 -0.78125 1.859375 -0.78125q1.109375 0 1.8125 0.765625q0.703125 0.75 0.703125 2.125q0 0.078125 0 0.234375l-4.125 0q0.046875 0.921875 0.515625 1.40625q0.46875 0.484375 1.15625 0.484375q0.515625 0 0.875 -0.265625q0.359375 -0.28125 0.578125 -0.875zm-3.078125 -1.515625l3.09375 0q-0.0625 -0.6875 -0.359375 -1.046875q-0.453125 -0.53125 -1.15625 -0.53125q-0.640625 0 -1.09375 0.4375q-0.4375 0.421875 -0.484375 1.140625zm5.207733 3.296875l0 -5.53125l0.84375 0l0 0.84375q0.328125 -0.59375 0.59375 -0.78125q0.28125 -0.1875 0.609375 -0.1875q0.46875 0 0.953125 0.3125l-0.3125 0.859375q-0.34375 -0.203125 -0.6875 -0.203125q-0.3125 0 -0.5625 0.1875q-0.234375 0.1875 -0.34375 0.515625q-0.15625 0.5 -0.15625 1.09375l0 2.890625l-0.9375 0z"
              fill-rule="nonzero"/>
        <path fill="#000000" fill-opacity="0.0" d="m483.54068 156.34071l0 -53.972008" fill-rule="evenodd"/>
        <path stroke="#000000" stroke-width="1.0" stroke-linejoin="round" stroke-linecap="butt"
              d="m483.54068 156.34071l0 -53.972008" fill-rule="evenodd"/>
        <path fill="#000000" fill-opacity="0.0" d="m475.54068 156.34071l8.0 0" fill-rule="evenodd"/>
        <path stroke="#000000" stroke-width="1.0" stroke-linejoin="round" stroke-linecap="butt"
              d="m475.54068 156.34071l8.0 0" fill-rule="evenodd"/>
        <path fill="#000000" fill-opacity="0.0" d="m475.54068 102.368706l8.0 0" fill-rule="evenodd"/>
        <path stroke="#000000" stroke-width="1.0" stroke-linejoin="round" stroke-linecap="butt"
              d="m475.54068 102.368706l8.0 0" fill-rule="evenodd"/>
        <path fill="#000000" fill-opacity="0.0" d="m487.78116 108.34646l32.00003 0l0 42.01574l-32.00003 0z"
              fill-rule="evenodd"/>
        <path fill="#000000"
              d="m504.62457 135.26645l0 -3.203125l-5.796875 0l0 -1.5l6.09375 -8.656242l1.34375 0l0 8.656242l1.796875 0l0 1.5l-1.796875 0l0 3.203125l-1.640625 0zm0 -4.703125l0 -6.0156174l-4.1875 6.0156174l4.1875 0z"
              fill-rule="nonzero"/>
        <path fill="#000000" fill-opacity="0.0" d="m375.7244 129.58267l10.11026 0l0 0.06300354l10.1102295 0"
              fill-rule="evenodd"/>
        <path stroke="#000000" stroke-width="1.0" stroke-linejoin="round" stroke-linecap="butt"
              d="m375.7244 129.58267l10.11026 0l0 0.06300354l10.1102295 0" fill-rule="evenodd"/>
        <path fill="#000000" fill-opacity="0.0" d="m213.04199 156.9357l10.803146 0" fill-rule="evenodd"/>
        <path stroke="#000000" stroke-width="1.0" stroke-linejoin="round" stroke-linecap="butt"
              d="m213.04199 156.9357l10.803146 0" fill-rule="evenodd"/>
        <path fill="#000000" fill-opacity="0.0" d="m327.3726 104.34312l13.322845 0l0 94.173225" fill-rule="evenodd"/>
        <path stroke="#000000" stroke-width="1.0" stroke-linejoin="round" stroke-linecap="butt"
              d="m327.3726 104.34312l13.322845 0l0 94.173225" fill-rule="evenodd"/>
        <path fill="#000000" fill-opacity="0.0" d="m358.88718 111.950294l0 64.97637l-25.858276 0l0 -64.97637z"
              fill-rule="evenodd"/>
        <path fill="#000000"
              d="m344.76718 121.450294l3.8125 0l0 0.5l-3.8125 0l0 -0.5zm0 1.3240814l2.765625 0l0 0.421875l-0.390625 0q0.453125 0.3125 0.453125 0.890625q0 0.25 -0.09375 0.453125q-0.09375 0.21875 -0.234375 0.3125q-0.140625 0.109375 -0.34375 0.15625q-0.125 0.015625 -0.453125 0.015625l-1.703125 0l0 -0.46875l1.6875 0q0.28125 0 0.421875 -0.0625q0.140625 -0.046875 0.21875 -0.1875q0.09375 -0.140625 0.09375 -0.328125q0 -0.296875 -0.1875 -0.515625q-0.1875 -0.21875 -0.71875 -0.21875l-1.515625 0l0 -0.46875zm0 3.7445068l2.765625 -1.0625l0 0.5l-1.65625 0.59375q-0.265625 0.09375 -0.5625 0.171875q0.21875 0.0625 0.53125 0.171875l1.6875 0.625l0 0.48436737l-2.765625 -1.0468674l0 -0.4375zm0.34375 3.6953049q-0.21875 -0.265625 -0.3125 -0.515625q-0.09375 -0.234375 -0.09375 -0.5q0 -0.453125 0.21875 -0.703125q0.21875 -0.25 0.578125 -0.25q0.203125 0 0.359375 0.09375q0.171875 0.09375 0.265625 0.234375q0.109375 0.15625 0.15625 0.34375q0.046875 0.140625 0.078125 0.421875q0.0625 0.5625 0.15625 0.828125q0.09375 0.015625 0.125 0.015625q0.28125 0 0.40625 -0.140625q0.15625 -0.171875 0.15625 -0.53125q0 -0.328125 -0.125 -0.484375q-0.109375 -0.15625 -0.40625 -0.234375l0.0625 -0.46875q0.296875 0.0625 0.46875 0.203125q0.1875 0.15625 0.28125 0.421875q0.109375 0.265625 0.109375 0.625q0 0.359375 -0.09375 0.578125q-0.078125 0.21875 -0.203125 0.328125q-0.125 0.109375 -0.3125 0.140625q-0.125 0.03125 -0.4375 0.03125l-0.625 0q-0.65625 0 -0.828125 0.03125q-0.171875 0.03125 -0.328125 0.109375l0 -0.484375q0.140625 -0.078125 0.34375 -0.09375zm1.046875 -0.046875q-0.109375 -0.25 -0.1875 -0.765625q-0.03125 -0.28125 -0.09375 -0.40625q-0.046875 -0.109375 -0.15625 -0.1875q-0.09375 -0.0625 -0.21875 -0.0625q-0.1875 0 -0.3125 0.140625q-0.125 0.140625 -0.125 0.421875q0 0.265625 0.125 0.46875q0.125 0.21875 0.328125 0.328125q0.15625 0.0625 0.46875 0.0625l0.171875 0zm-1.390625 1.1976318l3.8125 0l0 0.46875l-3.8125 0l0 -0.46875zm3.28125 1.1993713l0.53125 0l0 0.46875l-0.53125 0l0 -0.46875zm-3.28125 0l2.765625 0l0 0.46875l-2.765625 0l0 -0.46875zm0 2.9649963l0.34375 0q-0.40625 -0.265625 -0.40625 -0.765625q0 -0.328125 0.171875 -0.609375q0.1875 -0.28125 0.515625 -0.4375q0.328125 -0.140625 0.75 -0.140625q0.421875 0 0.75 0.125q0.34375 0.140625 0.515625 0.421875q0.1875 0.28125 0.1875 0.609375q0 0.25 -0.109375 0.4375q-0.109375 0.203125 -0.265625 0.328125l1.359375 0l0 0.46875l-3.8125 0l0 -0.4375zm1.375 -1.484375q-0.53125 0 -0.796875 0.21875q-0.25 0.234375 -0.25 0.546875q0 0.296875 0.25 0.515625q0.25 0.21875 0.765625 0.21875q0.5625 0 0.828125 -0.21875q0.265625 -0.21875 0.265625 -0.546875q0 -0.3125 -0.265625 -0.53125q-0.25 -0.203125 -0.796875 -0.203125zm-0.359375 5.9435883l-0.0625 0.453125q-0.484375 -0.0625 -0.75 -0.375q-0.265625 -0.3125 -0.265625 -0.765625q0 -0.578125 0.359375 -0.921875q0.375 -0.34375 1.078125 -0.34375q0.4375 0 0.765625 0.140625q0.34375 0.15625 0.515625 0.453125q0.171875 0.3125 0.171875 0.671875q0 0.453125 -0.234375 0.734375q-0.21875 0.28125 -0.640625 0.375l-0.078125 -0.46875q0.28125 -0.0625 0.421875 -0.234375q0.140625 -0.15625 0.140625 -0.390625q0 -0.359375 -0.25 -0.578125q-0.25 -0.21875 -0.796875 -0.21875q-0.5625 0 -0.8125 0.203125q-0.25 0.21875 -0.25 0.5625q0 0.28125 0.15625 0.46875q0.171875 0.1875 0.53125 0.234375zm0.359375 0.6796875q0.78125 0 1.140625 0.4375q0.3125 0.34375 0.3125 0.859375q0 0.578125 -0.375 0.9375q-0.375 0.359375 -1.03125 0.359375q-0.53125 0 -0.84375 -0.15625q-0.296875 -0.15625 -0.46875 -0.46875q-0.171875 -0.3125 -0.171875 -0.671875q0 -0.578125 0.375 -0.9375q0.375 -0.359375 1.0625 -0.359375zm0 0.484375q-0.53125 0 -0.796875 0.234375q-0.25 0.234375 -0.25 0.578125q0 0.359375 0.265625 0.578125q0.265625 0.234375 0.796875 0.234375q0.515625 0 0.78125 -0.234375q0.265625 -0.234375 0.265625 -0.578125q0 -0.34375 -0.265625 -0.578125q-0.265625 -0.234375 -0.796875 -0.234375zm-1.375 2.6507568l2.765625 0l0 0.421875l-0.390625 0q0.453125 0.3125 0.453125 0.890625q0 0.25 -0.09375 0.453125q-0.09375 0.21875 -0.234375 0.3125q-0.140625 0.109375 -0.34375 0.15625q-0.125 0.015625 -0.453125 0.015625l-1.703125 0l0 -0.46875l1.6875 0q0.28125 0 0.421875 -0.0625q0.140625 -0.046875 0.21875 -0.1875q0.09375 -0.140625 0.09375 -0.328125q0 -0.296875 -0.1875 -0.515625q-0.1875 -0.21875 -0.71875 -0.21875l-1.515625 0l0 -0.46875zm0 3.0882568l2.40625 0l0 -0.421875l0.359375 0l0 0.421875l0.296875 0q0.265625 0 0.40625 0.046875q0.1875 0.0625 0.296875 0.234375q0.109375 0.171875 0.109375 0.484375q0 0.1875 -0.046875 0.4375l-0.40625 -0.078125q0.03125 -0.140625 0.03125 -0.28125q0 -0.203125 -0.09375 -0.296875q-0.09375 -0.09375 -0.34375 -0.09375l-0.25 0l0 0.546875l-0.359375 0l0 -0.546875l-2.40625 0l0 -0.453125zm3.28125 1.3709564l0.53125 0l0 0.46875l-0.53125 0l0 -0.46875zm-3.28125 0l2.765625 0l0 0.46875l-2.765625 0l0 -0.46875zm-0.234375 1.0899963l-0.0625 0.453125q-0.203125 0.03125 -0.3125 0.15625q-0.125 0.171875 -0.125 0.484375q0 0.328125 0.140625 0.5q0.125 0.171875 0.359375 0.234375q0.140625 0.046875 0.59375 0.03125q-0.359375 -0.296875 -0.359375 -0.765625q0 -0.5625 0.40625 -0.875q0.421875 -0.3125 0.984375 -0.3125q0.40625 0 0.734375 0.140625q0.34375 0.140625 0.515625 0.40625q0.1875 0.28125 0.1875 0.65625q0 0.484375 -0.390625 0.796875l0.328125 0l0 0.4375l-2.390625 0q-0.640625 0 -0.90625 -0.140625q-0.28125 -0.125 -0.4375 -0.40625q-0.15625 -0.28125 -0.15625 -0.703125q0 -0.5 0.234375 -0.8125q0.21875 -0.296875 0.65625 -0.28125zm1.671875 0.390625q-0.546875 0 -0.796875 0.203125q-0.25 0.21875 -0.25 0.546875q0 0.328125 0.25 0.546875q0.25 0.21875 0.78125 0.21875q0.5 0 0.75 -0.234375q0.265625 -0.21875 0.265625 -0.53125q0 -0.3125 -0.25 -0.53125q-0.25 -0.21875 -0.75 -0.21875z"
              fill-rule="nonzero"/>
        <path fill="#000000" fill-opacity="0.0" d="m262.9077 110.1537l64.97638 0l0 25.858276l-64.97638 0z"
              fill-rule="evenodd"/>
        <path fill="#000000"
              d="m275.0327 122.929955l0.515625 0.140625q-0.15625 0.609375 -0.578125 0.9375q-0.40625 0.328125 -1.0 0.328125q-0.625 0 -1.015625 -0.25q-0.375 -0.25 -0.578125 -0.71875q-0.203125 -0.484375 -0.203125 -1.03125q0 -0.59375 0.21875 -1.03125q0.234375 -0.453125 0.65625 -0.671875q0.421875 -0.234375 0.921875 -0.234375q0.578125 0 0.96875 0.296875q0.390625 0.28125 0.546875 0.8125l-0.5 0.109375q-0.140625 -0.40625 -0.390625 -0.59375q-0.25 -0.203125 -0.625 -0.203125q-0.453125 0 -0.75 0.21875q-0.28125 0.203125 -0.40625 0.5625q-0.125 0.359375 -0.125 0.734375q0 0.484375 0.140625 0.859375q0.140625 0.359375 0.4375 0.546875q0.3125 0.171875 0.65625 0.171875q0.421875 0 0.71875 -0.25q0.296875 -0.25 0.390625 -0.734375zm0.89468384 -0.03125q0 -0.78125 0.4375 -1.140625q0.34375 -0.3125 0.859375 -0.3125q0.578125 0 0.9375 0.375q0.359375 0.375 0.359375 1.03125q0 0.53125 -0.15625 0.84375q-0.15625 0.296875 -0.46875 0.46875q-0.3125 0.171875 -0.671875 0.171875q-0.578125 0 -0.9375 -0.375q-0.359375 -0.375 -0.359375 -1.0625zm0.484375 0q0 0.53125 0.234375 0.796875q0.234375 0.25 0.578125 0.25q0.359375 0 0.578125 -0.265625q0.234375 -0.265625 0.234375 -0.796875q0 -0.515625 -0.234375 -0.78125q-0.234375 -0.265625 -0.578125 -0.265625q-0.34375 0 -0.578125 0.265625q-0.234375 0.265625 -0.234375 0.796875zm2.6507568 1.375l0 -2.765625l0.421875 0l0 0.390625q0.3125 -0.453125 0.890625 -0.453125q0.25 0 0.453125 0.09375q0.21875 0.09375 0.3125 0.234375q0.109375 0.140625 0.15625 0.34375q0.015625 0.125 0.015625 0.453125l0 1.703125l-0.46875 0l0 -1.6875q0 -0.28125 -0.0625 -0.421875q-0.046875 -0.140625 -0.1875 -0.21875q-0.140625 -0.09375 -0.328125 -0.09375q-0.296875 0 -0.515625 0.1875q-0.21875 0.1875 -0.21875 0.71875l0 1.515625l-0.46875 0zm3.0882568 0l0 -2.40625l-0.421875 0l0 -0.359375l0.421875 0l0 -0.296875q0 -0.265625 0.046875 -0.40625q0.0625 -0.1875 0.234375 -0.296875q0.171875 -0.109375 0.484375 -0.109375q0.1875 0 0.4375 0.046875l-0.078125 0.40625q-0.140625 -0.03125 -0.28125 -0.03125q-0.203125 0 -0.296875 0.09375q-0.09375 0.09375 -0.09375 0.34375l0 0.25l0.546875 0l0 0.359375l-0.546875 0l0 2.40625l-0.453125 0zm1.3709412 -3.28125l0 -0.53125l0.46875 0l0 0.53125l-0.46875 0zm0 3.28125l0 -2.765625l0.46875 0l0 2.765625l-0.46875 0zm1.0899963 0.234375l0.453125 0.0625q0.03125 0.203125 0.15625 0.3125q0.171875 0.125 0.484375 0.125q0.328125 0 0.5 -0.140625q0.171875 -0.125 0.234375 -0.359375q0.046875 -0.140625 0.03125 -0.59375q-0.296875 0.359375 -0.765625 0.359375q-0.5625 0 -0.875 -0.40625q-0.3125 -0.421875 -0.3125 -0.984375q0 -0.40625 0.140625 -0.734375q0.140625 -0.34375 0.40625 -0.515625q0.28125 -0.1875 0.65625 -0.1875q0.484375 0 0.796875 0.390625l0 -0.328125l0.4375 0l0 2.390625q0 0.640625 -0.140625 0.90625q-0.125 0.28125 -0.40625 0.4375q-0.28125 0.15625 -0.703125 0.15625q-0.5 0 -0.8125 -0.234375q-0.296875 -0.21875 -0.28125 -0.65625zm0.390625 -1.671875q0 0.546875 0.203125 0.796875q0.21875 0.25 0.546875 0.25q0.328125 0 0.546875 -0.25q0.21875 -0.25 0.21875 -0.78125q0 -0.5 -0.234375 -0.75q-0.21875 -0.265625 -0.53125 -0.265625q-0.3125 0 -0.53125 0.25q-0.21875 0.25 -0.21875 0.75zm4.463257 1.4375l0 -0.40625q-0.3125 0.46875 -0.875 0.46875q-0.234375 0 -0.453125 -0.09375q-0.21875 -0.09375 -0.328125 -0.234375q-0.09375 -0.140625 -0.125 -0.34375q-0.03125 -0.140625 -0.03125 -0.4375l0 -1.71875l0.46875 0l0 1.53125q0 0.375 0.03125 0.5q0.03125 0.1875 0.171875 0.296875q0.15625 0.09375 0.359375 0.09375q0.21875 0 0.390625 -0.109375q0.1875 -0.109375 0.265625 -0.28125q0.078125 -0.1875 0.078125 -0.546875l0 -1.484375l0.46875 0l0 2.765625l-0.421875 0zm1.1507568 0l0 -2.765625l0.421875 0l0 0.421875q0.15625 -0.296875 0.296875 -0.390625q0.140625 -0.09375 0.296875 -0.09375q0.25 0 0.484375 0.15625l-0.15625 0.4375q-0.171875 -0.109375 -0.34375 -0.109375q-0.15625 0 -0.28125 0.09375q-0.125 0.09375 -0.171875 0.25q-0.078125 0.25 -0.078125 0.546875l0 1.453125l-0.46875 0zm3.6805725 -0.890625l0.46875 0.0625q-0.109375 0.421875 -0.421875 0.65625q-0.296875 0.234375 -0.78125 0.234375q-0.609375 0 -0.96875 -0.375q-0.359375 -0.375 -0.359375 -1.046875q0 -0.703125 0.359375 -1.078125q0.359375 -0.390625 0.9375 -0.390625q0.5625 0 0.90625 0.375q0.34375 0.375 0.34375 1.0625q0 0.046875 0 0.125l-2.0625 0q0.03125 0.453125 0.265625 0.703125q0.234375 0.234375 0.578125 0.234375q0.25 0 0.4375 -0.125q0.1875 -0.140625 0.296875 -0.4375zm-1.546875 -0.75l1.546875 0q-0.03125 -0.359375 -0.171875 -0.53125q-0.234375 -0.265625 -0.59375 -0.265625q-0.3125 0 -0.53125 0.21875q-0.21875 0.203125 -0.25 0.578125zm4.400757 1.640625l0 -0.34375q-0.265625 0.40625 -0.765625 0.40625q-0.328125 0 -0.609375 -0.171875q-0.28125 -0.1875 -0.4375 -0.515625q-0.140625 -0.328125 -0.140625 -0.75q0 -0.421875 0.125 -0.75q0.140625 -0.34375 0.421875 -0.515625q0.28125 -0.1875 0.609375 -0.1875q0.25 0 0.4375 0.109375q0.203125 0.109375 0.328125 0.265625l0 -1.359375l0.46875 0l0 3.8125l-0.4375 0zm-1.484375 -1.375q0 0.53125 0.21875 0.796875q0.234375 0.25 0.546875 0.25q0.296875 0 0.515625 -0.25q0.21875 -0.25 0.21875 -0.765625q0 -0.5625 -0.21875 -0.828125q-0.21875 -0.265625 -0.546875 -0.265625q-0.3125 0 -0.53125 0.265625q-0.203125 0.25 -0.203125 0.796875z"
              fill-rule="nonzero"/>
        <path fill="#000000" fill-opacity="0.0" d="m256.5051 160.14877l64.97638 0l0 25.858276l-64.97638 0z"
              fill-rule="evenodd"/>
        <path fill="#000000"
              d="m265.73947 173.05003l0.484375 -0.046875q0.03125 0.28125 0.15625 0.46875q0.125 0.1875 0.375 0.296875q0.265625 0.109375 0.59375 0.109375q0.28125 0 0.5 -0.078125q0.234375 -0.09375 0.328125 -0.234375q0.109375 -0.15625 0.109375 -0.328125q0 -0.1875 -0.109375 -0.3125q-0.09375 -0.140625 -0.328125 -0.234375q-0.15625 -0.0625 -0.6875 -0.1875q-0.515625 -0.125 -0.734375 -0.234375q-0.265625 -0.140625 -0.40625 -0.34375q-0.125 -0.21875 -0.125 -0.484375q0 -0.28125 0.15625 -0.53125q0.171875 -0.265625 0.484375 -0.390625q0.3125 -0.125 0.703125 -0.125q0.421875 0 0.734375 0.140625q0.328125 0.125 0.5 0.390625q0.171875 0.265625 0.1875 0.609375l-0.484375 0.03125q-0.03125 -0.359375 -0.265625 -0.546875q-0.21875 -0.1875 -0.65625 -0.1875q-0.453125 0 -0.671875 0.171875q-0.203125 0.171875 -0.203125 0.40625q0 0.203125 0.140625 0.328125q0.15625 0.140625 0.765625 0.28125q0.609375 0.140625 0.84375 0.234375q0.328125 0.15625 0.484375 0.390625q0.171875 0.234375 0.171875 0.546875q0 0.3125 -0.1875 0.578125q-0.171875 0.265625 -0.5 0.421875q-0.3125 0.140625 -0.734375 0.140625q-0.515625 0 -0.875 -0.140625q-0.34375 -0.15625 -0.546875 -0.453125q-0.1875 -0.3125 -0.203125 -0.6875zm3.6631775 1.21875l0 -3.8125l0.46875 0l0 1.359375q0.328125 -0.375 0.828125 -0.375q0.3125 0 0.53125 0.125q0.234375 0.125 0.328125 0.34375q0.109375 0.203125 0.109375 0.609375l0 1.75l-0.46875 0l0 -1.75q0 -0.359375 -0.15625 -0.515625q-0.15625 -0.15625 -0.4375 -0.15625q-0.203125 0 -0.390625 0.109375q-0.1875 0.109375 -0.265625 0.296875q-0.078125 0.171875 -0.078125 0.5l0 1.515625l-0.46875 0zm4.775757 0l0 -0.40625q-0.3125 0.46875 -0.875 0.46875q-0.234375 0 -0.453125 -0.09375q-0.21875 -0.09375 -0.328125 -0.234375q-0.09375 -0.140625 -0.125 -0.34375q-0.03125 -0.140625 -0.03125 -0.4375l0 -1.71875l0.46875 0l0 1.53125q0 0.375 0.03125 0.5q0.03125 0.1875 0.171875 0.296875q0.15625 0.09375 0.359375 0.09375q0.21875 0 0.390625 -0.109375q0.1875 -0.109375 0.265625 -0.28125q0.078125 -0.1875 0.078125 -0.546875l0 -1.484375l0.46875 0l0 2.765625l-0.421875 0zm2.1820068 -0.421875l0.0625 0.421875q-0.1875 0.03125 -0.34375 0.03125q-0.265625 0 -0.40625 -0.078125q-0.140625 -0.078125 -0.203125 -0.203125q-0.046875 -0.140625 -0.046875 -0.5625l0 -1.59375l-0.34375 0l0 -0.359375l0.34375 0l0 -0.6875l0.46875 -0.28125l0 0.96875l0.46875 0l0 0.359375l-0.46875 0l0 1.625q0 0.203125 0.015625 0.265625q0.03125 0.046875 0.078125 0.078125q0.0625 0.03125 0.171875 0.03125q0.078125 0 0.203125 -0.015625zm2.2459717 0.421875l0 -0.34375q-0.265625 0.40625 -0.765625 0.40625q-0.328125 0 -0.609375 -0.171875q-0.28125 -0.1875 -0.4375 -0.515625q-0.140625 -0.328125 -0.140625 -0.75q0 -0.421875 0.125 -0.75q0.140625 -0.34375 0.421875 -0.515625q0.28125 -0.1875 0.609375 -0.1875q0.25 0 0.4375 0.109375q0.203125 0.109375 0.328125 0.265625l0 -1.359375l0.46875 0l0 3.8125l-0.4375 0zm-1.484375 -1.375q0 0.53125 0.21875 0.796875q0.234375 0.25 0.546875 0.25q0.296875 0 0.515625 -0.25q0.21875 -0.25 0.21875 -0.765625q0 -0.5625 -0.21875 -0.828125q-0.21875 -0.265625 -0.546875 -0.265625q-0.3125 0 -0.53125 0.265625q-0.203125 0.25 -0.203125 0.796875zm2.4788818 0q0 -0.78125 0.4375 -1.140625q0.34375 -0.3125 0.859375 -0.3125q0.578125 0 0.9375 0.375q0.359375 0.375 0.359375 1.03125q0 0.53125 -0.15625 0.84375q-0.15625 0.296875 -0.46875 0.46875q-0.3125 0.171875 -0.671875 0.171875q-0.578125 0 -0.9375 -0.375q-0.359375 -0.375 -0.359375 -1.0625zm0.484375 0q0 0.53125 0.234375 0.796875q0.234375 0.25 0.578125 0.25q0.359375 0 0.578125 -0.265625q0.234375 -0.265625 0.234375 -0.796875q0 -0.515625 -0.234375 -0.78125q-0.234375 -0.265625 -0.578125 -0.265625q-0.34375 0 -0.578125 0.265625q-0.234375 0.265625 -0.234375 0.796875zm3.1663818 1.375l-0.84375 -2.765625l0.484375 0l0.4375 1.59375l0.171875 0.59375q0 -0.046875 0.140625 -0.5625l0.4375 -1.625l0.484375 0l0.40625 1.609375l0.140625 0.53125l0.15625 -0.546875l0.46875 -1.59375l0.46875 0l-0.875 2.765625l-0.484375 0l-0.4375 -1.65625l-0.109375 -0.46875l-0.5625 2.125l-0.484375 0zm3.3321838 0l0 -2.765625l0.421875 0l0 0.390625q0.3125 -0.453125 0.890625 -0.453125q0.25 0 0.453125 0.09375q0.21875 0.09375 0.3125 0.234375q0.109375 0.140625 0.15625 0.34375q0.015625 0.125 0.015625 0.453125l0 1.703125l-0.46875 0l0 -1.6875q0 -0.28125 -0.0625 -0.421875q-0.046875 -0.140625 -0.1875 -0.21875q-0.140625 -0.09375 -0.328125 -0.09375q-0.296875 0 -0.515625 0.1875q-0.21875 0.1875 -0.21875 0.71875l0 1.515625l-0.46875 0z"
              fill-rule="nonzero"/>
        <path fill="#000000" fill-opacity="0.0" d="m298.45 151.87843l64.97638 0l0 32.314972l-64.97638 0z"
              fill-rule="evenodd"/>
        <path fill="#000000"
              d="m307.79376 165.99844l0 -3.8125l0.46875 0l0 1.359375q0.328125 -0.375 0.828125 -0.375q0.3125 0 0.53125 0.125q0.234375 0.125 0.328125 0.34375q0.109375 0.203125 0.109375 0.609375l0 1.75l-0.46875 0l0 -1.75q0 -0.359375 -0.15625 -0.515625q-0.15625 -0.15625 -0.4375 -0.15625q-0.203125 0 -0.390625 0.109375q-0.1875 0.109375 -0.265625 0.296875q-0.078125 0.171875 -0.078125 0.5l0 1.515625l-0.46875 0zm3.9945068 -0.421875l0.0625 0.421875q-0.1875 0.03125 -0.34375 0.03125q-0.265625 0 -0.40625 -0.078125q-0.140625 -0.078125 -0.203125 -0.203125q-0.046875 -0.140625 -0.046875 -0.5625l0 -1.59375l-0.34375 0l0 -0.359375l0.34375 0l0 -0.6875l0.46875 -0.28125l0 0.96875l0.46875 0l0 0.359375l-0.46875 0l0 1.625q0 0.203125 0.015625 0.265625q0.03125 0.046875 0.078125 0.078125q0.0625 0.03125 0.171875 0.03125q0.078125 0 0.203125 -0.015625zm1.4803162 0l0.0625 0.421875q-0.1875 0.03125 -0.34375 0.03125q-0.265625 0 -0.40625 -0.078125q-0.140625 -0.078125 -0.203125 -0.203125q-0.046875 -0.140625 -0.046875 -0.5625l0 -1.59375l-0.34375 0l0 -0.359375l0.34375 0l0 -0.6875l0.46875 -0.28125l0 0.96875l0.46875 0l0 0.359375l-0.46875 0l0 1.625q0 0.203125 0.015625 0.265625q0.03125 0.046875 0.078125 0.078125q0.0625 0.03125 0.171875 0.03125q0.078125 0 0.203125 -0.015625zm0.44909668 1.484375l0 -3.828125l0.4375 0l0 0.359375q0.140625 -0.203125 0.328125 -0.3125q0.203125 -0.109375 0.46875 -0.109375q0.359375 0 0.625 0.1875q0.265625 0.171875 0.40625 0.515625q0.140625 0.328125 0.140625 0.71875q0 0.421875 -0.15625 0.765625q-0.140625 0.34375 -0.4375 0.53125q-0.296875 0.171875 -0.609375 0.171875q-0.234375 0 -0.421875 -0.09375q-0.1875 -0.109375 -0.3125 -0.25l0 1.34375l-0.46875 0zm0.4375 -2.421875q0 0.53125 0.203125 0.78125q0.21875 0.25 0.53125 0.25q0.3125 0 0.53125 -0.25q0.21875 -0.265625 0.21875 -0.828125q0 -0.53125 -0.21875 -0.78125q-0.203125 -0.265625 -0.515625 -0.265625q-0.296875 0 -0.53125 0.28125q-0.21875 0.265625 -0.21875 0.8125zm4.006073 1.359375l0 -3.8125l0.46875 0l0 3.8125l-0.46875 0zm1.1993713 -3.28125l0 -0.53125l0.46875 0l0 0.53125l-0.46875 0zm0 3.28125l0 -2.765625l0.46875 0l0 2.765625l-0.46875 0zm1.2931213 0l0 -2.40625l-0.421875 0l0 -0.359375l0.421875 0l0 -0.296875q0 -0.265625 0.046875 -0.40625q0.0625 -0.1875 0.234375 -0.296875q0.171875 -0.109375 0.484375 -0.109375q0.1875 0 0.4375 0.046875l-0.078125 0.40625q-0.140625 -0.03125 -0.28125 -0.03125q-0.203125 0 -0.296875 0.09375q-0.09375 0.09375 -0.09375 0.34375l0 0.25l0.546875 0l0 0.359375l-0.546875 0l0 2.40625l-0.453125 0zm3.2615967 -0.890625l0.46875 0.0625q-0.109375 0.421875 -0.421875 0.65625q-0.296875 0.234375 -0.78125 0.234375q-0.609375 0 -0.96875 -0.375q-0.359375 -0.375 -0.359375 -1.046875q0 -0.703125 0.359375 -1.078125q0.359375 -0.390625 0.9375 -0.390625q0.5625 0 0.90625 0.375q0.34375 0.375 0.34375 1.0625q0 0.046875 0 0.125l-2.0625 0q0.03125 0.453125 0.265625 0.703125q0.234375 0.234375 0.578125 0.234375q0.25 0 0.4375 -0.125q0.1875 -0.140625 0.296875 -0.4375zm-1.546875 -0.75l1.546875 0q-0.03125 -0.359375 -0.171875 -0.53125q-0.234375 -0.265625 -0.59375 -0.265625q-0.3125 0 -0.53125 0.21875q-0.21875 0.203125 -0.25 0.578125zm4.416382 0.625l0.453125 0.0625q-0.0625 0.484375 -0.375 0.75q-0.3125 0.265625 -0.765625 0.265625q-0.578125 0 -0.921875 -0.359375q-0.34375 -0.375 -0.34375 -1.078125q0 -0.4375 0.140625 -0.765625q0.15625 -0.34375 0.453125 -0.515625q0.3125 -0.171875 0.671875 -0.171875q0.453125 0 0.734375 0.234375q0.28125 0.21875 0.375 0.640625l-0.46875 0.078125q-0.0625 -0.28125 -0.234375 -0.421875q-0.15625 -0.140625 -0.390625 -0.140625q-0.359375 0 -0.578125 0.25q-0.21875 0.25 -0.21875 0.796875q0 0.5625 0.203125 0.8125q0.21875 0.25 0.5625 0.25q0.28125 0 0.46875 -0.15625q0.1875 -0.171875 0.234375 -0.53125zm0.8359375 2.078125l-0.046875 -0.4375q0.15625 0.046875 0.265625 0.046875q0.15625 0 0.25 -0.0625q0.09375 -0.046875 0.15625 -0.140625q0.046875 -0.078125 0.140625 -0.34375q0.015625 -0.046875 0.046875 -0.125l-1.0625 -2.765625l0.515625 0l0.578125 1.609375q0.109375 0.296875 0.1875 0.640625q0.09375 -0.328125 0.203125 -0.640625l0.59375 -1.609375l0.46875 0l-1.0625 2.8125q-0.171875 0.453125 -0.265625 0.625q-0.125 0.234375 -0.28125 0.34375q-0.15625 0.109375 -0.390625 0.109375q-0.125 0 -0.296875 -0.0625zm4.4921875 -2.078125l0.453125 0.0625q-0.0625 0.484375 -0.375 0.75q-0.3125 0.265625 -0.765625 0.265625q-0.578125 0 -0.921875 -0.359375q-0.34375 -0.375 -0.34375 -1.078125q0 -0.4375 0.140625 -0.765625q0.15625 -0.34375 0.453125 -0.515625q0.3125 -0.171875 0.671875 -0.171875q0.453125 0 0.734375 0.234375q0.28125 0.21875 0.375 0.640625l-0.46875 0.078125q-0.0625 -0.28125 -0.234375 -0.421875q-0.15625 -0.140625 -0.390625 -0.140625q-0.359375 0 -0.578125 0.25q-0.21875 0.25 -0.21875 0.796875q0 0.5625 0.203125 0.8125q0.21875 0.25 0.5625 0.25q0.28125 0 0.46875 -0.15625q0.1875 -0.171875 0.234375 -0.53125zm0.8515625 1.015625l0 -3.8125l0.46875 0l0 3.8125l-0.46875 0zm3.0899963 -0.890625l0.46875 0.0625q-0.109375 0.421875 -0.421875 0.65625q-0.296875 0.234375 -0.78125 0.234375q-0.609375 0 -0.96875 -0.375q-0.359375 -0.375 -0.359375 -1.046875q0 -0.703125 0.359375 -1.078125q0.359375 -0.390625 0.9375 -0.390625q0.5625 0 0.90625 0.375q0.34375 0.375 0.34375 1.0625q0 0.046875 0 0.125l-2.0625 0q0.03125 0.453125 0.265625 0.703125q0.234375 0.234375 0.578125 0.234375q0.25 0 0.4375 -0.125q0.1875 -0.140625 0.296875 -0.4375zm-1.546875 -0.75l1.546875 0q-0.03125 -0.359375 -0.171875 -0.53125q-0.234375 -0.265625 -0.59375 -0.265625q-0.3125 0 -0.53125 0.21875q-0.21875 0.203125 -0.25 0.578125z"
              fill-rule="nonzero"/>
        <path fill="#000000"
              d="m309.7 171.50781l0.46875 0.0625q-0.109375 0.421875 -0.421875 0.65625q-0.296875 0.234375 -0.78125 0.234375q-0.609375 0 -0.96875 -0.375q-0.359375 -0.375 -0.359375 -1.046875q0 -0.703125 0.359375 -1.078125q0.359375 -0.390625 0.9375 -0.390625q0.5625 0 0.90625 0.375q0.34375 0.375 0.34375 1.0625q0 0.046875 0 0.125l-2.0625 0q0.03125 0.453125 0.265625 0.703125q0.234375 0.234375 0.578125 0.234375q0.25 0 0.4375 -0.125q0.1875 -0.140625 0.296875 -0.4375zm-1.546875 -0.75l1.546875 0q-0.03125 -0.359375 -0.171875 -0.53125q-0.234375 -0.265625 -0.59375 -0.265625q-0.3125 0 -0.53125 0.21875q-0.21875 0.203125 -0.25 0.578125zm2.6038818 1.640625l0 -2.765625l0.421875 0l0 0.421875q0.15625 -0.296875 0.296875 -0.390625q0.140625 -0.09375 0.296875 -0.09375q0.25 0 0.484375 0.15625l-0.15625 0.4375q-0.171875 -0.109375 -0.34375 -0.109375q-0.15625 0 -0.28125 0.09375q-0.125 0.09375 -0.171875 0.25q-0.078125 0.25 -0.078125 0.546875l0 1.453125l-0.46875 0zm1.774292 0l0 -2.765625l0.421875 0l0 0.421875q0.15625 -0.296875 0.296875 -0.390625q0.140625 -0.09375 0.296875 -0.09375q0.25 0 0.484375 0.15625l-0.15625 0.4375q-0.171875 -0.109375 -0.34375 -0.109375q-0.15625 0 -0.28125 0.09375q-0.125 0.09375 -0.171875 0.25q-0.078125 0.25 -0.078125 0.546875l0 1.453125l-0.46875 0zm1.6024475 -1.375q0 -0.78125 0.4375 -1.140625q0.34375 -0.3125 0.859375 -0.3125q0.578125 0 0.9375 0.375q0.359375 0.375 0.359375 1.03125q0 0.53125 -0.15625 0.84375q-0.15625 0.296875 -0.46875 0.46875q-0.3125 0.171875 -0.671875 0.171875q-0.578125 0 -0.9375 -0.375q-0.359375 -0.375 -0.359375 -1.0625zm0.484375 0q0 0.53125 0.234375 0.796875q0.234375 0.25 0.578125 0.25q0.359375 0 0.578125 -0.265625q0.234375 -0.265625 0.234375 -0.796875q0 -0.515625 -0.234375 -0.78125q-0.234375 -0.265625 -0.578125 -0.265625q-0.34375 0 -0.578125 0.265625q-0.234375 0.265625 -0.234375 0.796875zm2.6507568 1.375l0 -2.765625l0.421875 0l0 0.421875q0.15625 -0.296875 0.296875 -0.390625q0.140625 -0.09375 0.296875 -0.09375q0.25 0 0.484375 0.15625l-0.15625 0.4375q-0.171875 -0.109375 -0.34375 -0.109375q-0.15625 0 -0.28125 0.09375q-0.125 0.09375 -0.171875 0.25q-0.078125 0.25 -0.078125 0.546875l0 1.453125l-0.46875 0z"
              fill-rule="nonzero"/>
        <path fill="#000000" fill-opacity="0.0" d="m275.87653 104.34312l-16.251953 0l0 94.173225" fill-rule="evenodd"/>
        <path stroke="#000000" stroke-width="1.0" stroke-linejoin="round" stroke-linecap="butt"
              d="m275.87653 104.34312l-16.251953 0l0 94.173225" fill-rule="evenodd"/>
        <path fill="#000000" fill-opacity="0.0" d="m266.97903 110.155014l0 64.97638l-25.858261 0l0 -64.97638z"
              fill-rule="evenodd"/>
        <path fill="#000000"
              d="m254.07779 119.38939l0.046875 0.484375q-0.28125 0.03125 -0.46875 0.15625q-0.1875 0.125 -0.296875 0.375q-0.109375 0.265625 -0.109375 0.59375q0 0.28125 0.078125 0.5q0.09375 0.234375 0.234375 0.328125q0.15625 0.109375 0.328125 0.109375q0.1875 0 0.3125 -0.109375q0.140625 -0.09375 0.234375 -0.328125q0.0625 -0.15625 0.1875 -0.6875q0.125 -0.515625 0.234375 -0.734375q0.140625 -0.265625 0.34375 -0.40625q0.21875 -0.125 0.484375 -0.125q0.28125 0 0.53125 0.15625q0.265625 0.171875 0.390625 0.484375q0.125 0.3125 0.125 0.703125q0 0.421875 -0.140625 0.734375q-0.125 0.328125 -0.390625 0.5q-0.265625 0.171875 -0.609375 0.1875l-0.03125 -0.484375q0.359375 -0.03125 0.546875 -0.265625q0.1875 -0.21875 0.1875 -0.65625q0 -0.453125 -0.171875 -0.671875q-0.171875 -0.203125 -0.40625 -0.203125q-0.203125 0 -0.328125 0.140625q-0.140625 0.15625 -0.28125 0.765625q-0.140625 0.609375 -0.234375 0.84375q-0.15625 0.328125 -0.390625 0.484375q-0.234375 0.171875 -0.546875 0.171875q-0.3125 0 -0.578125 -0.1875q-0.265625 -0.171875 -0.421875 -0.5q-0.140625 -0.3125 -0.140625 -0.734375q0 -0.515625 0.140625 -0.875q0.15625 -0.34375 0.453125 -0.546875q0.3125 -0.1875 0.6875 -0.203125zm-1.21875 3.6631927l3.8125 0l0 0.46875l-1.359375 0q0.375 0.328125 0.375 0.828125q0 0.3125 -0.125 0.53125q-0.125 0.234375 -0.34375 0.328125q-0.203125 0.109375 -0.609375 0.109375l-1.75 0l0 -0.46875l1.75 0q0.359375 0 0.515625 -0.15625q0.15625 -0.15625 0.15625 -0.4375q0 -0.203125 -0.109375 -0.390625q-0.109375 -0.1875 -0.296875 -0.265625q-0.171875 -0.078125 -0.5 -0.078125l-1.515625 0l0 -0.46875zm0 4.775757l0.40625 0q-0.46875 -0.3125 -0.46875 -0.875q0 -0.234375 0.09375 -0.453125q0.09375 -0.21875 0.234375 -0.328125q0.140625 -0.09375 0.34375 -0.125q0.140625 -0.03125 0.4375 -0.03125l1.71875 0l0 0.46875l-1.53125 0q-0.375 0 -0.5 0.03125q-0.1875 0.03125 -0.296875 0.171875q-0.09375 0.15625 -0.09375 0.359375q0 0.21875 0.109375 0.390625q0.109375 0.1875 0.28125 0.265625q0.1875 0.078125 0.546875 0.078125l1.484375 0l0 0.46875l-2.765625 0l0 -0.421875zm0.421875 2.1820068l-0.421875 0.0625q-0.03125 -0.1875 -0.03125 -0.34375q0 -0.265625 0.078125 -0.40625q0.078125 -0.140625 0.203125 -0.203125q0.140625 -0.046875 0.5625 -0.046875l1.59375 0l0 -0.34375l0.359375 0l0 0.34375l0.6875 0l0.28125 0.46875l-0.96875 0l0 0.46875l-0.359375 0l0 -0.46875l-1.625 0q-0.203125 0 -0.265625 0.015625q-0.046875 0.03125 -0.078125 0.078125q-0.03125 0.0625 -0.03125 0.171875q0 0.078125 0.015625 0.203125zm-0.421875 2.2459564l0.34375 0q-0.40625 -0.265625 -0.40625 -0.765625q0 -0.328125 0.171875 -0.609375q0.1875 -0.28125 0.515625 -0.4375q0.328125 -0.140625 0.75 -0.140625q0.421875 0 0.75 0.125q0.34375 0.140625 0.515625 0.421875q0.1875 0.28125 0.1875 0.609375q0 0.25 -0.109375 0.4375q-0.109375 0.203125 -0.265625 0.328125l1.359375 0l0 0.46875l-3.8125 0l0 -0.4375zm1.375 -1.484375q-0.53125 0 -0.796875 0.21875q-0.25 0.234375 -0.25 0.546875q0 0.296875 0.25 0.515625q0.25 0.21875 0.765625 0.21875q0.5625 0 0.828125 -0.21875q0.265625 -0.21875 0.265625 -0.546875q0 -0.3125 -0.265625 -0.53125q-0.25 -0.203125 -0.796875 -0.203125zm0 2.4788818q0.78125 0 1.140625 0.4375q0.3125 0.34375 0.3125 0.859375q0 0.578125 -0.375 0.9375q-0.375 0.359375 -1.03125 0.359375q-0.53125 0 -0.84375 -0.15625q-0.296875 -0.15625 -0.46875 -0.46875q-0.171875 -0.3125 -0.171875 -0.671875q0 -0.578125 0.375 -0.9375q0.375 -0.359375 1.0625 -0.359375zm0 0.484375q-0.53125 0 -0.796875 0.234375q-0.25 0.234375 -0.25 0.578125q0 0.359375 0.265625 0.578125q0.265625 0.234375 0.796875 0.234375q0.515625 0 0.78125 -0.234375q0.265625 -0.234375 0.265625 -0.578125q0 -0.34375 -0.265625 -0.578125q-0.265625 -0.234375 -0.796875 -0.234375zm-1.375 3.1663818l2.765625 -0.84375l0 0.484375l-1.59375 0.4375l-0.59375 0.171875q0.046875 0 0.5625 0.140625l1.625 0.4375l0 0.484375l-1.609375 0.40625l-0.53125 0.140625l0.546875 0.15625l1.59375 0.46875l0 0.46875l-2.765625 -0.875l0 -0.484375l1.65625 -0.4375l0.46875 -0.109375l-2.125 -0.5625l0 -0.484375zm0 3.3321838l2.765625 0l0 0.421875l-0.390625 0q0.453125 0.3125 0.453125 0.890625q0 0.25 -0.09375 0.453125q-0.09375 0.21875 -0.234375 0.3125q-0.140625 0.109375 -0.34375 0.15625q-0.125 0.015625 -0.453125 0.015625l-1.703125 0l0 -0.46875l1.6875 0q0.28125 0 0.421875 -0.0625q0.140625 -0.046875 0.21875 -0.1875q0.09375 -0.140625 0.09375 -0.328125q0 -0.296875 -0.1875 -0.515625q-0.1875 -0.21875 -0.71875 -0.21875l-1.515625 0l0 -0.46875z"
              fill-rule="nonzero"/>
    </g>
</svg>
